<?xml version="1.0" encoding="UTF-8" standalone="no"?>
<svg
   xmlns:dc="http://purl.org/dc/elements/1.1/"
   xmlns:cc="http://creativecommons.org/ns#"
   xmlns:rdf="http://www.w3.org/1999/02/22-rdf-syntax-ns#"
   xmlns:svg="http://www.w3.org/2000/svg"
   xmlns="http://www.w3.org/2000/svg"
   xmlns:sodipodi="http://sodipodi.sourceforge.net/DTD/sodipodi-0.dtd"
   xmlns:inkscape="http://www.inkscape.org/namespaces/inkscape"
   width="500pt"
   height="484pt"
   viewBox="0 0 500 484"
   version="1.1"
   id="svg3063"
   inkscape:version="0.48.2 r9819"
   sodipodi:docname="assat.svg">
  <metadata
     id="metadata3085">
    <rdf:RDF>
      <cc:Work
         rdf:about="">
        <dc:format>image/svg+xml</dc:format>
        <dc:type
           rdf:resource="http://purl.org/dc/dcmitype/StillImage" />
      </cc:Work>
    </rdf:RDF>
  </metadata>
  <sodipodi:namedview
     pagecolor="#ffffff"
     bordercolor="#666666"
     borderopacity="1"
     objecttolerance="10"
     gridtolerance="10"
     guidetolerance="10"
     inkscape:pageopacity="0"
     inkscape:pageshadow="2"
     inkscape:window-width="1286"
     inkscape:window-height="800"
     id="namedview3083"
     showgrid="false"
     inkscape:zoom="0.78016529"
     inkscape:cx="418.52968"
     inkscape:cy="240.44633"
     inkscape:window-x="0"
     inkscape:window-y="0"
     inkscape:window-maximized="0"
     inkscape:current-layer="svg3063" />
  <defs
     id="defs3065">
    <clipPath
       id="clip0">
      <rect
         width="500"
         height="484"
         id="rect3068" />
    </clipPath>
  </defs>
  <g
     id="surface0"
     clip-path="url(#clip0)">
    <path
       style="fill: none; stroke-width: 0.1; stroke-linecap: butt; stroke-linejoin: miter; stroke: rgb(100%,100%,100%); opacity: 1;stroke-miterlimit: 10;"
       d="M 0 0 L 500 0 L 500 484 L 0 484 L 0 0 Z M 0 0 "
       id="path3071"
       transform="matrix(1,0,0,1,0,0)" />
    <path
       style="fill: none; stroke-width: 0.1; stroke-linecap: butt; stroke-linejoin: miter; stroke: rgb(0%,0%,0%); opacity: 1;stroke-miterlimit: 10;"
       d="M 223.491577 19.656982 C 259.936523 16.964569 297.094421 22.201172 331.010605 35.964401 C 387.74411 58.382004 435.11116 104.005371 458.56694 160.433517 C 476.852158 203.534241 480.934982 252.477936 470.16246 298.031662 C 462.1315 332.968445 445.269531 365.755478 422.016251 392.996323 C 398.77388 420.281082 369.109131 442.027252 336.14769 456.091629 C 294.432251 473.929382 247.620758 479.452789 202.885544 471.951279 C 173.331543 467.052795 144.751617 456.42244 119.148987 440.872925 C 91.479904 424.155319 67.457016 401.508575 48.9599 375.009384 C 29.154251 346.535461 16.04509 313.427704 11.049866 279.102249 C 5.206314 238.106842 10.741913 195.469162 27.494263 157.554306 C 46.357117 114.149643 79.320709 77.223969 119.822144 52.85582 C 151.170883 33.918259 186.995804 22.553757 223.491577 19.656982 Z M 223.491577 19.656982 "
       id="path3075"
       transform="matrix(1,0,0,1,0,0)" />
    <path
       style="stroke: none; fill-rule: nonzero; fill: rgb(0%,0%,0%); opacity: 1;"
       d="M 223.491577 19.656982 C 259.936523 16.964569 297.094421 22.201172 331.010605 35.964401 C 387.74411 58.382004 435.11116 104.005371 458.56694 160.433517 C 476.852158 203.534241 480.934982 252.477936 470.16246 298.031662 C 462.1315 332.968445 445.269531 365.755478 422.016251 392.996323 C 398.77388 420.281082 369.109131 442.027252 336.14769 456.091629 C 294.432251 473.929382 247.620758 479.452789 202.885544 471.951279 C 173.331543 467.052795 144.751617 456.42244 119.148987 440.872925 C 91.479904 424.155319 67.457016 401.508575 48.9599 375.009384 C 29.154251 346.535461 16.04509 313.427704 11.049866 279.102249 C 5.206314 238.106842 10.741913 195.469162 27.494263 157.554306 C 46.357117 114.149643 79.320709 77.223969 119.822144 52.85582 C 151.170883 33.918259 186.995804 22.553757 223.491577 19.656982 Z M 223.491577 19.656982 "
       id="path3077" />
    <path
       style="fill: none; stroke-width: 0.1; stroke-linecap: butt; stroke-linejoin: miter; stroke: rgb(100%,100%,100%); opacity: 1;stroke-miterlimit: 10;"
       d="M 190.765686 56.552628 C 223.49028 48.133484 258.306992 47.833893 291.149704 55.821777 C 327.084824 64.451385 360.600296 83.110474 386.676956 109.322617 C 407.835678 130.256378 424.082062 156.12587 433.763672 184.2715 C 444.093948 214.174332 446.866821 246.655914 441.699585 277.873032 C 437.689117 302.275833 430.143143 326.309967 417.763062 347.804276 C 409.55162 361.969666 399.063431 375.071365 385.745819 384.747375 C 372.512344 394.457993 356.477585 400.810715 340.004349 401.459915 C 323.270645 399.824966 306.496567 394.991348 292.466385 385.498718 C 278.571686 376.024353 267.932724 360.963669 266.027451 344.016205 C 279.03598 353.881851 292.717117 363.187515 308.129471 368.898483 C 326.098312 375.81514 346.533752 377.48317 364.922073 371.169861 C 385.055161 364.523697 401.752487 349.723557 413.071487 332.04332 C 425.410995 313.24704 430.052063 290.13829 428.744202 267.895599 C 426.27562 231.752625 405.973694 198.321472 378.005188 175.965607 C 333.612381 138.399078 289.337967 100.685135 244.824188 63.26709 C 229.859497 75.075195 215.303009 87.430267 200.468887 99.417114 C 167.319962 126.621185 134.079926 153.71405 100.987656 180.986786 C 81.479904 198.108139 66.715942 220.89183 59.83934 245.977661 C 53.291702 269.774567 54.832642 295.824707 64.472961 318.571014 C 73.96756 339.522202 90.317154 357.844238 111.285019 367.734924 C 127.436768 375.486862 146.277496 377.08786 163.623489 372.805099 C 179.962051 369.171158 194.962585 361.128967 208.568924 351.569824 C 212.03804 349.088333 215.293228 346.304184 218.959396 344.105209 C 216.942566 358.971466 208.677917 372.690964 197.004684 382.009094 C 182.316574 393.875641 163.506363 399.538254 144.969604 401.477509 C 128.724289 400.852692 112.902939 394.698822 99.771179 385.23584 C 86.768692 375.925217 76.394455 363.369827 68.207352 349.722275 C 58.307053 333.091537 51.359726 314.812912 46.842224 296.023209 C 39.125076 265.325104 38.394073 232.792801 45.914688 201.981705 C 52.789444 173.44754 66.20166 146.525513 84.908295 123.905655 C 111.816803 90.927795 149.566483 67.107529 190.765686 56.552628 Z M 190.765686 56.552628 "
       id="path3079"
       transform="matrix(1,0,0,1,0,0)" />
    <path
       style="stroke: none; fill-rule: nonzero; fill: rgb(100%,100%,100%); opacity: 1;"
       d="M 190.765686 56.552628 C 223.49028 48.133484 258.306992 47.833893 291.149704 55.821777 C 327.084824 64.451385 360.600296 83.110474 386.676956 109.322617 C 407.835678 130.256378 424.082062 156.12587 433.763672 184.2715 C 444.093948 214.174332 446.866821 246.655914 441.699585 277.873032 C 437.689117 302.275833 430.143143 326.309967 417.763062 347.804276 C 409.55162 361.969666 399.063431 375.071365 385.745819 384.747375 C 372.512344 394.457993 356.477585 400.810715 340.004349 401.459915 C 323.270645 399.824966 306.496567 394.991348 292.466385 385.498718 C 278.571686 376.024353 267.932724 360.963669 266.027451 344.016205 C 279.03598 353.881851 292.717117 363.187515 308.129471 368.898483 C 326.098312 375.81514 346.533752 377.48317 364.922073 371.169861 C 385.055161 364.523697 401.752487 349.723557 413.071487 332.04332 C 425.410995 313.24704 430.052063 290.13829 428.744202 267.895599 C 426.27562 231.752625 405.973694 198.321472 378.005188 175.965607 C 333.612381 138.399078 289.337967 100.685135 244.824188 63.26709 C 229.859497 75.075195 215.303009 87.430267 200.468887 99.417114 C 167.319962 126.621185 134.079926 153.71405 100.987656 180.986786 C 81.479904 198.108139 66.715942 220.89183 59.83934 245.977661 C 53.291702 269.774567 54.832642 295.824707 64.472961 318.571014 C 73.96756 339.522202 90.317154 357.844238 111.285019 367.734924 C 127.436768 375.486862 146.277496 377.08786 163.623489 372.805099 C 179.962051 369.171158 194.962585 361.128967 208.568924 351.569824 C 212.03804 349.088333 215.293228 346.304184 218.959396 344.105209 C 216.942566 358.971466 208.677917 372.690964 197.004684 382.009094 C 182.316574 393.875641 163.506363 399.538254 144.969604 401.477509 C 128.724289 400.852692 112.902939 394.698822 99.771179 385.23584 C 86.768692 375.925217 76.394455 363.369827 68.207352 349.722275 C 58.307053 333.091537 51.359726 314.812912 46.842224 296.023209 C 39.125076 265.325104 38.394073 232.792801 45.914688 201.981705 C 52.789444 173.44754 66.20166 146.525513 84.908295 123.905655 C 111.816803 90.927795 149.566483 67.107529 190.765686 56.552628 Z M 190.765686 56.552628 "
       id="path3081" />
  </g>
</svg>
