<?xml version="1.0" encoding="UTF-8" standalone="no"?>
<!-- Created with Inkscape (http://www.inkscape.org/) -->
<svg
   xmlns:svg="http://www.w3.org/2000/svg"
   xmlns="http://www.w3.org/2000/svg"
   version="1.0"
   width="642.61102"
   height="729.40802"
   viewBox="0 0 642.611 729.408"
   id="Layer_1"
   xml:space="preserve"><defs
   id="defs38" />
<g
   id="g3">
	<path
   d="M 321.291,0 C 321.291,0 264.356,60.782 187.893,64.511 C 101.195,68.738 35.901,23.483 35.901,23.483 C -21.91,175.473 -7.169,339.49 60.519,466.591 C 162.717,658.487 321.248,729.407 321.248,729.407 C 321.248,729.407 479.893,658.519 582.091,466.615 C 649.78,339.52 664.522,175.503 606.709,23.513 C 606.709,23.513 541.414,68.767 454.719,64.54 C 378.254,60.812 321.291,0 321.291,0 L 321.291,0 z "
   style="fill:#1d208a"
   id="path5" />
	<path
   d="M 321.335,20.148 C 321.335,20.148 380.09,79.165 454.735,80.35 C 542.852,81.748 599.262,44.45 599.262,44.45 C 648.686,190.845 629.572,342.834 568.67,461.104 C 476.325,640.444 321.334,711.664 321.334,711.664 C 321.334,711.664 166.283,640.444 73.942,461.104 C 13.045,342.834 -6.071,190.844 43.346,44.45 C 43.346,44.45 99.764,81.748 187.882,80.35 C 262.525,79.165 321.335,20.148 321.335,20.148 L 321.335,20.148 z "
   style="fill:#f5ec14"
   id="path7" />
	<path
   d="M 320.445,690.215 C 320.445,690.215 272.911,665.021 236.523,635.206 C 186.172,593.946 157.03,555.248 157.03,555.248 C 157.03,555.248 253.634,548.001 407.165,444.98 C 550.294,348.939 608.804,249.635 608.804,249.635 C 608.804,249.635 604.127,385.027 516.261,514.92 C 435.836,633.804 320.445,690.215 320.445,690.215 L 320.445,690.215 z "
   style="fill:#1d208a"
   id="path9" />
	<path
   d="M 146.308,538.931 C 146.308,538.931 123.694,514.92 92.923,458.972 C 65.19,408.544 55.629,370.388 55.629,370.388 C 55.629,370.388 174.982,358.265 295.268,277.142 C 406.553,202.089 459.376,102.773 459.376,102.773 C 459.376,102.773 493.645,101.606 532.108,92.515 C 565.302,84.67 588.993,72.002 588.993,72.002 C 588.993,72.002 596.45,89.716 604.845,141.003 C 610.884,177.898 608.574,218.396 608.574,218.396 C 608.574,218.396 554.044,319.23 407.166,422.137 C 256.105,527.971 146.308,538.931 146.308,538.931 L 146.308,538.931 z "
   style="fill:#ffffff"
   id="path11" />
	<path
   d="M 321.145,43.795 C 321.145,43.795 331.632,56.384 370.797,76.663 C 404.125,93.921 442.13,99.741 442.13,99.741 C 442.13,99.741 376.394,201.146 274.986,267.582 C 167.084,338.28 50.5,352.205 50.5,352.205 C 50.5,352.205 33.015,297.655 33.015,210.937 C 33.015,136.724 53.995,70.369 53.995,70.369 C 53.995,70.369 117.599,104.883 185.472,99.742 C 277.785,92.748 321.145,43.795 321.145,43.795 L 321.145,43.795 z "
   style="fill:#1d208a"
   id="path13" />
	<path
   d="M 327.137,447.299 L 322.857,440.336 C 323.736,439.355 325.229,437.782 327.338,435.618 C 329.447,433.462 331.498,431.208 333.492,428.857 L 334.189,426.871 C 332.888,424.213 331.433,421.561 329.816,418.928 L 329.467,418.361 L 316.104,396.604 L 310.491,387.468 L 302.075,374.093 L 292.386,357.986 L 272.127,326.978 C 270.909,326.642 260.752,329.785 258.484,330.249 L 256.115,330.336 L 252.149,323.881 C 252.149,323.881 277.045,310.639 288.349,303.699 C 294.017,300.213 327.785,277.699 327.785,277.699 C 328.369,277.34 329.091,276.807 329.954,276.092 C 330.817,275.381 331.64,274.734 332.427,274.16 C 333.882,275.879 335.24,277.652 336.5,279.482 L 348.622,296.549 C 349.79,298.442 350.535,299.984 350.863,301.168 C 349.242,302.599 348.006,303.575 347.151,304.103 C 346.145,304.719 345.165,304.93 344.213,304.733 C 343.69,304.535 342.272,303.452 339.944,301.489 C 334.014,296.352 329.99,293.63 327.862,293.328 C 325.739,293.03 298.011,310.296 295.922,312.363 C 295.472,312.811 294.903,313.599 294.208,314.718 C 294.259,316.679 317.894,355.486 319.365,356.659 C 320.026,356.773 326.004,353.615 326.004,353.615 L 334.627,348.318 C 336.54,347.143 339.296,345.025 342.892,341.961 C 345.356,339.857 346.726,338.327 347.005,337.387 C 347.548,335.693 347.605,333.926 347.176,332.101 C 346.746,330.273 344.841,326.348 341.469,320.313 C 341.716,320.163 342.357,319.705 343.386,318.931 C 344.018,318.41 344.456,318.068 344.703,317.917 C 345.25,317.581 346.417,317.044 348.217,316.298 L 357.029,331.609 C 358.959,334.835 360.571,337.642 361.881,340.029 L 363.312,342.003 C 363.742,342.605 366.62,347.23 371.933,355.878 C 372.282,356.445 372.832,357.406 373.59,358.746 C 372.787,359.585 372.111,360.175 371.56,360.511 C 371.159,360.76 370.064,361.176 368.277,361.755 C 367.114,360.827 365.57,359.392 363.653,357.451 C 359.503,353.165 356.527,351.013 354.728,350.989 C 351.501,350.893 343.792,354.59 331.613,362.07 C 329.838,363.162 327.913,364.652 325.834,366.53 C 327.121,369.391 354.44,412.338 356.009,413.018 C 356.998,413.448 373.32,408.236 373.32,408.236 C 374.54,409.776 377.227,414.105 377.985,415.661 L 364.505,424.934 C 363.289,425.582 358.896,428.728 349.12,434.727 C 346.429,436.38 334.062,443.173 333.723,443.384 C 330.542,445.337 328.345,446.643 327.137,447.299 L 327.137,447.299 z "
   style="fill:#f5ec14"
   id="path15" />
	<path
   d="M 206.241,503.766 L 203.183,496.503 C 204.046,495.66 212.584,487.886 213.766,486.029 C 213.837,483.516 169.906,378.388 169.044,376.986 C 166.311,376.622 155.181,379.742 154.425,379.888 L 150.299,371.003 C 150.299,371.003 200.091,350.093 201.082,349.605 C 201.716,350.868 203.627,355.517 204.229,357.427 C 202.547,359.269 194.05,366.966 192.702,368.579 C 193.136,370.476 237.132,476.302 238.145,477.071 C 241.665,476.633 249.69,474.769 252.582,474.113 C 253.648,476.083 255.829,481.035 256.438,482.624 C 255.749,482.917 207.274,503.255 206.241,503.766 L 206.241,503.766 z "
   style="fill:#f5ec14"
   id="path17" />
	<path
   d="M 464.799,341.841 C 466.295,334.606 468.078,328.701 470.137,324.105 C 470.331,322.597 470.012,321.185 469.153,319.882 C 468.305,318.579 464.208,314.495 456.86,307.636 C 455.839,306.681 453.735,305.032 450.549,302.699 L 448.604,300.886 L 431.552,284.719 L 419.287,273.5 L 415.96,269.915 L 412.718,266.891 C 411.911,266.131 410.817,264.873 409.439,263.099 L 405.272,260.41 L 404.543,259.409 C 403.834,258.327 402.861,257.204 401.621,256.043 C 395.898,250.701 391.245,247.179 387.679,245.479 C 384.675,245.75 380.873,247.193 376.282,249.813 C 373.672,251.292 371.447,252.207 369.591,252.549 L 365.278,247.649 C 365.878,246.796 366.55,245.967 367.3,245.165 C 370.664,241.563 401.508,210.209 402.95,208.14 C 404.041,206.659 404.827,205.654 405.325,205.12 C 405.868,204.54 406.501,203.92 407.214,203.258 C 407.847,203.607 408.467,204.069 409.079,204.64 C 410.615,206.071 411.677,207.183 412.272,207.979 C 410.979,211.828 409.447,215.238 407.66,218.221 C 405.877,221.204 405.042,223.064 405.151,223.806 C 405.268,224.967 405.973,226.14 407.262,227.343 L 413.516,233.185 C 414.375,233.987 415.9,235.254 418.092,236.977 C 421.404,239.757 423.681,241.723 424.909,242.87 C 425.716,243.618 427.426,245.383 430.044,248.145 L 436.148,253.844 L 441.688,259.496 C 441.956,259.743 442.369,260.055 442.932,260.414 C 442.636,254.178 441.68,245.334 440.055,233.874 C 439.26,228.498 438.725,224.315 438.457,221.328 C 438.304,220.112 437.326,213.353 435.503,201.048 C 433.954,196.205 432.978,193.469 432.584,192.845 L 431.522,192.851 C 428.34,195.036 426.054,196.756 424.656,198.025 C 423.732,198.91 421.937,200.06 419.265,201.464 C 418.326,200.751 416.696,199.316 414.39,197.16 L 413.405,196.114 C 413.405,196.114 419.335,190.027 421.762,187.939 C 421.875,187.841 422.026,187.704 422.208,187.531 C 441.427,164.777 444.455,160.181 447.024,156.852 L 455.016,163.339 C 454.53,164.294 453.541,166.113 452.054,168.794 C 449.135,176.045 447.384,181.132 446.784,184.058 C 446.18,186.984 445.917,190.228 445.994,193.787 C 446.071,197.348 446.557,204.321 447.461,214.707 C 448.665,228.77 449.532,237.305 450.043,240.322 C 452.029,240.58 454.367,240.833 457.059,241.082 L 461.878,241.435 C 462.798,241.54 463.933,241.68 465.282,241.851 L 498.404,246.119 L 527.169,250.845 C 530.476,251.421 532.701,251.785 533.868,251.943 L 536.324,252.231 C 538.241,252.594 539.462,252.719 539.976,252.608 C 540.681,252.513 541.946,251.98 543.782,251.001 C 544.722,250.446 547.458,249.433 552.01,247.963 C 553.043,248.759 553.825,249.398 554.357,249.89 C 554.985,250.478 555.869,251.485 557.012,252.902 C 557.012,252.902 520.116,292.409 519.448,293.122 C 519.116,293.479 518.597,293.987 517.876,294.646 C 516.822,294.064 516.023,293.517 515.488,293.017 C 514.848,292.419 513.968,291.436 512.842,290.064 C 513.847,287.355 515.015,284.757 516.327,282.256 C 517.397,280.45 517.876,279.022 517.734,277.976 C 517.591,276.934 517.171,276.081 516.453,275.418 C 515.663,275.286 515.035,275.13 514.585,274.956 C 512.96,274.188 510.921,273.58 508.485,273.126 C 507.686,273.035 500.589,272.149 487.186,270.461 L 449.459,266.041 C 450.797,268.408 452.646,270.686 455.004,272.891 C 458.312,275.98 461.213,278.507 463.697,280.466 C 464.217,280.859 467.726,284 474.219,289.88 L 481.859,296.059 L 489.3,303.717 C 491.846,303.776 495.128,302.706 499.161,300.501 C 501.483,299.196 503.907,298.313 506.44,297.861 C 507.639,298.732 508.503,299.413 509.038,299.914 C 509.472,300.317 510.101,300.986 510.931,301.922 C 509.083,304.119 472.76,342.284 469.428,346.167 L 464.799,341.841 L 464.799,341.841 z "
   style="fill:#f5ec14"
   id="path19" />
	<path
   d="M 279.276,456.759 C 279.276,462.361 283.834,466.916 289.437,466.916 C 295.04,466.916 299.598,462.36 299.598,456.759 C 299.598,451.15 295.04,446.594 289.437,446.594 C 283.834,446.594 279.276,451.15 279.276,456.759 L 279.276,456.759 z "
   style="fill:#f5ec14"
   id="path21" />
	<path
   d="M 404.923,375.633 C 404.923,381.235 409.484,385.79 415.084,385.79 C 420.689,385.79 425.249,381.234 425.249,375.633 C 425.249,370.032 420.689,365.47 415.084,365.47 C 409.483,365.47 404.923,370.032 404.923,375.633 L 404.923,375.633 z "
   style="fill:#f5ec14"
   id="path23" />
	<path
   d="M 558.777,225.275 C 558.777,230.877 563.337,235.432 568.942,235.432 C 574.544,235.432 579.103,230.876 579.103,225.275 C 579.103,219.67 574.543,215.112 568.942,215.112 C 563.337,215.112 558.777,219.669 558.777,225.275 L 558.777,225.275 z "
   style="fill:#f5ec14"
   id="path25" />
	<path
   d="M 108.837,144.281 L 108.837,215.799 C 108.837,218.892 108.932,220.742 109.123,221.35 C 109.407,222.442 109.915,223.214 110.647,223.67 C 111.38,224.13 112.73,224.357 114.702,224.357 L 121.424,224.357 L 121.424,236.944 L 80.164,236.944 L 80.164,224.357 L 86.99,224.357 C 89.395,224.357 90.933,224.15 91.604,223.737 C 92.277,223.32 92.781,222.647 93.12,221.709 C 93.456,220.772 93.625,218.801 93.625,215.792 L 93.625,164.737 L 80.165,164.737 L 80.165,152.15 C 83.999,151.625 86.94,151.078 88.989,150.508 C 92.057,149.679 95.316,148.542 98.769,147.099 C 100.686,146.313 102.476,145.372 104.14,144.28 L 108.837,144.28 L 108.837,144.281 z "
   style="fill:#f5ec14"
   id="path27" />
	<path
   d="M 176.386,186.337 C 181.339,188.996 185.159,192.609 187.842,197.179 C 189.951,200.707 191.008,205.082 191.008,210.305 C 191.008,218.271 188.718,224.825 184.138,229.96 C 179.019,235.665 172.149,238.518 163.532,238.518 C 157.777,238.518 152.8,237.319 148.605,234.925 C 144.408,232.531 141.275,229.449 139.21,225.686 C 137.141,221.923 136.109,218.034 136.109,214.027 C 136.109,209.846 137.24,205.864 139.502,202.076 C 141.764,198.29 145.302,195.066 150.113,192.411 C 146.086,189.931 143.065,186.729 141.05,182.811 C 139.037,178.894 138.032,174.582 138.032,169.88 C 138.032,165.221 138.976,160.998 140.869,157.212 C 142.764,153.424 145.706,150.322 149.699,147.904 C 153.694,145.488 158.282,144.279 163.471,144.279 C 170.023,144.279 175.64,146.231 180.318,150.126 C 184.993,154.021 187.336,159.324 187.336,166.028 C 187.336,169.945 186.536,173.527 184.935,176.769 C 183.333,180.017 180.483,183.204 176.386,186.337 L 176.386,186.337 z M 159.361,198.515 C 156.307,200.702 154.058,203.053 152.612,205.567 C 151.165,208.08 150.444,210.498 150.444,212.814 C 150.444,214.65 150.936,216.478 151.923,218.292 C 152.906,220.106 154.4,221.569 156.402,222.686 C 158.404,223.801 160.757,224.358 163.462,224.358 C 166.131,224.358 168.482,223.843 170.519,222.816 C 172.549,221.788 173.998,220.522 174.855,219.014 C 175.712,217.506 176.144,215.875 176.144,214.126 C 176.144,211.941 175.603,210.124 174.525,208.683 C 172.964,206.584 170.279,204.486 166.465,202.387 L 159.361,198.515 L 159.361,198.515 z M 167.372,180.742 L 169.135,178.054 C 170.28,176.392 171.042,175.101 171.425,174.183 C 171.996,172.914 172.4,171.745 172.641,170.675 C 172.878,169.603 172.998,168.519 172.998,167.426 C 172.998,165.067 172.1,162.98 170.305,161.166 C 168.508,159.35 166.007,158.442 162.795,158.442 C 159.712,158.442 157.319,159.285 155.621,160.969 C 153.918,162.651 153.067,164.607 153.067,166.836 C 153.067,168.806 153.576,170.488 154.595,171.886 C 155.961,173.766 158.455,175.737 162.079,177.789 L 167.372,180.742 L 167.372,180.742 z "
   style="fill:#f5ec14"
   id="path29" />
	<path
   d="M 206.038,238.518 L 206.038,225.753 C 212.17,225.406 217.058,224.612 220.7,223.37 C 224.342,222.13 227.384,220.419 229.827,218.243 C 232.269,216.065 234.241,213.483 235.744,210.5 C 237.246,207.519 238.3,204.086 238.908,200.208 C 236.091,202.901 233.418,204.804 230.889,205.911 C 228.36,207.021 225.64,207.573 222.73,207.573 C 218.055,207.573 213.87,206.26 210.173,203.625 C 206.477,200.995 203.668,197.471 201.749,193.057 C 199.828,188.641 198.869,183.498 198.869,177.625 C 198.869,167.926 201.38,159.944 206.399,153.68 C 211.421,147.416 218.232,144.283 226.837,144.283 C 235.695,144.283 242.621,147.507 247.611,153.95 C 253.459,161.483 256.39,171.844 256.39,185.035 C 256.39,193.917 255.399,201.493 253.417,207.763 C 251.437,214.033 248.347,219.572 244.15,224.385 C 239.947,229.194 235.014,232.744 229.344,235.026 C 223.675,237.307 215.905,238.474 206.038,238.518 L 206.038,238.518 z M 227.089,192.71 C 229.418,192.71 231.472,192.011 233.26,190.609 C 235.048,189.211 236.433,187.176 237.425,184.505 C 238.412,181.834 238.908,178.794 238.908,175.38 C 238.908,170.393 237.814,166.321 235.629,163.17 C 233.444,160.019 230.692,158.444 227.377,158.444 C 223.995,158.444 221.196,160.018 218.977,163.17 C 216.76,166.321 215.654,170.458 215.654,175.577 C 215.654,180.743 216.732,184.89 218.882,188.017 C 221.036,191.148 223.77,192.71 227.089,192.71 L 227.089,192.71 z "
   style="fill:#f5ec14"
   id="path31" />
	<path
   d="M 270.943,143.057 L 277.246,143.057 L 277.914,145.856 L 322.476,145.856 L 322.476,158.457 C 318.232,164.074 314.814,169.366 312.214,174.327 C 309.614,179.288 307.208,185.09 304.991,191.729 C 302.774,198.368 301.124,204.593 300.042,210.403 C 298.958,216.215 297.985,225.061 297.124,236.945 L 279.992,236.945 C 280.756,226.182 282.045,217.216 283.858,210.049 C 285.672,202.879 288.588,195.126 292.599,186.778 C 296.609,178.435 300.845,171.322 305.303,165.437 L 283.571,165.437 C 280.799,165.437 278.983,165.656 278.124,166.094 C 277.263,166.532 276.576,167.227 276.069,168.183 C 275.561,169.141 274.987,171.3 274.351,174.656 L 273.348,179.949 L 264.257,177.014 L 270.943,143.057 L 270.943,143.057 z "
   style="fill:#f5ec14"
   id="path33" />
	<polygon
   points="335.15,589.27 368.624,574.727 335.15,560.185 320.336,526.09 305.524,560.185 272.048,574.727 305.524,589.27 320.336,623.372 335.15,589.27 "
   style="fill:#f0dd16"
   id="polygon35" />
</g>
</svg>