<?xml version="1.0" encoding="UTF-8" standalone="no"?>
<!-- Created with Inkscape (http://www.inkscape.org/) -->
<svg
   xmlns:svg="http://www.w3.org/2000/svg"
   xmlns="http://www.w3.org/2000/svg"
   version="1.0"
   width="250"
   height="255.1"
   id="svg20808">
  <defs
     id="defs20810" />
  <path
     d="M -0.00469853,127.546 C -0.00469853,57.1063 55.9584,-0.00434468 124.995,-0.00434468 C 194.032,-0.00434468 249.995,57.1063 249.995,127.546 C 249.995,197.995 194.032,255.096 124.995,255.096 C 55.9584,255.096 -0.00469853,197.995 -0.00469853,127.546"
     id="path10372"
     style="fill:#000000;fill-opacity:1;fill-rule:nonzero;stroke:none" />
  <path
     d="M 63.0985,39.1188 C 81.0761,24.8976 103.624,16.4237 128.124,16.4237 C 186.765,16.4237 234.293,64.9427 234.293,124.75 C 234.293,162.02 215.698,193.66 187.628,213.148 C 212.667,193.336 228.948,163.579 228.948,128.732 C 228.948,68.8952 181.41,20.3958 122.779,20.3958 C 100.643,20.3958 80.0954,27.3005 63.0985,39.1188"
     id="path10382"
     style="fill:#a2a09f;fill-opacity:1;fill-rule:nonzero;stroke:none" />
  <path
     d="M 186.127,214.825 C 168.169,229.056 145.601,237.52 121.092,237.52 C 62.461,237.52 14.9325,189.021 14.9325,129.184 C 14.9325,91.9239 33.5281,60.2938 61.5979,40.7862 C 36.5587,60.6077 20.2876,90.3743 20.2876,125.211 C 20.2876,185.049 67.816,233.548 126.447,233.548 C 148.583,233.548 169.111,226.643 186.127,214.825"
     id="path10388"
     style="fill:#a2a09f;fill-opacity:1;fill-rule:nonzero;stroke:none" />
  <path
     d="M 26.4272,127.546 C 26.4272,71.9945 70.5426,26.9768 124.986,26.9768 C 179.419,26.9768 223.554,71.9945 223.554,127.546 C 223.554,183.097 179.419,228.124 124.986,228.124 C 70.5426,228.124 26.4272,183.097 26.4272,127.546"
     id="path10394"
     style="fill:#c4612b;fill-opacity:1;fill-rule:evenodd;stroke:none" />
  <path
     d="M 18.532,127.546 C 18.532,67.5516 66.1977,18.905 124.995,18.905 C 183.793,18.905 231.449,67.5516 231.449,127.546 C 231.449,187.55 183.793,236.177 124.995,236.177 C 66.1977,236.177 18.532,187.55 18.532,127.546 M 24.5736,127.546 C 24.5736,184.137 69.5324,230.017 124.995,230.017 C 180.448,230.017 225.407,184.137 225.407,127.546 C 225.407,70.9549 180.448,25.0839 124.995,25.0839 C 69.5324,25.0839 24.5736,70.9549 24.5736,127.546"
     id="path10400"
     style="fill:#ffffff;fill-opacity:1;fill-rule:nonzero;stroke:none" />
  <path
     d="M 197.936,71.2491 C 203.948,80.3311 209.989,104.301 198.966,119.297 C 195.425,124.113 188.599,128.389 187.677,129.556 C 187.677,129.556 239.04,160.696 167.855,204.547 L 160.127,182.763 C 160.127,182.763 184.725,172.171 184.725,155.488 C 184.725,140.06 165.315,137.285 165.315,137.285 L 165.315,155.243 L 143.581,155.243 L 143.581,111.51 C 143.581,111.51 151.172,111.745 155.811,110.529 C 159.705,109.509 165.315,106.498 165.315,106.498 L 165.315,121.955 C 165.315,121.955 196.111,117.777 183.106,88.4421 L 197.936,71.2491 z M 147.72,57.528 C 163.579,57.528 171.651,67.071 172.592,80.3311 C 173.573,94.5426 163.04,105.772 147.72,106.626 C 146.975,106.675 128.055,106.626 128.055,106.626 L 128.055,155.223 L 108.381,155.223 L 108.381,57.5084 L 147.72,57.528 z M 129.889,87.0985 L 137.343,87.0985 L 144.778,87.0985 C 148.073,87.0985 150.594,84.5386 150.594,81.2923 C 150.603,78.0459 149.25,75.4664 144.778,75.4664 L 137.343,75.4664 L 129.889,75.4664 L 129.889,81.2923 L 129.889,87.0985 z M 87.9023,182.979 C 82.6748,180.341 59.6756,161.579 59.9306,129.841 L 76.7999,129.88 L 76.7999,155.233 L 99.0636,155.233 L 99.0636,88.6873 L 76.7999,88.6873 L 76.7999,107.705 L 60.2346,107.705 C 60.3327,107.234 60.4602,106.802 60.6269,106.224 C 62.6473,98.9757 65.06,94.3562 68.5124,88.6873 L 55.9879,70.7685 C 55.9879,70.7685 37.8631,92.1004 37.7944,123.485 C 37.6571,182.283 77.1138,202.791 82.3021,204.654 L 87.9023,182.979 z"
     id="path10406"
     style="fill:#000000;fill-opacity:1;fill-rule:evenodd;stroke:none" />
  <path
     d="M 107.031,55.875 L 107.031,156.312 L 129.375,156.312 L 129.375,107.531 C 133.71,107.541 147.153,107.56 147.781,107.531 C 163.748,106.629 174.622,95.024 173.906,79.969 C 173.356,68.415 167.06,55.906 147.719,55.906 L 107.031,55.875 z M 109.719,58.594 L 147.719,58.625 C 162.989,58.625 170.72,69.15 171.25,80.125 C 171.897,93.542 162.299,103.873 147.656,104.688 C 146.901,104.727 126.687,104.687 126.688,104.688 L 126.688,153.594 L 109.719,153.594 L 109.719,58.594 z M 56.0938,68.281 C 43.7261,82.797 36.4375,104.307 36.4375,123.188 C 36.4375,156.956 49.8429,191.788 83.2188,206.156 L 89.4688,181.969 C 72.6484,173.485 61.4756,148.099 61.25,130.906 L 75.4375,130.969 L 75.4375,156.312 L 100.375,156.312 L 100.375,87.031 L 75.4375,87.031 L 75.4375,106.062 L 61.9688,106.062 C 63.9597,98.992 66.3277,94.542 70.0938,88.344 L 56.0938,68.281 z M 198.062,68.75 L 181.531,87.938 C 189.465,105.808 181.976,116.738 166.656,120.062 L 166.656,103.969 C 156.878,109.206 153.627,110.283 142.25,109.969 L 142.25,156.344 L 166.656,156.344 L 166.656,138.656 C 171.04,139.656 183.375,143.538 183.375,155.219 C 183.375,167.783 167.912,177.639 158.438,181.719 L 167.125,206.312 C 182.612,196.779 212.849,175.987 205.719,149.938 C 202.492,138.168 190.125,128.969 190.125,128.969 C 193.666,126.233 196.824,124.022 200.031,119.844 C 212.055,104.142 206.928,82.167 198.062,68.75 z M 55.9062,72.75 L 66.9062,88.469 C 63.1009,94.814 60.065,101.493 58.5938,108.781 L 78.125,108.781 L 78.125,89.781 L 97.7188,89.781 L 97.7188,153.594 L 78.125,153.594 L 78.125,128.25 L 58.5938,128.188 L 58.5938,129.531 C 58.3486,160.318 79.4882,179.177 86.3438,183.375 L 81.4062,202.531 C 73.0305,198.598 38.9761,177.484 39.0938,123.188 C 39.1427,105.671 45.3923,86.755 55.9062,72.75 z M 127.219,72.75 L 127.219,89.812 L 144.781,89.812 C 149.832,89.812 153.375,86.068 153.375,81.281 C 153.395,76.505 151.019,72.75 144.781,72.75 L 127.219,72.75 z M 197.75,73.25 C 203.948,85.176 208.165,104.144 197.906,118.219 C 194.16,123.377 186.245,128.233 185.656,128.969 C 193.375,133.667 200.529,141.825 203.188,150.75 C 206.806,162.931 202.682,180.811 168.531,202.25 L 161.781,183.219 C 172.06,178.276 186.031,168.234 186.031,155.219 C 186.031,142.695 174.228,136.908 163.969,135.438 L 163.969,153.625 L 144.906,153.625 L 144.906,112.719 C 151.772,112.729 156.268,112.036 162.594,109.094 L 163.969,108.438 L 163.969,123.25 C 181.692,120.877 193.248,108.688 184.656,88.406 L 197.75,73.25 z M 129.906,75.469 L 137.344,75.469 L 144.781,75.469 C 149.263,75.469 150.594,78.035 150.594,81.281 C 150.594,84.528 148.076,87.094 144.781,87.094 L 137.344,87.094 L 129.906,87.094 L 129.906,81.281 L 129.906,75.469 z"
     id="path10424"
     style="fill:#ffffff;fill-opacity:1;fill-rule:nonzero;stroke:none" />
  <path
     d="M 58.1848,57.8027 C 72.5336,42.7379 91.7176,32.2534 113.667,29.1051 C 166.227,21.5629 214.835,58.9305 222.22,112.569 C 226.82,145.965 214.05,176.712 191.296,197.799 C 211.284,176.82 223.132,146.798 218.826,115.57 C 211.441,61.9317 162.844,24.5641 110.293,32.1063 C 90.4524,34.9505 71.9647,45.0231 58.1848,57.8027"
     id="path10442"
     style="fill:#d49c6b;fill-opacity:1;fill-rule:nonzero;stroke:none" />
  <path
     d="M 191.786,197.289 C 177.437,212.353 158.263,222.838 136.304,225.986 C 83.7438,233.528 35.1365,196.161 27.7513,142.522 C 23.1514,109.127 35.9212,78.3794 58.6752,57.2926 C 38.687,78.2715 26.849,108.293 31.1546,139.521 C 38.53,193.16 87.1275,230.527 139.687,222.985 C 159.519,220.141 178.006,210.068 191.786,197.289"
     id="path10448"
     style="fill:#713100;fill-opacity:1;fill-rule:nonzero;stroke:none" />
</svg>
