<?xml version="1.0" encoding="UTF-8" standalone="no"?>
<!-- Created with Inkscape (http://www.inkscape.org/) -->
<svg
   xmlns:svg="http://www.w3.org/2000/svg"
   xmlns="http://www.w3.org/2000/svg"
   version="1.0"
   width="500"
   height="487.23199"
   viewBox="0 0 500 487.232"
   id="Layer_1"
   xml:space="preserve"><defs
   id="defs268" />
<path
   d="M 481.439,76.853 C 458.805,80.903 443.74,63.21 421.997,72.779 C 409.752,84.084 413.488,100.656 408.451,115.48 C 408.475,124.543 394.952,132.317 402.136,140.862 C 421.709,161.194 427.831,191.409 455.371,204.86 C 441.643,210.717 434.882,212.067 429.483,210.717 C 440.981,220.853 451.129,256.009 464.603,264.446 C 459.252,267.929 445.693,266.591 439.619,268.17 C 449.767,278.318 454.19,295.083 456.998,307.99 C 459.517,320.946 459.866,329.407 450.43,339.181 C 446.392,338.964 446.236,331.263 441.644,332.419 C 441.282,345.701 423.409,374.337 424.747,391.246 C 416.648,382.46 412.177,382.207 412.177,382.207 C 409.441,396.2 405.343,409.662 399.884,422.595 C 395.593,424.981 390.953,421.402 386.217,421.63 C 381.468,436.708 384.855,445.325 388.241,460.872 C 359.846,462.897 346.324,448.037 338.2,434.514 C 315.229,446.687 314.554,466.285 317.242,487.231 C 301.032,483.181 291.088,480.494 284.568,472.082 C 279.554,463.79 277.36,454.353 278.276,443.65 C 271.515,444.193 264.404,447.688 258.233,451.05 C 254.497,453.81 253.484,457.486 253.147,461.535 C 253.268,469.116 258.257,475.238 259.462,481.578 C 235.273,483.76 212.169,476.444 196.67,457.39 C 185.533,453.943 174.204,448.037 167.093,437.081 C 164.429,451.424 134.769,481.662 106.301,477.781 C 119.209,454.605 120.788,440.853 121.415,423.004 C 102.227,426.391 100.203,451.424 60.322,457.485 C 68.445,421.654 52.885,379.736 67.083,362.827 C 56.935,355.403 28.696,378.833 14.68,381.762 C 14.114,364.612 18.042,349.606 24.406,334.492 C 29.89,323.838 42.701,314.426 35.567,300.481 C 31.963,288.091 17.886,279.161 8.413,270.398 C 12.137,267.602 24.033,267.132 19.814,258.551 C 15.222,250.646 6.604,244.452 0,237.545 C 14.68,232.013 14.68,230.808 23.49,218.611 C 34.458,179.658 43.437,173.861 68.566,156.506 C 52.741,133.378 63.383,88.881 57.634,77.479 C 45.015,59.449 21.598,66.066 6.508,52.941 C 8.316,48.59 4.857,44.444 5.026,39.467 C 10.835,37.587 8.931,30.054 14.583,27.511 C 13.004,22.401 19.742,22.015 18.85,17.026 C 21.273,15.495 24.78,15.026 25.937,11.771 C 24.924,7.987 25.117,4.335 27.636,1.322 C 30.432,-1.703 33.855,1.346 36.844,1.84 C 47.679,11.12 51.982,23.884 65.179,29.886 C 86.065,24.776 111.195,23.269 130.177,33.345 C 149.497,40.034 164.562,57.751 185.81,59.558 C 199.043,58.1 212.988,58.546 225.474,60.884 C 240.828,58.317 256.087,56.292 272.08,58.052 C 302.958,52.918 324.254,25.487 355.819,22.233 C 374.801,16.231 393.446,22.92 410.572,27.765 C 423.998,29.838 429.82,14.182 442.113,13.568 C 454.358,10.784 468.303,11.893 479.09,16.834 C 480.03,23.86 468.46,35.021 480.151,39.541 C 481.935,40.722 484.502,39.878 486.672,40.107 C 487.805,43.192 482.478,48.567 488.202,51.038 C 487.973,53.605 489.757,55.208 491.553,56.92 C 494.662,57.281 498.965,55.847 500.002,60.029 C 498.916,68.139 488.984,75.105 481.439,76.853"
   id="path3" />
<path
   d="M 483.609,67.307 C 458.13,80.035 436.931,49.735 412.742,67.331 C 396.893,80.853 404.595,103.717 397.46,120.747 C 396.375,127.93 387.517,132.666 386.131,139.187 C 409.801,154.06 416.105,185.612 436.389,203.847 C 422.867,200.472 399.196,201.823 377.888,186.01 C 387.096,208.957 413.358,203.233 425.181,222.215 C 436.04,232.182 437.378,246.236 443.404,258.299 C 432.074,259.83 424.687,247.392 414.623,243.788 C 404.825,241.1 386.385,230.06 386.385,230.06 C 393.665,244.824 407.705,259.046 423.362,264.445 C 441.308,278.076 447.768,298.661 447.719,319.885 C 434.269,315.245 431.376,298.119 417.384,293.105 C 408.574,293.25 398.534,287.006 392.484,276.618 C 389.917,300.759 422.639,300.035 428.942,320.898 C 438.222,340.893 422.542,357.38 417.588,374.928 C 414.057,374.711 412.888,370.143 411.49,367.178 C 409.802,355.307 405.391,343.327 393.52,337.06 C 384.71,335.578 377.973,329.359 370.585,324.477 C 373.031,340.796 394.653,346.907 399.788,362.913 C 403.837,377.99 395.449,409.109 394.111,409.133 C 389.073,400.432 390.773,388.898 381.986,382.039 C 374.091,377.846 363.871,373.543 360.195,364.286 L 359.014,366.19 C 359.846,383.907 386.758,390.874 381.154,410.567 C 376.658,423.921 372.067,440.48 377.996,454.847 C 372.886,455.763 368.342,451.375 363.702,449.146 C 343.78,438.685 349.733,415.725 333.68,403.022 C 333.343,399.78 331.812,397.117 329.618,394.574 C 326.183,401.95 334.897,418.027 332.703,425.09 C 331.558,436.733 314.432,439.324 309.767,450.774 L 306.115,466.406 C 293.448,454.463 294.196,434.142 296.883,417.872 C 295.401,410.99 279.949,393.683 276.394,398.745 C 283.408,404.988 285.481,416.052 282.661,425.284 C 278.141,437.674 258.593,439.373 249.096,445.917 C 246.36,453.028 241.659,435.77 243.443,409.736 C 240.972,426.297 227.474,431.696 243.962,470.178 C 232.042,468.623 222.786,457.572 220.17,446.532 C 216.097,430.767 220.761,410.821 205.008,400.673 C 202.622,402.602 205.105,405.41 205.129,407.832 C 201.405,418.595 201.501,431.575 208.299,440.928 L 209.082,447.401 C 194.198,446.436 180.35,436.662 172.287,423.971 C 167.647,413.786 166.731,399.445 169.768,388.308 C 169.069,387.103 167.611,387.934 166.526,387.694 C 152.582,403.072 166.309,429.358 153.172,445.123 C 149.918,451.547 126.838,466.721 119.293,467.54 C 132.815,447.256 121.306,415.486 132.635,384.488 C 132.201,381.402 133.599,377.57 131.285,375.328 C 122.27,386.284 118.172,400.301 113.146,413.365 C 110.109,417.33 104.951,416.342 101.492,419.379 C 95.2,431.407 83.618,442.689 71.506,445.87 C 73.579,439.892 74.76,431.082 74.929,424.441 C 77.448,406.001 67.951,389.272 72.784,372.556 C 75.797,358.298 91.814,361.95 98.407,351.947 C 94.14,347.825 87.246,347.825 81.401,346.451 C 60.563,346.246 38.422,360.684 21.248,368.832 C 18.657,342.401 64.733,305.739 61.213,304.582 C 50.318,301.822 38.519,292.421 34.156,281.659 C 42.375,279.357 49.703,280.984 56.079,274.789 C 61.286,270.221 64.564,265.039 67.577,259.591 C 65.504,256.229 63.552,260.989 61.105,260.375 C 44.099,263.364 28.696,255.783 18.584,242.309 L 18.536,239.079 C 29.468,238.067 45.16,245.491 54.175,235.198 C 64.817,225.135 69.253,208.695 84.065,204.127 C 85.379,202.199 88.753,201.066 87.886,198.221 C 84.282,193.834 82.511,201.041 79.546,201.632 C 60.696,205.609 52.031,228.882 32.036,229.774 C 30.252,221.421 39.22,215.697 41.389,208.104 C 44.848,189.122 58.443,169.549 76.811,160.835 C 68.266,136.767 75.184,113.927 74.34,88.111 C 73.159,75.276 64.819,61.632 51.754,58.077 C 42.425,57.703 34.375,54.594 26.203,51.364 C 27.119,48.893 31.494,51.653 30.746,48.026 C 28.432,46.724 25.66,44.048 24.829,42.301 C 26.287,39.312 28.746,42.253 30.65,42.205 C 32.374,40.554 30.204,39.12 29.915,37.637 L 35.17,36.842 C 36.207,35.07 33.338,33.515 32.35,31.768 C 31.542,31.371 31.808,30.551 31.784,29.743 C 39.1,30.033 41.269,38.77 47.56,41.904 L 49.44,40.53 C 45.812,34.926 35.435,29.816 37.436,20.583 C 43.293,22.656 48.151,30.128 53.899,33.961 C 60.251,40.626 72.098,37.288 79.92,36.083 C 101.397,34.082 122.922,36.011 138.59,50.594 C 156.909,68.684 180.894,79.471 205.781,71.625 C 219.231,67.732 226.885,80.568 240.311,74.783 C 248.627,71.131 261.607,70.372 270.056,74.265 C 305.743,80.833 322.676,44.001 352.59,37.119 C 377.647,32.238 406.379,34.311 426.784,49.485 C 435.702,30.081 448.261,20.632 464.11,21.97 C 466.557,22.874 464.062,33.347 464.086,34.83 C 457.349,36.843 446.538,39.566 438.342,46.051 C 440.391,46.425 464.23,41.121 464.23,41.121 C 463.145,41.411 460.205,42.82 460.506,44.99 C 462.29,46.448 466.845,44.749 469.593,46.183 C 468.279,48.232 464.061,47.364 463.169,50.197 C 465.519,53.415 474.209,55.162 474.209,55.162 C 472.896,56.813 471.196,60.079 473.787,61.658 C 476.281,65.403 482.874,63.113 483.609,67.307"
   style="fill:#ffd900;fill-rule:evenodd"
   id="path5" />
<path
   d="M 483.609,67.307 C 458.13,80.035 436.931,49.735 412.742,67.331 C 396.893,80.853 404.595,103.717 397.46,120.747 C 396.375,127.93 387.517,132.666 386.131,139.187 C 409.801,154.06 416.105,185.612 436.389,203.847 C 422.867,200.472 399.196,201.823 377.888,186.01 C 387.096,208.957 413.358,203.233 425.181,222.215 C 436.04,232.182 437.378,246.236 443.404,258.299 C 432.074,259.83 424.687,247.392 414.623,243.788 C 404.825,241.1 386.385,230.06 386.385,230.06 C 393.665,244.824 407.705,259.046 423.362,264.445 C 441.308,278.076 447.768,298.661 447.719,319.885 C 434.269,315.245 431.376,298.119 417.384,293.105 C 408.574,293.25 398.534,287.006 392.484,276.618 C 389.917,300.759 422.639,300.035 428.942,320.898 C 438.222,340.893 422.542,357.38 417.588,374.928 C 414.057,374.711 412.888,370.143 411.49,367.178 C 409.802,355.307 405.391,343.327 393.52,337.06 C 384.71,335.578 377.973,329.359 370.585,324.477 C 373.031,340.796 394.653,346.907 399.788,362.913 C 403.837,377.99 395.449,409.109 394.111,409.133 C 389.073,400.432 390.773,388.898 381.986,382.039 C 374.091,377.846 363.871,373.543 360.195,364.286 L 359.014,366.19 C 359.846,383.907 386.758,390.874 381.154,410.567 C 376.658,423.921 372.067,440.48 377.996,454.847 C 372.886,455.763 368.342,451.375 363.702,449.146 C 343.78,438.685 349.733,415.725 333.68,403.022 C 333.343,399.78 331.812,397.117 329.618,394.574 C 326.183,401.95 334.897,418.027 332.703,425.09 C 331.558,436.733 314.432,439.324 309.767,450.774 L 306.115,466.406 C 293.448,454.463 294.196,434.142 296.883,417.872 C 295.401,410.99 279.949,393.683 276.394,398.745 C 283.408,404.988 285.481,416.052 282.661,425.284 C 278.141,437.674 258.593,439.373 249.096,445.917 C 246.36,453.028 241.659,435.77 243.443,409.736 C 240.972,426.297 227.474,431.696 243.962,470.178 C 232.042,468.623 222.786,457.572 220.17,446.532 C 216.097,430.767 220.761,410.821 205.008,400.673 C 202.622,402.602 205.105,405.41 205.129,407.832 C 201.405,418.595 201.501,431.575 208.299,440.928 L 209.082,447.401 C 194.198,446.436 180.35,436.662 172.287,423.971 C 167.647,413.786 166.731,399.445 169.768,388.308 C 169.069,387.103 167.611,387.934 166.526,387.694 C 152.582,403.072 166.309,429.358 153.172,445.123 C 149.918,451.547 126.838,466.721 119.293,467.54 C 132.815,447.256 121.306,415.486 132.635,384.488 C 132.201,381.402 133.599,377.57 131.285,375.328 C 122.27,386.284 118.172,400.301 113.146,413.365 C 110.109,417.33 104.951,416.342 101.492,419.379 C 95.2,431.407 83.618,442.689 71.506,445.87 C 73.579,439.892 74.76,431.082 74.929,424.441 C 77.448,406.001 67.951,389.272 72.784,372.556 C 75.797,358.298 91.814,361.95 98.407,351.947 C 94.14,347.825 87.246,347.825 81.401,346.451 C 60.563,346.246 38.422,360.684 21.248,368.832 C 18.657,342.401 64.733,305.739 61.213,304.582 C 50.318,301.822 38.519,292.421 34.156,281.659 C 42.375,279.357 49.703,280.984 56.079,274.789 C 61.286,270.221 64.564,265.039 67.577,259.591 C 65.504,256.229 63.552,260.989 61.105,260.375 C 44.099,263.364 28.696,255.783 18.584,242.309 L 18.536,239.079 C 29.468,238.067 45.16,245.491 54.175,235.198 C 64.817,225.135 69.253,208.695 84.065,204.127 C 85.379,202.199 88.753,201.066 87.886,198.221 C 84.282,193.834 82.511,201.041 79.546,201.632 C 60.696,205.609 52.031,228.882 32.036,229.774 C 30.252,221.421 39.22,215.697 41.389,208.104 C 44.848,189.122 58.443,169.549 76.811,160.835 C 68.266,136.767 75.184,113.927 74.34,88.111 C 73.159,75.276 64.819,61.632 51.754,58.077 C 42.425,57.703 34.375,54.594 26.203,51.364 C 27.119,48.893 31.494,51.653 30.746,48.026 C 28.432,46.724 25.66,44.048 24.829,42.301 C 26.287,39.312 28.746,42.253 30.65,42.205 C 32.374,40.554 30.204,39.12 29.915,37.637 L 35.17,36.842 C 36.207,35.07 33.338,33.515 32.35,31.768 C 31.542,31.371 31.808,30.551 31.784,29.743 C 39.1,30.033 41.269,38.77 47.56,41.904 L 49.44,40.53 C 45.812,34.926 35.435,29.816 37.436,20.583 C 43.293,22.656 48.151,30.128 53.899,33.961 C 60.251,40.626 72.098,37.288 79.92,36.083 C 101.397,34.082 122.922,36.011 138.59,50.594 C 156.909,68.684 180.894,79.471 205.781,71.625 C 219.231,67.732 226.885,80.568 240.311,74.783 C 248.627,71.131 261.607,70.372 270.056,74.265 C 305.743,80.833 322.676,44.001 352.59,37.119 C 377.647,32.238 406.379,34.311 426.784,49.485 C 435.702,30.081 448.261,20.632 464.11,21.97 C 466.557,22.874 464.062,33.347 464.086,34.83 C 457.349,36.843 446.538,39.566 438.342,46.051 C 440.391,46.425 464.23,41.121 464.23,41.121 C 463.145,41.411 460.205,42.82 460.506,44.99 C 462.29,46.448 466.845,44.749 469.593,46.183 C 468.279,48.232 464.061,47.364 463.169,50.197 C 465.519,53.415 474.209,55.162 474.209,55.162 C 472.896,56.813 471.196,60.079 473.787,61.658 C 476.281,65.403 482.874,63.113 483.609,67.307 z "
   style="fill:none;stroke:#ffd900;stroke-width:2.54239988;stroke-miterlimit:3.86400008"
   id="path7" />
<path
   d="M 439.232,58.34 C 439.353,57.376 438.123,57.014 438.509,55.773 C 446.777,56.17 456.383,56.966 464.036,60.618 C 465.518,60.859 467.663,59.726 468.507,61.751 C 458.685,64.342 450.285,56.243 439.232,58.34"
   id="path9" />
<path
   d="M 462.554,54.146 C 455.648,53.579 448.85,51.133 441.728,53.158 C 439.076,48.59 445.85,49.012 447.549,45.878 C 449.031,53.303 459.372,49.603 462.554,54.146"
   id="path11" />
<path
   d="M 391.542,76.069 C 380.828,89.784 390.831,112.322 374.235,123.157 C 374.934,124.916 372.909,124.941 372.258,125.772 C 376.356,136.51 377.525,148.539 384.575,158.012 C 384.334,159.639 385.322,161.664 383.322,162.628 C 370.016,153.396 378.019,129.87 358.048,125.363 C 349.997,121.289 342.32,116.3 335.065,110.201 C 311.105,109.659 294.171,87.097 275.286,73.9 L 284.337,73.743 C 291.424,85.518 305.742,88.808 314.709,98.92 C 325.122,99.149 329.642,85.94 338.355,82.288 C 354.264,71.718 371.873,65.475 387.938,55.46 C 384.105,53.363 378.429,54.122 374.259,55.014 C 355.53,66.138 333.956,70.585 316.36,84.554 C 315.275,84.156 314.407,81.89 315.612,80.661 C 330.376,67.283 351.359,68.392 365.87,54.472 C 375.005,51.76 385.636,48.326 395.711,51.387 C 396.085,57.064 402.207,59.534 406.751,56.341 C 409.704,55.329 412.103,52.87 415.754,53.605 C 411.332,64.222 396.749,64.607 391.542,76.069"
   style="fill-rule:evenodd"
   id="path13" />
<path
   d="M 381.623,104.778 C 378.261,106.2 373.548,107.092 372.681,111.443 C 370.957,113.757 366.787,115.047 363.654,113.612 C 361.726,112.033 360.363,110.298 360.99,107.863 C 369.475,106.477 369.969,96.208 376.935,91.339 C 377.887,84.554 381.273,77.202 387.589,74.237 L 389.614,74.213 C 382.165,81.915 383.045,94.063 381.623,104.778"
   style="fill:#ffd900"
   id="path15" />
<path
   d="M 381.623,104.778 C 378.261,106.2 373.548,107.092 372.681,111.443 C 370.957,113.757 366.787,115.047 363.654,113.612 C 361.726,112.033 360.363,110.298 360.99,107.863 C 369.475,106.477 369.969,96.208 376.935,91.339 C 377.887,84.554 381.273,77.202 387.589,74.237 L 389.614,74.213 C 382.165,81.915 383.045,94.063 381.623,104.778 z "
   style="fill:none;stroke:#ffd900;stroke-width:2.54239988;stroke-miterlimit:3.86400008"
   id="path17" />
<path
   d="M 379.815,295.77 C 373.716,295.469 375.741,287.201 372.439,283.453 C 367.16,275.848 358.241,268.966 361.58,258.372 C 355.699,254.274 349.684,250.719 342.622,249.634 C 338.813,255.238 337.705,262.024 333.221,267.387 C 346.599,275.137 362.195,286.068 371.379,300.386 C 365.823,299.94 361.629,292.167 356.29,289.033 C 347.95,282.537 338.5,276.077 328.702,271.931 C 325.219,274.546 322.628,281.078 317.867,278.62 C 316.433,275.535 321.266,273.136 322.158,270.147 C 305.815,263.807 287.303,256.552 269.514,259.975 C 270.322,252.382 284.29,253.913 284.29,253.913 C 286.291,251.189 287.918,252.9 290.099,253.118 C 289.28,253.805 289.159,254.902 288.906,255.709 C 301.247,257.661 312.805,261.385 324.749,264.278 C 327.907,259.095 329.172,253.238 330.281,247.297 C 318.506,246.007 306.044,244.874 293.895,246.549 C 303.549,250.334 314.781,249.863 323.929,255.094 L 323.965,257.118 C 320.325,258.818 317.686,254.129 314.191,254.057 C 301.198,254.551 289.327,248.284 276.419,252.671 C 275.238,247.561 269.26,253.093 268.621,247.682 C 268.573,245.127 271.188,239.932 266.452,239.342 C 264.668,238.956 262.499,238.185 261.932,236.16 C 262.053,235.075 261.342,233.617 262.547,232.906 C 272.936,239.499 280.939,225.699 291.629,225.229 C 300.367,222.517 310.382,222.493 317.987,216.937 C 319.421,213.526 314.154,214.683 315.987,211.152 C 322.375,212.791 326.303,220.565 334.222,217.998 C 335.704,209.851 328.027,204.054 324.134,197.365 C 327.123,196.895 328.377,200.402 330.702,201.161 C 333.812,193.653 325.098,189.482 325.243,182.456 C 328.847,180.901 330.944,185.192 333.631,183.517 C 334.077,185.686 336.379,185.638 337.609,186.699 C 338.103,184.253 335.09,181.469 334.222,178.383 C 331.016,173.84 324.918,172.309 323.616,166.922 C 338.693,172.092 346.419,188.447 349.649,202.717 L 349.95,218.94 C 357.387,219.627 364.509,224.098 368.932,229.703 C 361.966,226.171 354.494,223.99 346.129,224.291 C 344.273,226.762 340.838,231.944 337.68,228.907 L 337.114,228.365 C 338.271,232.414 340.127,237.922 340.621,243.177 C 347.852,246.311 355.855,247.516 362.17,253.217 C 362.881,247.118 358.59,241.647 355.384,236.44 C 355.77,235.476 357.53,235.452 357.951,236.392 C 363.037,240.755 365.158,246.407 367.942,251.758 C 369.328,252.011 370.389,251.59 371.172,250.505 C 370.835,246.167 369.424,242.286 367.05,238.802 L 370.979,239.393 C 379.765,254.253 370.931,274.296 379.717,289.301 L 379.815,295.77"
   style="fill-rule:evenodd"
   id="path19" />
<path
   d="M 368.293,123.953 C 353.649,122.446 345.381,105.019 330.353,104.453 L 328.424,101.934 C 333.318,95.884 339.163,89.026 346.274,86.603 C 348.962,93.171 335.342,95.594 340.079,102.946 C 342.417,106.55 345.707,107.984 349.239,109.261 C 352.373,109.888 354.373,108.104 357.061,107.911 C 356.989,111.984 359.351,115.588 363.063,117.553 L 374.115,116.673 C 372.813,119.409 371.246,122.422 368.293,123.953"
   style="fill:#ffd900"
   id="path21" />
<path
   d="M 368.293,123.953 C 353.649,122.446 345.381,105.019 330.353,104.453 L 328.424,101.934 C 333.318,95.884 339.163,89.026 346.274,86.603 C 348.962,93.171 335.342,95.594 340.079,102.946 C 342.417,106.55 345.707,107.984 349.239,109.261 C 352.373,109.888 354.373,108.104 357.061,107.911 C 356.989,111.984 359.351,115.588 363.063,117.553 L 374.115,116.673 C 372.813,119.409 371.246,122.422 368.293,123.953 z "
   style="fill:none;stroke:#ffd900;stroke-width:2.54239988;stroke-miterlimit:3.86400008"
   id="path23" />
<path
   d="M 370.884,271.858 C 367.75,270.291 367.726,269.206 366.979,265.434 C 367.895,263.385 368.859,264.988 370.209,265.386 C 370.932,267.411 372.463,269.81 370.884,271.858"
   style="fill:#ffd900"
   id="path25" />
<path
   d="M 370.884,271.858 C 367.75,270.291 367.726,269.206 366.979,265.434 C 367.895,263.385 368.859,264.988 370.209,265.386 C 370.932,267.411 372.463,269.81 370.884,271.858 z "
   style="fill:none;stroke:#ffd900;stroke-width:2.54239988;stroke-miterlimit:3.86400008"
   id="path27" />
<path
   d="M 360.64,87.712 C 359.459,89.616 357.434,89.785 355.385,89.689 C 354.493,85.253 355.904,80.481 360.495,79.179 L 364.93,78.564 C 366.365,82.734 359.061,83.12 360.64,87.712"
   style="fill:#ffd900"
   id="path29" />
<path
   d="M 360.64,87.712 C 359.459,89.616 357.434,89.785 355.385,89.689 C 354.493,85.253 355.904,80.481 360.495,79.179 L 364.93,78.564 C 366.365,82.734 359.061,83.12 360.64,87.712 z "
   style="fill:none;stroke:#ffd900;stroke-width:2.54239988;stroke-miterlimit:3.86400008"
   id="path31" />
<path
   d="M 346.418,319.633 C 346.273,318.548 346.912,317.042 345.683,316.404 C 342.718,316.03 343.586,319.537 342.525,321.044 C 346.201,329.517 345.683,338.99 345.007,347.655 C 342.078,342.545 342.994,332.276 336.197,330.89 C 333.606,337.158 328.966,342.521 324.205,348.029 C 326.013,343.388 328.026,334.699 325.218,328.528 C 318.577,335.663 316.311,345.04 309.369,351.5 C 308.899,347.463 315.347,344.377 311.068,340.4 C 304.982,346.317 298.835,349.68 291.182,352.102 C 273.308,351.873 257.64,354.32 241.84,348.764 C 224.485,345.437 207.238,349.776 192.618,356.116 C 179.409,359.599 168.357,353.706 156.16,352.838 C 150.58,351.042 149.134,344.293 143.65,340.737 C 143.626,338.591 141.275,335.928 139.6,333.663 C 135.949,317.766 136.214,301.796 143.397,286.936 C 149.098,273.98 162.849,286.321 173.756,283.164 C 198.861,288.118 210.636,258.421 235.126,265.857 C 257.314,274.667 279.551,293.348 306.114,280.838 C 315.467,289.6 316.624,302.014 317.793,314.307 C 320.107,314.801 319.914,312.114 320.975,311.005 C 320.843,303.713 323.808,299.868 318.746,284.321 C 321.783,290.07 323.929,294.047 323.929,294.047 C 325.242,291.456 322.35,280.561 322.35,280.561 C 323.965,280.537 326.773,285.9 328.967,288.142 L 329.461,278.392 C 339.019,288.371 331.088,300.954 342.96,307.378 C 345.382,299.351 338.669,293.795 336.789,286.793 C 355.699,292.831 346.226,315.839 353.747,329.241 C 350.371,329.022 347.575,323.539 346.418,319.633"
   id="path33" />
<path
   d="M 343.875,212.561 C 343.333,212.838 343.067,212.296 342.646,212.043 L 342.694,213.923 C 337.68,206.173 336.523,194.146 330.449,187.517 C 335.342,188.228 338.789,192.35 341.019,196.375 C 342.995,200.545 342.959,207.162 343.875,212.561"
   style="fill:#ffd900"
   id="path35" />
<path
   d="M 343.875,212.561 C 343.333,212.838 343.067,212.296 342.646,212.043 L 342.694,213.923 C 337.68,206.173 336.523,194.146 330.449,187.517 C 335.342,188.228 338.789,192.35 341.019,196.375 C 342.995,200.545 342.959,207.162 343.875,212.561 z "
   style="fill:none;stroke:#ffd900;stroke-width:2.54239988;stroke-miterlimit:3.86400008"
   id="path37" />
<path
   d="M 336.451,228.386 C 335.342,226.638 334.222,224.903 333.113,223.156 C 336.668,218.37 337.885,225.915 336.451,228.386"
   style="fill:#ffd900"
   id="path39" />
<path
   d="M 336.451,228.386 C 335.342,226.638 334.222,224.903 333.113,223.156 C 336.668,218.37 337.885,225.915 336.451,228.386 z "
   style="fill:none;stroke:#ffd900;stroke-width:2.54239988;stroke-miterlimit:3.86400008"
   id="path41" />
<path
   d="M 333.558,326.359 C 332.052,317.862 327.617,310.486 331.907,301.772 C 338.403,301.772 335.438,309.545 337.258,313.293 C 336.788,318.031 336.198,322.501 333.558,326.359"
   style="fill:#ffd900"
   id="path43" />
<path
   d="M 333.558,326.359 C 332.052,317.862 327.617,310.486 331.907,301.772 C 338.403,301.772 335.438,309.545 337.258,313.293 C 336.788,318.031 336.198,322.501 333.558,326.359 z "
   style="fill:none;stroke:#ffd900;stroke-width:2.54239988;stroke-miterlimit:3.86400008"
   id="path45" />
<path
   d="M 295.16,242.089 L 295.618,236.798 C 304.934,235.689 316.288,235.496 324.821,236.279 L 326.159,235.05 C 316.855,228.976 303.621,230.832 292.292,231.712 L 291.026,229.723 C 300.391,224.143 312.166,223.938 323.362,222.66 C 327.785,228.107 331.268,233.868 330.87,241.461 L 295.16,242.089"
   style="fill:#ffd900"
   id="path47" />
<path
   d="M 295.16,242.089 L 295.618,236.798 C 304.934,235.689 316.288,235.496 324.821,236.279 L 326.159,235.05 C 316.855,228.976 303.621,230.832 292.292,231.712 L 291.026,229.723 C 300.391,224.143 312.166,223.938 323.362,222.66 C 327.785,228.107 331.268,233.868 330.87,241.461 L 295.16,242.089 z "
   style="fill:none;stroke:#ffd900;stroke-width:2.54239988;stroke-miterlimit:3.86400008"
   id="path49" />
<path
   d="M 313.745,159.254 L 322.977,161.665 C 320.301,164.136 315.685,162.46 312.552,161.171 C 309.744,154.856 306.731,161.147 303.501,162.015 C 302.91,166.486 296.342,169.439 297.776,173.862 C 291.967,182.769 281.289,183.359 276.022,191.012 C 283.603,191.976 290.292,186.987 297.402,184.817 C 298.511,185.359 297.848,186.577 297.993,187.384 C 291.701,191.012 285.133,194.254 277.432,194.917 C 273.756,201.209 265.753,199.726 259.932,199.135 C 258.703,198.496 256.401,198.267 257.317,195.953 C 261.246,196.821 264.62,196.773 267.706,195.76 C 268.912,194.254 269.261,191.951 270.864,191.108 C 266.405,189.553 261.246,192 257.016,189.505 C 255.486,187.239 253.545,184.696 250.4,183.804 C 249.592,182.743 247.025,183.466 247.809,181.285 C 256.944,177.609 256.113,166.352 265.116,162.676 C 269.383,159.892 267.804,154.782 270.865,151.624 C 274.348,164.532 289.606,156.553 298.863,159.518 C 307.505,157.747 314.531,150.587 322.064,148.02 C 322.377,150.587 317.689,153.106 315.001,154.637 L 326.655,155.095 C 325.242,160.411 317.191,155.939 313.745,159.254"
   id="path51" />
<path
   d="M 318.927,115.07 C 313.636,115.432 308.116,115.54 305.838,110.032 C 306.658,109.61 306.357,108.79 306.357,108.128 C 311.395,110.201 317.795,112.792 323.29,109.731 C 323.338,112.154 321.217,114.769 318.927,115.07"
   id="path53" />
<path
   d="M 301.873,369.771 C 294.629,374.483 283.481,377.797 275.262,372.808 C 268.5,372.506 263.414,376.11 257.22,377.026 C 258.473,371.205 266.151,369.578 271.382,367.722 C 277.215,368.047 283.109,372.266 288.858,368.783 C 275.685,357.779 256.136,369.349 241.42,362.443 C 235.345,364.167 229.621,368.458 222.691,366.023 C 218.244,367.445 221.522,362.118 217.991,361.503 C 193.935,370.035 155.452,371.325 135.505,352.584 L 140.639,353.801 C 169.275,374.387 205.529,352.909 238.805,359.924 C 251.809,361.84 267.562,357.104 279.012,363.009 C 286.545,360.442 291.679,367.65 297.85,364.022 C 303.623,362.564 308.781,356.116 313.939,356.562 C 311.985,361.901 306.537,366.709 301.873,369.771"
   style="fill-rule:evenodd"
   id="path55" />
<path
   d="M 287.555,177.838 C 288.411,172.68 285.229,169.221 284.072,164.93 L 303.886,163.399 C 301.849,169.667 293.304,174.753 287.555,177.838"
   style="fill:#ffffff"
   id="path57" />
<path
   d="M 270.597,321.634 C 267.729,320.188 270.247,317.717 270.501,315.813 C 274.815,308.582 277.262,300.531 277.78,291.624 L 279.757,289.009 C 285.976,289.298 293.352,284.839 298.559,290.021 C 294.738,302.676 285.554,319.609 270.597,321.634"
   style="fill:#ffffff"
   id="path59" />
<path
   d="M 282.734,353.5 C 276.515,353.476 269.899,352.885 265.113,349.04 C 272.441,343.509 283.083,340.351 288.193,331.07 C 293.183,329.335 294.93,336.891 298.763,338.723 C 296.979,346.052 289.085,351.379 282.734,353.5"
   style="fill:#ffffff"
   id="path61" />
<path
   d="M 289.893,242.728 C 286.121,242.921 280.299,243.15 279.455,240.33 C 277.406,239.149 277.455,242.656 275.008,242.427 C 278.021,237.1 285.349,237.244 290.483,237.57 L 289.893,242.728"
   style="fill:#ffd900"
   id="path63" />
<path
   d="M 289.893,242.728 C 286.121,242.921 280.299,243.15 279.455,240.33 C 277.406,239.149 277.455,242.656 275.008,242.427 C 278.021,237.1 285.349,237.244 290.483,237.57 L 289.893,242.728 z "
   style="fill:none;stroke:#ffd900;stroke-width:2.54239988;stroke-miterlimit:3.86400008"
   id="path65" />
<path
   d="M 281.601,248.127 L 280.914,247.464 C 282.782,246.211 287.398,246.946 289.278,246.645 C 288.519,248.284 283.06,246.355 281.601,248.127"
   style="fill:#ffd900"
   id="path67" />
<path
   d="M 281.601,248.127 L 280.914,247.464 C 282.782,246.211 287.398,246.946 289.278,246.645 C 288.519,248.284 283.06,246.355 281.601,248.127 z "
   style="fill:none;stroke:#ffd900;stroke-width:2.54239988;stroke-miterlimit:3.86400008"
   id="path69" />
<path
   d="M 285.868,268.194 C 284.241,267.555 285.181,266.326 285.82,264.964 L 285.82,264.301 C 287.423,263.711 288.664,264.771 289.086,266.121 C 289.676,268.146 287.085,267.785 285.868,268.194"
   id="path71" />
<path
   d="M 274.936,237.148 C 277.708,233.99 283.228,232.411 287.157,232.483 C 282.71,233.098 279.383,236.533 274.936,237.148"
   style="fill:#ffd900"
   id="path73" />
<path
   d="M 274.936,237.148 C 277.708,233.99 283.228,232.411 287.157,232.483 C 282.71,233.098 279.383,236.533 274.936,237.148 z "
   style="fill:none;stroke:#ffd900;stroke-width:2.54239988;stroke-miterlimit:3.86400008"
   id="path75" />
<path
   d="M 284.687,277.969 C 283.747,278.126 283.337,277.041 282.783,276.643 L 282.759,274.763 C 285.156,273.353 286.048,276.715 284.687,277.969"
   id="path77" />
<path
   d="M 281.312,269.508 C 280.77,269.773 280.348,269.255 279.95,268.869 L 279.902,266.965 C 281.77,266.122 282.638,268.665 281.312,269.508"
   id="path79" />
<path
   d="M 234.898,105.465 C 220.954,105.417 208.347,95.498 194.005,102.259 L 191.438,102.283 C 191.366,98.378 196.5,98.824 199.043,97.028 C 217.351,92.508 232.163,104.549 250.458,98.004 C 260.75,98.498 270.007,101.463 278.467,106.573 C 264.402,107.092 249.241,98.041 234.898,105.465"
   id="path81" />
<path
   d="M 273.972,182.671 C 271.682,182.297 270.272,179.212 269.946,176.922 C 270.717,174.62 272.297,171.619 274.442,171.016 C 276.117,173.982 280.022,180.273 273.972,182.671"
   style="fill:#ffffff"
   id="path83" />
<path
   d="M 275.165,142.345 C 263.607,139.308 252.796,146.937 245.517,156.531 C 241.25,159.17 235.272,157.797 231.295,155.543 L 231.271,154.217 C 244.974,155.446 249.638,135.898 264.149,138.766 C 266.993,139.525 271.188,139.574 273.899,139.128 C 274.984,139.922 275.406,141.127 275.165,142.345"
   id="path85" />
<path
   d="M 275.973,228.084 C 275.165,227.819 273.973,228.663 273.406,227.445 L 273.382,226.24 C 274.599,225.939 276.768,226.313 275.973,228.084"
   id="path87" />
<path
   d="M 274.153,269.628 C 272.911,268.965 273.707,267.483 273.405,266.398 L 274.08,265.711 C 275.033,266.097 278.07,270.243 274.153,269.628"
   id="path89" />
<path
   d="M 274.96,278.149 C 274.297,278.028 273.478,278.294 273.067,277.498 C 273.188,276.546 272.489,275.329 273.561,274.907 C 274.792,275.583 275.081,276.788 274.96,278.149"
   id="path91" />
<path
   d="M 269.019,230.784 C 268.175,230.784 267.392,230.929 266.97,230.133 C 266.524,228.241 269.513,228.88 270.152,226.831 C 271.26,228.169 271.429,230.856 269.019,230.784"
   id="path93" />
<path
   d="M 267.416,255.54 C 266.862,255.685 266.452,255.166 266.175,254.901 L 266.127,252.876 L 268.031,252.816 C 267.777,253.78 268.621,254.997 267.416,255.54"
   id="path95" />
<path
   d="M 263.98,245.199 L 262.775,245.223 L 262.691,241.957 C 264.33,241.39 266.789,244.331 263.98,245.199"
   id="path97" />
<path
   d="M 254.941,186.89 C 251.964,187.36 250.554,184.01 248.348,182.431 C 252.398,181.804 257.146,179.044 260.208,176.429 C 260.003,179.936 263.136,182.178 263.606,185.408 L 254.941,186.89"
   style="fill:#ffffff"
   id="path99" />
<path
   d="M 263.233,272.4 C 262.004,272.003 262.667,270.761 262.522,269.833 C 265.186,268.17 266.379,273.28 263.233,272.4"
   id="path101" />
<path
   d="M 261.534,252.406 C 260.69,251.345 260.823,249.863 262.148,249.14 L 264.052,249.659 C 263.257,250.622 263.704,253.045 261.534,252.406"
   id="path103" />
<path
   d="M 263.607,263.313 C 260.594,263.012 261.956,260.517 262.992,259.408 C 264.523,260.204 266.319,261.662 263.607,263.313"
   id="path105" />
<path
   d="M 254.652,230.338 L 254.58,225.891 C 257.34,229.495 260.1,224.167 262.968,226.409 C 262.076,229.398 257.195,228.41 254.652,230.338"
   id="path107" />
<path
   d="M 261.835,347.751 C 258.87,348.197 256.544,346.497 254.109,345.305 C 251.047,340.218 259.219,336.301 262.256,332.867 L 261.835,347.751"
   style="fill:#ffffff;fill-rule:evenodd"
   id="path109" />
<path
   d="M 256.749,241.39 L 254.845,241.414 C 255.219,239.546 255.978,237.22 258.725,238.112 C 258.75,239.474 259.039,242.041 256.749,241.39"
   id="path111" />
<path
   d="M 257.039,258.962 C 256.352,258.179 255.388,257.516 255.786,256.298 L 259.016,255.683 C 259.461,257.311 258.4,258.553 257.039,258.962"
   id="path113" />
<path
   d="M 253.929,266.049 C 253.929,266.049 251.47,264.024 253.881,263.482 C 255.858,262.349 256.605,264.121 256.605,264.121 C 255.954,265.362 255.954,266.567 253.929,266.049"
   id="path115" />
<path
   d="M 246.107,298.12 C 240.575,291.72 239.864,281.331 241.045,272.244 C 243.817,275.04 262.595,274.968 254.965,286.863 C 251.784,289.9 248.325,294.022 246.107,298.12"
   style="fill:#ffffff"
   id="path117" />
<path
   d="M 250.229,240.824 C 250.506,239.474 248.06,239.245 248.976,237.618 C 249.759,235.967 251.387,236.353 252.869,236.328 C 254.941,238.727 251.434,240.016 250.229,240.824"
   id="path119" />
<path
   d="M 250.434,251.237 L 249.879,251.261 L 249.807,247.344 C 251,245.838 253.338,247.139 253.64,248.622 C 255.014,251.563 251.639,250.405 250.434,251.237"
   id="path121" />
<path
   d="M 240.286,228.711 C 239.696,225.469 241.793,220.961 238.237,219.009 C 231.789,221.154 224.811,224.782 221.545,231.592 C 218.93,236.654 219.328,244.211 216.688,247.911 C 209.806,248.694 216.314,241.414 213.277,238.233 C 212.855,230.532 202.105,226.53 203.213,218.938 C 211.927,207.705 229.668,208.464 242.672,211.08 C 246.107,212.515 250.771,216.492 248.011,220.734 C 245.468,223.468 244.203,227.699 240.286,228.711"
   id="path123" />
<path
   d="M 236.212,397.563 C 228.281,400.793 236.236,414.051 227.281,413.255 C 225.546,406.819 228.535,399.045 221.798,393.887 C 216.808,394.104 212.024,390.825 210.047,386.378 C 207.926,381.269 207.974,376.291 209.107,370.71 C 211.53,371.072 211.18,374.338 213.627,374.555 L 218.122,367.987 C 217.99,368.542 217.941,374.483 220.834,376.46 C 224.462,375.327 224.365,370.036 228.56,370.362 C 229.03,373.35 229.922,377.798 233.839,377.448 C 237.491,377.798 237.226,371.181 240.926,373.399 C 241.251,376.906 237.539,381.293 241.794,383.788 C 246.904,382.233 246.506,374.93 249.989,372.712 C 251.808,383.691 244.649,393.887 236.212,397.563"
   style="fill-rule:evenodd"
   id="path125" />
<path
   d="M 243.564,261.096 C 242.732,260.023 242.853,258.553 242.829,257.191 L 244.01,255.962 C 246.456,255.781 244.6,258.372 246.107,259.168 C 245.3,259.854 245.191,261.879 243.564,261.096"
   id="path127" />
<path
   d="M 245.167,245.512 C 243.986,245.958 243.275,244.873 242.576,244.21 C 241.889,242.45 243.347,240.944 245.119,241.595 L 245.167,245.512"
   id="path129" />
<path
   d="M 240.431,237.076 C 242.998,236.774 243.962,237.425 244.408,239.715 L 240.503,241.005 L 240.431,237.076"
   id="path131" />
<path
   d="M 235.525,250.152 C 235.489,248.404 232.753,246.283 236.139,245.693 C 236.537,246.476 237.345,246.211 238.032,246.332 C 237.513,247.537 238.755,248.754 240.081,248.176 C 238.635,248.875 237.96,250.923 235.525,250.152"
   style="fill-rule:evenodd"
   id="path133" />
<path
   d="M 234.561,341.725 C 233.416,338.772 235.525,335.362 236.972,332.625 L 240.19,330.673 C 240.66,334.324 242.179,337.53 241.721,341.605 L 234.561,341.725"
   style="fill:#ffffff"
   id="path135" />
<path
   d="M 235.393,243.125 L 234.706,242.45 L 234.043,243.149 C 232.585,244.113 232.355,239.786 233.416,238.557 C 234.778,238.677 236.381,237.966 236.707,239.858 C 237.128,241.197 236.067,242.583 235.393,243.125"
   id="path137" />
<path
   d="M 233.838,262.626 C 234.356,260.866 234.85,258.817 237.056,260.553 L 236.43,263.807 L 233.838,262.626"
   id="path139" />
<path
   d="M 231.789,299.566 C 229.378,300.976 226.486,298.035 225.232,295.77 C 224.533,287.008 218.073,279.945 220.315,270.569 C 224.883,267.652 231.547,270.376 237.224,270.268 C 236.61,280.56 237.201,291.226 231.789,299.566"
   style="fill:#ffffff"
   id="path141" />
<path
   d="M 233.742,256.672 L 233.694,253.442 L 236.261,254.057 C 236.309,255.54 235.791,257.468 233.742,256.672"
   id="path143" />
<path
   d="M 227.715,251.635 L 225.823,251.683 L 225.775,249.092 C 226.812,247.321 227.944,249.466 229.029,249.731 C 229.294,250.526 228.776,251.755 227.715,251.635"
   id="path145" />
<path
   d="M 227.306,259.48 C 225.667,259.384 225.257,257.636 225.233,256.274 L 227.222,254.9 L 229.15,257.431 L 227.306,259.48"
   id="path147" />
<path
   d="M 219.52,340.773 C 220.81,336.7 221.497,329.239 226.462,327.661 C 226.956,331.975 228.511,335.88 228.041,340.617 L 219.52,340.773"
   style="fill:#ffffff"
   id="path149" />
<path
   d="M 219.58,158.338 C 216.76,158.929 213.795,160.46 212.517,156.434 C 212.914,155.205 211.794,154.686 211.131,153.867 C 208.841,153.795 210.492,156.314 209.287,157.145 L 209.853,157.82 L 207.973,159.194 C 204.671,148.311 198.813,138.536 192.57,128.919 L 193.751,127.533 C 200.766,134.439 202.959,143.333 208.491,150.685 L 210.347,148.756 C 207.358,138.656 202.597,129.28 196.885,120.445 L 198.198,119.083 C 209.154,126.736 209.527,140.114 213.649,151.274 C 215.915,149.056 213.227,142.753 218.807,144.019 C 221.026,147.889 223.184,154.337 219.58,158.338"
   id="path151" />
<path
   d="M 220.038,253.659 C 219.086,253.563 217.869,254.25 217.447,253.165 L 217.423,251.141 L 220.665,251.093 C 220.412,252.032 221.255,253.237 220.038,253.659"
   id="path153" />
<path
   d="M 216.242,261.59 L 214.362,261.614 C 212.591,260.577 214.736,259.433 214.832,258.348 C 216.338,258.203 216.857,258.445 217.58,259.662 C 217.724,260.469 217.326,261.686 216.242,261.59"
   id="path155" />
<path
   d="M 211.722,296.686 C 207.576,291.745 204.635,285.309 204.912,277.993 C 208.094,274.293 212.493,271.389 217.133,272.666 C 217.278,281.452 215.374,289.455 211.722,296.686"
   style="fill:#ffffff"
   id="path157" />
<path
   d="M 203.948,192.964 C 204.695,195.929 209.552,194.892 208.66,198.689 C 207.057,199.111 205.43,199.701 203.526,199.46 L 203.707,209.186 C 199.923,209.656 200.128,204.908 198.32,202.786 C 197.283,197.676 200.176,190.939 198.079,187.07 C 193.608,187.142 191.752,189.336 187.714,190.493 C 188.57,193.578 191.583,195.723 190.547,199.677 C 183.689,201.159 178.398,200.569 172.288,198.098 C 171.685,196.218 172.903,196.073 174.252,195.507 C 174.879,192.518 169.069,193.434 166.997,191.035 C 165.044,188.227 159.946,188.986 160.404,184.647 C 164.454,184.84 169.54,189.094 174.132,188.347 C 170.01,185.286 164.092,181.754 162.236,176.259 C 158.91,170.631 154.209,165.713 152.221,159.518 C 145.134,156.264 138.119,162.724 131.503,164.327 L 130.153,163.121 L 139.132,158.385 C 135.01,155.89 126.103,164.158 126.79,156.71 C 130.418,155.698 135.154,155.746 137.83,153.938 C 134.419,152.383 130.225,153.13 126.694,152.118 C 130.719,149.056 135.576,149.527 140.337,150.66 C 148.46,159.446 162.851,154.577 172.902,156.578 C 176.18,158.41 179.241,155.794 181.905,154.384 C 179.519,163.496 194.548,165.388 193.933,175.68 L 197.211,178.199 C 200.574,175.837 204.394,170.775 204.937,171.558 C 204.696,172.112 205.238,172.498 205.624,172.775 L 207.528,172.751 C 206.913,176.005 206.419,179.235 205.804,182.501 L 211.674,185.116 C 209.674,186.225 206.54,185.466 204.539,187.141 C 206.745,189.118 210.24,188.25 212.445,190.226 C 210.565,192.181 206.792,192.096 203.948,192.964"
   id="path159" />
<path
   d="M 208.191,249.417 C 207.805,249.682 203.334,249.489 204.888,246.235 C 206.913,244.969 206.166,241.619 209.432,242.896 C 212.023,244.596 210.469,247.886 208.191,249.417"
   id="path161" />
<path
   d="M 204.744,346.172 L 201.502,346.221 C 203.166,340.942 202.49,333.096 208.396,331.24 C 211.324,336.048 215.181,346.811 204.744,346.172"
   style="fill:#ffffff"
   id="path163" />
<path
   d="M 207.13,258.504 C 205.503,258.649 203.478,258.552 203.189,256.672 C 203.286,254.225 204.611,253.659 207.058,253.888 C 208.962,254.672 209.01,257.781 207.13,258.504"
   id="path165" />
<path
   d="M 205.479,240.402 L 202.888,239.1 C 204.069,238.678 202.936,234.364 206.07,235.786 C 207.721,237.389 207.203,239.028 205.479,240.402"
   id="path167" />
<path
   d="M 200.863,161.917 C 197.73,153.722 191.884,144.345 183.556,140.705 C 182.303,137.752 186.376,137.945 186.75,136.198 C 196.971,140.344 199.453,152.456 202.888,161.869 L 200.863,161.917"
   id="path169" />
<path
   d="M 202.068,270.894 C 199.802,271.882 199.874,269.436 198.79,268.375 C 198.79,268.375 200.08,264.374 203.31,264.374 C 204.816,266.398 204.491,270.026 202.068,270.894"
   id="path171" />
<path
   d="M 197.042,237.292 C 195.656,235.966 197.235,233.64 198.838,233.351 C 201.284,233.303 201.851,234.773 201.477,237.22 L 197.042,237.292"
   id="path173" />
<path
   d="M 198.549,254.72 L 197.332,254.744 C 195.536,252.478 197.658,250.007 197.874,247.561 C 195.982,246.103 194.596,244.379 195.09,241.788 C 195.874,241.101 196.548,240.161 197.754,240.535 C 200.225,242.114 197.947,244.307 197.851,246.356 L 197.188,247.043 C 198.863,249.044 202.069,248.031 201.731,251.418 C 201.357,253.189 200.296,254.274 198.549,254.72"
   id="path175" />
<path
   d="M 200.694,299.446 C 192.992,300.266 195.09,289.406 188.846,286.683 C 191.908,284.586 195.379,282.911 199.042,282.019 C 201.526,286.984 203.008,293.998 200.694,299.446"
   style="fill:#ffffff"
   id="path177" />
<path
   d="M 197.464,261.24 C 195.234,258.034 192.848,261.312 190.256,259.456 C 190.497,258.504 189.653,257.31 190.895,256.889 L 192.763,256.841 C 193.655,261.288 197.09,256.106 199.307,258.625 C 199.875,260.517 198.646,260.674 197.464,261.24"
   id="path179" />
<path
   d="M 189.859,189.71 C 191.582,187.661 191.064,182.889 191.438,180.177 L 197.584,187.36 C 195.753,190.626 192.812,189.927 189.859,189.71"
   style="fill:#ffffff"
   id="path181" />
<path
   d="M 196.271,232.701 C 195.331,233.002 194.921,231.917 194.343,231.399 C 192.764,232.785 192.125,235.376 192.426,236.702 C 190.401,237.425 188.377,237.859 186.641,239.366 L 186.677,240.728 C 178.843,242.355 175.445,232.955 168.924,231.303 C 163.465,236.257 173.914,237.571 175.071,242.162 C 176.348,246.308 179.614,246.947 182.893,249.164 C 179.663,250.032 181.097,254.744 181.808,257.046 C 182.796,258.504 183.483,260.131 185.147,261.433 C 177.916,265.217 176.602,259.565 169.418,259.83 C 161.343,261.312 151.026,259.613 145.603,265.386 C 145.084,267.953 146.458,269.7 146.904,271.858 C 142.119,275.582 138.986,266.567 134.49,264.892 C 125.065,267.628 113.338,270.147 109.457,280.343 C 108.42,283.332 106.601,286.755 108.276,290.117 C 114.543,285.26 120.401,279.631 126.957,275.449 C 128.15,281.379 122.474,289.333 124.619,295.649 C 128.862,291.925 128.862,284.344 134.791,281.801 C 132.019,286.984 129.163,292.853 130.621,298.783 C 133.236,293.6 135.032,287.9 138.708,283.079 C 138.66,287.406 134.164,292.757 133.188,298.06 C 130.199,313.812 127.355,336.447 141.745,347.282 C 131.971,345.136 125.824,334.024 119.34,327.515 C 113.904,333.168 110.084,339.315 107.36,345.98 C 101.816,338.23 105.962,327.877 108.276,320.007 L 105.54,318.006 C 102.057,320.38 105.118,326.406 100.55,327.166 C 98.007,321.814 99.489,313.933 98.875,308.388 C 95.958,312.233 91.716,317.174 88.799,320.874 C 89.594,312.606 93.692,305.64 98.152,298.686 C 97.911,292.708 100.671,287.791 100.43,281.728 C 96.103,282.741 90.728,284.862 86.871,288.441 C 85.244,287.947 85.642,287.127 86.16,285.898 C 93.62,279.282 104.009,278.028 109.951,269.254 C 118.351,270.049 124.691,262.107 133.212,261.143 C 133.574,258.817 132.562,255.611 131.031,253.345 L 120.099,254.864 C 120.943,247.958 135.502,253.658 130.199,243.619 L 130.175,241.715 C 123.655,241.294 114.471,242.402 107.493,244.68 C 92.922,254.406 83.328,269.58 79.664,285.332 C 75.747,270.52 82.267,255.394 86.75,241.788 C 89.341,235.267 94.801,229.892 98.754,224.011 L 100.646,223.963 C 97.488,229.567 89.739,234.979 93.246,241.692 L 109.854,225.156 L 109.167,224.505 C 109.541,223.276 110.915,224.071 111.71,223.77 L 111.758,225.819 L 102.224,238.281 C 105.9,239.028 108.648,234.256 112.565,233.496 C 112.228,237.292 107.756,236.702 106.202,240.113 C 113.337,238.751 122.099,237.666 130.065,236.437 C 132.066,235.051 130.668,232.231 131.993,230.58 C 129.233,228.061 124.69,230.46 121.556,228.881 L 121.484,224.952 C 124.991,225.024 130.173,227.098 134.464,225.398 C 135.802,223.891 135.778,221.867 136.272,220.095 C 131.499,218.444 126.317,215.672 120.664,217.793 C 118.278,219.083 116.687,221.939 113.578,221.842 C 111.529,212.96 100.152,219.914 93.511,218.962 C 90.281,220.517 86.93,221.505 83.146,221.698 L 83.146,221.035 C 82.7,219.432 88.377,219.324 90.233,216.443 C 94.053,196.497 111.855,178.057 131.681,173.513 C 133.971,173.61 136.815,172.898 138.707,173.935 C 132.958,177.418 128.462,183.589 125.461,189.193 C 128.812,188.325 134.609,186.867 138.96,188.277 C 135.995,188.867 130.644,191.929 128.125,195.629 C 135.007,193.881 141.768,193.905 148.855,196.497 C 150.145,201.487 144.143,197.774 142.407,199.859 C 134.838,199.859 125.726,204.198 122.617,212.634 C 130.319,211.947 141.033,221.914 145.842,210.886 L 149.096,210.814 C 149.65,211.899 148.337,213.803 147.963,215.43 L 146.637,216.683 C 155.471,219.105 163.245,224.24 171.561,228.012 C 174.574,228.759 176.43,226.71 178.575,225.179 C 183.191,227.276 180.323,233.664 185.24,236.159 L 185.927,236.822 L 187.904,234.207 C 185.855,233.026 185.686,231.001 185.783,228.977 C 186.301,227.748 187.554,228.531 188.35,228.266 C 189.579,229.17 188.796,230.833 190.423,231.472 C 191.652,231.846 192.171,230.906 192.99,230.219 L 192.942,227.652 L 196.172,227.568 C 195.536,229.495 197.464,231.194 196.271,232.701"
   style="fill-rule:evenodd"
   id="path183" />
<path
   d="M 192.716,253.611 C 191.51,253.756 189.341,253.539 190.1,251.61 L 190.076,249.73 L 193.306,249.658 C 193.065,250.899 193.933,252.647 192.716,253.611"
   id="path185" />
<path
   d="M 192.33,270.376 C 190.305,270.268 190.944,267.978 190.377,266.616 C 193.065,265.904 195.138,268.712 192.33,270.376"
   id="path187" />
<path
   d="M 186.702,350.415 C 182.652,351.006 181.242,347.535 180.109,344.715 C 179.591,338.918 179.759,332.819 184.303,329.613 C 185.484,335.554 191.389,340.328 194.993,345.654 C 196.03,350.933 189.654,349.282 186.702,350.415"
   style="fill:#ffffff"
   id="path189" />
<path
   d="M 130.646,114.444 C 116.352,125.11 108.132,141.622 96.875,155.205 C 90.945,164.774 92.428,180.695 77.869,183.54 C 78.688,174.573 90.922,170.307 89.789,159.917 C 87.149,149.01 100.154,142.706 104.324,133.703 C 85.354,123.085 83.353,101.741 82.582,81.469 C 79.967,69.742 72.735,59.184 63.949,50.688 L 63.901,48.675 C 86.138,67.477 130.791,60.884 132.298,100.753 C 133.672,102.477 134.25,104.501 136.299,105.815 C 139.975,106.152 142.193,103.019 144.615,100.548 C 141.577,82.735 125.211,66.247 108.205,60.86 C 99.889,57.232 89.102,58.763 82.751,51.58 C 107.663,53.038 138.915,61.017 148.339,89.376 C 149.869,92.606 153.69,94.98 156.776,93.835 C 162.922,88.315 167.045,75.769 174.83,71.574 L 186.473,72.587 C 167.177,83.204 155.245,114.962 130.646,114.444"
   id="path191" />
<path
   d="M 186.593,274.389 C 184.568,275.377 183.194,273.256 182.628,271.906 L 185.834,269.279 C 186.497,268.869 188.051,272.762 186.593,274.389"
   id="path193" />
<path
   d="M 178.132,270.099 C 176.107,270.665 176.481,268.099 176.035,266.893 C 176.3,265.929 175.469,264.724 176.674,264.157 L 178.699,264.121 C 178.181,266.025 180.374,266.821 181.339,268.002 C 180.748,265.857 181.64,262.325 185.172,262.795 C 187.063,270.617 181.146,265.037 178.132,270.099"
   id="path195" />
<path
   d="M 179.169,182.431 L 177.265,182.479 C 175.288,177.912 177.096,172.874 181.543,170.632 C 184.303,174.355 182.495,179.538 179.169,182.431"
   style="fill:#ffffff"
   id="path197" />
<path
   d="M 185.484,319.863 C 172.082,319.019 165.489,305.472 160.982,295.011 C 160.801,292.829 161.44,290.262 160.187,288.539 C 164.333,285.478 170.998,288.346 176.434,288.238 C 180.917,298.168 183.665,308.798 185.484,319.863"
   style="fill:#ffffff"
   id="path199" />
<path
   d="M 177.47,277.354 L 176.132,277.378 C 174.854,274.413 177.964,274.365 178.603,272.738 C 180.796,273.907 180.061,277.583 177.47,277.354"
   id="path201" />
<path
   d="M 165.912,179.659 C 157.74,176.284 156.089,165.497 151.256,159.495 C 159.222,157.591 168.756,159.495 174.926,164.256 C 172.154,167.956 164.188,173.741 165.912,179.659"
   style="fill:#ffffff"
   id="path203" />
<path
   d="M 173.022,349.969 C 167.128,352.102 162.633,346.474 157.126,347.655 C 151.473,350.464 145.652,347.872 144.688,340.026 C 144.387,339.086 144.242,338.146 143.278,337.483 C 149.135,339.266 156.439,337.013 160.983,333.952 C 166.334,338.327 166.057,345.631 172.999,348.619 L 173.022,349.969"
   style="fill:#ffffff"
   id="path205" />
<path
   d="M 169.563,268.194 C 168.623,268.917 164.585,268.423 165.767,266.374 L 165.719,264.349 L 169.515,264.964 L 169.563,268.194"
   id="path207" />
<path
   d="M 168.575,242.945 C 167.069,240.8 163.176,241.933 163.248,238.425 C 165.02,240.016 168.165,240.92 168.575,242.945"
   style="fill:#ffd900"
   id="path209" />
<path
   d="M 168.575,242.945 C 167.069,240.8 163.176,241.933 163.248,238.425 C 165.02,240.016 168.165,240.92 168.575,242.945 z "
   style="fill:none;stroke:#ffd900;stroke-width:2.54239988;stroke-miterlimit:3.86400008"
   id="path211" />
<path
   d="M 162.187,247.633 L 162.163,246.307 C 164.163,245.439 166.634,247.44 168.684,248.753 C 166.924,248.778 164.634,249.224 162.187,247.633"
   style="fill:#ffd900"
   id="path213" />
<path
   d="M 162.187,247.633 L 162.163,246.307 C 164.163,245.439 166.634,247.44 168.684,248.753 C 166.924,248.778 164.634,249.224 162.187,247.633 z "
   style="fill:none;stroke:#ffd900;stroke-width:2.54239988;stroke-miterlimit:3.86400008"
   id="path215" />
<path
   d="M 152.111,119.879 C 151.328,114.082 157.619,109.912 162.97,106.694 L 164.898,108.574 C 160.09,112.455 157.318,117.095 152.111,119.879"
   id="path217" />
<path
   d="M 155.824,254.792 L 155.788,253.586 L 159.572,253.514 C 160.681,254.153 164.453,254.647 166.78,255.262 C 164.212,255.732 160.018,255.66 155.824,254.792"
   style="fill:#ffd900"
   id="path219" />
<path
   d="M 155.824,254.792 L 155.788,253.586 L 159.572,253.514 C 160.681,254.153 164.453,254.647 166.78,255.262 C 164.212,255.732 160.018,255.66 155.824,254.792 z "
   style="fill:none;stroke:#ffd900;stroke-width:2.54239988;stroke-miterlimit:3.86400008"
   id="path221" />
<path
   d="M 159.885,232.676 C 156.233,232.459 153.593,228.735 156.51,225.577 C 159.077,224.709 162.09,226.951 164.404,228.686 C 162.681,229.917 162.633,234.93 159.885,232.676"
   style="fill:#ffd900"
   id="path223" />
<path
   d="M 159.885,232.676 C 156.233,232.459 153.593,228.735 156.51,225.577 C 159.077,224.709 162.09,226.951 164.404,228.686 C 162.681,229.917 162.633,234.93 159.885,232.676 z "
   style="fill:none;stroke:#ffd900;stroke-width:2.54239988;stroke-miterlimit:3.86400008"
   id="path225" />
<path
   d="M 161.295,274.835 C 159.945,273.654 158.39,270.569 159.837,268.375 C 161.597,268.351 164.164,267.905 164.477,270.328 C 163.814,271.955 163.465,274.389 161.295,274.835"
   id="path227" />
<path
   d="M 141.156,236.232 C 139.927,236.135 140.71,234.086 140.421,233.026 C 147.423,231.146 153.968,234.412 159.97,237.268 L 160.018,239.172 L 141.156,236.232"
   style="fill:#ffd900"
   id="path229" />
<path
   d="M 141.156,236.232 C 139.927,236.135 140.71,234.086 140.421,233.026 C 147.423,231.146 153.968,234.412 159.97,237.268 L 160.018,239.172 L 141.156,236.232 z "
   style="fill:none;stroke:#ffd900;stroke-width:2.54239988;stroke-miterlimit:3.86400008"
   id="path231" />
<path
   d="M 158.608,267.182 C 156.704,266.663 156.511,263.554 157.173,263.289 L 157.836,262.602 C 159.476,263.241 160.464,265.651 158.608,267.182"
   id="path233" />
<path
   d="M 157.571,246.38 L 139.999,248.031 L 139.927,242.752 C 146.64,240.607 153.449,243.343 158.873,244.994 L 157.571,246.38"
   style="fill:#ffd900"
   id="path235" />
<path
   d="M 157.571,246.38 L 139.999,248.031 L 139.927,242.752 C 146.64,240.607 153.449,243.343 158.873,244.994 L 157.571,246.38 z "
   style="fill:none;stroke:#ffd900;stroke-width:2.54239988;stroke-miterlimit:3.86400008"
   id="path237" />
<path
   d="M 151.449,228.904 L 142.362,227.843 C 140.711,225.577 144.833,223.058 146.014,220.612 C 148.858,220.829 152.414,222.118 153.257,224.408 C 152.605,225.915 151.4,227.156 151.449,228.904"
   style="fill:#ffd900"
   id="path239" />
<path
   d="M 151.449,228.904 L 142.362,227.843 C 140.711,225.577 144.833,223.058 146.014,220.612 C 148.858,220.829 152.414,222.118 153.257,224.408 C 152.605,225.915 151.4,227.156 151.449,228.904 z "
   style="fill:none;stroke:#ffd900;stroke-width:2.54239988;stroke-miterlimit:3.86400008"
   id="path241" />
<path
   d="M 142.192,257.733 C 140.963,256.395 141.746,254.226 141.457,252.478 L 153.051,252.273 C 153.992,259.288 145.254,254.575 142.192,257.733"
   style="fill:#ffd900"
   id="path243" />
<path
   d="M 142.192,257.733 C 140.963,256.395 141.746,254.226 141.457,252.478 L 153.051,252.273 C 153.992,259.288 145.254,254.575 142.192,257.733 z "
   style="fill:none;stroke:#ffd900;stroke-width:2.54239988;stroke-miterlimit:3.86400008"
   id="path245" />
<path
   d="M 106.108,196.688 C 107.072,190.324 113.858,183.852 120.077,182.792 L 123.307,182.72 C 117.184,187.709 114.4,198.292 106.108,196.688"
   style="fill:#ffd900"
   id="path247" />
<path
   d="M 106.108,196.688 C 107.072,190.324 113.858,183.852 120.077,182.792 L 123.307,182.72 C 117.184,187.709 114.4,198.292 106.108,196.688 z "
   style="fill:none;stroke:#ffd900;stroke-width:2.54239988;stroke-miterlimit:3.86400008"
   id="path249" />
<path
   d="M 97.889,213.598 C 97.539,209.681 101.239,204.619 104.867,202.546 L 106.747,202.498 L 103.613,209.03 C 110.676,210.814 113.737,199.798 121.041,200.22 L 112.23,213.357 L 97.889,213.598"
   style="fill:#ffd900"
   id="path251" />
<path
   d="M 97.889,213.598 C 97.539,209.681 101.239,204.619 104.867,202.546 L 106.747,202.498 L 103.613,209.03 C 110.676,210.814 113.737,199.798 121.041,200.22 L 112.23,213.357 L 97.889,213.598 z "
   style="fill:none;stroke:#ffd900;stroke-width:2.54239988;stroke-miterlimit:3.86400008"
   id="path253" />
<path
   d="M 113.219,122.446 C 107.386,122.687 102.131,123.181 97.587,118.276 C 87.524,108.694 94.948,91.52 87.861,80.709 C 87.006,77.865 86.113,73.429 88.235,70.959 C 92.827,71.007 93.466,76.684 97.54,77.961 C 105.94,77.672 106.133,89.567 114.521,89.423 C 118.8,94.895 115.292,102.126 114.847,108.224 C 112.328,110.972 109.194,109.538 107.784,106.332 C 106.109,102.97 108.182,97.787 105.542,94.726 C 102.457,95.461 103.891,99.764 101.191,100.632 C 96.105,95.715 101.89,86.012 94.899,81.252 L 93.718,82.638 C 98.081,93.365 87.343,105.73 101.395,112.371 C 107.023,108.9 110.916,115.878 116.28,113.335 C 120.944,116.228 116.69,121.579 113.219,122.446"
   style="fill:#ffd900"
   id="path255" />
<path
   d="M 113.219,122.446 C 107.386,122.687 102.131,123.181 97.587,118.276 C 87.524,108.694 94.948,91.52 87.861,80.709 C 87.006,77.865 86.113,73.429 88.235,70.959 C 92.827,71.007 93.466,76.684 97.54,77.961 C 105.94,77.672 106.133,89.567 114.521,89.423 C 118.8,94.895 115.292,102.126 114.847,108.224 C 112.328,110.972 109.194,109.538 107.784,106.332 C 106.109,102.97 108.182,97.787 105.542,94.726 C 102.457,95.461 103.891,99.764 101.191,100.632 C 96.105,95.715 101.89,86.012 94.899,81.252 L 93.718,82.638 C 98.081,93.365 87.343,105.73 101.395,112.371 C 107.023,108.9 110.916,115.878 116.28,113.335 C 120.944,116.228 116.69,121.579 113.219,122.446 z "
   style="fill:none;stroke:#ffd900;stroke-width:2.54239988;stroke-miterlimit:3.86400008"
   id="path257" />
<path
   d="M 113.171,306.93 L 108.012,305.665 C 106.951,298.783 112.544,293.962 117.485,289.949 C 115.81,295.529 112.942,300.579 113.171,306.93"
   style="fill:#ffd900"
   id="path259" />
<path
   d="M 113.171,306.93 L 108.012,305.665 C 106.951,298.783 112.544,293.962 117.485,289.949 C 115.81,295.529 112.942,300.579 113.171,306.93 z "
   style="fill:none;stroke:#ffd900;stroke-width:2.54239988;stroke-miterlimit:3.86400008"
   id="path261" />
<path
   d="M 92.091,253.346 L 92.778,254.009 L 83.22,265.808 C 81.449,264.205 85.618,262.373 83.847,260.65 C 86.462,255.733 90.307,252.43 94.574,248.826 C 94.056,250.875 94.237,252.081 92.091,253.346"
   style="fill:#ffd900"
   id="path263" />
<path
   d="M 92.091,253.346 L 92.778,254.009 L 83.22,265.808 C 81.449,264.205 85.618,262.373 83.847,260.65 C 86.462,255.733 90.307,252.43 94.574,248.826 C 94.056,250.875 94.237,252.081 92.091,253.346 z "
   style="fill:none;stroke:#ffd900;stroke-width:2.54239988;stroke-miterlimit:3.86400008"
   id="path265" />
</svg>