<?xml version="1.0" encoding="UTF-8" standalone="no"?>
<!-- Created with Inkscape (http://www.inkscape.org/) -->
<svg
   xmlns:svg="http://www.w3.org/2000/svg"
   xmlns="http://www.w3.org/2000/svg"
   version="1.0"
   width="800"
   height="737.42902"
   viewBox="0 0 800 737.429"
   id="Layer_1"
   xml:space="preserve"><defs
   id="defs56" />
<g
   id="g3">
	<g
   id="g5">
		<g
   id="g7">
			<g
   id="g9">
				<g
   id="g11">
					<g
   id="g13">
						<path
   d="M 557.312,404.944 C 549.921,453.256 532.134,487.22 505.131,514.284 C 524.433,531.324 551.705,540.459 608.505,551.819 L 609.769,552.085 L 610.99,552.463 C 646.176,564.053 673.267,593.689 687.067,623.443 L 701.024,653.547 L 667.87,653.547 C 649.878,653.547 620.931,651.869 593.027,644.727 C 595.896,658.018 597.528,673.259 597.528,691.394 L 597.528,715.432 L 573.681,712.4 C 539.743,708.126 506.479,689.826 481.384,659.367 C 469.144,684.725 450.82,713.283 428.613,728.878 L 416.44,737.43 L 404.264,728.878 C 382.058,713.283 363.745,684.726 351.512,659.367 C 326.389,689.826 293.132,708.126 259.175,712.4 L 235.346,715.432 L 235.346,691.394 C 235.346,673.259 236.97,658.018 239.847,644.727 C 211.94,651.87 183.008,653.547 165.025,653.547 L 131.86,653.547 L 145.796,623.443 C 159.608,593.689 186.711,564.053 221.906,552.463 L 223.117,552.085 L 224.368,551.819 C 281.219,540.46 308.477,531.324 327.769,514.248 C 303.525,489.944 286.679,460.036 278.154,419.218 C 261.501,438.553 236.064,462.228 202.594,473.168 C 169.856,483.866 123.836,503.587 96.533,520.403 L 90.448,524.142 C 103.051,534.332 111.1,549.896 111.1,567.36 C 111.1,598.036 86.231,622.905 55.549,622.905 C 24.867,622.905 0,598.036 0,567.36 C 0,536.684 24.869,511.827 55.551,511.827 C 59.468,511.827 63.289,512.217 67.004,512.991 C 48.296,486.366 38.1,439.073 38.1,399.256 C 38.1,286.965 117.571,200.236 210.098,200.236 C 224.919,200.236 255.341,204.505 282.483,210.62 C 277.196,191.409 273.376,170.132 273.376,149.697 C 273.376,78.885 315.844,0 443.346,0 C 553.647,0 651.462,71.176 679.868,108.476 L 687.277,118.227 C 697.473,105.794 712.932,97.865 730.247,97.865 C 760.941,97.865 785.799,122.752 785.799,153.413 C 785.799,184.101 760.942,208.952 730.247,208.952 C 699.583,208.952 674.705,184.101 674.705,153.413 C 674.705,149.674 675.101,146.004 675.793,142.482 L 663.003,142.482 C 620.861,142.482 578.907,144.673 555.621,161.036 C 546.256,167.611 538.318,179.131 532.865,192.737 C 559.678,184.083 593.027,178.623 625.084,185.818 C 741.495,211.981 769.375,307.709 769.375,364.143 C 769.375,415.943 756.942,461.507 745.854,481.845 L 745.001,483.399 C 775.415,483.72 800,508.471 800,538.963 C 800,569.645 775.125,594.527 744.449,594.527 C 713.781,594.527 688.894,569.645 688.894,538.963 C 688.894,518.761 699.707,501.074 715.834,491.356 C 657.723,481.202 589.523,448.516 557.312,404.944"
   id="path15" />
						<path
   d="M 416.446,308.46 C 428.402,301.728 448.57,293.521 472.853,290.894 C 513.203,294.256 550.541,330.503 562.131,368.981 C 576.562,416.93 657.043,462.004 727.289,471.71 C 736.236,455.281 748.183,413.43 748.183,364.145 C 748.183,313.318 723.532,229.648 620.425,206.49 C 576.68,196.654 527.783,214.685 503.863,228.146 C 505.251,196.759 519.031,160.844 543.453,143.702 C 573.232,122.784 622.652,121.296 663.005,121.296 C 637.98,88.41 546.033,21.16 443.346,21.16 C 328.915,21.16 294.56,89.154 294.56,149.696 C 294.56,182.576 305.866,219.162 316.328,243.066 C 295.397,232.622 232.404,221.416 210.098,221.416 C 131.66,221.416 59.284,296.139 59.284,399.255 C 59.284,438.096 69.74,481.444 85.435,502.368 C 114.576,484.446 162.249,464.059 196.039,453.032 C 230.288,441.835 255.807,414.203 270.746,394.772 C 269.619,357.781 289.793,299.128 357.793,290.159 C 381.332,293.155 405.984,302.118 416.446,308.46"
   style="fill:#fcf118"
   id="path17" />
						<path
   d="M 710.091,538.963 C 710.091,520.006 725.481,504.608 744.454,504.608 C 763.438,504.608 778.821,520.007 778.821,538.963 C 778.821,557.956 763.438,573.333 744.454,573.333 C 725.48,573.333 710.091,557.956 710.091,538.963"
   style="fill:#fcf118"
   id="path19" />
						<path
   d="M 21.181,567.36 C 21.181,548.385 36.564,532.981 55.551,532.981 C 74.526,532.981 89.908,548.386 89.908,567.36 C 89.908,586.334 74.525,601.73 55.551,601.73 C 36.564,601.73 21.181,586.334 21.181,567.36"
   style="fill:#fcf118"
   id="path21" />
						<path
   d="M 416.446,338.725 C 423.156,332.368 448.57,318.928 472.469,316.667 C 504.209,322.283 534.096,346.185 538.232,386.921 C 530.762,461.65 500.513,499.359 448.57,531.502 C 443.848,534.102 429.511,535.973 416.446,535.973 C 403.378,535.973 389.536,534.238 384.316,531.502 C 332.38,499.359 302.133,461.649 294.636,386.921 C 298.778,346.185 328.656,322.283 360.401,316.667 C 384.316,318.928 409.723,332.368 416.446,338.725"
   style="fill:#ffffff"
   id="path23" />
						<path
   d="M 432.944,356.487 C 438.555,349.93 459.781,342.836 480.31,341.324 C 491.539,341.895 507.026,350.102 509.81,357.39 C 509.81,362.807 505.533,370.464 501.582,371.214 C 497.492,370.286 487.054,365.625 476.027,365.625 C 465.008,365.625 446.756,371.214 440.789,373.838 C 436.3,371.042 432.944,363.947 432.944,356.487"
   id="path25" />
						<path
   d="M 446.961,382.998 C 449.017,380.389 456.314,374.972 465.842,374.972 C 478.732,376.26 491.047,381.504 493.305,387.855 C 493.305,392.345 489.487,399.617 485.189,401.123 C 482.743,398.494 464.915,394.022 453.791,396.066 C 450.807,394.022 446.961,388.977 446.961,382.998"
   id="path27" />
						<path
   d="M 345.203,390.643 C 345.203,381.163 352.899,373.476 362.394,373.476 C 371.886,373.476 379.579,381.163 379.579,390.643 C 379.579,400.138 371.886,407.84 362.394,407.84 C 352.899,407.84 345.203,400.137 345.203,390.643"
   id="path29" />
						<path
   d="M 390.938,399.255 C 390.938,406.534 390.555,411.751 390.11,413.067 C 374.313,416.806 365.812,427.825 365.812,442.22 C 370.108,451.164 380.763,459.571 394.575,459.571 C 400.748,465.372 411.388,468.903 416.44,469.477 C 421.479,468.903 432.116,465.372 438.301,459.571 C 452.106,459.571 462.759,451.165 467.075,442.22 C 466.32,428.958 458.654,420.358 447.828,416.247 C 439.228,416.613 431.384,421.497 431.384,423.713 C 433.818,424.273 439.785,428.202 441.326,433.069 C 440.589,437.724 435.915,442.392 427.515,443.147 C 426.021,446.131 419.429,449.314 416.439,450.043 C 413.449,449.314 406.844,446.131 405.363,443.147 C 396.956,442.392 392.278,437.724 391.54,433.069 C 395.446,425.787 407.165,422.036 409.611,421.48 C 409.611,374.398 406.715,358.897 404.115,353.665 C 396.649,345.071 373.859,337.601 352.569,336.839 C 341.358,337.413 325.844,346.002 323.045,353.299 C 323.045,358.721 327.335,366.376 331.25,367.122 C 335.367,366.182 345.847,361.131 356.859,361.131 C 367.893,361.131 380.199,362.827 387.3,366.376 C 389.237,369.347 390.938,378.137 390.938,399.255"
   id="path31" />
						<path
   d="M 416.446,475.697 C 430.439,477.184 447.451,482.036 460.519,482.791 C 468.363,480.563 469.948,477.326 472.56,473.58 C 477.242,469.66 488.62,476.204 486.664,482.619 C 483.133,491.198 472.665,499.933 460.885,502.721 C 447.642,502.177 428.946,498.504 416.446,498.132 C 403.922,498.504 385.232,502.177 371.977,502.721 C 356.488,499.743 348.262,488.779 345.847,478.323 C 345.535,469.281 356,466.491 360.115,470.787 C 361.986,476.02 363.219,481.12 372.36,482.791 C 385.449,482.036 402.432,477.184 416.446,475.697"
   id="path33" />
						<path
   d="M 416.446,559.509 C 406.362,559.509 391.021,557.257 377.569,553.92 C 366.376,549.059 353.679,538.591 343.592,528.495 C 319.306,550.915 286.426,561.015 228.529,572.584 C 200.133,581.934 176.971,606.591 165.025,632.364 C 195.65,632.364 250.191,627.136 278.966,604.344 C 265.885,625.634 256.529,649.182 256.529,691.394 C 295.02,686.534 334.238,659.621 356.278,612.179 C 360.401,631.985 385.059,689.523 416.445,711.544 C 447.819,689.523 472.468,631.984 476.585,612.179 C 498.634,659.62 537.874,686.533 576.342,691.394 C 576.342,649.182 566.987,625.634 553.919,604.344 C 582.675,627.136 637.242,632.364 667.869,632.364 C 655.908,606.591 632.74,581.933 604.355,572.584 C 546.446,561.015 513.579,550.916 489.298,528.495 C 479.208,538.591 466.508,549.059 455.291,553.92 C 441.847,557.257 426.512,559.509 416.446,559.509"
   style="fill:#fcf118"
   id="path35" />
						<path
   d="M 667.87,632.364 C 655.909,606.591 632.741,581.933 604.356,572.584 C 546.447,561.015 513.58,550.916 489.299,528.495 C 487.709,530.085 486.056,531.687 484.372,533.287 C 540.852,584.557 614.435,599.113 667.87,632.364"
   style="fill:#e11515"
   id="path37" />
						<path
   d="M 553.92,604.344 C 537.101,588.65 485.488,548.231 478.442,538.555 C 475.057,541.426 471.577,544.144 468.086,546.565 C 497.499,588.272 544.226,624.123 576.344,691.394 C 576.343,649.182 566.988,625.634 553.92,604.344"
   style="fill:#e11515"
   id="path39" />
						<path
   d="M 416.446,711.544 C 447.82,689.523 472.469,631.984 476.586,612.179 C 473.606,593.144 458.654,575.21 455.293,553.914 C 441.848,557.257 426.512,559.509 416.446,559.509 L 416.446,711.544 z "
   style="fill:#e11515"
   id="path41" />
						<path
   d="M 165.025,632.364 C 195.65,632.364 250.191,627.136 278.966,604.344 C 295.763,588.65 347.383,548.231 354.453,538.555 C 352.422,536.826 350.433,535.06 348.529,533.286 C 292.024,584.557 218.433,599.113 165.025,632.364"
   style="fill:#e11515"
   id="path43" />
						<path
   d="M 356.278,612.179 C 359.28,593.139 374.207,575.21 377.568,553.92 C 373.439,552.137 369.116,549.567 364.791,546.566 C 335.367,588.273 288.66,624.124 256.529,691.395 C 295.02,686.534 334.239,659.621 356.278,612.179"
   style="fill:#e11515"
   id="path45" />
						<path
   d="M 416.446,308.46 C 405.984,302.118 381.332,293.155 357.793,290.159 C 350.68,278.948 327.528,252.803 316.329,243.065 C 305.867,219.161 294.561,182.575 294.561,149.695 C 294.561,89.153 328.916,21.159 443.347,21.159 C 545.81,21.159 637.615,88.149 662.856,121.087 C 634.347,108.946 581.589,90.682 530.656,90.682 C 450.317,90.682 414.496,146.333 414.496,234.643 C 414.496,272.965 416.446,308.46 416.446,308.46"
   style="fill:#e11515"
   id="path47" />
						<path
   d="M 503.861,228.145 C 527.79,214.685 576.685,196.653 620.417,206.489 C 723.53,229.647 748.182,313.317 748.182,364.144 C 748.182,413.438 736.236,455.281 727.282,471.709 C 697.38,376.824 643.12,287.874 582.968,287.874 C 561.962,287.874 538.308,296.592 522.589,311.939 C 507.898,300.279 490.671,292.381 472.854,290.893 C 479.948,269.226 493.399,240.847 503.861,228.145"
   style="fill:#e11515"
   id="path49" />
						<path
   d="M 296.214,321.582 C 276.78,343.809 270.075,373.028 270.746,394.772 C 255.801,414.203 230.294,441.835 196.033,453.032 C 162.249,464.059 114.575,484.446 85.441,502.368 C 113.366,376.825 158.183,299.688 221.322,299.688 C 253.175,299.688 284.676,312.755 296.214,321.582"
   style="fill:#e11515"
   id="path51" />
						<path
   d="M 695.629,152.509 C 695.629,133.529 711.012,118.134 729.987,118.134 C 748.967,118.134 764.366,133.53 764.366,152.509 C 764.366,171.493 748.968,186.864 729.987,186.864 C 711.013,186.865 695.629,171.493 695.629,152.509"
   style="fill:#fcf118"
   id="path53" />
					</g>
				</g>
			</g>
		</g>
	</g>
</g>
</svg>