<?xml version="1.0" encoding="UTF-8" standalone="no"?>
<!-- Created with Inkscape (http://www.inkscape.org/) -->

<svg
   xmlns:dc="http://purl.org/dc/elements/1.1/"
   xmlns:cc="http://creativecommons.org/ns#"
   xmlns:rdf="http://www.w3.org/1999/02/22-rdf-syntax-ns#"
   xmlns:svg="http://www.w3.org/2000/svg"
   xmlns="http://www.w3.org/2000/svg"
   xmlns:sodipodi="http://sodipodi.sourceforge.net/DTD/sodipodi-0.dtd"
   xmlns:inkscape="http://www.inkscape.org/namespaces/inkscape"
   width="500"
   height="587"
   viewBox="0 0 500.00001 587.00001"
   id="svg2"
   version="1.1"
   inkscape:version="0.91 r13725"
   sodipodi:docname="Mikkelin Jukurit logo.svg">
  <defs
     id="defs4" />
  <sodipodi:namedview
     id="base"
     pagecolor="#ffffff"
     bordercolor="#666666"
     borderopacity="1.0"
     inkscape:pageopacity="0.0"
     inkscape:pageshadow="2"
     inkscape:zoom="0.63369141"
     inkscape:cx="607.64189"
     inkscape:cy="365.385"
     inkscape:document-units="px"
     inkscape:current-layer="layer1"
     showgrid="false"
     units="px"
     inkscape:window-width="1920"
     inkscape:window-height="1137"
     inkscape:window-x="-4"
     inkscape:window-y="-4"
     inkscape:window-maximized="1" />
  <metadata
     id="metadata7">
    <rdf:RDF>
      <cc:Work
         rdf:about="">
        <dc:format>image/svg+xml</dc:format>
        <dc:type
           rdf:resource="http://purl.org/dc/dcmitype/StillImage" />
        <dc:title></dc:title>
      </cc:Work>
    </rdf:RDF>
  </metadata>
  <g
     inkscape:label="Taso 1"
     inkscape:groupmode="layer"
     id="layer1"
     transform="translate(0,-465.36216)">
    <g
       transform="matrix(4.1901442,0,0,-4.1901442,225.47625,1052.3622)"
       id="g3740">
      <path
         inkscape:connector-curvature="0"
         id="path3742"
         style="fill:#ffffff;fill-opacity:1;fill-rule:nonzero;stroke:none"
         d="m 0,0 c -1.267,0 -2.467,0.593 -3.236,1.612 -0.356,0.47 -0.599,1.005 -0.723,1.564 l -0.033,0 c -1.205,0 -2.359,0.538 -3.136,1.484 l -4.718,5.753 c -0.548,0.547 -2.584,2.579 -4.66,4.646 -0.622,-0.39 -1.359,-0.614 -2.148,-0.614 -0.008,10e-4 -0.018,0 -0.03,0 -0.642,0 -1.289,0.151 -1.885,0.464 -0.284,0.149 -1.793,0.96 -3.612,2.282 -0.732,-0.718 -1.734,-1.16 -2.84,-1.16 -0.014,0.003 -0.019,0 -0.028,0 -0.182,0 -0.366,0.013 -0.549,0.038 -1.514,0.206 -6.86,1.712 -12.088,12.406 -2.243,4.586 -2.665,7.581 -2.607,10.668 0.058,3.335 0.82,5.744 0.907,6.007 0.005,0.017 0.011,0.034 0.017,0.052 -0.01,0.157 -0.01,0.317 0,0.478 l 0.133,2.291 c -0.055,0.124 -0.104,0.251 -0.147,0.38 -0.072,0.215 -0.297,0.794 -0.503,1.146 -0.231,0.397 -0.637,1.29 -1.115,2.41 -1.227,-0.357 -2.589,-0.122 -3.648,0.715 -0.82,0.649 -1.329,1.559 -1.487,2.53 -1.653,0.012 -3.146,1.031 -3.751,2.59 -0.637,1.644 -0.139,3.512 1.232,4.621 0.946,0.77 2.202,2.04 2.557,2.698 0.76,1.409 1.425,3.981 1.425,4.79 0,1.734 0.338,7.402 4.291,13.556 -1.161,2.219 -2.617,5.872 -3.048,10.786 -0.67,7.664 -0.165,20.523 0.085,24.092 0.282,4.068 -0.097,6.511 -0.349,7.163 l -0.206,0.275 c -0.703,0.941 -0.87,1.165 -2.009,1.498 -0.374,0.11 -0.701,0.166 -0.978,0.218 -4.045,0.755 -4.911,3.322 -4.924,5.344 -0.019,3.161 2.797,5.659 7.009,6.215 0.605,0.08 1.579,0.176 2.788,0.176 2.462,0 6.09,-0.4 9.392,-2.301 3.536,-2.034 7.709,-5.639 11.844,-16.947 l 0.067,-0.184 c 0.512,0.636 1.04,1.261 1.572,1.843 1.544,1.687 4.05,4.017 6.543,6.086 5.174,4.295 12.837,9.473 19.954,9.751 0.053,0.002 0.11,0.003 0.163,0.003 1.197,0 7.688,-0.456 18.009,-9.483 4.646,-4.062 7.725,-7.175 9.874,-9.708 0.383,1.117 0.702,2.049 0.86,2.521 1.496,4.482 4.155,10.617 8.326,14.394 3.479,3.146 8.051,4.879 12.874,4.879 1.436,0 2.866,-0.152 4.246,-0.451 3.691,-0.721 6.047,-3.316 5.787,-6.439 -0.31,-3.702 -3.852,-4.673 -5.364,-5.088 -0.438,-0.121 -1.172,-0.323 -1.391,-0.462 l -0.348,-0.306 c -0.817,-0.698 -1.742,-1.489 -1.361,-8.111 0.498,-8.621 0.73,-19.643 0.287,-22.307 -0.034,-0.205 -0.057,-0.512 -0.092,-0.897 -0.297,-3.202 -1.022,-11.044 -6.297,-15.939 0.828,-1.385 1.775,-3.257 2.237,-5.188 0.621,-2.593 1.263,-5.272 2.996,-7.917 0.597,-0.706 0.957,-1.619 0.957,-2.616 0,-1.919 -1.333,-3.527 -3.124,-3.948 0.128,-1.819 0.067,-3.865 -0.316,-6.095 -1.08,-6.289 -3.446,-9.715 -4.923,-11.314 l -0.041,-0.14 c -0.09,-0.297 -0.211,-0.58 -0.362,-0.843 0.098,-0.517 0.098,-1.055 -0.013,-1.589 l -0.578,-2.772 c -0.044,-0.213 -0.106,-0.422 -0.182,-0.623 0.369,-0.849 0.601,-1.867 0.608,-3.086 0.012,-3.725 -1.37,-7.369 -4.348,-11.476 -3.2,-4.411 -7.044,-6.252 -10.037,-7.362 -1.474,-0.549 -3.14,-0.192 -4.262,0.918 -0.589,0.581 -0.972,1.313 -1.127,2.091 l -3.95,-7.265 C 23.716,9.425 22.238,8.606 20.675,8.691 20.666,8.693 20.658,8.693 20.649,8.693 L 16.869,3.437 C 15.95,2.161 14.385,1.53 12.83,1.819 11.804,2.011 10.912,2.585 10.313,3.396 7.821,1.722 4.459,0.237 0.222,0.005 0.148,0.001 0.074,0 0,0" />
    </g>
    <g
       transform="matrix(4.1901442,0,0,-4.1901442,482.97821,493.07724)"
       id="g3744">
      <path
         inkscape:connector-curvature="0"
         id="path3746"
         style="fill:#003471;fill-opacity:1;fill-rule:nonzero;stroke:none"
         d="m 0,0 c 0.134,1.601 -2.602,2.136 -2.602,2.136 -4.002,0.866 -9.337,0.331 -13.539,-3.469 -4.2,-3.802 -6.601,-10.872 -7.202,-12.671 -0.601,-1.801 -3.535,-10.271 -3.535,-10.271 -1.601,3.201 -3.935,7.135 -13.716,15.688 -9.779,8.551 -15.343,8.48 -15.343,8.48 -5.974,-0.234 -13.095,-5.145 -17.523,-8.82 -2.585,-2.146 -4.859,-4.302 -6.138,-5.7 -2.922,-3.199 -5.833,-7.956 -5.833,-7.956 -0.798,2.954 -1.805,5.427 -2.612,7.639 -3.691,10.097 -7.197,13.18 -10.057,14.826 -3.486,2.006 -7.726,1.869 -9.625,1.619 -1.899,-0.251 -3.49,-1.148 -3.484,-2.168 0.01,-1.488 1.054,-1.129 2.984,-1.695 2.709,-0.792 3.43,-2.069 4.405,-3.342 1.155,-1.511 1.332,-5.953 1.067,-9.771 -0.267,-3.82 -0.711,-16.346 -0.09,-23.453 0.623,-7.106 3.731,-11.104 3.731,-11.104 l 0.059,-0.302 c -4.593,-5.868 -5.018,-11.664 -5.018,-13.291 0,-1.626 -0.92,-4.876 -1.91,-6.713 -0.989,-1.838 -3.577,-3.929 -3.577,-3.929 4.753,0.283 5.958,2.697 5.958,2.697 0.781,-1.207 -1.986,-6.103 -1.986,-6.103 l 2.838,2.624 c 0,0 2.413,-6.031 2.909,-6.881 0.498,-0.853 0.852,-1.917 0.852,-1.917 0.004,10e-4 0.007,0.003 0.011,0.005 0.169,-0.515 0.314,-1.445 0.36,-1.774 -0.007,-0.002 -0.017,-0.005 -0.017,-0.005 l -0.141,-2.413 c 0.008,0.001 0.014,0.001 0.021,0.003 -0.04,-0.524 -0.157,-1.151 -0.233,-1.513 l 0,-0.05 -10e-4,0 c 0,0 -0.655,-1.991 -0.705,-4.815 -0.04,-2.197 0.147,-4.621 2.196,-8.811 4.683,-9.58 8.992,-10.169 8.992,-10.169 -1.858,3.884 -1.53,10.719 -1.53,10.719 0.11,-1.149 0.164,-3.445 2.844,-6.727 2.679,-3.281 7.053,-5.579 7.053,-5.579 l -2.022,4.486 1.933,0.049 c 0.725,-0.707 9.934,-9.893 9.934,-9.893 l 4.847,-5.91 c 1.944,4.408 3.889,5.056 4.471,4.863 1.857,-0.619 -0.092,-6.915 -0.479,-8.038 8.174,0.445 12.279,6.741 12.279,6.741 l 1.295,-4.992 6.483,9.011 0.844,-2.074 5.64,10.37 c 1.297,-0.388 4.732,-0.258 4.732,-0.258 l -2.01,1.75 c 4.668,1.814 5.316,6.157 5.316,6.157 -0.129,-6.157 -2.186,-11.901 -2.186,-11.901 2.16,0.802 5.466,2.222 8.164,5.942 2.699,3.722 3.583,6.565 3.575,9.07 -10e-4,0.249 -0.022,0.476 -0.055,0.688 0.031,1.672 -0.303,3.634 -0.351,3.907 0.041,-0.021 0.066,-0.035 0.066,-0.035 l 0.577,2.772 c -0.047,0.031 -0.096,0.055 -0.144,0.086 0.078,-0.043 0.125,-0.071 0.125,-0.071 l 0.467,2.766 c 0.009,-0.005 0.014,-0.007 0.014,-0.007 l 0.347,1.154 c 0,0 3.235,2.426 4.504,9.819 1.271,7.391 -1.732,12.36 -1.732,12.36 l 5.084,-3.005 c -2.311,3.352 -3.121,6.701 -3.813,9.587 -0.691,2.889 -3.003,5.892 -3.003,5.892 l 0.114,1.85 c 6.702,3.927 6.65,13.892 6.985,15.894 0.333,2 0.199,12.139 -0.335,21.408 C -9.005,-5.27 -7.07,-4.333 -5.336,-2.8 -3.602,-1.266 -0.134,-1.601 0,0" />
    </g>
    <g
       transform="matrix(4.1901442,0,0,-4.1901442,411.3678,764.21604)"
       id="g3748">
      <path
         inkscape:connector-curvature="0"
         id="path3750"
         style="fill:#ffd400;fill-opacity:1;fill-rule:nonzero;stroke:none"
         d="m 0,0 c 0,0 2.165,-7.721 0.942,-13.353 0,0 -4.176,7.365 -4.081,7.044 0.123,-0.415 -1.07,-2.148 2.258,-7.693 2.197,-3.662 -0.487,-8.788 -0.487,-8.788 0,0 3.547,2.701 4.904,11.076 C 4.628,-4.978 0,0 0,0" />
    </g>
    <g
       transform="matrix(4.1901442,0,0,-4.1901442,58.599576,802.49257)"
       id="g3752">
      <path
         inkscape:connector-curvature="0"
         id="path3754"
         style="fill:#ffd400;fill-opacity:1;fill-rule:nonzero;stroke:none"
         d="m 0,0 c 0,0 -1.107,8.552 -0.408,13.44 0.699,4.889 4.365,8.261 4.365,8.261 0,0 2.618,-2.21 3.139,-2.385 0,0 -4.945,-4.657 -5.934,-8.612 C 0.174,6.747 0.697,5.701 0.697,5.701 c 0,0 0.757,3.957 4.887,8.03 l 4.365,3.549 c 0,0 -1.804,-5.876 -0.989,-13.092 l 0.697,-6.167 c 0,0 -3.723,6.402 -2.268,12.453 0,0 -5.471,-2.969 -6.864,-7.915 L 0.405,-0.117 0,0 Z" />
    </g>
    <g
       transform="matrix(4.1901442,0,0,-4.1901442,210.89287,939.429)"
       id="g3756">
      <path
         inkscape:connector-curvature="0"
         id="path3758"
         style="fill:#ffffff;fill-opacity:1;fill-rule:nonzero;stroke:none"
         d="M 0,0 0.677,1.644 2.066,0.145 5.055,2.288 6.124,1.037 7.191,4.324 8.758,1.323 9.221,2.11 c 0,0 1.211,-0.536 2.313,-1.073 1.104,-0.536 1.139,-0.751 1.139,-0.751 0,0 0.143,0.931 1.46,1.287 l 2.676,-1.894 c 0,0 -5.275,-3.285 -8.978,-2.892 -4.627,0.177 -10.3,4.089 -10.3,4.089" />
    </g>
    <g
       transform="matrix(4.1901442,0,0,-4.1901442,97.883442,904.79286)"
       id="g3760">
      <path
         inkscape:connector-curvature="0"
         id="path3762"
         style="fill:#ffd400;fill-opacity:1;fill-rule:nonzero;stroke:none"
         d="m 0,0 c 1.669,-3.589 4.573,-5.599 4.573,-5.599 0,0 -0.896,1.755 -1.318,7.359 -0.242,3.218 -4.768,4.312 -6.71,4.268 0,0 -2.82,-2.05 -0.873,-8.114 1.523,-4.744 4.581,-6.331 4.581,-6.331 0,0 -2.341,4.59 -0.253,8.417" />
    </g>
    <g
       transform="matrix(4.1901442,0,0,-4.1901442,219.20193,787.59788)"
       id="g3764">
      <path
         inkscape:connector-curvature="0"
         id="path3766"
         style="fill:#ffffff;fill-opacity:1;fill-rule:nonzero;stroke:none"
         d="m 0,0 -0.475,-4.345 -0.077,-4.053 c -0.709,-0.513 -3.634,-0.912 -4.698,-0.779 -0.208,0.385 2.936,1.533 2.743,2.071 0,0 -4.338,-1.805 -6.997,-1.406 -0.455,0.123 3.471,1.221 3.246,2.013 -2.049,-0.817 -3.113,-0.817 -6.703,-0.817 -0.67,0.12 2.604,1.196 2.375,1.65 -2.97,0.915 -4.103,2.073 -4.103,2.073 3.589,-0.798 7.844,-2.526 12.305,-1.021 -0.486,0.912 -0.974,1.81 -1.627,3.012 0,0 -1.106,-2.922 -4.333,-2.115 -3.021,0.523 -3.031,3.086 -3.031,3.086 0,0 -3.78,-0.303 -6.637,1.829 2.658,5.712 -2.515,5.694 -2.515,5.694 0,0 2.381,4.006 10.221,-3.953 C -4.585,-3.593 0,0 0,0 m 30.516,-39.47 c -4.39,5.166 -7.181,4.648 -7.517,5.06 -2.191,4.227 -3.259,5.597 -3.778,6.108 -3.332,3.969 -8.384,5.431 -13.207,3.567 l 0,25.581 C 0.666,1.592 -1.66,2.39 -8.706,5.314 c -6.05,2.526 -14.066,6.481 -14.066,6.481 -0.996,-3.599 0.765,-8.27 0.765,-8.27 l 3.67,-6.877 -4.98,4.121 -0.615,0.075 2.156,-4.89 c -0.615,0.281 -0.925,0.23 -1.335,0.203 -0.409,-0.025 -1.232,-0.796 -0.668,-3.836 0.565,-3.04 2.734,-5.194 3.1,-5.753 0.364,-0.56 0.704,0.12 0.704,0.12 0.565,0.717 1.115,-0.431 1.405,-0.909 0.694,-1.142 1.775,-3.256 1.775,-3.256 l 0.436,0.951 c 0.486,0.829 0.729,0.875 1.142,0.17 0.412,-0.708 1.463,-3.897 1.463,-3.897 0.213,0.98 0.611,2.019 0.889,2.031 0.279,0.01 0.851,-1.389 1.156,-2.37 0.305,-0.98 0.673,-1.276 0.673,-1.276 0.52,0.901 -0.001,2.839 0.463,2.593 0.465,-0.246 0.879,-1.866 0.879,-1.866 1.387,-2.527 1.324,-5.714 1.324,-5.714 0,0 -9.656,7.001 -10.533,7.303 -0.876,0.303 -0.223,-0.551 -0.223,-0.551 l 2.259,-4.163 c -0.397,0.03 -2.868,0.98 -2.868,0.98 l 3.265,-3.674 c 0,0 1.007,-0.95 0.855,-1.227 -0.153,-0.273 -3.167,1.912 -3.594,2.125 -0.427,0.215 0.266,-1.329 0.266,-1.329 0,0 3.658,-1.83 4.919,-4.121 1.26,-2.292 0.013,-2.9 0.013,-2.9 l 0.502,-0.542 c 0.945,1.224 3.265,2.389 3.265,2.389 -0.427,-1.777 -1.653,-2.936 -1.653,-2.936 0,0 -1.216,-0.832 -3.26,-1.444 -2.045,-0.611 -3.724,-2.298 -3.724,-2.298 l 6.236,2.119 0.183,-1.804 c 1.598,1.513 2.963,2.35 4.42,4.491 l 1.197,-2.261 c 0,0 -0.438,2.393 0.798,4.122 1.235,1.729 2.345,2.406 2.345,2.406 l 0.627,-1.805 c 0.617,3.52 3.111,2.929 3.111,2.929 l 1.306,-1.96 c 1.098,1.543 2.301,1.763 2.301,1.763 -1.15,1.837 -2.143,2.269 -3.292,2.806 -1.147,0.536 -4.936,-0.555 -4.936,-0.555 0,0 -3.288,1.932 -1.728,1.994 3.323,0.133 1.915,3.182 1.915,3.182 4.998,0.54 10.412,-5.416 10.412,-5.416 l 0,1.234 c 2.138,-1.136 3.546,-2.405 3.546,-2.405 0.389,1.02 0.486,0.694 0.885,1.717 1.855,-6.422 4.114,-3.098 6.041,-8.179 -0.006,1.706 -0.009,2.591 -0.006,4.468 1.935,-4.439 4.195,-1.913 5.762,-8.382 0,0 0.453,2.312 0.272,2.531 -0.229,0.268 8.278,-3.509 8.002,-3.222" />
    </g>
    <g
       transform="matrix(4.1901442,0,0,-4.1901442,321.74062,767.11562)"
       id="g3768">
      <path
         inkscape:connector-curvature="0"
         id="path3770"
         style="fill:#ffd400;fill-opacity:1;fill-rule:nonzero;stroke:none"
         d="m 0,0 c 7.836,2.11 12.781,-0.279 12.781,-7 1.047,4.786 0.419,10.025 1.363,10.236 1.932,0.433 2.673,-10.509 -0.228,-14.783 5.006,7.732 4.154,14.818 4.992,19.02 C 12.781,4.827 0,0 0,0" />
    </g>
    <g
       transform="matrix(4.1901442,0,0,-4.1901442,269.06716,793.1272)"
       id="g3772">
      <path
         inkscape:connector-curvature="0"
         id="path3774"
         style="fill:#ffffff;fill-opacity:1;fill-rule:nonzero;stroke:none"
         d="m 0,0 c 0,0 4.786,-1.509 9.995,1.728 7.587,5.338 10.213,2.247 10.213,2.247 0,0 -3.922,0.765 -6.683,-1.746 C 5.085,-6.162 0.005,-2.173 0.005,-2.173 L 0,0 Z" />
    </g>
    <g
       transform="matrix(4.1901442,0,0,-4.1901442,311.21039,810.46893)"
       id="g3776">
      <path
         inkscape:connector-curvature="0"
         id="path3778"
         style="fill:#ffffff;fill-opacity:1;fill-rule:nonzero;stroke:none"
         d="m 0,0 c -0.671,-0.912 -2.285,-1.623 -3.544,-1.542 1.238,-0.375 2.95,0.005 4.064,0.623 1.472,0.817 2.23,2.672 2.287,4.066 C 1.981,2.401 1.186,1.76 0.425,1.219 0.417,0.81 0.286,0.39 0,0" />
    </g>
    <g
       transform="matrix(4.1901442,0,0,-4.1901442,230.8279,967.39865)"
       id="g3780">
      <path
         inkscape:connector-curvature="0"
         id="path3782"
         style="fill:#ffffff;fill-opacity:1;fill-rule:nonzero;stroke:none"
         d="m 0,0 c 0,0 2.268,-0.537 5.891,0.063 3.624,0.6 5.157,1.534 5.157,1.534 0,0 1.649,-1.099 1.402,-3.228 -0.243,-2.13 -2.639,-3.868 -2.639,-3.868 0,0 -1.964,0.808 -0.972,2.661 0.995,1.852 -3.112,1.887 -2.505,-0.388 1.24,-4.155 -3.856,-6.781 -3.856,-6.781 0,0 2.22,8.302 -3.058,8.111 -1.015,-0.035 -1.665,-0.404 -2.103,-0.883 -0.928,-1.012 -2.37,-3.483 -2.37,-3.483 0,0 -9.486,11.544 1.215,7.235 C -1.806,0.328 0,0 0,0" />
    </g>
    <g
       transform="matrix(4.1901442,0,0,-4.1901442,245.70124,722.65736)"
       id="g3784">
      <path
         inkscape:connector-curvature="0"
         id="path3786"
         style="fill:#ffd400;fill-opacity:1;fill-rule:nonzero;stroke:none"
         d="m 0,0 0,2.557 c 0,0 5.005,1.064 11.997,3.814 3.533,1.392 8.056,3.177 11.779,5.549 l 1.249,-1.819 c 0,0 -6.076,-3.069 -11.194,-5.392 C 13.046,4.353 9.743,2.974 6.744,1.948 3.346,0.784 0,-0.06 0,0" />
    </g>
    <g
       transform="matrix(4.1901442,0,0,-4.1901442,275.78731,740.085)"
       id="g3788">
      <path
         inkscape:connector-curvature="0"
         id="path3790"
         style="fill:#ffd400;fill-opacity:1;fill-rule:nonzero;stroke:none"
         d="m 0,0 c 0,0 1.74,0.42 1.863,2.313 0.12,1.895 -2.133,1.969 -2.133,1.969 0,0 3.346,1.155 3.466,-1.534 C 3.317,0.06 0.304,0.031 0,0" />
    </g>
    <g
       transform="matrix(4.1901442,0,0,-4.1901442,315.0674,732.66509)"
       id="g3792">
      <path
         inkscape:connector-curvature="0"
         id="path3794"
         style="fill:#ffd400;fill-opacity:1;fill-rule:nonzero;stroke:none"
         d="m 0,0 c 0,0 1.767,1.192 1.492,2.903 -0.272,1.71 -0.973,1.74 -1.46,1.74 0,0 1.46,1.007 2.283,-0.09 C 2.681,4.062 2.818,3.296 2.686,2.575 2.192,-0.104 0.3,0.056 0,0" />
    </g>
    <g
       transform="matrix(4.1901442,0,0,-4.1901442,348.46915,721.71581)"
       id="g3796">
      <path
         inkscape:connector-curvature="0"
         id="path3798"
         style="fill:#ffd400;fill-opacity:1;fill-rule:nonzero;stroke:none"
         d="m 0,0 c -0.012,0 1.397,0.566 1.316,3.232 0,0 -0.138,1.877 -1.349,1.899 0,0 0.912,0.753 1.64,0.129 C 2.013,4.907 2.426,4.031 2.399,2.969 2.376,2.14 1.889,0.841 1.57,0.523 0.845,-0.208 0.014,0 0,0" />
    </g>
    <g
       transform="matrix(4.1901442,0,0,-4.1901442,245.92583,711.31045)"
       id="g3800">
      <path
         inkscape:connector-curvature="0"
         id="path3802"
         style="fill:#ffd400;fill-opacity:1;fill-rule:nonzero;stroke:none"
         d="m 0,0 0.081,47.081 c 0,0 -0.438,1.169 -1.608,0.657 -0.809,-0.355 -6.593,-2.039 -15.217,-9.689 -1.619,-1.434 -3.736,-3.082 -5.492,-5.057 -1.803,-2.026 -3.445,-4.358 -5.314,-6.899 l 0.375,-1.321 c 0.757,0.257 1.521,0.364 2.239,0.281 1.227,-0.141 2.456,-1.025 3.141,-2.397 0.791,-1.584 1.721,-3.846 0.898,-7.664 -0.471,-2.189 -1.065,-4.091 -1.741,-5.743 l 0.06,-0.032 C -22.578,9.217 -7.895,0.731 0,0" />
    </g>
    <g
       transform="matrix(4.1901442,0,0,-4.1901442,223.59823,724.7302)"
       id="g3804">
      <path
         inkscape:connector-curvature="0"
         id="path3806"
         style="fill:#ffd400;fill-opacity:1;fill-rule:nonzero;stroke:none"
         d="m 0,0 c 0,0 -1.905,1.082 -2.928,-0.055 -1.02,-1.136 -0.302,-2.438 -0.302,-2.438 0,0 -2.264,2.105 -0.912,3.463 C -2.789,2.328 -0.911,1.36 0,0 m -9.746,2.051 c 0,0 -1.519,1.217 -2.513,0.056 -0.801,-1.248 -0.083,-2.549 -0.083,-2.549 0,0 -2.235,2.381 -0.884,3.933 1.354,1.552 3.425,-1.08 3.48,-1.44 m -7.357,2.49 c 0,0 -1.326,1.331 -2.072,-0.055 C -19.92,3.1 -19.45,1.909 -19.45,1.909 l -0.056,-0.138 c 0,0 -1.055,2.49 -0.437,3.951 0.62,1.462 1.624,1.092 2.84,-1.181 m 22.37,-15.36 c 0,1.466 -0.014,11.193 -0.014,11.193 0,0 -9.313,1.787 -23.443,10.151 -2.441,-4.819 -5.597,-7.077 -7.947,-8.138 2.593,-1.509 6.77,-3.95 8.956,-5.083 2.181,-1.132 14.472,-6.927 20.82,-7.942 0,0 1.628,-0.472 1.628,-0.181" />
    </g>
    <g
       transform="matrix(4.1901442,0,0,-4.1901442,41.962626,497.26615)"
       id="g3808">
      <path
         inkscape:connector-curvature="0"
         id="path3810"
         style="fill:#ffd400;fill-opacity:1;fill-rule:nonzero;stroke:none"
         d="m 0,0 c 0.918,-0.443 2.035,-1.15 2.979,-2.223 1.037,-1.176 1.866,-2.793 1.991,-4.983 0.373,-6.423 -0.282,-15.317 -0.058,-21.44 0.162,-4.437 -0.216,-13.346 3.501,-17.78 3.474,-4.145 9.381,-1.097 12.582,2.042 0.766,0.752 1.98,2.132 1.45,3.315 -0.24,0.532 -0.899,1.028 -2.645,0.653 -3.195,-0.689 -8.688,0.564 -10.523,9.897 -1.232,6.275 -1.601,12.773 -1.735,16.405 C 7.435,-11.2 7.461,-7.701 6.549,-4.85 6.125,-3.52 5.159,-2.297 4.132,-1.248 3.074,-0.169 1.752,0.631 0.277,0.858 0.006,0.898 -0.208,0.922 -0.376,0.942 -0.871,1.008 -0.968,0.863 -1.019,0.718 -1.124,0.428 -0.971,0.469 0,0" />
    </g>
    <g
       transform="matrix(4.1901442,0,0,-4.1901442,462.09161,490.07921)"
       id="g3812">
      <path
         inkscape:connector-curvature="0"
         id="path3814"
         style="fill:#ffd400;fill-opacity:1;fill-rule:nonzero;stroke:none"
         d="m 0,0 c -1.237,0.114 -2.856,0.046 -4.74,-0.537 -4.431,-1.365 -7.705,-5.366 -11.673,-15.795 -1.969,-5.175 -2.736,-8.759 -3.434,-10.893 -0.688,-2.09 -1.551,-3.345 -3.687,-2.731 -1.148,0.33 -2.986,0.775 -3.731,-0.963 -1.105,-2.582 -1.971,-5.576 0.448,-10.875 2.419,-5.3 6.473,-6.981 8.226,-8.18 0,0 -4.313,5.036 -4.499,6.144 0,0 -1.483,2.842 2.577,7.734 4.06,4.893 4.404,7.803 4.754,9.282 0.227,0.962 1.766,7.873 3.923,13.627 1.338,3.57 2.821,6.839 4.121,8.148 2.175,2.189 3.671,2.708 4.799,2.978 0.774,0.185 1.863,0.342 2.956,0.514 C 3.413,-1.014 2.879,-0.264 0,0" />
    </g>
    <g
       transform="matrix(4.1901442,0,0,-4.1901442,375.08786,875.77317)"
       id="g3816">
      <path
         inkscape:connector-curvature="0"
         id="path3818"
         style="fill:#ed1d24;fill-opacity:1;fill-rule:nonzero;stroke:none"
         d="M 0,0 -0.371,1.503 C -0.373,1.515 0.438,2.058 1.669,2.465 2.691,2.803 4.013,3.034 5.289,2.903 8.107,2.614 9.114,1.847 9.114,1.847 l -0.469,-2.77 c 0,0 -1.635,1.08 -3.628,1.392 C 4.666,0.523 4.3,0.587 3.931,0.578 1.485,0.538 0,0 0,0" />
    </g>
    <g
       transform="matrix(4.1901442,0,0,-4.1901442,372.13297,891.87673)"
       id="g3820">
      <path
         inkscape:connector-curvature="0"
         id="path3822"
         style="fill:#ed1d24;fill-opacity:1;fill-rule:nonzero;stroke:none"
         d="m 0,0 0.346,1.376 c 0,0 0.821,0.227 1.985,0.299 0.904,0.056 2.032,0.009 3.047,-0.256 2.323,-0.603 3.356,-1.296 3.356,-1.296 0,0 0.388,-2.114 0.343,-3.928 0,0 -0.212,2.195 -3.438,3.014 C 3.935,-0.261 2.195,-0.022 0,0" />
    </g>
    <g
       transform="matrix(4.1901442,0,0,-4.1901442,69.729866,851.79089)"
       id="g3824">
      <path
         inkscape:connector-curvature="0"
         id="path3826"
         style="fill:#ed1d24;fill-opacity:1;fill-rule:nonzero;stroke:none"
         d="M 0,0 0.018,0.03 0.03,-0.003 C 0.346,0.088 2.516,0.674 4.745,0.413 7.158,0.129 9.43,-1.006 9.997,-1.431 L 9.144,1.407 c 0,0 -5.434,2.532 -9.499,0.358 C -0.155,1.192 -0.02,0.157 0,0" />
    </g>
    <g
       transform="matrix(4.1901442,0,0,-4.1901442,68.210926,868.49448)"
       id="g3828">
      <path
         inkscape:connector-curvature="0"
         id="path3830"
         style="fill:#ed1d24;fill-opacity:1;fill-rule:nonzero;stroke:none"
         d="m 0,0 c 0,0 3.902,0.427 6.101,-0.496 2.2,-0.923 4.47,-1.206 5.253,-1.49 l 0.284,0.709 c 0,0 -3.47,3.893 -11.404,2.842 C 0.196,1.036 0.077,0.42 0,0.052 L 0,0 Z" />
    </g>
  </g>
</svg>
