<?xml version="1.0" encoding="UTF-8" standalone="no"?>
<!-- Created with Inkscape (http://www.inkscape.org/) -->

<svg
   xmlns:dc="http://purl.org/dc/elements/1.1/"
   xmlns:cc="http://creativecommons.org/ns#"
   xmlns:rdf="http://www.w3.org/1999/02/22-rdf-syntax-ns#"
   xmlns:svg="http://www.w3.org/2000/svg"
   xmlns="http://www.w3.org/2000/svg"
   xmlns:sodipodi="http://sodipodi.sourceforge.net/DTD/sodipodi-0.dtd"
   xmlns:inkscape="http://www.inkscape.org/namespaces/inkscape"
   id="svg3382"
   version="1.1"
   inkscape:version="0.48.2 r9819"
   width="1786.157"
   height="2059"
   sodipodi:docname="kalpa.svg">
  <metadata
     id="metadata3388">
    <rdf:RDF>
      <cc:Work
         rdf:about="">
        <dc:format>image/svg+xml</dc:format>
        <dc:type
           rdf:resource="http://purl.org/dc/dcmitype/StillImage" />
        <dc:title></dc:title>
      </cc:Work>
    </rdf:RDF>
  </metadata>
  <defs
     id="defs3386" />
  <sodipodi:namedview
     pagecolor="#ffffff"
     bordercolor="#666666"
     borderopacity="1"
     objecttolerance="10"
     gridtolerance="10"
     guidetolerance="10"
     inkscape:pageopacity="0"
     inkscape:pageshadow="2"
     inkscape:window-width="1440"
     inkscape:window-height="784"
     id="namedview3384"
     showgrid="false"
     inkscape:zoom="0.20931264"
     inkscape:cx="351.84536"
     inkscape:cy="1514.6179"
     inkscape:window-x="0"
     inkscape:window-y="0"
     inkscape:window-maximized="1"
     inkscape:current-layer="svg3382"
     fit-margin-top="0"
     fit-margin-left="0"
     fit-margin-right="0"
     fit-margin-bottom="0" />
  <g
     id="g3392"
     transform="translate(-104.10031,-104)">
    <path
       style="fill:#f0c90b"
       d="M 981.37465,2155.1768 C 821.38753,2057.9622 672.40049,1940.958 558.38781,1822.9919 c -31.60052,-32.6962 -75.46612,-81.3478 -76.19751,-84.511 -0.30172,-1.3049 14.26384,-12.3858 16.36409,-12.4491 0.57992,-0.017 7.8699,7.7751 16.19996,17.3168 45.77983,52.439 111.34341,117.768 167.74565,167.1455 71.45884,62.5588 153.37853,124.4522 240.52053,181.7221 25.32254,16.6421 71.51047,45.7838 72.56458,45.7838 1.22345,0 52.94539,-26.2802 72.31859,-36.7455 225.7876,-121.969 378.6066,-259.009 512.1333,-459.2545 162.8672,-244.2461 254.0839,-486.0833 288.9217,-766 2.7412,-22.025 3.0755,-24 4.0629,-24 0.8346,0 14.6696,18.68588 16.846,22.75269 1.2696,2.37212 -1.042,21.25895 -7.9857,65.24731 -35.0397,221.9782 -103.9737,414.3923 -218.717,610.5 C 1515.6588,1802.6025 1359.6587,1959.8499 1121.5,2096.4959 1084.9779,2117.4508 998.28284,2163 994.92082,2163 c -0.36933,0 -6.46511,-3.5204 -13.54617,-7.8232 z m -5.00041,-87.4911 C 861.856,1994.6421 758.81675,1915.3419 667.5,1829.9725 621.78091,1787.231 540.18374,1701.0561 541.17163,1696.5569 c 0.1806,-0.8225 16.30337,-12.6935 35.82837,-26.38 19.525,-13.6865 309.05392,-216.6729 643.3976,-451.081 352.6817,-247.26492 608.4808,-425.9728 609.2867,-425.66353 1.0315,0.39581 1.2457,1.7605 0.8318,5.30034 -0.3065,2.62201 -1.9134,17.14229 -3.5708,32.26729 -8.3289,76.00977 -24.5513,162.9661 -46.887,251.3277 -46.3265,183.2704 -119.202,345.7582 -233.5209,520.6723 -134.1065,205.1904 -291.3755,344.8897 -525.8836,467.1334 -11.4654,5.9766 -21.42195,10.8666 -22.12573,10.8666 -0.70378,0 -10.673,-5.9914 -22.15383,-13.3143 z m 57.77636,-373.6424 c 28.8538,-4.9746 56.2895,-20.5136 68.4408,-38.7632 14.3542,-21.5583 16.1468,-60.9623 3.9089,-85.9206 -10.8801,-22.189 -40.6105,-34.0691 -69.7872,-27.8867 -46.8686,9.9314 -61.65733,74.9678 -21.8086,95.9077 13.3309,7.0052 26.9805,8.2408 39.6609,3.5903 11.5356,-4.2306 12.0771,-3.9786 8.1876,3.8093 -6.1461,12.3064 -27.8748,24.4153 -52.4857,29.2491 -8.3246,1.6351 -8.4314,1.8823 -5.495,12.7208 l 2.506,9.25 7.7615,0 c 4.2688,0 12.8687,-0.8805 19.1108,-1.9567 z m 13.2717,-79.4617 c -7.1687,-3.1215 -12.2042,-13.3322 -11.114,-22.5366 2.7731,-23.4144 29.6268,-25.4394 34.6875,-2.6157 3.6171,16.3126 -10.1471,30.9986 -23.5735,25.1523 z M 1295,1693.5524 c 22.9429,-4.8748 46.1272,-17.1643 59.0536,-31.3032 23.5194,-25.7254 23.7843,-81.9039 0.4977,-105.5655 -16.82,-17.091 -50.9795,-21.9115 -74.3382,-10.4904 -25.6757,12.5541 -38.8718,47.9024 -26.9146,72.0961 10.9506,22.1571 37.5677,31.1075 62.9157,21.1564 5.6685,-2.2253 6.3667,-1.7484 4.7389,3.2372 -4.0222,12.3189 -27.9541,26.2923 -53.6858,31.3462 -8.3353,1.6372 -8.4344,1.8708 -5.4578,12.8598 l 2.5432,9.389 11.5736,-0.566 c 6.3656,-0.3113 14.9487,-1.2831 19.0737,-2.1596 z m 9.5022,-79.1278 c -7.596,-3.9607 -10.9428,-10.0546 -10.9428,-19.9246 0,-24.0804 27.4245,-29.5087 34.0638,-6.7424 4.8892,16.7654 -9.7434,33.6422 -23.121,26.667 z m -333.74457,-9.6746 0.25763,-61.75 -8.25763,-0.014 c -8.12513,-0.014 -8.61866,0.1333 -30.75763,9.1747 -12.375,5.0538 -23.0625,9.6153 -23.75,10.1366 -0.87122,0.6606 -1.25,4.3955 -1.25,12.3253 l 0,11.3776 10.06574,0 C 932.5189,1586 931,1581.5451 931,1626.8685 c 0,21.339 0.30942,39.1076 0.6876,39.4858 0.37818,0.3782 9.26568,0.5657 19.75,0.4166 L 970.5,1666.5 l 0.25763,-61.75 z m 265.01397,42.5 c 0.2123,-15.0503 -0.01,-19.2498 -1,-19.2493 -0.6994,4e-4 -9.3716,1.572 -19.2716,3.4925 -26.599,5.1599 -26.2142,5.3403 -12.7026,-5.9578 24.9274,-20.8438 32.7329,-39.0299 25.2355,-58.7969 -8.2732,-21.8128 -43.2552,-32.1702 -75.0329,-22.2157 -10.7296,3.3611 -27,11.2157 -27,13.0344 0,1.8861 11.1198,25.4428 12.0101,25.4428 0.3923,0 3.588,-1.29 7.1016,-2.8666 20.5184,-9.2071 38.8706,-4.3455 38.8846,10.3009 0.011,11.4106 -18.6186,29.3501 -44.2463,42.6077 l -11.75,6.0785 0,13.2731 c 0,7.3002 0.3039,13.577 0.6753,13.9484 0.3715,0.3714 24.559,0.5589 53.75,0.4167 l 53.0747,-0.2587 0.2716,-19.25 z m -790.01652,47.304 C 368.42121,1596.1615 304.25939,1491.391 254.46395,1382.1929 l -8.80424,-19.3072 2.42014,-2.3124 c 1.33108,-1.2718 36.17015,-25.9287 77.42015,-54.793 41.25,-28.8643 98.625,-69.0463 127.5,-89.2933 28.875,-20.2471 78.6,-55.1123 110.5,-77.4783 31.9,-22.3661 73.3,-51.3963 92,-64.5118 18.7,-13.1154 68.425,-47.9778 110.5,-77.47204 88.70923,-62.18445 252.2324,-176.83108 432,-302.87663 34.925,-24.48796 91.175,-63.92436 125,-87.63647 66.4245,-46.56512 182.9213,-128.24962 223.9013,-156.99371 17.9189,-12.56862 25.7896,-17.55199 26.7194,-16.91749 2.0281,1.38401 237.3793,331.36447 237.3793,332.8241 0,0.70629 -28.2375,21.08241 -62.75,45.28028 -34.5125,24.19787 -86.15,60.40449 -114.75,80.45916 -28.6,20.05468 -78.55,55.07465 -111,77.82216 -111.887,78.43304 -156.1045,109.43504 -189,132.51274 -55.6277,39.0253 -116.2355,81.5187 -203.5,142.6782 -45.925,32.1866 -102.4,71.7799 -125.5,87.985 -23.1,16.2051 -79.8,55.9634 -126,88.3517 -46.2,32.3884 -109.425,76.7133 -140.5,98.4999 -131.22839,92.0038 -235.84496,165.3438 -254.89967,178.6938 -11.21981,7.8608 -21.1272,14.2924 -22.01643,14.2924 -0.90325,0 -7.66815,-7.6992 -15.32882,-17.446 z m 135.2584,-128.6893 c 16.76759,-11.7954 33.29902,-23.4056 36.73652,-25.8004 3.4375,-2.3947 6.25,-4.7716 6.25,-5.2819 0,-0.5103 -12.06754,-18.1076 -26.81675,-39.1051 -14.74922,-20.9975 -27.13419,-38.713 -27.52218,-39.3677 -0.88816,-1.4988 2.79962,-5.0985 7.12647,-6.9563 6.37342,-2.7365 7.40032,-1.6246 35.21246,38.1267 14.76438,21.1024 26.15957,36.4621 27.06667,36.4833 0.86167,0.02 12.59053,-7.7258 26.06415,-17.2133 13.47361,-9.4875 29.96778,-21.075 36.65369,-25.75 6.68592,-4.675 12.36628,-9.0256 12.62303,-9.6681 0.52862,-1.3227 -50.02245,-73.7283 -57.67581,-82.6105 -15.50599,-17.9956 -38.34263,-29.9433 -64.20034,-33.5883 l -11.9686,-1.6871 -1.91482,-7.473 c -1.05315,-4.1102 -8.96547,-35.3432 -17.58294,-69.4068 -8.61747,-34.0637 -16.11779,-62.0838 -16.66737,-62.267 -1.0749,-0.3583 -77.70164,53.1444 -78.19196,54.5956 -0.16186,0.479 2.85748,13.3918 6.70964,28.6951 3.85217,15.3033 6.82704,28.0011 6.61083,28.2173 -0.92797,0.9279 -3.2049,-1.9687 -17.16499,-21.8365 C 454.25692,1292.4368 447.08399,1283 446.42134,1283 c -0.66265,0 -8.34104,5.015 -17.06308,11.1445 -8.72204,6.1294 -25.4588,17.8847 -37.1928,26.1227 -16.23066,11.395 -21.2261,15.3929 -20.88124,16.7116 0.24931,0.9534 20.82815,30.7107 45.73075,66.1273 24.9026,35.4167 60.14512,85.5439 78.31671,111.3939 53.95501,76.7537 51.73425,73.716 53.54528,73.2424 0.9075,-0.2373 15.36893,-10.0823 32.13652,-21.8777 z m -31.18135,0.4206 c -4.11656,-4.767 -158.13275,-224.8617 -158.22536,-226.1097 -0.0961,-1.2953 49.52342,-37.1756 51.41076,-37.1756 0.4262,0 15.46637,20.9107 33.42259,46.4681 17.95622,25.5575 33.0811,46.736 33.61084,47.0634 3.05392,1.8874 1.09859,-7.7544 -12.49309,-61.604 -8.14508,-32.2704 -14.63536,-59.195 -14.42284,-59.8326 0.88033,-2.641 51.33895,-37.018 52.53728,-35.7931 0.64477,0.659 8.19154,29.0982 16.7706,63.1982 8.57906,34.1 15.99918,62.9462 16.48914,64.1027 0.82031,1.9362 1.90746,2.1472 13.7294,2.665 25.01799,1.0957 46.10382,10.626 61.93041,27.9911 6.84459,7.5099 49.60547,68.5293 49.2219,70.2392 -0.32608,1.4535 -48.17286,35.5244 -50.81376,36.1836 -1.01337,0.253 -8.15018,-9.1239 -21.99877,-28.9036 -28.11403,-40.1547 -29.59583,-41.554 -42.9785,-40.586 -5.59992,0.405 -6.89432,1.0142 -17.53449,8.2514 -6.31853,4.2977 -11.48824,8.3663 -11.48824,9.0414 0,0.675 12.16398,18.5046 27.03106,39.6213 14.86708,21.1166 26.90458,39.1582 26.75,40.0922 -0.23208,1.4024 -46.66556,35.0527 -50.28534,36.4417 -0.61705,0.2368 -1.81567,-0.3728 -2.66359,-1.3547 z m 283.91838,-178.1557 c 23.55865,-16.5844 36.70223,-26.4398 36.61781,-27.4567 -0.0724,-0.8725 -7.42636,-11.9723 -16.34208,-24.6662 -13.68409,-19.483 -16.01328,-23.3174 -14.94553,-24.604 C 840.7173,1309.4308 875.5453,1285 876.7199,1285 c 0.49084,0 8.29216,10.5829 17.33627,23.5175 13.37759,19.1322 16.82342,23.4544 18.47953,23.1796 2.35102,-0.3902 74.20046,-50.6193 74.8742,-52.3437 0.36447,-0.9329 -64.28532,-93.9237 -105.11614,-151.1967 -15.06128,-21.1264 -28.30877,-33.0647 -47.29376,-42.6203 -94.11411,-47.3695 -197.79274,42.1767 -165.4131,142.8657 5.46503,16.9943 1.95558,11.5544 69.73775,108.0979 56.09161,79.8924 54.35271,77.5 56.33084,77.5 0.74004,0 17.88279,-11.6417 38.09502,-25.8704 z m -39.60355,0.6204 c -15.18767,-20.3519 -100.32249,-142.8223 -103.7505,-149.25 -27.82666,-52.176 -5.94952,-117.2938 47.87608,-142.5044 39.36459,-18.4374 86.62452,-9.8069 117.22746,21.4077 8.8726,9.05 111.89372,154.4968 111.30865,157.1474 -0.33365,1.5115 -49.46917,36.4493 -51.26133,36.4493 -0.59666,0 -8.49295,-10.575 -17.54732,-23.5 -9.05437,-12.925 -17.08294,-23.5 -17.84127,-23.5 -2.12301,0 -62.11636,42.32 -62.13889,43.8335 -0.0109,0.7334 7.18016,11.6084 15.98016,24.1665 8.8,12.5581 16,23.5119 16,24.3417 0,1.4414 -48.96946,36.6583 -50.97381,36.6583 -0.52877,0 -2.72442,-2.3625 -4.87923,-5.25 z m 17.33282,-155.6824 C 828.2659,1221.2798 842,1210.9964 842,1210.2156 c 0,-2.5299 -29.86553,-43.9094 -35.06628,-48.5853 -18.80129,-16.904 -49.1551,-10.2705 -60.25932,13.169 -4.38881,9.2641 -4.62375,22.61 -0.55094,31.2951 3.16909,6.758 32.70909,49.1309 33.95509,48.706 0.48455,-0.1652 14.6151,-9.945 31.40123,-21.7328 z M 771.38751,1218.315 C 758.5312,1199.8433 758,1198.7625 758,1191.0751 c 0,-21.3336 25.66641,-32.3404 40.52219,-17.3776 3.56477,3.5905 23.47781,31.6911 23.47781,33.1312 0,1.1394 -35.40329,26.2025 -37.95558,26.8699 -1.1995,0.3137 -4.65317,-3.884 -12.65691,-15.3836 z m 302.69969,0.8527 c 2.977,-2.1078 30.6128,-21.5173 61.4128,-43.1323 73.3546,-51.4792 66.8481,-46.4946 65.0349,-49.8226 -3.8171,-7.006 -48.2788,-68.7324 -49.7062,-69.0073 -0.8914,-0.1716 -13.8966,8.3251 -28.9004,18.8816 -15.0038,10.5565 -27.9128,19.243 -28.6867,19.3033 -0.79,0.062 -28.7163,-38.6985 -63.6845,-88.3904 -45.89885,-65.22508 -62.77442,-88.4858 -64.16725,-88.44599 -2.164,0.0618 -75.38985,51.16295 -75.38985,52.61127 0,0.77616 68.56475,98.76852 139.4735,199.33472 7.7561,11 19.235,27.3125 25.5087,36.25 6.2737,8.9375 11.921,16.25 12.5495,16.25 0.6285,0 3.5785,-1.7245 6.5555,-3.8323 z m -25.8441,-47.4177 c -12.0686,-17.1875 -47.7367,-67.925 -79.26249,-112.75 -31.52581,-44.825 -57.50046,-82.40594 -57.72144,-83.51321 -0.41381,-2.07344 46.98178,-36.61134 50.60251,-36.87482 0.96078,-0.0699 24.92749,33.12457 63.81692,88.38803 43.5091,61.8282 62.8122,88.4836 64.0499,88.4455 0.9743,-0.03 14.1233,-8.7463 29.2199,-19.3697 20.863,-14.6812 27.8088,-19.0879 28.9507,-18.3677 2.4986,1.5761 33.1216,45.6784 32.8377,47.2919 -0.2409,1.3695 -108.1323,78 -109.8196,78 -0.4022,0 -10.6056,-14.0625 -22.6741,-31.25 z m 247.5362,-108.4043 c 44.698,-31.3826 50.2207,-35.4517 50.2207,-37.003 0,-0.8545 -8.6146,-13.7688 -19.1436,-28.69822 -10.5291,-14.92946 -19.3411,-27.87279 -19.5823,-28.76295 -0.3106,-1.14619 2.9124,-3.98004 11.045,-9.71142 36.0287,-25.39097 53.7395,-56.15369 55.3672,-96.17011 3.4092,-83.81237 -80.0426,-144.76073 -158.8361,-116.00467 -13.4796,4.91945 -20.827,9.54261 -69.9756,44.03039 -51.5948,36.20436 -50.8746,35.67148 -50.8746,37.6401 0,0.74571 21.905,32.51347 48.6778,70.59501 26.7728,38.08154 65.7584,93.53917 86.6348,123.23917 39.5617,56.2829 40.4481,57.5 41.8716,57.5 0.4809,0 11.5487,-7.4945 24.5951,-16.6543 z m -23.4482,-5.5957 c -8.0869,-9.019 -158.4615,-225.32 -157.5978,-226.69102 2.3143,-3.6735 85.8708,-61.37142 95.8535,-66.18924 58.8268,-28.39094 127.8496,3.80924 145.6649,67.95483 1.8124,6.52567 2.1317,10.37178 2.1317,25.67543 0,40.56192 -13.8501,64.31083 -54.0436,92.66927 -14.1559,9.98767 -17.3991,12.71077 -17.0678,14.33073 0.2249,1.1 9.1005,14.32666 19.7234,29.39258 14.7805,20.96222 19.09,27.74842 18.3583,28.90842 -0.8934,1.4163 -49.1723,36.0169 -50.4294,36.1418 -0.3166,0.032 -1.4835,-0.9553 -2.5932,-2.1928 z m -4.77,-156.03083 c 21.4836,-15.09969 26.9034,-21.80976 29.6813,-36.74723 6.1886,-33.27739 -33.5523,-61.15428 -62.2424,-43.66098 -10.1563,6.19264 -33.0682,23.06886 -32.6828,24.07318 1.716,4.472 47.4094,67.6573 48.6828,67.31911 0.825,-0.21912 8.2775,-5.16195 16.5611,-10.98408 z m -14.1712,-9.48448 C 1251.5677,891.02876 1223,850.02532 1223,848.6159 c 0,-1.6409 18.3063,-14.59651 22.9957,-16.2743 24.6987,-8.83696 46.8162,19.77002 32.1587,41.59451 -2.0301,3.02266 -22.4757,19.51347 -23.6168,19.04858 -0.021,-0.008 -0.5371,-0.34592 -1.1477,-0.75 z m 284.1538,1.1461 c 30.906,-21.69783 36.56,-26.03888 36.2039,-27.79714 -0.232,-1.14601 -7.4702,-12.05493 -16.0847,-24.24205 -8.6146,-12.18712 -15.6541,-22.76212 -15.6434,-23.5 0.038,-2.59333 37.9782,-28.28081 39.4666,-26.72082 0.7238,0.75857 7.9316,10.82922 16.0174,22.37922 19.1811,27.39918 17.1507,25.52163 23.1433,21.40067 29.3888,-20.20985 69.9198,-49.34489 70.1695,-50.44016 0.628,-2.75511 -111.4775,-160.9513 -120.8163,-170.48819 -42.3724,-43.27141 -108.5566,-48.06659 -156.6735,-11.35132 -49.3053,37.62201 -60.82,108.46026 -25.9883,159.879 5.1763,7.64122 105.0855,149.87983 108.3937,154.31766 1.4097,1.89108 3.0564,3.09383 3.8295,2.79713 0.7461,-0.28628 17.8381,-12.09158 37.9823,-26.234 z M 1495.6046,891.25 c -2.9923,-4.2625 -26.1739,-37.225 -51.5147,-73.25 -25.3408,-36.025 -48.056,-69.325 -50.4783,-74 -17.3555,-33.49568 -15.242,-74.0386 5.4707,-104.9459 29.2696,-43.67587 85.3474,-58.55418 132.8898,-35.25773 9.7965,4.80041 20.9609,13.19319 29.0279,21.82157 5.9422,6.35567 110,153.15396 110,155.18111 0,1.43973 -49.2662,35.58355 -51.4316,35.64452 -1.5029,0.0423 -6.0485,-5.69327 -18.1833,-22.94357 -9.1808,-13.05118 -16.846,-23 -17.7204,-23 -1.8095,0 -61.3286,41.43135 -62.0659,43.20422 -0.2755,0.66232 6.7407,11.46232 15.5916,24 8.8509,12.53768 16.2912,23.52543 16.5341,24.41721 0.4786,1.75756 -48.2419,36.87857 -51.1587,36.87857 -0.8364,0 -3.969,-3.4875 -6.9612,-7.75 z m 19.5301,-152.90875 c 16.9759,-11.91232 30.8536,-22.14982 30.8392,-22.75 -0.043,-1.792 -28.5629,-41.71018 -33.3936,-46.73941 -29.7445,-30.96691 -81.3518,6.11765 -61.9086,44.48697 3.1423,6.201 31.5075,46.66119 32.7125,46.66119 0.4869,0 14.7746,-9.74644 31.7505,-21.65875 z m -28.7487,0.84366 c -2.723,-1.82599 -22.7772,-31.82123 -24.0641,-35.99298 -6.7355,-21.83438 18.7385,-39.84694 37.274,-26.35632 4.0969,2.98183 24.4683,31.04938 25.1593,34.66434 0.3122,1.63303 -2.0315,3.71723 -11.9333,10.61183 -6.7771,4.71882 -15.2677,10.64481 -18.8682,13.16886 -3.6005,2.52405 -7.0059,4.28098 -7.5677,3.90427 z M 230.60423,1327.1687 C 227.14027,1321.5638 201.96929,1253.1162 190.64236,1218.5 81.948838,886.32207 75.290746,499.94125 172.65222,174.5 c 7.53456,-25.18511 22.348,-69.25586 23.63442,-70.31362 0.87855,-0.7224 5.49037,3.01281 16.71336,13.53653 353.39383,331.37465 793.4628,459.20416 1190.2576,345.74139 33.0861,-9.46092 65.4262,-20.44941 99.0088,-33.64114 9.7715,-3.83839 18.2934,-6.80323 18.9375,-6.58853 0.6441,0.21471 -13.8374,10.90197 -32.1812,23.74947 l -33.3523,23.3591 -12.0852,3.8618 C 1179.8357,558.48575 897.33112,539.47745 623.06046,418.99607 481.78622,356.93723 340.98882,264.39759 220.25411,154.25 213.47188,148.0625 207.33872,143 206.62486,143 c -2.47195,0 -21.131,63.29235 -33.16583,112.5 -46.93469,191.9052 -59.5058,407.08887 -35.87012,614 17.17537,150.3564 52.99267,296.9871 104.37403,427.2917 8.19518,20.7832 8.33767,18.7464 -1.8075,25.8384 -7.60865,5.3188 -8.73748,5.8552 -9.55121,4.5386 z m 60.74453,-41.9847 c -2.07121,-1.3419 -19.74038,-49.351 -32.6391,-88.684 C 167.34408,917.8923 150.51165,597.31008 212.11075,309 c 6.63954,-31.07589 17.69149,-75.18063 19.23213,-76.74921 0.97681,-0.99452 2.8509,0.10861 9.19204,5.41062 C 565.48936,509.36508 962.26794,625.68132 1325,555.57399 c 4.125,-0.79726 7.8721,-1.08297 8.3269,-0.63491 0.4547,0.44806 -28.3453,21.26946 -64,46.26976 -559.51617,392.31977 -974.66863,683.31966 -975.87465,684.03646 -0.57626,0.3425 -1.52283,0.3149 -2.10349,-0.061 z M 436.5,941.07552 c 14.11774,-6.20896 19.77151,-22.75215 12.5,-36.57552 -3.55835,-6.76454 -3.64087,-7.79125 -0.93191,-11.59563 2.61869,-3.67761 2.26104,-3.72553 11.50102,1.54082 8.85775,5.0485 8.40183,5.09007 11.85067,-1.08058 3.553,-6.35701 3.52039,-6.43177 -4.89378,-11.21907 -4.1107,-2.33881 -7.74365,-4.68869 -8.07322,-5.22194 C 457.67285,875.66164 464.74901,863 466.2342,863 c 0.62498,0 5.55351,2.52293 10.95229,5.60652 11.1128,6.34722 11.48125,6.34252 15.31274,-0.19542 l 2.79187,-4.76396 -2.51674,-2.07357 c -1.3842,-1.14046 -5.9719,-4.00712 -10.19488,-6.37035 -4.22298,-2.36322 -7.92334,-4.93574 -8.22302,-5.71669 -0.49243,-1.28324 7.12397,-15.85698 11.89124,-22.75353 l 1.9127,-2.767 25.13523,0.267 25.13522,0.267 6.95318,11.87092 c 8.2156,14.02618 8.45867,12.96188 -4.68083,20.49473 -10.92484,6.26318 -10.74063,5.92179 -6.68236,12.38435 3.68681,5.87105 3.15136,5.89801 14.89272,-0.75 5.34259,-3.025 10.22562,-5.5 10.85118,-5.5 1.43666,0 8.57572,12.64011 7.82506,13.8547 -0.30615,0.49537 -3.9391,2.83596 -8.07322,5.20132 -8.50309,4.8651 -8.72119,5.46496 -4.45648,12.25706 l 3.0221,4.81308 6.7089,-3.73187 c 3.68989,-2.05253 7.52778,-4.21841 8.52863,-4.81308 1.50103,-0.89185 2.24451,-0.55579 4.24504,1.91879 3.08886,3.8208 3.04373,4.7501 -0.57744,11.89092 -14.25031,28.10115 22.27628,53.42952 43.03769,29.84332 15.02398,-17.06814 3.12591,-43.17384 -19.91845,-43.70331 -6.30384,-0.14484 -6.70967,-0.30473 -8.85657,-3.48925 -3.24106,-4.8075 -3.03163,-5.19904 5.32364,-9.95283 9.0724,-5.16181 9.33739,-5.67815 5.91294,-11.52154 -3.68918,-6.29511 -3.54774,-6.28387 -12.69382,-1.00842 l -8.15952,4.70641 -1.92162,-2.37311 c -1.0569,-1.30521 -2.99353,-4.48841 -4.30365,-7.07379 l -2.38202,-4.70069 2.73703,-1.88367 c 1.50536,-1.03602 6.219,-3.875 10.47476,-6.30885 8.44683,-4.83072 8.6654,-5.23457 5.83535,-10.78193 -3.49029,-6.84153 -3.67783,-6.84159 -15.49103,-0.005 -6.27552,3.63179 -11.02714,5.80129 -11.53828,5.26816 -1.65392,-1.72507 -14.04379,-23.52652 -14.04513,-24.71408 -0.002,-1.36001 21.52242,-39.27482 23.81034,-41.94232 1.2949,-1.50973 3.39707,-1.75 15.31081,-1.75 C 606.76679,773 606,772.27668 606,787.97995 l 0,11.11143 6.75,-0.29569 6.75,-0.29569 0.5,-12.5 0.5,-12.5 7.09381,-0.29066 c 8.92451,-0.36566 9.24485,0.0123 9.61437,11.34273 L 637.5,793.5 l 6.5,0 6.5,0 0.29038,-9.46594 c 0.31236,-10.18229 0.73845,-11.00343 5.70962,-11.00343 3.8871,0 4.55365,0.53066 7.86488,6.26153 13.52567,23.40944 49.08876,13.77973 49.08876,-13.29216 0,-27.03531 -35.58137,-36.66996 -49.08876,-13.29216 -3.31123,5.73087 -3.97778,6.26153 -7.86488,6.26153 -4.97117,0 -5.39726,-0.82114 -5.70962,-11.00343 L 650.5,738.5 l -6.5,0 -6.5,0 -0.29182,8.94793 c -0.36952,11.33047 -0.68986,11.70839 -9.61437,11.34273 L 620.5,758.5 620,746 l -0.5,-12.5 -6.75,-0.29569 -6.75,-0.29569 0,11.11143 C 606,759.72332 606.76679,759 590.1198,759 c -11.91374,0 -14.01591,-0.24027 -15.31081,-1.75 -3.02641,-3.5285 -23.98192,-41.10018 -23.65078,-42.40411 0.65734,-2.58847 13.21843,-23.77644 14.35396,-24.21218 0.6303,-0.24188 5.77881,2.22531 11.44112,5.48263 11.41006,6.56378 11.64079,6.55982 15.1198,-0.2596 2.83005,-5.54736 2.61148,-5.95121 -5.83535,-10.78193 -4.25576,-2.43385 -8.9694,-5.27283 -10.47476,-6.30885 l -2.73703,-1.88367 2.38202,-4.70069 c 1.31012,-2.58538 3.24675,-5.76858 4.30365,-7.07379 l 1.92162,-2.37311 8.15952,4.70641 c 9.14608,5.27545 9.00464,5.28669 12.69382,-1.00842 3.41652,-5.82986 3.20615,-6.23852 -5.89089,-11.44345 -8.37095,-4.78949 -8.59538,-5.21062 -5.34569,-10.03092 2.1469,-3.18452 2.55273,-3.34441 8.85657,-3.48925 23.04436,-0.52947 34.94243,-26.63517 19.91845,-43.70331 -20.71442,-23.53281 -57.25574,1.80578 -43.03769,29.84332 3.62322,7.14487 3.66738,8.07265 0.56597,11.89092 l -2.43676,3 -3.30827,-1.86483 c -1.81955,-1.02565 -5.65037,-3.1946 -8.51294,-4.81988 l -5.20467,-2.95504 -3.02633,4.81987 c -4.26937,6.79961 -4.05213,7.39803 4.45225,12.26386 4.13412,2.36536 7.76707,4.70595 8.07322,5.20132 0.75066,1.21459 -6.3884,13.8547 -7.82506,13.8547 -0.62556,0 -5.50859,-2.475 -10.85118,-5.5 -11.74136,-6.64801 -11.20591,-6.62105 -14.89272,-0.75 -4.05827,6.46256 -4.24248,6.12117 6.68236,12.38435 13.1395,7.53285 12.89643,6.46855 4.68083,20.49473 l -6.95318,11.87092 -25.13522,0.267 -25.13523,0.267 -1.9127,-2.767 c -4.76727,-6.89655 -12.38367,-21.47029 -11.89124,-22.75353 0.29968,-0.78095 4.00004,-3.35347 8.22302,-5.71669 4.22298,-2.36323 8.81068,-5.22989 10.19488,-6.37035 l 2.51674,-2.07357 -2.79187,-4.76396 c -3.8135,-6.50725 -4.0718,-6.51022 -15.25981,-0.17551 -5.42673,3.07263 -10.3786,5.58661 -11.00416,5.58661 -1.48593,0 -8.56275,-12.6611 -7.78248,-13.9236 0.32957,-0.53325 3.96252,-2.88313 8.07322,-5.22194 8.4158,-4.78823 8.44743,-4.86089 4.88851,-11.22851 -3.1486,-5.63345 -3.90222,-5.67074 -12.65229,-0.62595 -8.28373,4.77592 -8.08782,4.75585 -10.69413,1.09563 -2.67437,-3.75582 -2.61604,-4.46512 0.94458,-11.48655 14.21207,-28.02574 -22.332,-53.36623 -43.03769,-29.84332 -14.93825,16.97076 -3.22115,43.16253 19.54662,43.69347 6.98375,0.16286 7.94607,0.61068 10.04834,4.67602 1.96144,3.793 1.31037,4.64109 -7.22901,9.41658 -7.88769,4.41105 -8.20282,5.12133 -4.82751,10.88086 3.68633,6.29024 3.55602,6.2791 12.57837,1.07501 9.10227,-5.25019 9.00343,-5.27056 13.3288,2.74711 3.75734,6.96474 3.60277,7.23605 -7.80026,13.69107 -10.36444,5.86711 -10.59478,6.22372 -7.69342,11.91086 3.48494,6.83104 3.72261,6.83485 15.06837,0.24183 5.62917,-3.27112 10.74752,-5.75076 11.37411,-5.51032 2.10862,0.80916 14.90271,24.26029 14.21428,26.0543 -0.86226,2.24701 -20.35031,36.10316 -22.79857,39.60745 l -1.92129,2.75 -13.89672,0 C 419.22016,759 420,759.73163 420,744.02005 l 0,-11.11143 -6.75,0.29569 -6.75,0.29569 -0.5,12.5 -0.5,12.5 -7.09381,0.29066 c -8.92451,0.36566 -9.24485,-0.0123 -9.61437,-11.34273 L 388.5,738.5 l -6.5,0 -6.5,0 -0.29038,9.46594 c -0.31893,10.39655 -0.66451,10.99487 -6.36416,11.01875 -3.38587,0.0142 -3.87951,-0.38331 -6.71458,-5.40678 C 348.47411,729.37945 312.54636,738.3802 312.54636,766 c 0,27.62626 35.89276,36.68256 49.54062,12.49987 2.88111,-5.10504 3.36629,-5.49877 6.75848,-5.48456 5.69965,0.0239 6.04523,0.6222 6.36416,11.01875 L 375.5,793.5 l 6.5,0 6.5,0 0.29182,-8.94793 c 0.36952,-11.33047 0.68986,-11.70839 9.61437,-11.34273 L 405.5,773.5 406,786 l 0.5,12.5 6.75,0.29569 6.75,0.29569 0,-11.11143 C 420,772.26837 419.22016,773 435.96709,773 l 13.89672,0 1.92129,2.75 c 2.42357,3.46895 21.93212,37.3495 22.78352,39.56821 0.3956,1.03094 -1.63604,5.68329 -5.42164,12.41528 -9.33264,16.59638 -7.07922,15.62573 -19.72695,8.49737 -11.95716,-6.73914 -12.09934,-6.73995 -15.49312,-0.0876 -2.90136,5.68714 -2.67102,6.04375 7.69342,11.91086 11.40303,6.45502 11.5576,6.72633 7.80026,13.69107 -4.37814,8.11548 -4.30331,8.0999 -13.37133,2.78369 -8.95658,-5.25088 -8.84462,-5.26015 -12.53584,1.03843 -3.37531,5.75953 -3.06018,6.46981 4.82751,10.88086 8.53938,4.77549 9.19045,5.62358 7.22901,9.41658 -2.10673,4.07397 -3.06077,4.51334 -10.15491,4.67678 -21.45517,0.49431 -33.78504,25.1739 -20.97046,41.97469 7.95564,10.43038 20.30397,13.72758 32.05543,8.5593 z M 498.24995,808.77658 C 497.00445,807.24636 510.79754,782.5 512.89594,782.5 c 1.66402,0 15.29851,23.24977 14.88834,25.38787 -0.41306,2.15321 -27.83352,2.97831 -29.53433,0.88871 z m -23.04984,-21.27232 c -4.01019,-6.90127 -7.01919,-12.98798 -6.68667,-13.52601 1.04403,-1.68927 29.44147,-1.25933 30.09959,0.45571 0.69171,1.80256 -12.7264,24.96419 -14.68038,25.34049 -0.91814,0.17682 -4.08782,-4.27694 -8.73254,-12.27019 z M 540.2576,798.75 C 536.99247,794.61606 526.93841,775.60287 527.39221,774.42031 527.82848,773.2834 530.83668,773 542.46862,773 c 17.6072,0 17.16655,-0.86705 7.7998,15.34728 -6.60417,11.43217 -8.02861,12.91238 -10.01082,10.40272 z m -71.74416,-40.72825 c -0.95342,-1.54267 13.73729,-26.12011 15.41921,-25.7962 1.95398,0.3763 15.37209,23.53793 14.68038,25.34049 -0.65812,1.71504 -29.05556,2.14498 -30.09959,0.45571 z m 58.87499,-0.4519 C 526.68537,755.73771 540.03468,732.617 542.01586,732.23546 543.69382,731.91232 557,754.03927 557,757.15272 c 0,2.48482 -28.66318,2.88859 -29.61157,0.41713 z m -16.69522,-9.75776 C 504.83927,738.3753 498,725.84439 498,724.55558 498,723.21728 500.09512,723 513,723 c 12.45027,0 15,0.24696 15,1.45284 0,1.93665 -13.36904,24.83684 -14.77282,25.30477 -0.60484,0.20161 -1.74513,-0.67387 -2.53397,-1.94552 z"
       id="path3398"
       inkscape:connector-curvature="0" />
    <path
       style="fill:#b4181e"
       d="M 975.5,2151.3271 C 785.30955,2033.1431 635.43924,1910.6596 510.74513,1771.5 c -17.8662,-19.9388 -28.79021,-32.8673 -28.49753,-33.7267 0.52992,-1.5559 15.98091,-11.6195 17.08827,-11.13 0.64027,0.2831 4.26012,4.1916 8.04412,8.6857 3.78399,4.494 14.25788,16.3681 23.27532,26.3867 106.85948,118.724 236.55792,228.1996 390.44392,329.5651 30.53745,20.1152 71.35206,45.7629 73.87486,46.4227 1.75784,0.4597 31.41351,-13.9698 60.52591,-29.45 245.0709,-130.3136 404.4582,-276.0857 547.5242,-500.7535 153.2129,-240.6024 233.2542,-464.0436 268.5762,-749.75 0.8305,-6.71746 1.903,-6.06961 10.7782,6.51077 l 7.8787,11.16771 -0.5951,7.03936 c -1.6511,19.53308 -13.2132,91.09411 -21.1708,131.03216 -38.6376,193.9172 -104.7406,365.7476 -208.3146,541.5 -141.9261,240.8315 -288.9335,391.8212 -511.1768,525.0246 -51.4511,30.8377 -147.9905,82.0807 -154.33488,81.9208 -1.19082,-0.03 -9.81512,-4.8082 -19.16512,-10.6183 z m -2.1031,-85.628 c -167.05941,-106.9658 -307.01569,-224.9058 -421.2752,-355.005 -6.18574,-7.0433 -11.10615,-13.4264 -10.93425,-14.1847 0.23009,-1.0149 1261.42265,-886.24492 1284.10295,-901.31079 2.251,-1.49528 4.147,-2.14842 4.6686,-1.60822 2.7911,2.89105 -10.7818,103.92928 -21.5487,160.40961 -39.7115,208.3172 -98.6672,370.9953 -196.4247,542 -135.1375,236.3928 -273.5276,383.5956 -481.137,511.7762 -40.8553,25.2245 -127.8331,73.2238 -132.68633,73.2238 -0.47766,0 -11.62208,-6.8854 -24.76537,-15.3009 z M 1033,1694.3125 c 32.4942,-5.2088 62.7878,-23.9669 73.178,-45.3125 11.3755,-23.3699 11.4746,-56.8992 0.236,-79.815 -11.1767,-22.7895 -42.5849,-34.6861 -71.8286,-27.2069 -40.46493,10.3492 -57.48156,63.297 -28.6996,89.2998 14.4262,13.0332 34.9763,15.8997 54.826,7.6477 4.6491,-1.9328 5.1152,-0.5234 1.8742,5.6669 -6.6966,12.7904 -28.1926,24.8128 -52.6756,29.4607 -3.5257,0.6694 -6.7413,1.5096 -7.1457,1.8672 -1.0076,0.891 4.0151,19.3226 5.5234,20.2693 1.5029,0.9434 12.1722,0.1328 24.7119,-1.8772 z m 14.5022,-79.8313 c -16.322,-8.8188 -14.5947,-35.4783 2.6332,-40.6399 14.5977,-4.3736 26.6183,15.6417 18.931,31.5216 -4.086,8.4405 -14.5946,12.884 -21.5642,9.1183 z m 241.9978,79.8684 c 18.0085,-2.789 32.3633,-8.2319 47.2515,-17.9161 25.1159,-16.337 34.6436,-35.1502 34.6573,-68.4335 0.018,-43.0072 -19.9281,-66.104 -58.5189,-67.7637 -23.0581,-0.9917 -38.9011,5.6225 -51.2962,21.4151 -34.6011,44.0853 4.9496,98.5462 56.1181,77.2742 4.6491,-1.9328 5.1152,-0.5234 1.8742,5.6669 -6.7394,12.8721 -28.0168,24.7863 -52.586,29.4451 -3.575,0.6779 -6.8309,1.5252 -7.2353,1.8828 -0.9952,0.88 4.0066,19.3202 5.489,20.2364 1.4921,0.9222 11.3835,0.185 24.2463,-1.8072 z m 14.0296,-80.6313 c -20.578,-11.6549 -7.0577,-48.8978 14.043,-38.6831 14.4279,6.9844 14.5418,31.8901 0.1777,38.8437 -5.5788,2.7006 -9.242,2.6593 -14.2207,-0.1606 z M 970.8,1665.8 c 1.27155,-1.2716 1.84241,-117.9623 0.59301,-121.2182 -0.48395,-1.2612 -2.25765,-1.5852 -8.75,-1.5986 -8.01651,-0.016 -8.51085,0.1337 -31.82127,9.6717 -26.70588,10.9273 -24.79534,9.2053 -24.79277,22.3451 0.002,11.6379 -0.25365,11.405 13.18149,12 l 11.28954,0.5 0.25133,38.5 c 0.13823,21.175 0.4616,39.0625 0.71861,39.75 0.65358,1.7483 37.58478,1.7953 39.33006,0.05 z m 264.9716,-18.55 c 0.2563,-18.1693 0.1676,-19.25 -1.5807,-19.25 -1.0187,0 -9.691,1.5883 -19.2716,3.5295 -9.5806,1.9412 -18.5443,3.4037 -19.9193,3.25 l -2.5,-0.2795 3,-2.6079 c 1.65,-1.4343 6.375,-5.514 10.5,-9.0659 25.5237,-21.9775 31.9756,-47.3644 16.6438,-65.4896 -9.7869,-11.5701 -34.7806,-19.0562 -54.5743,-16.3461 -14.2803,1.9552 -42.0695,12.8937 -42.0695,16.5596 0,1.5182 9.7042,23.1746 11.1371,24.8542 0.441,0.5169 3.6832,-0.3959 7.5672,-2.1305 20.9392,-9.351 39.2957,-4.3005 39.2957,10.8116 0,10.5982 -20.6968,30.191 -44.3028,41.9396 -5.6085,2.7913 -10.7597,5.8136 -11.4472,6.7162 -1.7001,2.232 -1.7353,24.3735 -0.041,26.0675 0.9211,0.9211 13.8274,1.1471 54.25,0.95 l 53.0413,-0.2587 0.2716,-19.25 z M 515.89964,1517.7975 c -19.0302,-27.1136 -54.54398,-77.6475 -78.9195,-112.2975 -24.37552,-34.65 -44.48063,-63.9 -44.67802,-65 -0.40641,-2.2648 46.3889,-35.8376 50.09976,-35.9436 1.49028,-0.043 9.88939,11.1987 34.32739,45.9436 30.61686,43.5297 34.17954,48.0746 35.72493,45.5741 0.35236,-0.5701 -6.16721,-27.9325 -14.48795,-60.8054 l -15.12862,-59.7687 3.00352,-2.5 c 5.46873,-4.5519 47.90383,-34 48.99451,-34 1.34461,0 0.37371,-3.5836 18.28762,67.5 8.31638,33 15.51381,60.4937 15.99427,61.0971 0.48949,0.6148 6.04151,1.3652 12.62801,1.707 25.8108,1.3391 50.09243,12.6329 64.44402,29.9741 6.22637,7.5234 47.10876,66.1283 47.21272,67.6794 0.0851,1.2705 -41.16623,31.4446 -48.60176,35.5508 -3.23204,1.7848 -0.31425,5.334 -26.72538,-32.5084 -10.55612,-15.125 -20.8325,-28.9764 -22.83639,-30.7809 -5.21467,-4.6957 -13.06446,-6.8093 -19.66014,-5.2935 C 569.68857,1435.2792 549,1449.0679 549,1451.64 c 0,0.8638 12.18061,18.8939 27.06801,40.0668 14.88741,21.173 26.85539,39.0504 26.5955,39.7277 -0.65738,1.7131 -47.70408,34.7931 -50.16351,35.2715 -1.64922,0.3208 -8.0686,-8.2573 -36.60036,-48.9085 z m 278.92675,-128.4918 c -19.52388,-27.2654 -98.71348,-140.5732 -101.65,-145.4452 -24.23277,-40.2044 -17.64723,-92.9434 15.72376,-125.9206 38.36273,-37.9101 99.38599,-40.2573 140.09985,-5.3888 9.55355,8.1819 14.43059,14.6829 66.03724,88.0262 58.97509,83.8153 52.64633,74.2048 50.32436,76.4196 -6.15833,5.8739 -49.66069,35.1057 -50.70923,34.0746 -0.6338,-0.6233 -8.37519,-11.3569 -17.20308,-23.8524 -9.04817,-12.8073 -16.68301,-22.6698 -17.5,-22.606 -1.35733,0.1059 -58.80398,39.9551 -61.84961,42.9034 -1.19228,1.1542 1.01755,4.7998 14.87499,24.5395 8.95142,12.7511 16.45437,23.9174 16.67322,24.814 0.34123,1.3978 -45.49725,34.9838 -50.21929,36.7958 -0.63856,0.245 -2.70956,-1.717 -4.60221,-4.3601 z m 15.29753,-154.8967 c 16.15684,-11.325 30.2208,-21.4072 31.25323,-22.4049 1.82822,-1.7667 1.54311,-2.2922 -10.93651,-20.159 -7.04752,-10.0898 -14.72098,-20.8546 -17.05214,-23.9217 -22.58723,-29.718 -68.85068,-15.5204 -70.22253,21.5503 -0.47016,12.7047 1.22806,16.5612 17.49228,39.7236 16.50205,23.5011 18.2206,25.8027 19.26656,25.8027 0.45267,0 14.04227,-9.2659 30.19911,-20.591 z m -579.47055,91.8392 c -1.28709,-2.0826 -15.39589,-38.399 -22.43495,-57.7482 C 91.368728,947.30012 72.082744,568.94508 155.665,237.5 168.66577,185.94552 194.13434,104 197.15665,104 c 0.55712,0 7.61229,6.24612 15.67815,13.88027 190.83444,180.62039 421.16357,307.26594 652.15505,358.58487 221.01565,49.10261 433.45375,33.51594 638.92835,-46.87843 7.9299,-3.1027 14.8707,-5.49041 15.4239,-5.30602 1.2476,0.41586 -61.1869,44.33869 -65.7149,46.23063 -4.987,2.08369 -43.9532,13.73858 -63.1272,18.88149 -118.8504,31.87847 -247.335,42.88483 -374,32.0379 C 737.22593,497.51512 458.68771,369.27522 222.49418,155.86784 c -8.5169,-7.69526 -15.93,-13.71653 -16.47354,-13.3806 -3.78079,2.33666 -29.46099,95.37479 -41.4545,150.18771 C 128.1968,458.89056 116.95827,644.94118 132.53145,823 c 14.67606,167.80151 56.85451,348.1599 113.37261,484.7902 3.50969,8.4845 3.73145,7.9874 -6.73308,15.0937 -6.08969,4.1354 -7.65813,4.7549 -8.51761,3.3643 z m 59.94488,-42.4663 C 288.56539,1280.6678 273.88723,1241.3382 264.74166,1214.5 175.1223,951.50676 152.15977,649.48622 200.4893,369.40457 c 8.40125,-48.6873 27.53406,-133.79859 30.82004,-137.10128 0.92308,-0.92778 2.53904,-0.0675 7.19066,3.82796 318.88118,267.04542 705.39992,384.80275 1062.5,323.70269 29.5823,-5.06154 32.3666,-5.41508 31.8816,-4.04812 -0.2824,0.79612 -1032.77041,725.35118 -1039.58767,729.53728 -0.72444,0.4449 -1.80092,-0.1706 -2.69568,-1.5412 z M 437.8871,940.54062 c 13.3723,-6.82435 18.10191,-21.99548 11.21703,-35.98067 -3.73146,-7.57968 -3.76738,-8.22725 -0.6689,-12.05995 2.20575,-2.72842 2.62531,-2.87818 4.63463,-1.65435 1.21513,0.74011 5.05174,2.90804 8.52581,4.81763 l 6.31648,3.47197 3.02492,-4.81763 c 4.34916,-6.92664 4.10728,-7.60104 -4.4132,-12.30444 -4.11187,-2.26981 -7.74482,-4.56167 -8.07322,-5.09303 C 457.69945,875.70469 464.72544,863 466.14882,863 c 0.57802,0 5.42215,2.475 10.76474,5.5 11.75288,6.65454 11.36973,6.63547 15.0656,0.75 4.05781,-6.46182 4.2804,-6.06298 -7.05884,-12.64808 -5.54382,-3.2195 -10.31533,-6.46772 -10.60334,-7.21827 -0.28802,-0.75056 2.57617,-6.65642 6.36486,-13.12415 l 6.88852,-11.7595 25.44589,0 25.4459,0 6.84911,11.81985 c 3.76701,6.50092 6.62737,12.39769 6.35636,13.10395 -0.27102,0.70625 -4.9196,3.8704 -10.33019,7.03145 -5.41059,3.16105 -10.03902,5.94087 -10.28541,6.17737 -0.88618,0.85063 5.48074,11.36047 6.8843,11.36388 0.78998,0.002 5.80753,-2.4715 11.15012,-5.4965 5.34259,-3.025 10.17002,-5.5 10.72761,-5.5 1.37522,0 8.44158,12.77736 7.71581,13.95169 -0.31768,0.51401 -3.94186,2.79168 -8.05373,5.06149 -8.51125,4.69831 -8.7594,5.3827 -4.44365,12.25553 l 2.99448,4.76871 2.98284,-1.54249 c 1.64056,-0.84836 5.29595,-2.90634 8.12309,-4.57329 5.93102,-3.49705 7.2471,-3.28966 9.53214,1.50211 1.6405,3.44015 1.61937,3.56546 -1.62807,9.65828 -14.93612,28.02303 22.00845,53.9863 42.95641,30.18816 9.59686,-10.90261 9.04762,-25.50573 -1.35101,-35.92056 -5.80825,-5.81729 -13.92727,-8.97714 -20.72385,-8.06553 -3.99364,0.53566 -5.42283,-0.39139 -7.8594,-5.09802 -1.57256,-3.03764 -0.60606,-4.14884 7.59996,-8.73791 7.88769,-4.41105 8.20282,-5.12133 4.82751,-10.88086 -3.68529,-6.28847 -3.55896,-6.2774 -12.53734,-1.09868 -9.11041,5.25488 -8.78988,5.30118 -12.88794,-1.86149 -4.34338,-7.59143 -4.26739,-7.74756 6.9387,-14.25533 10.77991,-6.26028 10.96493,-6.54008 8.07309,-12.20855 -3.47901,-6.81942 -3.70974,-6.82338 -15.1198,-0.2596 -5.66231,3.25732 -10.78264,5.73532 -11.37852,5.50666 -2.06936,-0.79409 -14.83584,-24.26759 -14.15844,-26.03287 0.86648,-2.25802 20.35659,-36.11229 22.81775,-39.63437 l 1.94045,-2.77693 14.16274,0.27693 L 604.5,773.5 605,785.78944 c 0.5653,13.89445 0.7235,14.17075 8.12756,14.19525 6.34344,0.021 6.76376,-0.84152 7.08908,-14.54696 L 620.5,773.5 l 7.09381,-0.29066 c 8.92451,-0.36566 9.24485,0.0123 9.61437,11.34273 L 637.5,793.5 l 6.5,0 6.5,0 0.29038,-9.46594 c 0.31236,-10.18229 0.73845,-11.00343 5.70962,-11.00343 3.78135,0 4.83053,0.70714 6.82416,4.59949 12.93277,25.24989 50.12948,16.62019 50.12948,-11.63012 0,-28.25031 -37.19671,-36.88001 -50.12948,-11.63012 -1.99363,3.89235 -3.04281,4.59949 -6.82416,4.59949 -4.97117,0 -5.39726,-0.82114 -5.70962,-11.00343 L 650.5,738.5 l -6.5,0 -6.5,0 -0.29182,8.94793 c -0.36952,11.33047 -0.68986,11.70839 -9.61437,11.34273 L 620.5,758.5 620.21664,746.56227 c -0.32532,-13.70544 -0.74564,-14.56795 -7.08908,-14.54696 -7.40406,0.0245 -7.56226,0.3008 -8.12756,14.19525 l -0.5,12.28944 -14.16273,0.27692 -14.16274,0.27693 -1.94045,-2.77693 c -2.46116,-3.52208 -21.95127,-37.37635 -22.81775,-39.63437 -0.68302,-1.77992 12.09753,-25.24202 14.18686,-26.04378 0.61151,-0.23465 5.70767,2.2634 11.3248,5.55124 11.34741,6.6419 11.60963,6.63682 15.1451,-0.29327 2.90136,-5.68714 2.67102,-6.04375 -7.69342,-11.91086 -11.40303,-6.45502 -11.5576,-6.72633 -7.80026,-13.69107 4.31639,-8.00101 4.21719,-7.98073 13.27993,-2.71492 8.9713,5.21268 8.92096,5.21709 12.62724,-1.1072 3.37531,-5.75953 3.06018,-6.46981 -4.82751,-10.88086 -8.20602,-4.58907 -9.17252,-5.70027 -7.59996,-8.73791 2.43657,-4.70663 3.86576,-5.63368 7.8594,-5.09802 6.79658,0.91161 14.9156,-2.24824 20.72385,-8.06553 10.39863,-10.41483 10.94787,-25.01795 1.35101,-35.92056 -20.94796,-23.79814 -57.89253,2.16513 -42.95641,30.18816 3.24744,6.09282 3.26857,6.21813 1.62807,9.65828 -2.28504,4.79177 -3.60112,4.99916 -9.53214,1.50211 -2.82714,-1.66695 -6.48253,-3.72493 -8.12309,-4.57329 l -2.98284,-1.54249 -2.99448,4.76871 c -4.31575,6.87283 -4.0676,7.55722 4.44365,12.25553 4.11187,2.26981 7.73605,4.54748 8.05373,5.06149 0.77481,1.25368 -6.38855,13.95341 -7.86593,13.94529 C 559.02377,668.9896 554.225,666.51796 549,663.5 c -5.225,-3.01796 -10.175,-5.48851 -11,-5.49011 -2.45604,-0.005 -7.84402,10.83731 -5.9885,12.05046 0.81867,0.53525 5.46073,3.26933 10.31567,6.07573 4.85494,2.8064 9.05353,5.69242 9.33018,6.41338 0.27666,0.72096 -2.57908,6.62977 -6.34609,13.13069 l -6.84911,11.81985 -25.4459,0 -25.44589,0 -6.88852,-11.7595 c -3.78869,-6.46773 -6.65288,-12.37359 -6.36486,-13.12415 0.28801,-0.75055 5.05952,-3.99877 10.60334,-7.21827 11.33924,-6.5851 11.11665,-6.18626 7.05884,-12.64808 -3.69587,-5.88547 -3.31272,-5.90454 -15.0656,0.75 -5.34259,3.025 -10.18672,5.5 -10.76474,5.5 -1.42338,0 -8.44937,-12.70469 -7.69817,-13.92015 0.3284,-0.53136 3.96135,-2.82322 8.07322,-5.09303 8.51962,-4.70293 8.76208,-5.37825 4.41603,-12.2999 l -3.0221,-4.81308 -6.7089,3.73187 c -3.68989,2.05253 -7.52778,4.21841 -8.52863,4.81308 -1.50103,0.89185 -2.24451,0.55579 -4.24504,-1.91879 -3.09806,-3.83218 -3.06228,-4.48085 0.66477,-12.05156 13.88486,-28.20415 -21.71118,-53.03674 -42.96821,-29.97559 -15.44338,16.75409 -3.64208,43.45045 19.48525,44.07862 7.10151,0.19289 7.86384,0.54398 9.9529,4.58378 1.96144,3.793 1.31037,4.64109 -7.22901,9.41658 -7.87027,4.40131 -8.24535,5.22917 -4.93132,10.88415 3.6554,6.23747 3.71704,6.24281 12.64115,1.09539 9.11041,-5.25488 8.78988,-5.30118 12.88794,1.86149 4.34824,7.59993 4.29644,7.70132 -7.4387,14.56054 -5.775,3.3755 -10.5,6.38405 -10.5,6.68566 0,1.06159 6.47563,11.36094 7.1431,11.36094 0.3717,0 5.29348,-2.65636 10.93727,-5.90303 5.6438,-3.24667 10.74704,-5.71226 11.34054,-5.47909 1.91097,0.75077 14.83088,24.28358 14.21428,25.89042 -1.48507,3.87002 -22.95078,40.13608 -24.42659,41.26844 -1.20562,0.92504 -5.38888,1.2005 -15.18629,1 L 421.5,758.5 421,746.21056 c -0.5653,-13.89445 -0.7235,-14.17075 -8.12756,-14.19525 -6.34344,-0.021 -6.76376,0.84152 -7.08908,14.54696 L 405.5,758.5 l -7.09381,0.29066 c -8.92451,0.36566 -9.24485,-0.0123 -9.61437,-11.34273 L 388.5,738.5 l -6.5,0 -6.5,0 -0.29038,9.46594 c -0.31456,10.2539 -0.71215,10.99391 -5.92019,11.01875 -3.53464,0.0169 -3.85331,-0.26208 -8.54369,-7.47836 C 346.54523,729.65844 312.01115,739.92887 312.01115,766 c 0,26.07113 34.53408,36.34156 48.73459,14.49367 4.69038,-7.21628 5.00905,-7.49522 8.54369,-7.47836 5.20804,0.0248 5.60563,0.76485 5.92019,11.01875 L 375.5,793.5 l 6.5,0 6.5,0 0.29182,-8.94793 c 0.36952,-11.33047 0.68986,-11.70839 9.61437,-11.34273 L 405.5,773.5 l 0.28336,11.93773 c 0.32532,13.70544 0.74564,14.56795 7.08908,14.54696 7.40406,-0.0245 7.56226,-0.3008 8.12756,-14.19525 l 0.5,-12.28944 13.52231,-0.27674 c 9.79741,-0.2005 13.98067,0.075 15.18629,1 1.47581,1.13236 22.94152,37.39842 24.42659,41.26844 0.6166,1.60684 -12.30331,25.13965 -14.21428,25.89042 -0.5935,0.23317 -5.69674,-2.23242 -11.34054,-5.47909 C 443.43658,832.65636 438.5148,830 438.1431,830 437.47563,830 431,840.29935 431,841.36094 c 0,0.30161 4.725,3.31016 10.5,6.68566 11.73514,6.85922 11.78694,6.96061 7.4387,14.56054 -4.10272,7.17081 -3.76256,7.12501 -13.06547,1.75909 l -8.18057,-4.71855 -2.32351,2.91396 c -1.27793,1.60268 -2.86876,4.23031 -3.53517,5.83918 -1.38584,3.3457 -1.58069,3.13454 8.91602,9.66184 7.08022,4.40278 7.08547,4.41483 3.93589,9.03946 -2.09866,3.08152 -2.70464,3.36823 -6.50864,3.07943 -6.6987,-0.50856 -14.71259,2.34895 -19.83844,7.07379 -22.86631,21.07743 1.91904,57.38546 29.54829,43.28528 z M 498,807.55787 C 498,805.31637 511.65861,782.5 513.00044,782.5 514.31294,782.5 528,805.43092 528,807.62985 528,808.72915 525.03484,809 513,809 c -12.39915,0 -15,-0.25005 -15,-1.44213 z m -22.39927,-19.52555 c -3.84365,-6.78855 -6.56315,-12.68787 -6.23869,-13.5334 0.82112,-2.13979 28.41917,-2.23266 29.23817,-0.0984 0.68957,1.79699 -12.76681,25.00688 -14.7162,25.38286 -0.95863,0.18489 -3.83793,-3.89983 -8.28328,-11.75108 z m 64.0386,9.71768 c -6.82469,-10.91544 -12.7148,-22.11093 -12.2585,-23.30004 0.84373,-2.19872 28.42093,-2.13015 29.26627,0.0728 0.71104,1.85296 -12.61671,25.47477 -14.37405,25.47624 -0.67482,5.7e-4 -1.85999,-1.01147 -2.63372,-2.24897 z m -70.27729,-40.24892 c -0.8389,-2.18613 12.66285,-25.64294 14.5508,-25.27935 1.91359,0.36853 15.34035,23.67609 14.66016,25.44863 -0.79446,2.07034 -28.41296,1.91028 -29.21096,-0.16928 z m 58.02493,0.065 c -0.69312,-1.80624 12.73213,-24.97113 14.67606,-25.32313 1.84526,-0.33414 15.39273,23.12701 14.57901,25.24754 -0.83562,2.17759 -28.42111,2.24887 -29.25507,0.0756 z m -19.49106,-14.75859 c -2.34268,-4.0191 -5.52763,-9.46475 -7.07767,-12.10146 C 496.19692,722.84483 495.95163,723 513,723 c 12.03484,0 15,0.27085 15,1.37015 0,1.83318 -13.47644,24.95533 -14.80251,25.39735 -0.57319,0.19107 -2.95891,-2.94096 -5.30158,-6.96005 z M 1067.6797,1198.75 c -23.5802,-31.6404 -156.74685,-223.41999 -155.98052,-224.63488 1.41654,-2.24569 48.48722,-35.11665 50.2711,-35.10592 0.88781,0.005 27.45563,36.89264 63.31322,87.9053 33.9809,48.3429 62.3762,88.3881 63.1008,88.9895 1.0123,0.8401 7.7761,-3.4525 29.2165,-18.5425 15.3446,-10.7996 28.4997,-19.6865 29.2336,-19.7486 1.226,-0.1037 34.1656,45.5966 34.1656,47.4012 0,0.4364 -14.9625,11.2919 -33.25,24.1234 -18.2875,12.8315 -42.6636,29.9748 -54.1691,38.0962 -11.5055,8.1215 -21.4951,14.7663 -22.1991,14.7663 -0.704,0 -2.37,-1.4625 -3.7021,-3.25 z m 126.328,-252.5 c -43.6101,-62.0125 -79.3398,-113.36382 -79.3994,-114.11404 -0.1603,-2.0194 85.6283,-62.06449 95.7132,-66.99152 45.4087,-22.18448 102.2719,-6.975 130.7595,34.97488 19.8482,29.22775 23.2731,69.43725 8.6165,101.15967 -8.3638,18.10218 -21.0324,32.71456 -39.1975,45.21158 -18.027,12.40198 -24.677,17.60573 -24.174,18.9165 0.2686,0.69997 9.1021,13.51524 19.63,28.47839 10.528,14.96314 19.3707,27.80244 19.6506,28.53184 0.5342,1.392 -48.5265,36.5827 -51.0014,36.5827 -0.7186,0 -36.9875,-50.7375 -80.5975,-112.75 z m 75.0058,-45.23062 C 1291.84,884.78811 1298,875.75214 1298,858.5 c 0,-30.04947 -32.4339,-51.57045 -59.1943,-39.27745 -6.3236,2.90489 -35.6862,23.30234 -36.4647,25.33112 -0.3638,0.9482 38.3538,57.60785 45.9178,67.19633 1.8353,2.32653 3.8757,1.27162 20.7547,-10.73062 z m 181.9912,-73.74207 c -57.422,-81.65943 -58.4173,-83.19989 -63.2734,-97.93239 -25.7605,-78.15186 44.0462,-153.39643 123.3876,-132.99945 30.1993,7.7636 44.0682,19.42733 74.5002,62.65453 70.8615,100.65526 84.4646,120.3231 84.1891,121.72298 -0.37,1.87938 -48.7584,36.31992 -50.5798,36.00022 -0.6993,-0.12276 -8.5902,-10.5732 -17.5353,-23.2232 -12.2718,-17.35468 -16.7603,-22.98556 -18.2868,-22.94118 -2.2022,0.064 -61.357,41.16411 -62.1289,43.16651 -0.2599,0.67393 6.9717,11.83919 16.07,24.81168 9.0984,12.9725 16.3222,24.1211 16.053,24.77467 -0.5683,1.37957 -48.5994,35.05165 -50.5895,35.46563 -0.7783,0.16191 -22.3373,-29.59254 -51.8062,-71.5 z m 64.1955,-88.60649 c 16.6649,-11.73105 30.4297,-22.00001 30.5884,-22.81991 0.3299,-1.70337 -27.1469,-41.38812 -32.6537,-47.162 -12.701,-13.31682 -35.8368,-15.10475 -50.611,-3.91121 -14.7349,11.16378 -20.4378,31.07711 -13.3056,46.46066 3.4603,7.4638 32.5164,48.76164 34.3074,48.76164 0.756,0 15.0096,-9.59813 31.6745,-21.32918 z"
       id="path3396"
       inkscape:connector-curvature="0" />
    <path
       style="fill:#010101"
       d="M 975.96248,2066.2237 C 807.81861,1958.2956 669.66476,1842.4795 557.71479,1715.6014 c -8.68187,-9.8396 -15.62511,-18.3704 -15.42942,-18.9575 0.19569,-0.5871 6.17403,-5.163 13.28521,-10.1687 7.11118,-5.0057 122.27942,-85.7628 255.92942,-179.4603 133.65,-93.6975 266.85,-187.0841 296,-207.5258 29.15,-20.4417 120.275,-84.3311 202.5,-141.9764 82.225,-57.6454 171.1,-119.9544 197.5,-138.4644 74.4515,-52.20076 209.4402,-146.84388 267.9678,-187.87723 29.1323,-20.42448 53.262,-36.80594 53.6215,-36.40325 0.672,0.75268 0.3503,4.46257 -3.1417,36.23218 -8.22,74.78408 -23.7809,158.23069 -46.4329,249 -39.5545,158.4992 -100.0447,302.4822 -190.2856,452.9308 -100.4493,167.468 -200.7781,284.4424 -330.7291,385.6007 -51.3581,39.9789 -111.8785,80.1247 -175.6684,116.5284 -32.8048,18.7211 -82.1637,44.9401 -84.60247,44.9401 -0.4423,0 -10.46229,-6.1993 -22.26665,-13.7763 z M 1032.5,1695.375 c 32.9653,-5.0218 64.2809,-24.5222 74.9279,-46.6581 13.8606,-28.8175 9.9625,-71.9676 -8.2988,-91.8621 -13.245,-14.4295 -39.9047,-21.4427 -62.4473,-16.4274 -32.3127,7.1889 -53.33769,42.1527 -43.74286,72.7429 7.97956,25.4403 39.25286,38.6422 65.34146,27.5836 5.9238,-2.511 6.4259,-2.0588 3.6831,3.3176 -6.4094,12.5634 -31.2059,25.9931 -54.4218,29.4745 -2.4625,0.3693 -4.9185,1.2031 -5.4578,1.853 -1.3568,1.6347 3.3007,19.6779 5.4933,21.2811 1.9351,1.415 9.7551,1.0055 24.9228,-1.3051 z m 14.846,-82.3051 c -13.631,-6.1893 -13.3736,-30.5213 0.3934,-37.1858 16.511,-7.9928 30.5625,17.3754 18.0394,32.568 -5.3188,6.4528 -11.1657,7.9175 -18.4328,4.6178 z m 242.6516,82.2982 c 32.3343,-4.9407 63.8776,-24.7113 74.4303,-46.6512 13.6486,-28.3766 10.1014,-71.3553 -7.5225,-91.1449 -13.2736,-14.9046 -40.3226,-22.2396 -63.2236,-17.1446 -32.3018,7.1865 -53.2675,42.0358 -43.737,72.7 7.547,24.2822 39.0406,38.4304 63.3752,28.4706 8.0671,-3.3017 8.4943,-3.1144 5.6435,2.4735 -6.4094,12.5634 -31.2059,25.9931 -54.4218,29.4745 -2.4625,0.3693 -4.9306,1.2177 -5.4848,1.8854 -1.3255,1.5971 3.399,19.6139 5.5729,21.252 1.8188,1.3706 10.8566,0.902 25.3678,-1.3153 z m 14.2255,-82.4867 c -14.3762,-7.1161 -12.7225,-32.9311 2.4299,-37.9319 16.0561,-5.299 28.0707,20.0452 16.0129,33.7783 -5.5829,6.3585 -11.3599,7.6596 -18.4428,4.1536 z m -332.79453,53.5472 c 1.6086,-1.6086 2.49276,-116.3888 0.94114,-122.1786 -0.56746,-2.1175 -1.12196,-2.25 -9.414,-2.25 l -8.81104,0 -23.66882,9.6887 c -20.16549,8.2546 -23.8142,10.0678 -24.65096,12.25 -1.13917,2.9709 -0.72611,21.4979 0.50678,22.7301 0.45741,0.4572 5.85741,1.0562 12,1.3312 l 11.16833,0.5 0.26193,38.9484 c 0.19927,29.6322 0.55806,39.1364 1.5,39.7346 2.57315,1.6343 38.45182,0.9604 40.16664,-0.7544 z m 263.98963,0.9644 c 1.369,-0.5253 1.5818,-3.2827 1.5818,-20.5 l 0,-19.893 -2.3307,0 c -1.2819,0 -10.1694,1.5843 -19.75,3.5207 -9.5806,1.9364 -18.0573,3.3989 -18.8372,3.25 -0.7945,-0.1517 1.7466,-2.8593 5.7804,-6.159 26.0404,-21.3016 35.5788,-43.1348 26.9691,-61.7317 -10.5189,-22.7205 -44.5019,-32.6033 -76.7569,-22.3222 -9.9509,3.1718 -26.4952,11.5104 -26.8692,13.5426 -0.3847,2.0903 10.1493,25.0901 12.0366,26.2805 0.9895,0.6242 3.1728,0.08 6.8549,-1.7069 27.7974,-13.4938 49.3001,0.8112 33.1522,22.0549 -6.4316,8.4612 -26.3628,23.0832 -40.7625,29.9044 -10.7941,5.1133 -10.454,4.4623 -10.473,20.0453 -0.011,8.8422 0.3147,11.507 1.5577,12.75 1.6079,1.6078 103.7888,2.5216 107.8468,0.9644 z M 291,1283.7772 c 0,-0.2509 -3.09807,-8.5158 -6.8846,-18.3666 C 175.99818,984.13953 147.7255,640.82977 207.61657,336.5 c 9.70181,-49.29868 22.85797,-103.771 24.94968,-103.30269 0.74361,0.16648 8.23291,5.96836 16.64288,12.89307 316.86615,260.90512 697.5813,374.845 1051.79087,314.77844 12.925,-2.19181 25.075,-4.24255 27,-4.5572 2.4212,-0.39576 3.1918,-0.24952 2.5,0.47448 -0.55,0.57562 -45.775,32.42798 -100.5,70.78302 -54.725,38.35505 -151.925,106.49538 -216,151.42296 C 949.925,823.91965 869.6,880.23516 835.5,904.13764 801.4,928.04012 665.79199,1023.1165 534.14886,1115.4184 321.33096,1264.6363 291,1285.6378 291,1283.7772 z M 436.50934,942.43165 c 15.293,-6.38982 21.61155,-27.38823 12.25395,-40.72351 -2.0754,-2.9576 -1.89766,-5.77596 0.57767,-9.16028 1.38499,-1.89357 1.66991,-1.81148 9.49707,2.73641 9.3677,5.44301 9.82788,5.38734 13.63437,-1.64946 3.53348,-6.53211 3.1662,-7.56613 -4.1461,-11.67295 -9.76996,-5.48711 -9.77724,-5.49891 -6.70183,-10.86933 4.5876,-8.01108 4.00547,-7.94476 14.83826,-1.69037 12.10692,6.99002 12.59291,6.99186 16.55738,0.0627 4.04768,-7.0746 4.04052,-7.08712 -7.92829,-13.86392 C 479.54132,852.45821 475,849.46716 475,848.95416 c 0,-0.51301 2.98935,-6.11256 6.643,-12.44345 L 488.28601,825 l 24.7405,0 24.74049,0 6.6165,11.63063 c 3.63908,6.39684 6.6165,11.97423 6.6165,12.39418 0,0.41996 -4.54149,3.35749 -10.0922,6.52785 -11.9719,6.83791 -11.97365,6.84098 -7.92791,13.91219 3.9733,6.94461 4.50567,6.94127 16.53908,-0.10381 10.77555,-6.30866 10.16312,-6.38165 14.79039,1.76276 3.0684,5.40065 3.08024,5.38131 -6.63566,10.83806 -7.3123,4.10682 -7.67958,5.14084 -4.1461,11.67295 3.78141,6.99043 4.04998,7.02283 13.55855,1.63563 7.90149,-4.4767 8.22353,-4.56743 9.5884,-2.70136 2.44552,3.34354 2.63157,6.18707 0.59795,9.13906 -12.30973,17.86873 0.86086,42.57923 22.7275,42.64107 31.89361,0.0902 38.00819,-45.02326 7.31185,-53.94693 -2.93804,-0.85411 -6.79763,-1.47344 -8.57687,-1.37629 -5.21029,0.2845 -5.60795,0.12033 -7.2093,-2.97633 C 590.68656,884.42697 590,882.86407 590,882.57653 c 0,-0.28753 3.6,-2.59926 8,-5.13718 9.05115,-5.2207 9.19614,-5.60527 4.92661,-13.06762 C 599.25055,857.94665 599.58711,857.9838 590.5,863 c -9.1278,5.03866 -9.42736,5.01755 -12.75,-0.8984 -3.86818,-6.88728 -3.80628,-7.00705 6.66768,-12.89963 12.5195,-7.04339 12.38019,-6.81853 8.49252,-13.7071 -4.23615,-7.50604 -4.26177,-7.50782 -15.40991,-1.07136 C 572.18803,837.49058 567.22212,840 566.46493,840 c -1.26023,0 -4.55362,-5.08104 -12.02907,-18.55843 l -2.80573,-5.05843 11.81641,-20.44157 c 6.49902,-11.24286 12.31974,-20.7793 12.93493,-21.19209 0.61519,-0.41278 6.96853,-0.63778 14.11853,-0.5 l 13,0.25052 0.5,12.16892 c 0.57877,14.08603 0.30954,13.59883 7.77105,14.06254 8.50556,0.5286 8.64903,0.31187 9.22895,-13.94202 l 0.5,-12.28944 7,0 7,0 0.29038,9.46594 c 0.33287,10.85069 0.44377,10.99727 8.33718,11.01875 7.23919,0.0197 7.72641,-0.67592 8.08062,-11.53676 L 652.5,774.5 l 3.76147,-0.31105 c 3.35481,-0.27742 3.94943,0.0393 5.5,2.92954 C 676.12374,803.88958 714.5,795.79898 714.5,766 c 0,-29.79898 -38.37626,-37.88958 -52.73853,-11.11849 -1.55057,2.89024 -2.14519,3.20696 -5.5,2.92954 L 652.5,757.5 l -0.29182,-8.94793 c -0.35421,-10.86084 -0.84143,-11.55646 -8.08062,-11.53676 -7.89341,0.0215 -8.00431,0.16806 -8.33718,11.01875 L 635.5,757.5 l -7,0 -7,0 -0.5,-12.28944 c -0.57992,-14.25389 -0.72339,-14.47062 -9.22895,-13.94202 -7.46151,0.46371 -7.19228,-0.0235 -7.77105,14.06254 l -0.5,12.16892 -13,0.25052 c -7.15,0.13778 -13.51681,-0.0872 -14.14846,-0.5 -0.63166,-0.41279 -6.45422,-9.94593 -12.93903,-21.18476 l -11.79057,-20.43424 2.80983,-5.06576 C 561.9118,697.08023 565.20449,692 566.46493,692 c 0.75719,0 5.7231,2.50942 11.03536,5.57649 11.14814,6.43646 11.17376,6.43468 15.40991,-1.07136 3.88767,-6.88857 4.02698,-6.66371 -8.49252,-13.7071 -10.47396,-5.89258 -10.53586,-6.01235 -6.66768,-12.89963 3.32644,-5.92271 3.95264,-5.96727 12.62676,-0.8984 8.69009,5.0782 8.87088,5.05843 12.54985,-1.37173 4.26953,-7.46235 4.12454,-7.84692 -4.92661,-13.06762 -4.4,-2.53792 -8,-4.87037 -8,-5.18323 0,-0.91293 3.37878,-6.37424 3.96561,-6.40983 0.29391,-0.0178 3.32647,-0.16115 6.739,-0.31849 29.36188,-1.35375 37.13109,-40.97508 10.38478,-52.96017 -23.856,-10.68993 -48.81399,17.99561 -34.48979,39.64093 2.66926,4.03353 2.68777,6.52878 0.0749,10.10106 -1.36487,1.86607 -1.68691,1.77534 -9.5884,-2.70136 -9.59365,-5.4354 -9.69538,-5.41962 -13.85646,2.14937 -3.68423,6.7016 -3.73211,6.59574 5.27031,11.65148 8.80976,4.94754 8.84288,5.00653 5.80936,10.34579 -4.62727,8.14441 -4.01484,8.07142 -14.79039,1.76276 -12.03341,-7.04508 -12.56578,-7.04842 -16.53908,-0.10381 -4.04574,7.07121 -4.04399,7.07428 7.92791,13.91219 5.55071,3.17036 10.0922,6.10789 10.0922,6.52785 0,0.41995 -2.97742,5.99734 -6.6165,12.39418 L 537.767,707 l -24.75147,0 -24.75148,0 -6.63203,-11.45623 C 477.98441,689.24285 475,683.6433 475,683.10033 c 0,-0.54297 4.54132,-3.55854 10.09182,-6.70126 11.96881,-6.7768 11.97597,-6.78932 7.92829,-13.86392 -3.96447,-6.92917 -4.45046,-6.92733 -16.55738,0.0627 -10.83279,6.25439 -10.25066,6.32071 -14.83826,-1.69037 -3.07541,-5.37042 -3.06813,-5.38222 6.70183,-10.86933 7.3123,-4.10682 7.67958,-5.14084 4.1461,-11.67295 -3.80649,-7.0368 -4.26667,-7.09247 -13.63437,-1.64946 -7.82716,4.54789 -8.11208,4.62998 -9.49707,2.73641 -2.47533,-3.38432 -2.65307,-6.20268 -0.57767,-9.16028 12.22097,-17.4158 -1.15341,-42.45179 -22.76329,-42.61143 -36.00003,-0.26594 -36.59554,53.31051 -0.61103,54.9725 3.36107,0.15523 6.35151,0.29683 6.64542,0.31466 0.58683,0.0356 3.96561,5.4969 3.96561,6.40983 0,0.31286 -3.6,2.64531 -8,5.18323 -9.05115,5.2207 -9.19614,5.60527 -4.92661,13.06762 3.67606,6.42508 3.3395,6.38793 12.42661,1.37173 9.12361,-5.03634 9.4258,-5.01229 12.75,1.01493 3.82043,6.92694 3.8532,6.86412 -6.66768,12.7831 -12.57902,7.07687 -12.47155,6.9043 -8.55868,13.74328 4.26578,7.45581 4.34604,7.46118 15.47607,1.03518 C 453.81197,694.50942 458.75288,692 459.47952,692 460.63286,692 474,713.57346 474,715.43486 c 0,1.21044 -23.22486,41.02414 -24.39267,41.81566 -0.60903,0.41278 -6.95733,0.63778 -14.10733,0.5 L 422.5,757.5 422,745.33108 c -0.57877,-14.08603 -0.30954,-13.59883 -7.77105,-14.06254 -8.50556,-0.5286 -8.64903,-0.31187 -9.22895,13.94202 l -0.5,12.28944 -7,0 -7,0 -0.29038,-9.46594 C 389.87737,737.20341 389.74846,737.03063 382,737.03063 c -7.74846,0 -7.87737,0.17278 -8.20962,11.00343 L 373.5,757.5 l -3.76147,0.31105 c -3.35058,0.27707 -3.95139,-0.0414 -5.5,-2.9152 -6.85887,-12.72826 -20.21739,-19.07887 -32.57546,-15.48628 -24.45756,7.11001 -27.76179,39.53878 -5.20389,51.07267 13.85021,7.08164 29.84632,1.42331 37.77935,-13.36375 1.55057,-2.89024 2.14519,-3.20696 5.5,-2.92954 L 373.5,774.5 l 0.29182,8.94793 c 0.35421,10.86084 0.84143,11.55646 8.08062,11.53676 7.89341,-0.0215 8.00431,-0.16806 8.33718,-11.01875 L 390.5,774.5 l 7,0 7,0 0.5,12.28944 c 0.57992,14.25389 0.72339,14.47062 9.22895,13.94202 7.46151,-0.46371 7.19228,0.0235 7.77105,-14.06254 l 0.5,-12.16892 13,-0.25052 c 7.15,-0.13778 13.4983,0.0872 14.10733,0.5 1.19014,0.80665 24.39267,40.61707 24.39267,41.85245 0,1.00428 -12.94929,23.2487 -13.86247,23.81307 -0.3988,0.24648 -5.34386,-2.25925 -10.98902,-5.56828 -11.76727,-6.89763 -11.82967,-6.89526 -16.12487,0.61197 -3.90901,6.83223 -4.02602,6.64383 8.52758,13.73085 10.53323,5.94644 10.50549,5.89346 6.69878,12.79553 -3.3242,6.02722 -3.62639,6.05127 -12.75,1.01493 -9.08711,-5.0162 -8.75055,-5.05335 -12.42661,1.37173 -4.26953,7.46235 -4.12454,7.84692 4.92661,13.06762 9.04009,5.21432 8.70181,4.68903 5.91913,9.1915 -1.92093,3.10813 -2.37241,3.3203 -5.87384,2.7604 -8.94706,-1.43069 -20.89418,4.91313 -25.96123,13.7852 -13.05568,22.85965 10.19938,49.37743 34.42528,39.2552 z M 499,807.22378 C 499,805.37264 511.83558,784.5 512.97393,784.5 c 1.11514,0 13.95166,20.85191 14.005,22.75 C 526.99052,807.6625 520.7,808 513,808 c -7.7,0 -14,-0.3493 -14,-0.77622 z M 478.89684,791.75 c -2.30527,-3.9875 -5.25012,-9.08954 -6.54411,-11.33786 -1.294,-2.24832 -2.35273,-4.61082 -2.35273,-5.25 0,-1.39942 26.56453,-1.67576 27.4239,-0.28528 C 498.02535,775.85003 484.96309,799 483.81253,799 c -0.39837,0 -2.61043,-3.2625 -4.91569,-7.25 z m 55.79816,-4.3185 c -3.68967,-6.38037 -6.45389,-12.0126 -6.14272,-12.51608 0.92264,-1.49287 27.452,-1.16923 27.42665,0.33458 -0.0286,1.69416 -12.44774,23.07294 -13.63281,23.46796 -0.51845,0.17282 -3.96146,-4.90609 -7.65112,-11.28646 z M 470.02107,756.75 c 0.0281,-1.6657 12.43771,-23.06959 13.59999,-23.45702 1.16919,-0.38973 14.52291,22.66505 13.80284,23.83016 -0.9067,1.46706 -27.42776,1.10593 -27.40283,-0.37314 z m 58.53342,0.33816 C 527.95036,756.11067 540.99683,733 542.15277,733 543.04788,733 556,755.28807 556,756.82837 c 0,1.43045 -26.56659,1.68192 -27.44551,0.25979 z m -21.4022,-17.42651 C 501.7485,730.51285 499,725.41792 499,724.54966 499,724.24735 505.3,724 513,724 c 7.7,0 14,0.34086 14,0.75747 0,1.4213 -12.72702,22.65154 -13.79183,23.00647 -0.5837,0.19457 -3.30885,-3.45146 -6.05588,-8.10229 z"
       id="path3394"
       inkscape:connector-curvature="0" />
  </g>
</svg>
