<?xml version="1.0" encoding="utf-8"?>
<!-- Generator: Adobe Illustrator 12.0.0, SVG Export Plug-In . SVG Version: 6.00 Build 51448)  -->
<!DOCTYPE svg PUBLIC "-//W3C//DTD SVG 1.1//EN" "http://www.w3.org/Graphics/SVG/1.1/DTD/svg11.dtd" [
	<!ENTITY ns_svg "http://www.w3.org/2000/svg">
	<!ENTITY ns_xlink "http://www.w3.org/1999/xlink">
]>
<svg  version="1.1" id="Layer_1" xmlns="&ns_svg;" xmlns:xlink="&ns_xlink;" width="499" height="312" viewBox="0 0 499 312"
	 overflow="visible" enable-background="new 0 0 499 312" xml:space="preserve">
<g>
	<defs>
		<path id="XMLID_67_" d="M4.72,155.91C4.72,72.221,114.473,4.368,249.849,4.368c135.382,0,245.132,67.853,245.132,151.542
			c0,83.691-109.75,151.541-245.132,151.541C114.473,307.451,4.72,239.602,4.72,155.91"/>
	</defs>
	<clipPath id="XMLID_73_">
		<use xlink:href="#XMLID_67_" />
	</clipPath>
	<polyline clip-path="url(#XMLID_73_)" fill="#FFE000" points="410.742,307.418 52.397,56.528 -39.413,187.604 318.924,438.527 	"/>
	<polyline clip-path="url(#XMLID_73_)" fill="#FFE000" points="410.543,307.689 51.668,56.399 46.62,63.582 405.512,314.869 	"/>
	<polyline clip-path="url(#XMLID_73_)" fill="#FFE730" points="415.717,300.291 56.844,49.001 51.794,56.182 410.705,307.471 	"/>
	<polyline clip-path="url(#XMLID_73_)" fill="#FFED62" points="420.875,292.91 62.001,41.622 56.952,48.8 415.863,300.088 	"/>
	<polyline clip-path="url(#XMLID_73_)" fill="#FFF395" points="426.07,285.51 67.195,34.22 62.147,41.401 421.021,292.691 	"/>
	<polyline clip-path="url(#XMLID_73_)" fill="#FFF9C9" points="431.246,278.127 72.372,26.84 67.325,34.02 426.197,285.307 	"/>
	<polyline clip-path="url(#XMLID_73_)" fill="#FFFFFF" points="436.402,270.73 77.53,19.44 72.48,26.621 431.391,277.908 	"/>
	<polyline clip-path="url(#XMLID_73_)" fill="#FFFFFF" points="436.658,270.418 78.295,19.475 72.737,27.422 431.08,278.346 	"/>
	<polyline clip-path="url(#XMLID_73_)" fill="#FFF9C9" points="442.234,262.436 83.873,11.51 78.313,19.44 436.68,270.383 	"/>
	<polyline clip-path="url(#XMLID_73_)" fill="#FFF395" points="447.814,254.453 89.467,3.529 83.889,11.475 442.254,262.381 	"/>
	<polyline clip-path="url(#XMLID_73_)" fill="#FFED62" points="453.389,246.49 95.045,-4.454 89.467,3.511 447.83,254.418 	"/>
	<polyline clip-path="url(#XMLID_73_)" fill="#FFE730" points="458.965,238.506 100.623,-12.418 95.045,-4.489 453.428,246.451 	"/>
	<polyline clip-path="url(#XMLID_73_)" fill="#FFE000" points="464.578,230.541 106.216,-20.4 100.658,-12.455 459.004,238.471 	"/>
	<polyline clip-path="url(#XMLID_73_)" fill="#FFE000" points="539.158,123.981 180.447,-127.191 100.22,-12.619 458.965,238.559 	
		"/>
</g>
<path fill="none" stroke="#000000" stroke-width="6.5319" stroke-miterlimit="3.864" d="M4.72,155.91
	C4.72,72.221,114.473,4.368,249.849,4.368c135.382,0,245.132,67.853,245.132,151.542c0,83.691-109.75,151.541-245.132,151.541
	C114.473,307.451,4.72,239.602,4.72,155.91z"/>
<g>
	<defs>
		<path id="XMLID_69_" d="M4.72,155.91C4.72,72.221,114.473,4.368,249.849,4.368c135.382,0,245.132,67.853,245.132,151.542
			c0,83.691-109.75,151.541-245.132,151.541C114.473,307.451,4.72,239.602,4.72,155.91"/>
	</defs>
	<clipPath id="XMLID_74_">
		<use xlink:href="#XMLID_69_" />
	</clipPath>
	<polyline clip-path="url(#XMLID_74_)" fill="#FFE000" points="429.951,294.732 39.166,69.104 -38.083,202.912 352.715,428.543 	"/>
	<polyline clip-path="url(#XMLID_74_)" fill="#FFE000" points="429.645,295.299 38.637,69.541 34.354,76.939 425.359,302.678 	"/>
	<polyline clip-path="url(#XMLID_74_)" fill="#FFE730" points="433.998,287.768 42.957,62.032 38.71,69.413 429.717,295.188 	"/>
	<polyline clip-path="url(#XMLID_74_)" fill="#FFED62" points="438.318,280.26 47.313,54.522 43.03,61.924 434.037,287.658 	"/>
	<polyline clip-path="url(#XMLID_74_)" fill="#FFF395" points="442.676,272.75 51.632,46.997 47.385,54.395 438.391,280.135 	"/>
	<polyline clip-path="url(#XMLID_74_)" fill="#FFF9C9" points="446.996,265.225 56.005,39.487 51.722,46.869 442.709,272.645 	"/>
	<polyline clip-path="url(#XMLID_74_)" fill="#FFFFFF" points="451.35,257.717 60.324,31.961 56.078,39.378 447.068,265.115 	"/>
	<polyline clip-path="url(#XMLID_74_)" fill="#FFFFFF" points="451.387,257.66 60.853,32.18 56.114,40.435 446.611,265.9 	"/>
	<polyline clip-path="url(#XMLID_74_)" fill="#FFF9C9" points="456.07,249.535 65.555,24.07 60.781,32.308 451.314,257.771 	"/>
	<polyline clip-path="url(#XMLID_74_)" fill="#FFF395" points="460.754,241.387 70.221,15.941 65.482,24.161 456.012,249.623 	"/>
	<polyline clip-path="url(#XMLID_74_)" fill="#FFED62" points="465.457,233.256 74.924,7.794 70.185,16.032 460.682,241.498 	"/>
	<polyline clip-path="url(#XMLID_74_)" fill="#FFE730" points="470.158,225.131 79.625,-0.335 74.888,7.884 465.4,233.348 	"/>
	<polyline clip-path="url(#XMLID_74_)" fill="#FFE000" points="474.859,216.982 84.328,-8.481 79.589,-0.244 470.1,225.219 	"/>
	<polyline clip-path="url(#XMLID_74_)" fill="#FFE000" points="537.098,109.181 146.092,-116.558 79.115,-0.553 470.121,225.203 	
		"/>
</g>
<path fill="none" stroke="#000000" stroke-width="6.5319" stroke-miterlimit="3.864" d="M4.72,155.91
	C4.72,72.221,114.473,4.368,249.849,4.368c135.382,0,245.132,67.853,245.132,151.542c0,83.691-109.75,151.541-245.132,151.541
	C114.473,307.451,4.72,239.602,4.72,155.91z"/>
<g>
	<defs>
		<path id="XMLID_71_" d="M38.053,155.382c0-68.38,95.008-123.823,212.235-123.823c117.226,0,212.233,55.442,212.233,123.823
			c0,68.397-95.008,123.839-212.233,123.839C133.062,279.221,38.053,223.779,38.053,155.382"/>
	</defs>
	<clipPath id="XMLID_75_">
		<use xlink:href="#XMLID_71_" />
	</clipPath>
	<polyline clip-path="url(#XMLID_75_)" points="406.186,273.643 69.765,79.42 4.174,193.02 340.574,387.242 	"/>
	<polyline clip-path="url(#XMLID_75_)" points="406.039,273.861 70.258,80.002 65.628,87.986 401.449,281.863 	"/>
	<polyline clip-path="url(#XMLID_75_)" fill="#3F3F3F" points="410.598,266.008 74.778,72.148 70.185,80.13 405.969,273.992 	"/>
	<polyline clip-path="url(#XMLID_75_)" fill="#7F7F7F" points="415.115,258.152 79.334,64.292 74.705,72.274 410.506,266.133 	"/>
	<polyline clip-path="url(#XMLID_75_)" fill="#BFBFBF" points="419.652,250.295 83.853,56.436 79.243,64.419 415.043,258.301 	"/>
	<polyline clip-path="url(#XMLID_75_)" fill="#FFFFFF" points="424.191,242.461 88.391,48.582 83.781,56.584 419.58,250.445 	"/>
	<polyline clip-path="url(#XMLID_75_)" fill="#FFFFFF" points="424.395,242.078 88.592,48.218 83.999,56.201 419.766,250.098 	"/>
	<polyline clip-path="url(#XMLID_75_)" fill="#BFBFBF" points="429.262,233.658 93.476,39.778 88.847,47.762 424.666,241.656 	"/>
	<polyline clip-path="url(#XMLID_75_)" fill="#7F7F7F" points="434.145,225.219 98.344,31.34 93.731,39.343 429.514,233.223 	"/>
	<polyline clip-path="url(#XMLID_75_)" fill="#3F3F3F" points="439.012,216.781 103.209,22.92 98.599,30.905 434.4,224.762 	"/>
	<polyline clip-path="url(#XMLID_75_)" points="443.877,208.344 108.093,14.482 103.466,22.465 439.268,216.326 	"/>
	<polyline clip-path="url(#XMLID_75_)" points="496.146,117.838 160.144,-76.15 103.1,22.646 439.084,216.654 	"/>
</g>
<path fill="none" stroke="#000000" stroke-width="5.1696" stroke-miterlimit="3.864" d="M38.053,155.382
	c0-68.38,95.008-123.823,212.235-123.823c117.226,0,212.233,55.442,212.233,123.823c0,68.397-95.008,123.839-212.233,123.839
	C133.062,279.221,38.053,223.779,38.053,155.382z"/>
<path fill-rule="evenodd" clip-rule="evenodd" d="M376.207,106.301c1.639-0.091,9.932-1.913,10.113-7.618
	c0.217-6.47-3.242-11.009-7.51-14.581c-4.301-3.571-12.32-8.566-23.053-14.943c-10.514-6.233-17.879-14.471-16.676-25.554
	c1.109-10.204,4.775-13.667,4.775-13.667l2.695,4.5c0,0,5.361-10.224,11.684-14.307c5.449-3.536,9.205-6.36,24.732-9.058
	c0.182-0.038-1.551,3.208-1.859,6.05c-0.945,2.113,0.109,0.109,0.109,0.109s9.949-4.9,23.145-5.977
	c13.195-1.074,13.084,0.218,13.084,0.218l-4.625,5.815c0,0,12.537,0.747,20.521,3.589c8.271,2.935,14.834,6.762,19.627,16.658
	c2.717,5.65,2.203,11.171,2.203,11.171s-3.443-5.793-11.988-7.945c-8.566-2.114-14.398,0-16.514,1.459
	c-0.018,0.017,0.549,0.381,2.004,3.589c1.424,3.208,1.24,8.62-0.107,10.296c-0.111,0.109-7.199-3.553-7.199-3.553
	s-6.107-2.917-12.119-3.736c-6.162-0.838-10.699-1.075-12.193,2.824c-1.148,3.01-0.73,5.631,6.469,12.375
	c7.563,7.054,11.557,14.765,12.613,21.196c1.074,6.416,0.383,20.724-9.043,28.085c-12.535,9.771-27.883,9.041-27.883,9.041
	s-1.678,0.964-1.678,2.844c0,2.513,0.311,9.365,0.311,9.365s0.475-0.072,3.684-0.799c2.787-0.621,4.063-0.092,4.063-0.092
	s-7.438,6.159-8.164,7.582c-0.73,1.44-1.314,0.82,4.631,0.947c5.318,0.091,9.986,1.606,12.318,3.135c0,0-6.27,5.744-9.406,10.114
	c-2.529,3.482-2.148,2.715,0.732,2.715c2.842,0,6.666,0.439,8.436,1.861c1.805,1.438,0.422,1.949,0.422,1.949
	s-15.605,9.111-19.283,19.977c-2.314,6.795,0.836,13.049,3.004,16.564c2.865,4.684,6.873,8.164,6.564,12.41
	c-0.037,0.547-1.037,2.537-7.527,4.596c-5.432,1.711-11.338,3.203-15.838,6.889c-2.934,2.404-5.193,5.629-5.305,10.643
	c-0.107,5.029,1.459,6.141,1.459,6.141s-4.082,0.311-6.561-1.949c-0.455-0.402-1.676,4.373-1.676,4.373s-4.889-2.113-6.053-3.955
	c-0.365-0.564-2.625,4.467-2.625,4.467l-5.119-4.012l-2.26,4.012c0,0-10.99-6.563-9.207-16.369c1.129-6.193,4.156-8.342,7.109-9.711
	c6.854-3.17,20.447-5.447,22.6-6.523s7.219-3.191,6.068-8.969c-0.949-4.756-3.445-12.246-8.73-16.018
	c-4.484-3.191-13.994-4.467-13.994-4.467s0.055,2.133,3.844,4.467c1.367,0.838-1.039,2.439-0.311,3.879
	c0.73,1.439,4.848,2.316,5.195,3.736c0.346,1.441-0.895,5.852-7.383,9.115c-2.695,1.365-17.059,2.732-23.07,4.043
	c-9.734,2.1-30.238,4.793-26.357,12.521c0,0,0.33,1.914,2.043,4.373c3.172,4.482,4.047,5.195,4.047,5.195s-1.66-0.039-3.83-0.838
	c-2.168-0.805-3.113-2.461-3.096-1.75c0.018,1.605-0.094,4.736-0.094,4.736l-6.066-3.936c0,0-0.33,1.385,0.109,3.482
	c0.365,1.82,0.219,1.35,0.219,1.35s-3.973-1.498-4.666-2.186c-0.693-0.693-2.988-2.482-2.988-2.482l-0.949,3.771
	c0,0-9.258-3.99-10.934-10.186c-1.531-5.65-0.984-9.662,3.443-14.471c4.393-4.813,10.135-5.156,13.068-5.395
	c4.977-0.455,19.975-0.965,23.785-1.658c3.826-0.691,8.436-1.367,4.373-4.318c-4.066-2.934-5.961-3.99-8.658-5.305
	c-2.697-1.313-9.877-5.086-12.428-10.26c-2.898-5.852-2.898-7.582-3.172-11.373c-0.256-3.881-0.037-4.248-0.037-4.248
	l-20.924,21.232c0,0-11.954,12.521-20.138,16.332c-8.147,3.789-11.136,4.775-11.136,4.775s3.534,3.953,2.022,5.283
	c-1.53,1.326-7.418,5.139-15.948,7.779c-8.566,2.662-15.016,3.629-18.807,5.523c-3.791,1.896-7.619,2.936-8.748,8.168
	c-0.146,0.727-2.662,0.363-3.973-0.971c-1.313-1.307-1.714-2.277-1.714-2.277s-2.279,1.531-2.662,4.193
	c-0.383,2.643-0.383,3.791-0.383,3.791s-1.694,0.383-3.791-0.383c-2.094-0.766-2.678-1.512-2.678-1.512s-2.223,2.021-1.384,6.814
	c0.582,3.463,2.569,6.145,2.569,6.145s-3.626-0.221-4.976-0.803c-1.312-0.584-1.477-0.875-1.477-0.875s-0.674,1.346,0.421,3.355
	c0.729,1.385,0.62,1.385,0.62,1.385s-0.694,0.527-3.537-1.385c-2.843-1.877-4.557-2.299-4.557-2.299s-0.383,1.148,0.182,3.229
	c0.584,2.094,0.584,2.457,0.584,2.457s-2.478-0.547-4.374-2.061c-1.895-1.527-3.043-2.861-3.043-2.861s-1.259,2.682-0.948,5.141
	c0.165,1.293-11.426-5.504-11.027-13.631c0.31-6.543,0.548-8.438,8.748-13.344c5.56-3.334,10.06-3.408,17.46-7.801
	c7.417-4.371,6.271-4.172,6.271-4.172s-0.565-0.383-1.895-1.328c-1.314-0.953-2.807-2.135-4.193-0.457
	c-1.275,1.586-1.021,2.404-1.021,2.404s-1.239-1.766-3.719-2.514c-2.477-0.764-2.879-0.418-1.711,2.586
	c0.947,2.482,0.947,2.188,0.947,2.188s-3.408-0.398-6.069-1.93c-2.643-1.512-8.146-4.393-13.542-5.797
	c-6.378-1.621-9.604-1.621-11.172,2.205c-1.111,2.699,0.62,5.904,1.677,7.436c1.44,2.041,2.606,3.316,2.606,3.316
	s-2.078,0.732-4.921-0.309c-1.348-0.51-2.004-0.764-2.004-0.764l1.166,3.371c0,0-1.529,0.436-4.009-1.295
	c-2.46-1.711-2.242-1.949-2.242-1.949s-0.456,1.221,0.31,2.953c0.766,1.695,1.186,2.24,1.186,2.24s-2.46-0.273-3.974-1.402
	c-1.512-1.15-3.063-2.021-3.063-2.021s-0.236,0.871,0.346,2.021c0.547,1.129,0.621,1.566,0.621,1.566s-4.376-1.896-6.671-4.354
	c-3.206-3.447-8.712-10.826-6.488-17.898c2.516-8.037,12.139-11.645,21.616-12.084c8.749-0.438,10.351,1.076,12.229,1.881
	c0.492,0.197,0.948-0.588,2.096-0.766c1.13-0.186,1.312-0.369,1.312-0.369s-4.867-4.063-7.107-6.395
	c-2.879-2.99-4.448-7.107-4.448-7.107s-1.384,0.965-2.332,3.061c-0.948,2.096-1.423,2.697-1.423,2.697s-5.158-5.486-6.708-11.061
	c-1.658-5.945-1.859-10.408-1.895-11.027c-0.036-0.783-5.614,4.863-5.614,4.863s-0.727-3.406-0.856-6.561
	c-0.201-5.32,0.766-10.842,0.766-10.842s-2.06,1.001-3.955,3.208c-2.114,2.46-1.932,2.697-1.932,2.697s-0.948-5.539,1.496-12.574
	c2.477-7.037,3.242-10.992,3.242-10.992s-2.06-0.31-3.973,0.457c-1.896,0.765-3.243,1.638-3.243,1.638s0.638-9.949,6.781-16.894
	c4.044-4.575,6.706-7.399,12.026-10.262c5.323-2.859,8.857-4.519,8.857-4.519s5.104-10.151,14.471-11.792
	c6.581-1.147,7.218-0.584,10.244,0.166c3.025,0.764,4.155,2.313,4.155,2.313s8.711-0.582,15.746,0.747
	c7.036,1.331,9.896,2.059,12.941,6.052c3.044,3.972,4.811,5.522,8.235,7.032c3.409,1.514,12.905,3.227,13.471,8.366
	c0.564,5.104-0.747,8.147,1.53,7.966c2.278-0.182,6.453-1.53,7.218-2.279c0.766-0.764-0.565,4.721-2.679,7.199
	c-2.08,2.48-3.791,3.263-6.489,5.322c-1.422,1.111-3.956,0.767-4.319,3.062c-0.383,2.279-2.096,8.167-8.184,10.245
	c-6.049,2.095-14.797,0.763-18.588-0.948c-3.792-1.713-4.192-1.896-4.192-1.896s1.567,5.468,5.358,7.362
	c3.792,1.916,10.971,2.898,15.729,1.387c4.739-1.532,13.577-7.309,18.244-14.307c3.299-4.922,4.702-9.661,6.815-11.719
	c0.512-0.492,0,0.565,0.382,2.844c0.384,2.277,1.332,3.989,1.332,3.989s2.587-8.965,5.467-12.337c3.536-4.082,4.01-3.992,4.01-3.992
	s0.073,3.335,1.565,5.031c1.532,1.712,2.682-0.019,4.011-1.349c1.312-1.331,6.215-7.854,10.753-11.665
	c4.592-3.789,27.082-20.338,51.215-23.4c23.619-3.007,34.572-1.823,48.221,2.606c10.209,3.335,17.424,11.809,20.303,15.746
	C372.979,105.938,374.947,106.392,376.207,106.301z"/>
<path fill="none" stroke="#FFFFFF" stroke-width="6.5319" stroke-linejoin="round" stroke-miterlimit="3.864" d="M376.207,106.301
	c1.639-0.091,9.932-1.913,10.113-7.618c0.217-6.47-3.242-11.009-7.51-14.581c-4.301-3.571-12.32-8.566-23.053-14.943
	c-10.514-6.233-17.879-14.471-16.676-25.554c1.109-10.204,4.775-13.667,4.775-13.667l2.695,4.5c0,0,5.361-10.224,11.684-14.307
	c5.449-3.536,9.205-6.36,24.732-9.058c0.182-0.038-1.551,3.208-1.859,6.05c-0.945,2.113,0.109,0.109,0.109,0.109
	s9.949-4.9,23.145-5.977c13.195-1.074,13.084,0.218,13.084,0.218l-4.625,5.815c0,0,12.537,0.747,20.521,3.589
	c8.271,2.935,14.834,6.762,19.627,16.658c2.717,5.65,2.203,11.171,2.203,11.171s-3.443-5.793-11.988-7.945
	c-8.566-2.114-14.398,0-16.514,1.459c-0.018,0.017,0.549,0.381,2.004,3.589c1.424,3.208,1.24,8.62-0.107,10.296
	c-0.111,0.109-7.199-3.553-7.199-3.553s-6.107-2.917-12.119-3.736c-6.162-0.838-10.699-1.075-12.193,2.824
	c-1.148,3.01-0.73,5.631,6.469,12.375c7.563,7.054,11.557,14.765,12.613,21.196c1.074,6.416,0.383,20.724-9.043,28.085
	c-12.535,9.771-27.883,9.041-27.883,9.041s-1.678,0.964-1.678,2.844c0,2.513,0.311,9.365,0.311,9.365s0.475-0.072,3.684-0.799
	c2.787-0.621,4.063-0.092,4.063-0.092s-7.438,6.159-8.164,7.582c-0.73,1.44-1.314,0.82,4.631,0.947
	c5.318,0.091,9.986,1.606,12.318,3.135c0,0-6.27,5.744-9.406,10.114c-2.529,3.482-2.148,2.715,0.732,2.715
	c2.842,0,6.666,0.439,8.436,1.861c1.805,1.438,0.422,1.949,0.422,1.949s-15.605,9.111-19.283,19.977
	c-2.314,6.795,0.836,13.049,3.004,16.564c2.865,4.684,6.873,8.164,6.564,12.41c-0.037,0.547-1.037,2.537-7.527,4.596
	c-5.432,1.711-11.338,3.203-15.838,6.889c-2.934,2.404-5.193,5.629-5.305,10.643c-0.107,5.029,1.459,6.141,1.459,6.141
	s-4.082,0.311-6.561-1.949c-0.455-0.402-1.676,4.373-1.676,4.373s-4.889-2.113-6.053-3.955c-0.365-0.564-2.625,4.467-2.625,4.467
	l-5.119-4.012l-2.26,4.012c0,0-10.99-6.563-9.207-16.369c1.129-6.193,4.156-8.342,7.109-9.711c6.854-3.17,20.447-5.447,22.6-6.523
	s7.219-3.191,6.068-8.969c-0.949-4.756-3.445-12.246-8.73-16.018c-4.484-3.191-13.994-4.467-13.994-4.467s0.055,2.133,3.844,4.467
	c1.367,0.838-1.039,2.439-0.311,3.879c0.73,1.439,4.848,2.316,5.195,3.736c0.346,1.441-0.895,5.852-7.383,9.115
	c-2.695,1.365-17.059,2.732-23.07,4.043c-9.734,2.1-30.238,4.793-26.357,12.521c0,0,0.33,1.914,2.043,4.373
	c3.172,4.482,4.047,5.195,4.047,5.195s-1.66-0.039-3.83-0.838c-2.168-0.805-3.113-2.461-3.096-1.75
	c0.018,1.605-0.094,4.736-0.094,4.736l-6.066-3.936c0,0-0.33,1.385,0.109,3.482c0.365,1.82,0.219,1.35,0.219,1.35
	s-3.973-1.498-4.666-2.186c-0.693-0.693-2.988-2.482-2.988-2.482l-0.949,3.771c0,0-9.258-3.99-10.934-10.186
	c-1.531-5.65-0.984-9.662,3.443-14.471c4.393-4.813,10.135-5.156,13.068-5.395c4.977-0.455,19.975-0.965,23.785-1.658
	c3.826-0.691,8.436-1.367,4.373-4.318c-4.066-2.934-5.961-3.99-8.658-5.305c-2.697-1.313-9.877-5.086-12.428-10.26
	c-2.898-5.852-2.898-7.582-3.172-11.373c-0.256-3.881-0.037-4.248-0.037-4.248l-20.924,21.232c0,0-11.954,12.521-20.138,16.332
	c-8.147,3.789-11.136,4.775-11.136,4.775s3.534,3.953,2.022,5.283c-1.53,1.326-7.418,5.139-15.948,7.779
	c-8.566,2.662-15.016,3.629-18.807,5.523c-3.791,1.896-7.619,2.936-8.748,8.168c-0.146,0.727-2.662,0.363-3.973-0.971
	c-1.313-1.307-1.714-2.277-1.714-2.277s-2.279,1.531-2.662,4.193c-0.383,2.643-0.383,3.791-0.383,3.791s-1.694,0.383-3.791-0.383
	c-2.094-0.766-2.678-1.512-2.678-1.512s-2.223,2.021-1.384,6.814c0.582,3.463,2.569,6.145,2.569,6.145s-3.626-0.221-4.976-0.803
	c-1.312-0.584-1.477-0.875-1.477-0.875s-0.674,1.346,0.421,3.355c0.729,1.385,0.62,1.385,0.62,1.385s-0.694,0.527-3.537-1.385
	c-2.843-1.877-4.557-2.299-4.557-2.299s-0.383,1.148,0.182,3.229c0.584,2.094,0.584,2.457,0.584,2.457s-2.478-0.547-4.374-2.061
	c-1.895-1.527-3.043-2.861-3.043-2.861s-1.259,2.682-0.948,5.141c0.165,1.293-11.426-5.504-11.027-13.631
	c0.31-6.543,0.548-8.438,8.748-13.344c5.56-3.334,10.06-3.408,17.46-7.801c7.417-4.371,6.271-4.172,6.271-4.172
	s-0.565-0.383-1.895-1.328c-1.314-0.953-2.807-2.135-4.193-0.457c-1.275,1.586-1.021,2.404-1.021,2.404s-1.239-1.766-3.719-2.514
	c-2.477-0.764-2.879-0.418-1.711,2.586c0.947,2.482,0.947,2.188,0.947,2.188s-3.408-0.398-6.069-1.93
	c-2.643-1.512-8.146-4.393-13.542-5.797c-6.378-1.621-9.604-1.621-11.172,2.205c-1.111,2.699,0.62,5.904,1.677,7.436
	c1.44,2.041,2.606,3.316,2.606,3.316s-2.078,0.732-4.921-0.309c-1.348-0.51-2.004-0.764-2.004-0.764l1.166,3.371
	c0,0-1.529,0.436-4.009-1.295c-2.46-1.711-2.242-1.949-2.242-1.949s-0.456,1.221,0.31,2.953c0.766,1.695,1.186,2.24,1.186,2.24
	s-2.46-0.273-3.974-1.402c-1.512-1.15-3.063-2.021-3.063-2.021s-0.236,0.871,0.346,2.021c0.547,1.129,0.621,1.566,0.621,1.566
	s-4.376-1.896-6.671-4.354c-3.206-3.447-8.712-10.826-6.488-17.898c2.516-8.037,12.139-11.645,21.616-12.084
	c8.749-0.438,10.351,1.076,12.229,1.881c0.492,0.197,0.948-0.588,2.096-0.766c1.13-0.186,1.312-0.369,1.312-0.369
	s-4.867-4.063-7.107-6.395c-2.879-2.99-4.448-7.107-4.448-7.107s-1.384,0.965-2.332,3.061c-0.948,2.096-1.423,2.697-1.423,2.697
	s-5.158-5.486-6.708-11.061c-1.658-5.945-1.859-10.408-1.895-11.027c-0.036-0.783-5.614,4.863-5.614,4.863s-0.727-3.406-0.856-6.561
	c-0.201-5.32,0.766-10.842,0.766-10.842s-2.06,1.001-3.955,3.208c-2.114,2.46-1.932,2.697-1.932,2.697s-0.948-5.539,1.496-12.574
	c2.477-7.037,3.242-10.992,3.242-10.992s-2.06-0.31-3.973,0.457c-1.896,0.765-3.243,1.638-3.243,1.638s0.638-9.949,6.781-16.894
	c4.044-4.575,6.706-7.399,12.026-10.262c5.323-2.859,8.857-4.519,8.857-4.519s5.104-10.151,14.471-11.792
	c6.581-1.147,7.218-0.584,10.244,0.166c3.025,0.764,4.155,2.313,4.155,2.313s8.711-0.582,15.746,0.747
	c7.036,1.331,9.896,2.059,12.941,6.052c3.044,3.972,4.811,5.522,8.235,7.032c3.409,1.514,12.905,3.227,13.471,8.366
	c0.564,5.104-0.747,8.147,1.53,7.966c2.278-0.182,6.453-1.53,7.218-2.279c0.766-0.764-0.565,4.721-2.679,7.199
	c-2.08,2.48-3.791,3.263-6.489,5.322c-1.422,1.111-3.956,0.767-4.319,3.062c-0.383,2.279-2.096,8.167-8.184,10.245
	c-6.049,2.095-14.797,0.763-18.588-0.948c-3.792-1.713-4.192-1.896-4.192-1.896s1.567,5.468,5.358,7.362
	c3.792,1.916,10.971,2.898,15.729,1.387c4.739-1.532,13.577-7.309,18.244-14.307c3.299-4.922,4.702-9.661,6.815-11.719
	c0.512-0.492,0,0.565,0.382,2.844c0.384,2.277,1.332,3.989,1.332,3.989s2.587-8.965,5.467-12.337c3.536-4.082,4.01-3.992,4.01-3.992
	s0.073,3.335,1.565,5.031c1.532,1.712,2.682-0.019,4.011-1.349c1.312-1.331,6.215-7.854,10.753-11.665
	c4.592-3.789,27.082-20.338,51.215-23.4c23.619-3.007,34.572-1.823,48.221,2.606c10.209,3.335,17.424,11.809,20.303,15.746
	C372.979,105.938,374.947,106.392,376.207,106.301z"/>
<path fill-rule="evenodd" clip-rule="evenodd" d="M376.207,106.301c1.639-0.091,9.932-1.913,10.113-7.618
	c0.217-6.47-3.242-11.009-7.51-14.581c-4.301-3.571-12.32-8.566-23.053-14.943c-10.514-6.233-17.879-14.471-16.676-25.554
	c1.109-10.204,4.775-13.667,4.775-13.667l2.695,4.5c0,0,5.361-10.224,11.684-14.307c5.449-3.536,9.205-6.36,24.732-9.058
	c0.182-0.038-1.551,3.208-1.859,6.05c-0.945,2.113,0.109,0.109,0.109,0.109s9.949-4.9,23.145-5.977
	c13.195-1.074,13.084,0.218,13.084,0.218l-4.625,5.815c0,0,12.537,0.747,20.521,3.589c8.271,2.935,14.834,6.762,19.627,16.658
	c2.717,5.65,2.203,11.171,2.203,11.171s-3.443-5.793-11.988-7.945c-8.566-2.114-14.398,0-16.514,1.459
	c-0.018,0.017,0.549,0.381,2.004,3.589c1.424,3.208,1.24,8.62-0.107,10.296c-0.111,0.109-7.199-3.553-7.199-3.553
	s-6.107-2.917-12.119-3.736c-6.162-0.838-10.699-1.075-12.193,2.824c-1.148,3.01-0.73,5.631,6.469,12.375
	c7.563,7.054,11.557,14.765,12.613,21.196c1.074,6.416,0.383,20.724-9.043,28.085c-12.535,9.771-27.883,9.041-27.883,9.041
	s-1.678,0.964-1.678,2.844c0,2.513,0.311,9.365,0.311,9.365s0.475-0.072,3.684-0.799c2.787-0.621,4.063-0.092,4.063-0.092
	s-7.438,6.159-8.164,7.582c-0.73,1.44-1.314,0.82,4.631,0.947c5.318,0.091,9.986,1.606,12.318,3.135c0,0-6.27,5.744-9.406,10.114
	c-2.529,3.482-2.148,2.715,0.732,2.715c2.842,0,6.666,0.439,8.436,1.861c1.805,1.438,0.422,1.949,0.422,1.949
	s-15.605,9.111-19.283,19.977c-2.314,6.795,0.836,13.049,3.004,16.564c2.865,4.684,6.873,8.164,6.564,12.41
	c-0.037,0.547-1.037,2.537-7.527,4.596c-5.432,1.711-11.338,3.203-15.838,6.889c-2.934,2.404-5.193,5.629-5.305,10.643
	c-0.107,5.029,1.459,6.141,1.459,6.141s-4.082,0.311-6.561-1.949c-0.455-0.402-1.676,4.373-1.676,4.373s-4.889-2.113-6.053-3.955
	c-0.365-0.564-2.625,4.467-2.625,4.467l-5.119-4.012l-2.26,4.012c0,0-10.99-6.563-9.207-16.369c1.129-6.193,4.156-8.342,7.109-9.711
	c6.854-3.17,20.447-5.447,22.6-6.523s7.219-3.191,6.068-8.969c-0.949-4.756-3.445-12.246-8.73-16.018
	c-4.484-3.191-13.994-4.467-13.994-4.467s0.055,2.133,3.844,4.467c1.367,0.838-1.039,2.439-0.311,3.879
	c0.73,1.439,4.848,2.316,5.195,3.736c0.346,1.441-0.895,5.852-7.383,9.115c-2.695,1.365-17.059,2.732-23.07,4.043
	c-9.734,2.1-30.238,4.793-26.357,12.521c0,0,0.33,1.914,2.043,4.373c3.172,4.482,4.047,5.195,4.047,5.195s-1.66-0.039-3.83-0.838
	c-2.168-0.805-3.113-2.461-3.096-1.75c0.018,1.605-0.094,4.736-0.094,4.736l-6.066-3.936c0,0-0.33,1.385,0.109,3.482
	c0.365,1.82,0.219,1.35,0.219,1.35s-3.973-1.498-4.666-2.186c-0.693-0.693-2.988-2.482-2.988-2.482l-0.949,3.771
	c0,0-9.258-3.99-10.934-10.186c-1.531-5.65-0.984-9.662,3.443-14.471c4.393-4.813,10.135-5.156,13.068-5.395
	c4.977-0.455,19.975-0.965,23.785-1.658c3.826-0.691,8.436-1.367,4.373-4.318c-4.066-2.934-5.961-3.99-8.658-5.305
	c-2.697-1.313-9.877-5.086-12.428-10.26c-2.898-5.852-2.898-7.582-3.172-11.373c-0.256-3.881-0.037-4.248-0.037-4.248
	l-20.924,21.232c0,0-11.954,12.521-20.138,16.332c-8.147,3.789-11.136,4.775-11.136,4.775s3.534,3.953,2.022,5.283
	c-1.53,1.326-7.418,5.139-15.948,7.779c-8.566,2.662-15.016,3.629-18.807,5.523c-3.791,1.896-7.619,2.936-8.748,8.168
	c-0.146,0.727-2.662,0.363-3.973-0.971c-1.313-1.307-1.714-2.277-1.714-2.277s-2.279,1.531-2.662,4.193
	c-0.383,2.643-0.383,3.791-0.383,3.791s-1.694,0.383-3.791-0.383c-2.094-0.766-2.678-1.512-2.678-1.512s-2.223,2.021-1.384,6.814
	c0.582,3.463,2.569,6.145,2.569,6.145s-3.626-0.221-4.976-0.803c-1.312-0.584-1.477-0.875-1.477-0.875s-0.674,1.346,0.421,3.355
	c0.729,1.385,0.62,1.385,0.62,1.385s-0.694,0.527-3.537-1.385c-2.843-1.877-4.557-2.299-4.557-2.299s-0.383,1.148,0.182,3.229
	c0.584,2.094,0.584,2.457,0.584,2.457s-2.478-0.547-4.374-2.061c-1.895-1.527-3.043-2.861-3.043-2.861s-1.259,2.682-0.948,5.141
	c0.165,1.293-11.426-5.504-11.027-13.631c0.31-6.543,0.548-8.438,8.748-13.344c5.56-3.334,10.06-3.408,17.46-7.801
	c7.417-4.371,6.271-4.172,6.271-4.172s-0.565-0.383-1.895-1.328c-1.314-0.953-2.807-2.135-4.193-0.457
	c-1.275,1.586-1.021,2.404-1.021,2.404s-1.239-1.766-3.719-2.514c-2.477-0.764-2.879-0.418-1.711,2.586
	c0.947,2.482,0.947,2.188,0.947,2.188s-3.408-0.398-6.069-1.93c-2.643-1.512-8.146-4.393-13.542-5.797
	c-6.378-1.621-9.604-1.621-11.172,2.205c-1.111,2.699,0.62,5.904,1.677,7.436c1.44,2.041,2.606,3.316,2.606,3.316
	s-2.078,0.732-4.921-0.309c-1.348-0.51-2.004-0.764-2.004-0.764l1.166,3.371c0,0-1.529,0.436-4.009-1.295
	c-2.46-1.711-2.242-1.949-2.242-1.949s-0.456,1.221,0.31,2.953c0.766,1.695,1.186,2.24,1.186,2.24s-2.46-0.273-3.974-1.402
	c-1.512-1.15-3.063-2.021-3.063-2.021s-0.236,0.871,0.346,2.021c0.547,1.129,0.621,1.566,0.621,1.566s-4.376-1.896-6.671-4.354
	c-3.206-3.447-8.712-10.826-6.488-17.898c2.516-8.037,12.139-11.645,21.616-12.084c8.749-0.438,10.351,1.076,12.229,1.881
	c0.492,0.197,0.948-0.588,2.096-0.766c1.13-0.186,1.312-0.369,1.312-0.369s-4.867-4.063-7.107-6.395
	c-2.879-2.99-4.448-7.107-4.448-7.107s-1.384,0.965-2.332,3.061c-0.948,2.096-1.423,2.697-1.423,2.697s-5.158-5.486-6.708-11.061
	c-1.658-5.945-1.859-10.408-1.895-11.027c-0.036-0.783-5.614,4.863-5.614,4.863s-0.727-3.406-0.856-6.561
	c-0.201-5.32,0.766-10.842,0.766-10.842s-2.06,1.001-3.955,3.208c-2.114,2.46-1.932,2.697-1.932,2.697s-0.948-5.539,1.496-12.574
	c2.477-7.037,3.242-10.992,3.242-10.992s-2.06-0.31-3.973,0.457c-1.896,0.765-3.243,1.638-3.243,1.638s0.638-9.949,6.781-16.894
	c4.044-4.575,6.706-7.399,12.026-10.262c5.323-2.859,8.857-4.519,8.857-4.519s5.104-10.151,14.471-11.792
	c6.581-1.147,7.218-0.584,10.244,0.166c3.025,0.764,4.155,2.313,4.155,2.313s8.711-0.582,15.746,0.747
	c7.036,1.331,9.896,2.059,12.941,6.052c3.044,3.972,4.811,5.522,8.235,7.032c3.409,1.514,12.905,3.227,13.471,8.366
	c0.564,5.104-0.747,8.147,1.53,7.966c2.278-0.182,6.453-1.53,7.218-2.279c0.766-0.764-0.565,4.721-2.679,7.199
	c-2.08,2.48-3.791,3.263-6.489,5.322c-1.422,1.111-3.956,0.767-4.319,3.062c-0.383,2.279-2.096,8.167-8.184,10.245
	c-6.049,2.095-14.797,0.763-18.588-0.948c-3.792-1.713-4.192-1.896-4.192-1.896s1.567,5.468,5.358,7.362
	c3.792,1.916,10.971,2.898,15.729,1.387c4.739-1.532,13.577-7.309,18.244-14.307c3.299-4.922,4.702-9.661,6.815-11.719
	c0.512-0.492,0,0.565,0.382,2.844c0.384,2.277,1.332,3.989,1.332,3.989s2.587-8.965,5.467-12.337c3.536-4.082,4.01-3.992,4.01-3.992
	s0.073,3.335,1.565,5.031c1.532,1.712,2.682-0.019,4.011-1.349c1.312-1.331,6.215-7.854,10.753-11.665
	c4.592-3.789,27.082-20.338,51.215-23.4c23.619-3.007,34.572-1.823,48.221,2.606c10.209,3.335,17.424,11.809,20.303,15.746
	C372.979,105.938,374.947,106.392,376.207,106.301"/>
<path fill="#FFFFFF" d="M207.129,130.177c0,0-0.073-0.949,0.803-1.533c0.911-0.581,0.802-0.437,2.734-0.69
	c1.896-0.293,2.441-0.238,4.739-1.133c2.295-0.892,3.424-1.092,3.899-1.638c0.473-0.528-0.366,0.892-1.277,1.84
	c-0.912,0.966-4.155,3.738-5.615,4.267c-1.493,0.528-2.642,0.836-3.936,0.528C206.729,131.397,207.129,130.177,207.129,130.177"/>
<path fill="#FFFFFF" d="M203.996,123.962c0,0,1.602-0.147,2.404-0.147c0.802,0,0.912,0,0.912,0.529c0,0.528-1.057,3.353-1.585,4.465
	c-0.548,1.112-1.149,1.896-1.477,2.097c-0.363,0.235-0.092-1.277-0.092-3.335c0-2.077-0.09-2.862-0.199-3.117
	C203.85,124.179,203.996,123.962,203.996,123.962"/>
<path fill="#FFFFFF" d="M203.266,136.064c0,0-0.803-0.31-0.327-0.64c0.491-0.309,1.057-0.529,1.512-1.348
	c0.473-0.783,0.728-1.786,1.002-1.73c0.274,0.053,0.474,0.508,0.419,1.477c-0.037,0.964,0.238,1.932-0.274,2.041
	C205.143,135.971,203.266,136.064,203.266,136.064"/>
<path fill="#FFFFFF" d="M202.738,127.023c-0.694-0.31-1.916-0.401-3.445-0.401c-1.531,0-4.629,0.965-5.03,1.204
	c-0.438,0.238-0.675-0.13,0-0.856c0.728-0.784,2.004-2.044,4.191-2.516c1.493-0.31,4.228-0.803,4.702,0
	c0.165,0.254,0.382,1.112,0.328,1.895C203.43,127.151,203.43,127.35,202.738,127.023"/>
<path fill="#FFFFFF" d="M201.625,133.932c0,0-0.839,2.077-1.896,2.186c-1.657,0.165-3.408,0.201-4.883-0.473
	c-1.477-0.676-2.917-1.44-2.771-1.713c0.185-0.256,0.803,0.238,2.279,0.291c1.495,0.056,3.883,0.036,5.049-0.202
	c1.167-0.198,1.531-0.456,2.004-0.4C201.898,133.676,201.625,133.932,201.625,133.932"/>
<path fill="#FFFFFF" d="M202.318,131.342c0,0,0.274,0.439-0.528,0.528c-0.802,0.109-5.102-0.272-6.36-0.473
	c-1.276-0.2-0.912-0.491-0.073-0.747c0.875-0.256,3.425-1.204,4.957-1.385c1.529-0.145,1.859-0.456,1.932,0.182
	C202.354,130.068,202.318,131.342,202.318,131.342"/>
<path fill-rule="evenodd" clip-rule="evenodd" fill="#FFFFFF" d="M393.975,36.316c0,0-5.979,3.353-7.893,7.982
	c-0.818,1.969-1.73,4.884-0.928,7.893c1.258,4.812,1.932,8.111,7.438,12.319c5.504,4.193,12.865,10.699,14.486,14.999
	c1.604,4.338,3.229,11.555,1.604,17.297c-1.604,5.704-4.207,11.008-13.176,15.855c0,0-7.252,3.354-10.791,4.21
	c-3.568,0.858-13.594,1.75-13.594,1.75s1.057,2.787,1.492,7.217c0.438,4.429,0.66,13.287,0,16.95
	c-0.652,3.662-0.436,3.243-0.436,3.243s2.279-0.654,4.34-0.2c2.041,0.421,3.133,1.823,4.207,2.68
	c1.076,0.857-1.002,0.435-2.604,1.73c-1.604,1.295-3.447,1.404-5.943,4.867c-2.477,3.445-2.693,5.267-2.693,5.267
	s3.023-0.418,5.738,0.236c2.676,0.641,4.193,1.186,5.502,2.809c1.295,1.602-0.107-0.33-2.826,3.352
	c-2.676,3.664-6.67,8.092-8.639,12.74c-1.93,4.629-3.223,8.84-1.512,11.863c1.736,3.025,8.004,13.178,8.551,14.252
	c0.529,1.096,2.039,2.697,1.6,4.209c-0.436,1.516-2.477,2.391-4.406,3.045c-1.953,0.639-9.404,2.461-12.959,4.191
	c-3.553,1.732-8.947,2.807-8.639,7.455c0.311,4.646,0.109,7.346,0.748,8.418c0.652,1.076-1.641,0.768-2.701-0.217
	c-1.072-0.967-1.73-1.838-1.73-1.838l-1.295,4.445c0,0-3.553-0.984-4.445-2.168c-0.84-1.207-1.475-2.699-1.475-2.699l-2.496,4.867
	c0,0-2.807-0.549-3.666-2.391c-0.875-1.836-1.074-3.111-1.074-3.111s-1.42,1.164-1.842,2.895c-0.418,1.734-0.637,2.807-0.637,2.807
	s-4.557-5.834-3.025-9.711c1.494-3.902,1.494-5.07,6.578-7.238c5.086-2.168,7.016-2.695,13.613-4.648
	c6.58-1.93,12.721-3.99,14.035-5.174c1.275-1.188,2.152-5.943,1.275-9.713c-0.859-3.791-4.229-14.801-5.178-16.514
	c-0.965-1.732-2.584-2.715-6.686-4.338c-4.102-1.621-17.715-3.555-21.926-5.064c-4.211-1.514-12.611-4.979-15.873-7.238
	c-3.248-2.277-10.264-6.486-9.404-14.143c0.873-7.67,3.791-14.051,5.521-15.345c1.713-1.276-1.074-1.074-5.725,0.237
	c-4.646,1.275-16.84,6.47-27.338,17.167c-10.459,10.68-18.771,20.94-22.324,24.622c-3.555,3.664-14.198,12.305-18.481,13.158
	c-1.077,0.219-1.185-2.258-2.06-3.771c-0.839-1.512-3.208-3.264-3.208-3.264s-0.456,3.375-0.656,6.162
	c-0.219,2.826-3.025,5.74-5.505,7.016c-2.478,1.314-10.37,3.262-10.37,3.262s4.758,1.822,7.017,3.137
	c2.259,1.275,4.009,2.588,4.009,2.588l-9.951,1.602c0,0,6.16,1.512,4.445,2.389c0,0-6.049,4.191-10.825,5.705
	c-4.738,1.514-20.612,6.924-26.353,9.406c-5.706,2.496-11.865,4.973-13.159,8c-1.294,3.021-0.437,5.703,0,7.012
	c0.438,1.279,0.528,2.373-1.714,1.078c-2.295-1.313-3.79-2.588-3.79-2.588s-0.438,2.172,0,3.445
	c0.417,1.295,0.874,2.477,0.874,2.477s-3.571-1.182-4.664-2.24c-1.076-1.094-2.806-2.605-2.806-2.605l0.436,4.846
	c0,0-2.916-0.746-3.791-2.24c-0.839-1.51-1.933-2.172-1.933-2.172l0.219,4.412c0,0-3.792-2.15-4.209-5.502
	c-0.419-3.334,0.655-7.125,3.99-9.061c3.355-1.947,13.487-7.363,20.633-9.84c7.124-2.479,17.477-7.451,20.083-10.787
	c2.587-3.336,4.52-11.557,3.444-15c-1.074-3.465-3.333-4.867-4.848-5.195c-1.513-0.311-2.387-1.4-2.168-2.914
	c0.22-1.498,0.11-3.135,2.168-4.213c2.06-1.074,3.137-1.512,3.137-3.225c0-1.73-0.439-3.135-0.439-3.135s-2.698,0.965-3.553,2.26
	c-0.875,1.293-2.934,3.793-4.337,6.814c-1.386,3.012-1.604,6.361-1.604,6.361s1.604,0.223,3.117,1.295
	c1.512,1.076,2.605,2.041,0.856,3.115c-1.714,1.098-3.463,1.098-8.313,0.66c-4.847-0.422-20.411-7.984-23.328-9.715
	c-2.915-1.717-14.999-8.732-17.823-12.523c-2.79-3.77-4.63-7.127-4.193-9.932c0.439-2.807-2.587,1.623-3.243,2.477
	c-0.638,0.857-1.823,2.826-1.823,2.826s-2.589-3.988-2.369-7.252c0.199-3.244-0.657-4.521,0.419-7.894
	c1.074-3.333,2.497-5.502,2.497-5.502s-2.843,0.546-5.085,1.967c-2.26,1.387-3.154,1.387-3.154,1.387s-0.072-6.034,0.894-9.06
	c0.965-3.024,3.772-7.672,3.772-7.672s-1.403,0-4.428,1.294c-3.026,1.294-4.321,2.807-4.321,2.807s0.219-6.47,2.369-9.385
	c2.189-2.936,3.791-5.96,5.286-6.817c1.53-0.855-5.503-0.217-5.503-0.217s-1.933,0.347-0.655-1.057
	c1.311-1.424,3.48-5.633,8.108-8.441c4.648-2.807,8.86-4.627,8.86-4.627s0.436,1.166,2.167,2.477
	c1.714,1.294,5.504,3.774,7.437,3.774c1.95,0,3.572,0.309,4.447-1.403c0.837-1.733,0.748-2.808-2.08-3.683
	c-2.805-0.858-4.355-0.638-5.029-4.21c-0.654-3.553,3.173-6.433,4.521-7.017c1.348-0.583,5.285-1.913,8.275-0.857
	c2.989,1.058,4.811,3.663,5.175,4.812c0.4,1.147,0.766,2.971,0.218,4.428c-0.583,1.441-1.258,1.715-1.348,0.768
	c-0.109-0.984,0.583-4.157-2.407-6.252c-2.989-2.115-4.538-1.841-5.978-1.531c-1.439,0.274-3.081,1.531-3.754,2.861
	c-0.656,1.349-0.947,2.698-0.947,2.698s0.857-0.583,2.588-1.623c1.75-1.075,3.663-2.132,5.103-1.349
	c1.423,0.766,2.497,1.823,2.223,3.264c-0.291,1.439-1.166,4.135,1.915,5.485c3.081,1.348,6.361-4.157,6.724-4.721
	c0,0,1.823-2.77,2.879-3.554c1.058-0.766,3.174-2.295,7.42-1.73c4.209,0.584,5.01,0.673,6.616,1.641
	c1.641,0.964,2.405,2.114,2.405,3.17c0,1.057-0.565,1.548-1.53,1.823c-0.948,0.291-2.791,0.198-4.046-0.766
	c-1.241-0.966-2.771-2.59-2.771-2.59s0.183,1.915,0.767,2.863c0.582,0.984,2.497,2.714,4.027,3.079
	c1.548,0.402,1.95,0.31,2.604,0.091c0.657-0.182-1.057,0.895-1.529,1.658c-0.492,0.767-0.584,1.423,0.073,2.006
	c0.692,0.583,1.258,1.075,1.641,0.674c0.382-0.364,0.965-0.856,1.932-1.04c0.947-0.217,1.529-0.217,2.114,0.093
	c0.581,0.273,0-1.168,0.09-1.733c0.092-0.581-0.09-0.763,0.967-0.964c1.056-0.2,1.257-0.693,2.023-0.093
	c0.764,0.566,0.964,1.331,1.147,0.476c0.182-0.858,0.874-2.608,0.874-2.608s3.244,1.35,5.76,2.025
	c2.516,0.673,7.034,1.73,8.166,2.989c1.167,1.257,2.042,2.114,1.639,3.845c-0.382,1.732-1.147,3.263-1.147,3.263
	s-2.99-1.259-6.543-0.858c-3.554,0.383-7.49,1.057-9.696,2.498c-2.222,1.438-3.954,2.205-4.629,2.989
	c-0.656,0.765-0.857-1.148-0.272-2.498c0.565-1.366,2.203-2.989,3.553-3.844c1.348-0.875,2.97-1.952,1.421-1.842
	c-1.53,0.109-3.445,0.875-4.885,1.733c-1.457,0.875-3.953,2.496-4.629,3.953c-0.673,1.441-0.764,3.445-0.09,4.794
	c0.674,1.348,2.132,3.663,3.735,5.303c1.658,1.622,2.424,2.679,4.831,3.353c2.404,0.674,5.575,0.968,6.833,0.968
	c1.241,0,3.536-0.294,4.521-0.385c0.948-0.09,0.274-0.09-0.291,0.766c-0.584,0.856-1.168,3.462-6.251,3.17
	c-5.123-0.272-10.59-0.765-14.145-1.931c-3.553-1.149-8.365-2.407-9.913-3.171c-1.533-0.766-4.32-2.188-4.32-2.188
	s-0.182,2.681,1.147,7.29c1.367,4.63,3.665,10.189,8.949,13.469c5.287,3.263,11.556,4.521,15.875,4.702
	c4.32,0.199,14.418-2.989,18.846-6.05c4.428-3.062,7.781-6.727,8.074-7.127c0.291-0.364-0.184,5.103-0.184,5.103
	s2.88-1.73,4.521-3.936c1.621-2.224,4.118-5.395,4.992-7.781c0.875-2.406,1.149-2.899,1.533-3.573c0.4-0.675,0,0.4-0.073,1.729
	c-0.109,1.35-0.218,2.298,0.273,3.755c0.493,1.441,0.856,1.843,0.856,1.843s2.625-3.301,4.52-6.252
	c1.932-2.991,4.227-7.146,6.16-9.532c1.913-2.406,9.15-8.476,16.076-13.56c6.906-5.103,20.268-13.669,34.408-17.896
	c14.143-4.23,22.217-7.111,38.164-4.886c15.982,2.188,22.348,5.668,25.59,7.875c3.279,2.222,5.688,3.755,8.674,7.489
	c2.078,2.642,2.879,5.594,3.262,6.361c0.385,0.766-0.488,0.108,1.26,0c1.713-0.109,8.072-1.258,10.479-1.731
	c2.404-0.475,10.48-2.879,13.539-6.25c3.102-3.373,4.523-5.396,4.246-9.897c-0.305-4.521-2.676-9.64-7.416-14.434
	c-4.701-4.812-8.932-8.185-16.619-11.737c-7.711-3.555-13.744-7.019-16.459-9.223c-2.68-2.223-7.693-7.891-7.891-12.411
	c-0.186-4.521,1.168-7.892,3.756-10.68c2.604-2.787,3.936-2.88,3.936-2.88s-0.566,0.785-1.041,2.114
	c-0.49,1.349-1.256,4.52-0.199,6.361c1.057,1.823,1.168,2.277,2.225,3.537c1.037,1.257,1.93,1.948,1.93,1.948
	s-0.4-5.394,0.748-8.382c1.148-2.971,3.756-6.725,6.068-8.457c2.297-1.73,5.871-3.481,7.02-3.662
	c1.145-0.184,0.088,0.673-0.311,1.348c-0.367,0.673-2.68,5.577-3.174,9.057c-0.471,3.445,0.586,7.784,1.168,9.204
	c0.582,1.438,0.877,2.516,1.24,1.257c0.398-1.257,2.221-7.307,5.979-9.695c3.752-2.424,6.049-3.08,8.947-3.08
	c2.861,0,3.08-0.219,4.029,0C393.504,36.407,393.975,36.316,393.975,36.316"/>
<g>
	
		<line fill-rule="evenodd" clip-rule="evenodd" fill="none" stroke="#000000" stroke-width="0.3" x1="-39.413" y1="-181.191" x2="-39.413" y2="-145.191"/>
	
		<line fill-rule="evenodd" clip-rule="evenodd" fill="none" stroke="#000000" stroke-width="0.3" x1="-93.413" y1="-127.191" x2="-57.413" y2="-127.191"/>
	
		<line fill-rule="evenodd" clip-rule="evenodd" fill="none" stroke="#000000" stroke-width="0.3" x1="-93.413" y1="438.529" x2="-57.413" y2="438.529"/>
	
		<line fill-rule="evenodd" clip-rule="evenodd" fill="none" stroke="#000000" stroke-width="0.3" x1="-39.413" y1="492.529" x2="-39.413" y2="456.529"/>
	
		<line fill-rule="evenodd" clip-rule="evenodd" fill="none" stroke="#000000" stroke-width="0.3" x1="539.156" y1="-181.191" x2="539.156" y2="-145.191"/>
	
		<line fill-rule="evenodd" clip-rule="evenodd" fill="none" stroke="#000000" stroke-width="0.3" x1="593.156" y1="-127.191" x2="557.156" y2="-127.191"/>
	
		<line fill-rule="evenodd" clip-rule="evenodd" fill="none" stroke="#000000" stroke-width="0.3" x1="593.156" y1="438.529" x2="557.156" y2="438.529"/>
	
		<line fill-rule="evenodd" clip-rule="evenodd" fill="none" stroke="#000000" stroke-width="0.3" x1="539.156" y1="492.529" x2="539.156" y2="456.529"/>
</g>
<g>
	
		<line fill-rule="evenodd" clip-rule="evenodd" fill="none" stroke="#000000" stroke-width="0.3" x1="-39.413" y1="-181.191" x2="-39.413" y2="-145.191"/>
	
		<line fill-rule="evenodd" clip-rule="evenodd" fill="none" stroke="#000000" stroke-width="0.3" x1="-93.413" y1="-127.191" x2="-57.413" y2="-127.191"/>
	
		<line fill-rule="evenodd" clip-rule="evenodd" fill="none" stroke="#000000" stroke-width="0.3" x1="-93.413" y1="438.529" x2="-57.413" y2="438.529"/>
	
		<line fill-rule="evenodd" clip-rule="evenodd" fill="none" stroke="#000000" stroke-width="0.3" x1="-39.413" y1="492.529" x2="-39.413" y2="456.529"/>
	
		<line fill-rule="evenodd" clip-rule="evenodd" fill="none" stroke="#000000" stroke-width="0.3" x1="539.156" y1="-181.191" x2="539.156" y2="-145.191"/>
	
		<line fill-rule="evenodd" clip-rule="evenodd" fill="none" stroke="#000000" stroke-width="0.3" x1="593.156" y1="-127.191" x2="557.156" y2="-127.191"/>
	
		<line fill-rule="evenodd" clip-rule="evenodd" fill="none" stroke="#000000" stroke-width="0.3" x1="593.156" y1="438.529" x2="557.156" y2="438.529"/>
	
		<line fill-rule="evenodd" clip-rule="evenodd" fill="none" stroke="#000000" stroke-width="0.3" x1="539.156" y1="492.529" x2="539.156" y2="456.529"/>
</g>
</svg>
