<?xml version="1.0" encoding="UTF-8" standalone="no"?>
<!-- Created with Inkscape (http://www.inkscape.org/) -->
<svg
   xmlns:svg="http://www.w3.org/2000/svg"
   xmlns="http://www.w3.org/2000/svg"
   version="1.0"
   width="500"
   height="419.18799"
   viewBox="0 0 500 419.188"
   id="Layer_1"
   xml:space="preserve"><defs
   id="defs68" />
<path
   d="M 210.274,28.764 L 210.614,28.084 L 211.294,27.386 L 211.643,26.706 L 211.975,25.685 L 212.673,25.005 L 212.673,24.656 L 213.022,24.656 C 221.104,12.064 242.86,3.508 257.52,2.739 C 261.064,2.461 264.563,1.871 268.152,2.059 L 268.832,2.39 L 271.911,2.39 L 272.591,2.739 L 275.339,2.739 L 276.368,3.088 C 277.317,3.007 281.407,3.634 282.194,4.109 L 283.223,4.109 L 283.894,4.458 L 284.592,4.458 L 284.923,4.789 L 286.301,5.138 L 287.671,5.487 C 290.069,6.069 291.886,7.447 294.177,7.867 C 298.893,10.596 304.04,13.291 308.219,16.772 C 318.663,24.11 331.041,41.992 331.846,54.79 C 346.255,53.689 359.098,61.225 364.378,74.659 C 370.867,91.762 361.774,107.943 343.158,109.25 C 334.817,109.975 339.668,109.832 332.526,112.329 L 332.526,113.698 L 331.846,116.777 L 332.195,118.155 L 332.526,121.583 L 332.526,122.263 L 334.244,123.964 L 336.303,126.362 L 338.352,129.118 C 341.923,136.573 342.916,141.871 341.78,150.007 C 340.438,156.335 338.003,162.367 335.274,168.157 C 333.994,170.278 332.177,173.249 331.166,175.344 L 330.468,176.364 L 330.137,177.062 L 329.448,178.091 L 328.768,178.771 L 328.419,179.791 L 327.739,180.489 L 327.041,181.169 L 326.71,182.198 C 322.772,187.514 318.978,191.873 314.377,196.58 C 312.488,198.361 310.51,200.061 308.55,201.717 L 307.87,202.388 L 307.19,202.737 L 306.841,203.417 L 306.841,204.795 L 306.519,206.164 L 306.17,207.193 L 306.17,208.571 L 305.821,209.922 C 303.987,218.263 302.885,226.049 300.335,234.248 C 297.641,244.809 291.52,257.436 284.924,266.1 C 269.306,287.786 241.867,302.633 214.722,301.371 C 199.346,301.129 178.762,293.486 166.429,284.25 C 155.501,276.24 143.697,264.856 135.964,253.768 L 135.615,253.768 L 135.266,253.087 L 134.586,252.389 L 134.237,251.718 L 133.566,251.02 L 133.217,250.34 C 132.116,249.534 131.696,248.236 130.809,247.261 L 130.487,246.581 L 130.138,246.232 L 129.789,245.534 L 129.109,244.863 L 128.76,244.514 L 128.76,243.834 C 127.346,242.787 127.954,241.981 127.059,242.134 L 127.059,241.785 L 126.71,241.436 L 126.71,241.105 L 126.361,241.105 L 126.361,240.756 L 125.001,239.378 L 123.954,237.678 L 123.632,237.329 L 123.632,236.98 L 123.283,236.649 L 122.934,236.3 L 122.603,235.951 L 122.254,235.28 L 112.669,261.986 C 103.979,243.836 82.187,226.258 80.808,204.117 L 80.468,203.088 L 80.468,200.69 L 80.137,200.01 L 80.137,198.292 L 79.788,196.914 C 79.77,192.591 79.717,189.548 80.137,185.279 C 80.96,177.582 83.099,169.823 85.963,162.672 L 86.643,161.303 L 86.992,160.274 L 87.323,159.925 L 87.663,159.254 L 87.663,158.574 L 88.012,158.225 L 88.343,157.545 L 88.343,157.196 L 88.692,156.516 L 89.041,156.167 L 89.041,155.818 L 89.372,155.496 L 89.721,154.798 L 89.721,154.467 L 90.07,154.118 L 90.07,153.769 L 90.741,152.74 L 91.439,151.37 L 91.77,151.039 L 92.119,150.69 L 92.119,150.341 L 92.468,149.661 C 96.612,142.519 101.793,138.483 106.841,132.2 C 113.911,124.056 120.275,117.666 129.108,111.303 C 130.576,110.095 132.24,109.155 133.887,108.224 L 134.585,107.875 L 135.265,107.195 L 135.963,107.195 L 136.294,106.846 L 136.643,106.515 L 136.992,106.515 L 137.314,106.166 L 138.692,105.146 L 140.742,104.466 L 141.091,104.117 L 141.423,104.117 L 141.772,103.768 L 142.121,103.768 L 142.47,103.419 L 142.801,103.419 L 143.15,103.088 L 143.481,103.088 L 143.83,102.748 L 144.17,102.748 L 145.548,102.068 C 146.389,101.478 147.195,101.263 147.929,100.69 C 150.623,99.607 153.137,97.799 156.163,97.262 L 156.163,96.913 L 156.843,96.913 L 157.183,96.582 L 157.532,96.582 L 158.212,96.233 L 158.892,96.233 C 160.431,95.141 163.734,94.568 164.369,93.835 L 164.718,93.835 L 165.398,93.504 L 166.096,93.504 L 166.776,93.155 L 167.796,92.815 L 168.494,92.815 C 169.98,91.804 171.796,92.117 173.282,91.106 C 174.401,90.981 176.343,90.48 177.381,90.077 L 178.079,90.077 L 178.759,89.728 L 179.439,89.728 L 180.137,89.379 L 180.808,89.379 L 181.488,89.057 L 181.837,89.057 C 183.833,88.833 185.613,87.992 187.663,87.679 C 190.321,87.205 192.174,86.686 194.85,86.301 C 195.056,82.488 194.34,85.316 194.501,81.853 C 194.725,78.39 193.973,79.929 194.17,76.367 L 194.501,75.347 L 194.501,71.239 L 194.85,67.811 C 197.123,59.854 196.828,61.636 200.327,55.496 C 202.144,53.787 202.108,51.227 202.386,48.99 C 203.926,45.509 202.896,45.947 204.435,42.484 C 205.357,39.933 205.241,39.163 206.494,36.309 L 206.843,35.628 L 207.183,34.599 L 207.532,33.901 L 208.892,31.172 L 209.921,29.471 L 210.27,29.122 L 210.27,28.764"
   style="fill:#ffffff"
   id="path3" />
<path
   d="M 259.247,0 C 333.565,0 393.833,60.617 393.833,134.595 C 393.833,208.573 333.565,269.181 259.247,269.181 C 185.268,269.181 124.652,208.574 124.652,134.595 C 124.652,60.616 185.269,0 259.247,0"
   style="fill:#ffffff"
   id="path5" />
<path
   d="M 126.03,123.283 C 130.755,119.783 135.839,115.496 141.092,113.017 L 141.092,112.677 C 144.081,111.209 146.614,110.126 149.308,108.569 L 149.657,108.569 L 150.006,108.22 L 150.337,108.22 L 150.677,107.871 L 151.026,107.54 L 151.706,107.54 L 152.055,107.191 L 152.387,107.191 L 152.736,106.842 C 154.589,106.162 156.88,104.462 158.894,104.462 L 158.894,104.113 C 160.254,104.238 161.131,103.182 162.322,102.743 L 163.02,102.743 L 163.7,102.412 L 164.72,102.063 L 165.4,101.714 L 166.429,101.365 L 166.778,101.365 L 167.127,101.034 L 167.798,101.034 L 168.496,100.685 L 169.176,100.336 L 169.856,100.336 L 170.545,100.005 L 171.225,99.656 L 171.905,99.656 C 173.722,99.056 175.593,98.654 177.383,97.955 C 178.94,97.866 180.39,97.096 181.84,96.908 C 183.818,96.765 185.67,95.664 187.666,95.556 C 190.458,94.93 193.134,94.402 195.882,93.829 C 198.665,93.739 201.341,92.692 204.107,92.477 L 203.758,92.128 L 203.758,91.43 L 203.418,90.75 L 203.418,90.07 L 203.087,89.372 L 203.087,87.671 L 202.738,86.991 L 202.738,86.293 C 202.425,83.984 201.915,81.496 202.058,79.115 C 201.834,72.349 202.478,64.903 206.846,59.587 L 207.535,58.566 L 208.215,57.188 L 208.895,56.508 L 209.244,56.168 L 209.244,55.139 C 209.262,53.618 209.96,52.186 209.924,50.682 C 211.132,48.006 211.096,45.035 212.672,42.475 L 212.672,41.446 L 213.021,40.748 L 213.352,40.068 L 213.692,39.048 L 214.041,38.35 C 215.213,36.479 214.873,34.752 216.779,33.213 L 216.779,32.873 L 217.119,32.192 L 217.45,31.843 L 217.799,31.163 L 218.148,30.814 C 218.703,29.695 220.475,27.073 221.227,26.366 C 226.597,20.567 235.985,15.51 243.476,13.345 C 250.224,11.206 260.91,9.425 267.801,9.935 C 271.157,9.72 269.895,10.436 272.589,10.266 L 274.307,10.266 L 274.656,10.615 C 277.574,10.418 276.419,10.982 278.066,10.964 L 278.764,10.964 L 279.113,11.295 L 280.465,11.295 L 280.814,11.644 C 282.774,11.501 281.619,12.082 283.221,11.993 C 284.85,12.575 286.148,12.834 287.669,13.693 L 288.018,13.693 L 288.698,14.042 L 289.029,14.391 L 289.727,14.391 L 289.727,14.722 C 297.675,17.505 308.513,25.811 313.346,32.541 C 317.177,37.58 320.219,41.885 322.26,47.953 C 324.587,52.759 324.014,53.797 324.658,58.567 C 324.765,61.261 324.076,61.171 324.309,64.376 L 324.658,64.045 L 325.687,64.045 L 326.036,63.696 L 327.388,63.347 L 329.116,63.025 L 329.447,62.676 L 330.816,62.676 C 333.125,62.381 332.49,62.229 335.273,62.327 C 338.719,62.014 338.665,63.276 341.082,63.025 L 341.082,63.347 L 342.46,63.347 L 344.178,64.045 L 345.887,64.725 L 347.605,65.754 L 348.965,66.775 L 349.986,67.473 C 353.306,70.221 352.008,69.603 354.443,72.61 C 362.435,82.231 358.828,100.006 344.858,101.366 C 342.585,101.84 340.348,102.154 338.003,102.064 C 335.694,101.805 336.884,102.816 334.244,103.085 C 333.403,104.204 333.018,103.38 330.816,104.794 L 329.796,105.143 L 328.767,105.492 L 327.738,105.492 L 326.709,105.823 L 326.369,105.823 L 325.34,106.843 L 324.311,107.541 C 325.725,113.242 323.89,113.134 323.962,117.457 L 324.66,119.856 L 324.991,122.263 L 324.991,125.691 L 325.34,126.362 C 331.658,130.237 334.737,138.39 334.594,145.559 C 333.735,153.166 330.781,160.442 327.04,167.128 C 323.666,173.25 319.8,178.753 315.405,184.249 C 313.571,186.209 309.651,190.773 307.538,192.134 C 307.01,193.62 305.435,194.148 304.441,195.213 C 302.956,195.965 301.953,197.37 300.333,197.943 C 293.299,247.927 275.426,287.351 220.546,293.839 C 211.381,294.35 202.512,292.318 193.822,289.732 C 189.956,287.933 186.528,287.208 182.867,285.284 C 180.003,284.085 177.479,282.071 174.651,280.827 C 173.685,280.111 171.34,277.748 170.203,277.748 C 167.267,275.618 164.717,273.202 161.969,270.893 C 156.984,266.33 152.626,262.329 148.276,257.201 C 143.094,251.025 138.431,244.752 133.884,238.362 L 133.884,238.031 L 133.562,237.682 L 133.213,237.333 L 132.864,236.984 L 132.864,236.653 L 132.533,236.304 L 132.184,235.955 L 131.155,234.603 L 130.135,233.225 L 129.786,232.876 L 129.786,232.545 L 129.455,232.205 L 128.757,231.525 L 128.426,231.176 L 128.077,230.496 C 125.07,227.104 122.859,223.238 119.521,220.213 L 110.616,245.219 C 104.745,233.925 95.231,224.742 90.416,213.027 C 89.79,210.852 89.333,208.651 88.689,206.503 C 88.582,204.669 88.286,202.843 88.009,201.044 L 88.009,199.316 L 87.66,198.976 L 87.66,196.237 L 87.32,194.867 C 87.338,191.108 87.642,184.199 88.69,180.825 C 88.708,178.462 89.719,176.261 90.068,173.988 L 90.417,172.941 L 90.739,172.27 L 91.088,171.241 L 91.437,170.561 L 91.437,169.863 L 92.117,167.465 L 92.797,165.764 L 93.495,164.735 L 93.495,164.386 L 93.827,164.386 L 94.167,163.357 L 94.167,162.677 L 94.516,162.337 L 94.847,162.006 L 94.847,161.308 L 95.196,160.959 L 95.545,160.627 L 95.545,159.929 L 95.876,159.598 L 95.876,159.258 L 96.225,158.909 L 96.574,158.229 L 96.574,157.88 L 96.923,157.549 C 96.843,155.974 98.901,155.24 98.973,153.772 C 100.548,150.64 100.879,151.794 102.052,148.975 C 103.171,148.223 105.552,144.733 107.529,143.158 C 109.462,141.055 110.357,139.345 112.666,137.332 C 116.812,132.375 121.188,127.632 126.03,123.283"
   id="path7" />
<path
   d="M 259.247,261.655 C 329.118,261.655 386.297,204.448 386.297,134.595 C 386.297,64.724 329.117,7.535 259.247,7.535 C 189.394,7.535 132.187,64.724 132.187,134.595 C 132.188,204.448 189.394,261.655 259.247,261.655"
   id="path9" />
<path
   d="M 259.247,16.772 C 324.311,16.772 377.043,69.853 377.043,134.595 C 377.043,199.31 324.311,252.391 259.247,252.391 C 194.504,252.391 141.424,199.31 141.424,134.595 C 141.424,69.853 194.504,16.772 259.247,16.772"
   style="fill:#ffffff"
   id="path11" />
<path
   d="M 259.247,27.386 C 318.485,27.386 366.429,75.688 366.429,134.595 C 366.429,193.484 318.486,241.786 259.247,241.786 C 200.33,241.786 152.056,193.484 152.056,134.595 C 152.056,75.688 200.331,27.386 259.247,27.386"
   style="fill:#0193a6"
   id="path13" />
<path
   d="M 183.219,222.607 L 64.044,222.607 L 64.366,226.715 L 64.044,226.366 L 63.346,226.035 L 62.317,225.695 L 61.288,225.346 L 60.617,225.346 C 58.836,224.424 56.93,224.424 55.131,223.637 L 54.451,223.637 L 53.43,223.288 L 52.732,223.288 L 51.703,222.939 L 51.023,222.939 C 34.806,220.872 16.253,224.353 0.001,222.259 L 0.332,236.65 L 0.681,265.415 L 7.187,265.415 C 7.536,296.918 7.607,328.43 7.536,359.933 L 1.369,361.312 C 1.369,380.607 1.369,399.894 1.369,419.19 C 21.202,413.086 40.399,407.869 60.267,402.4 C 60.267,385.046 60.267,367.702 60.267,350.348 L 53.76,351.377 C 53.76,347.376 53.76,343.385 53.76,339.385 C 56.015,339.278 58.155,338.874 60.267,338.015 L 60.956,338.015 L 61.636,337.684 L 62.665,337.335 L 64.365,336.654 L 65.743,335.957 L 67.121,335.625 L 68.141,334.605 L 69.519,333.907 L 70.897,333.226 L 71.219,332.877 L 71.568,349.317 L 65.062,349.998 L 65.062,401.029 C 103.814,392.777 144.464,384.258 183.547,379.451 L 183.547,311.657 C 182.536,311.657 181.506,311.657 180.486,311.657 L 178.758,311.657 L 178.427,311.979 L 177.38,311.979 L 177.058,264.053 L 183.546,264.053 L 183.546,222.607 L 183.219,222.607 M 183.55,379.451 L 185.269,379.12 L 186.969,378.771 L 188.347,378.771 L 190.074,378.421 C 194.379,378.609 197.529,377.49 201.029,377.069 C 204.072,376.828 207.956,376.04 210.946,376.04 C 213.022,375.343 218.338,375.307 220.549,374.671 C 227.807,374.188 235.066,373.275 242.458,372.264 L 242.458,370.214 C 253.359,376.076 268.081,373.642 278.418,367.816 L 278.418,304.452 L 276.718,304.452 L 275.689,304.802 L 266.104,304.802 C 266.104,298.179 266.104,291.565 266.104,284.934 C 270.203,284.934 274.311,284.934 278.418,284.934 L 278.418,222.608 L 269.531,222.608 L 268.484,222.939 L 267.804,222.939 L 266.104,222.608 C 263.535,222.115 260.859,221.838 258.219,221.919 C 252.482,222.832 247.005,223.038 242.127,226.716 L 242.127,222.608 L 183.55,222.608 L 183.55,263.356 L 189.725,263.356 C 189.725,279.34 189.725,295.325 189.725,311.308 C 188.696,311.308 187.667,311.308 186.646,311.308 L 186.297,311.308 L 185.948,311.658 L 183.549,311.658 L 183.549,379.451 L 183.55,379.451 z M 278.417,367.816 L 278.766,367.816 L 279.115,367.467 C 285.729,370.474 293.113,367.332 299.986,367.467 C 303.432,367.315 307.522,366.697 310.95,366.786 C 315.738,366.016 324.679,366.053 329.798,365.408 L 331.847,365.059 L 336.304,365.059 L 337.324,364.737 C 343.079,364.674 348.708,364.039 354.445,363.708 L 354.445,270.89 L 353.765,268.161 L 353.416,265.414 L 352.745,262.675 L 352.745,261.987 L 354.446,261.656 L 354.446,222.608 L 278.418,222.608 L 278.418,284.934 C 283.144,284.728 286.043,285.319 290.751,285.283 C 289.65,291.709 288.039,298.018 286.974,304.453 C 284.137,304.453 281.273,304.453 278.418,304.453 L 278.418,367.816 L 278.417,367.816 z M 354.445,363.708 C 359.027,363.162 364.97,363.341 369.516,362.679 C 372.997,362.92 373.23,362.168 376.363,362.329 C 384.525,361.98 392.464,361.103 400.67,360.629 L 401.019,361.31 C 405.127,360.558 409.235,360.629 413.352,360.629 L 415.061,360.629 L 415.41,360.28 L 420.538,360.28 L 420.887,359.93 C 421.916,359.93 422.936,359.93 423.966,359.93 C 430.562,359.599 436.487,358.266 443.154,358.23 C 450.985,356.324 454.449,359.304 463.005,358.579 C 480.511,357.433 494.776,347.124 498.974,329.448 C 503.404,308.792 492.826,293.819 479.795,279.115 L 495.886,279.795 L 495.886,222.607 L 463.354,222.607 L 462.334,223.287 C 459.962,222.517 455.308,221.837 452.74,221.917 C 449.044,221.747 446.77,222.374 443.155,222.938 L 441.088,223.287 L 439.728,223.967 L 436.632,222.607 L 354.446,222.607 L 354.446,261.655 L 356.173,261.655 C 356.173,267.92 356.173,274.211 356.173,280.476 L 356.173,279.447 L 355.475,276.718 L 355.143,273.97 L 354.445,271.241 L 354.445,363.708 L 354.445,363.708 z "
   id="path15" />
<path
   d="M 74.301,386.378 L 74.301,389.733 C 79.286,388.454 84.333,387.424 89.372,386.378 L 74.301,386.378 M 10.614,386.378 C 10.614,393.197 10.614,400.035 10.614,406.855 C 23.242,402.765 36.049,399.686 48.624,395.891 L 48.624,386.378 L 51.022,386.378 L 51.022,395.542 L 48.624,395.891 L 48.624,386.378 L 10.614,386.378 z "
   style="fill:#ffffff"
   id="path17" />
<path
   d="M 74.301,365.892 L 74.301,386.378 C 90.419,388.525 107.755,381.429 124.303,379.8 L 124.303,365.892 L 124.303,379.8 C 128.563,378.153 133.288,378.591 137.665,377.401 L 137.665,377.07 C 152.441,374.43 167.691,372.013 182.539,370.215 C 189.556,369.078 196.796,368.327 203.759,367.468 C 206.051,367.137 208.386,367.172 210.615,366.439 L 212.673,366.439 L 213.694,366.108 L 216.432,366.108 L 217.05,365.893 L 74.301,365.893 M 51.022,365.892 C 51.022,372.73 51.022,379.54 51.022,386.378 L 48.624,386.378 L 48.624,365.892 L 51.022,365.892 z M 16.771,365.892 L 16.771,367.467 L 14.713,367.816 L 14.391,368.166 L 10.614,368.837 C 10.614,374.691 10.614,380.534 10.614,386.379 L 48.624,386.379 L 48.624,365.893 L 16.771,365.893 L 16.771,365.892 z "
   style="fill:#ffffff"
   id="path19" />
<path
   d="M 396.366,324.938 C 399.552,333.996 403.436,342.739 406.846,351.724 C 408.886,351.277 410.953,351.393 413.003,351.375 C 415.428,351.519 414.086,350.803 417.111,351.026 L 419.859,351.026 L 420.19,350.695 L 420.539,350.695 C 423.161,350.676 425.819,350.784 428.424,350.345 L 428.424,324.937 L 444.515,324.937 L 444.515,348.636 L 447.943,348.636 L 447.943,346.917 L 448.624,346.917 L 449.322,347.267 L 450.343,347.616 L 451.023,347.947 L 451.703,348.296 L 452.741,348.637 C 454.414,348.618 455.828,349.594 457.529,349.317 C 460.778,349.282 464.089,349.559 467.132,348.637 C 478.794,347.008 489.112,336.876 490.249,324.938 L 460.607,324.938 L 460.607,325 L 460.276,325.34 L 460.276,326.021 L 459.927,326.719 L 459.927,327.05 L 459.578,327.748 L 459.229,328.428 L 458.907,328.768 C 457.949,330.039 456.553,330.621 455.13,330.827 C 453.734,330.846 452.123,330.934 451.022,330.147 C 449.375,328.957 449.501,326.754 449.321,324.938 L 428.424,324.938 L 428.424,350.346 C 433.704,349.156 439.217,349.433 444.515,348.637 L 444.515,324.938 L 396.366,324.938 M 80.628,324.938 L 80.807,357.202 L 74.301,358.231 L 74.301,365.892 L 124.303,365.892 L 124.303,324.938 L 124.303,365.892 C 163.252,370.895 197.074,368.452 233.221,364.039 L 233.221,345.209 C 233.203,346.828 236.827,353.058 238,354.454 C 240.623,357.272 243.093,360.719 246.905,361.98 C 248.408,363.635 257.447,365.157 259.578,364.039 C 269.673,363.519 278.399,358.392 284.593,350.346 L 284.593,359.251 C 296.237,358.598 307.504,357.461 319.183,356.853 L 319.183,335.956 L 314.377,336.305 L 313.348,336.305 C 313.187,333.87 313.885,335.24 313.697,332.877 L 314.028,332.528 L 314.028,331.176 L 314.377,330.478 L 314.377,330.147 C 316.892,330.147 319.398,330.147 321.913,330.147 L 321.913,324.938 L 321.913,330.147 C 324.866,330.218 325.618,329.565 329.118,329.797 C 329.001,331.337 329.61,330.235 329.449,332.527 L 329.798,332.876 L 329.798,334.254 L 330.138,334.604 L 330.138,335.624 L 324.312,335.624 L 324.312,356.522 C 348.011,354.705 371.549,353.55 395.194,351.724 L 395.194,332.196 C 393.028,332.196 390.862,332.196 388.705,332.196 L 388.705,324.938 L 365.409,324.938 L 365.409,333.225 L 364.729,333.225 L 364.38,333.575 L 359.252,333.575 L 359.252,334.255 L 357.524,334.255 L 357.193,332.528 L 356.495,329.798 L 356.173,327.051 L 355.636,324.939 L 292.164,324.939 C 291.556,329.119 290.436,333.172 289.729,337.335 C 290.329,333.263 290.785,329.083 290.75,324.939 L 269.53,324.939 C 269.127,330.004 270.147,334.328 267.471,338.704 L 267.122,339.385 L 266.451,339.734 L 266.102,340.083 L 265.404,340.414 L 265.055,340.764 L 264.375,341.113 L 262.675,341.113 L 262.326,341.444 C 260.563,340.326 260.805,342.286 258.567,339.735 C 256.625,335.063 256.884,329.908 256.839,324.941 L 229.793,324.941 C 230.043,329.747 230.527,336.164 231.842,340.764 L 228.083,341.113 L 226.713,341.113 C 226.713,335.725 226.713,330.338 226.713,324.941 L 199.309,324.941 C 199.309,331.126 199.309,337.319 199.309,343.494 C 197.716,343.512 196.078,343.404 194.503,343.844 C 194.503,337.534 194.503,331.251 194.503,324.942 L 172.603,324.942 C 172.603,331.815 172.603,338.689 172.603,345.545 L 172.254,345.545 L 171.574,345.894 L 168.826,345.894 L 168.146,346.244 L 168.074,324.943 L 140.402,324.943 C 140.402,332.953 140.402,340.964 140.402,348.973 L 138.693,348.973 L 138.344,349.322 L 137.664,349.322 C 137.664,341.205 137.664,333.069 137.664,324.943 L 116.936,324.943 L 116.096,325 C 116.096,334.146 116.096,343.267 116.096,352.396 L 115.747,352.396 L 115.416,352.745 L 113.349,352.745 L 111.64,353.076 L 111.291,353.076 L 109.241,353.426 L 108.561,353.426 C 108.194,343.787 108.158,334.64 108.212,324.939 L 80.628,324.939 L 80.628,324.938 z M 16.771,324.938 C 16.771,338.595 16.771,352.252 16.771,365.892 L 48.624,365.892 L 48.624,361.659 L 51.022,361.31 L 51.022,365.892 L 48.624,365.892 L 48.624,361.659 L 45.545,362.33 L 44.516,362.33 C 44.516,351.939 44.516,341.549 44.516,331.177 L 47.254,331.177 L 47.943,330.827 L 48.623,330.827 L 48.623,324.938 L 48.623,330.827 C 51.737,330.988 49.813,330.353 52.051,330.478 L 52.731,330.478 L 53.429,330.147 L 54.45,330.147 L 55.13,329.797 L 55.81,329.797 L 56.508,329.448 C 59.327,329.046 64.241,326.593 66.532,324.937 L 16.771,324.937 L 16.771,324.938 z "
   style="fill:#ffffff"
   id="path21" />
<path
   d="M 124.303,313.707 L 124.303,287.68 L 126.362,287.68 C 126.362,296.353 126.362,305.034 126.362,313.706 L 124.303,313.706 M 444.515,232.201 L 443.486,232.201 L 442.116,232.872 L 440.738,233.221 L 439.386,233.901 L 438.008,234.93 L 436.979,235.628 L 435.959,236.649 L 434.93,237.678 L 434.581,237.678 L 434.581,231.851 L 428.424,231.851 L 428.424,252.068 L 428.773,252.068 L 428.424,252.74 L 428.424,261.985 L 428.773,263.703 L 429.104,265.413 C 429.793,269.808 430.527,271.293 432.183,275.347 C 435.11,283.33 439.164,288.647 444.516,295.216 L 444.516,232.201 L 444.515,232.201 z M 490.249,324.938 C 493.802,302.322 473.11,287.644 460.957,271.919 C 459.659,269.422 457.753,266.952 456.5,264.053 L 456.5,263.355 L 456.169,262.674 L 456.169,261.986 L 455.829,261.305 L 455.829,260.956 C 455.829,259.175 455.274,260.535 455.48,257.546 L 455.48,256.168 L 455.829,255.818 L 455.829,254.118 L 456.169,253.769 L 456.169,253.088 L 456.5,252.739 L 456.5,252.067 L 456.849,251.718 L 456.849,251.369 L 457.18,251.019 L 457.18,250.688 L 457.529,250.339 L 457.878,249.989 L 458.227,249.658 L 458.558,249.658 L 458.558,249.309 C 459.122,249.309 459.712,249.309 460.276,249.309 L 460.956,249.309 L 461.305,249.658 L 461.654,249.658 L 461.985,249.989 L 462.334,249.989 L 462.334,250.339 L 462.656,250.688 L 463.005,251.019 L 463.005,251.369 L 463.354,251.718 L 463.354,252.067 L 463.703,252.389 L 463.703,252.739 L 464.034,253.088 L 464.034,254.117 L 464.383,254.448 L 464.383,256.498 L 464.732,256.847 L 464.732,260.275 C 464.732,263.354 464.732,266.432 464.732,269.529 L 486.632,270.21 L 486.632,231.851 L 466.084,231.851 L 466.084,234.599 L 465.762,234.25 L 465.413,234.25 L 464.035,233.57 L 463.704,233.221 L 463.006,233.221 L 462.657,232.872 L 461.986,232.541 L 461.306,232.541 L 460.608,232.201 L 459.928,232.201 L 459.579,231.852 L 458.228,231.852 C 456.724,231.351 454.997,231.351 453.422,231.172 L 449.994,231.172 L 448.293,231.521 L 446.566,231.521 L 445.214,231.852 L 444.516,232.201 L 444.516,295.217 L 445.894,296.586 L 446.565,297.615 L 447.263,298.295 L 447.594,298.967 L 448.972,300.345 L 450.342,301.723 C 453.107,304.667 454.978,306.627 456.848,310.28 C 460.204,315.757 460.848,318.585 460.607,324.939 L 490.249,324.939 L 490.249,324.938 z M 444.515,324.938 L 444.515,310.279 C 439.199,310.905 433.829,310.503 428.424,310.628 L 428.424,324.939 L 449.321,324.939 L 449.321,323.972 L 448.972,322.594 L 448.972,310.28 L 444.515,310.28 L 444.515,324.938 z M 388.705,324.938 C 388.705,317.993 388.705,311.048 388.705,304.121 C 391.104,311.049 393.762,318.083 396.366,324.938 L 428.424,324.938 L 428.424,253.089 L 428.424,254.118 L 428.424,231.851 L 399.642,231.851 L 399.642,252.391 L 405.826,252.391 L 405.826,279.795 L 388.356,231.851 L 359.252,231.851 C 359.252,238.707 359.252,245.562 359.252,252.391 L 364.031,252.741 L 365.409,252.741 C 365.409,276.806 365.409,300.873 365.409,324.938 L 388.705,324.938 z M 321.913,324.938 L 321.913,308.551 C 320.776,308.551 319.64,308.551 318.485,308.551 C 319.782,305.857 319.273,302.814 320.203,300.013 C 326.145,277.943 318.207,253.528 321.912,231.851 L 301.363,231.851 L 301.363,253.42 L 306.841,253.42 C 301.99,277.272 296.969,301.077 292.163,324.938 L 355.635,324.938 C 353.362,313.393 351.16,301.552 348.636,290.079 C 346.542,277.639 343.544,265.208 341.431,252.741 L 348.967,252.741 L 348.967,231.852 L 321.912,231.852 L 321.912,290.76 L 322.261,289.381 C 323.326,295.602 324.57,302.376 325.34,308.552 L 321.912,308.552 L 321.912,324.938 L 321.913,324.938 z M 290.75,324.938 C 290.714,321.403 291.556,317.465 291.099,313.707 C 283.51,313.321 276.896,314.163 269.53,314.038 C 269.53,317.681 269.53,321.313 269.53,324.938 L 290.75,324.938 z M 256.839,324.938 C 256.839,313.321 256.839,301.705 256.839,290.079 C 257.519,281.506 255.246,261.834 258.567,255.148 L 258.898,254.45 L 259.578,254.119 L 259.927,253.421 L 260.267,253.09 L 260.947,253.09 L 261.296,252.741 L 261.976,252.741 L 262.325,252.391 L 263.005,252.391 C 264.795,252.543 266.997,253.313 267.802,255.148 C 270.406,257.323 268.572,272.207 269.18,275.688 C 276.367,275.839 283.947,275.383 291.098,276.019 C 290.588,262.003 291.357,245.5 290.069,231.852 L 271.579,231.852 L 271.579,234.6 L 271.23,234.6 L 270.881,234.251 L 270.201,233.902 L 269.861,233.571 L 269.53,233.571 C 268.009,232.658 266.192,231.817 264.375,231.852 C 261.019,230.698 254.683,231.262 251.362,232.541 C 237.669,237.105 232.505,254.54 231.162,267.462 C 228.71,285.129 230.231,306.626 229.793,324.938 L 256.839,324.938 L 256.839,324.938 z M 226.714,324.938 C 226.714,301.337 226.714,277.728 226.714,254.119 C 228.871,254.119 231.055,254.119 233.221,254.119 L 233.221,249.313 L 232.872,248.963 L 232.872,246.914 C 232.872,245.563 232.872,244.185 232.872,242.806 C 232.872,239.163 232.872,235.494 232.872,231.851 L 192.473,231.851 C 192.473,235.628 192.473,239.378 192.473,243.155 C 192.473,244.292 192.473,245.428 192.473,246.583 L 192.473,249.313 L 192.804,249.662 L 192.804,254.45 C 194.853,254.45 196.912,254.45 198.979,254.45 C 199.122,277.889 198.612,301.57 199.31,324.938 L 226.714,324.938 L 226.714,324.938 z M 194.504,324.938 L 194.504,320.543 C 192.124,320.543 189.725,320.543 187.317,320.543 L 186.646,320.543 L 186.297,320.893 L 184.239,320.893 C 182.995,320.893 181.733,320.893 180.489,320.893 L 179.111,320.893 L 178.762,321.242 L 172.605,321.242 L 172.605,324.938 L 194.504,324.938 L 194.504,324.938 z M 168.076,324.938 L 167.799,254.799 L 174.306,254.799 L 173.957,231.851 L 124.304,231.851 L 124.304,276.367 C 128.197,276.367 132.081,276.367 135.966,276.367 L 135.966,255.147 L 140.074,254.798 C 139.868,278.273 140.674,301.444 140.405,324.937 L 168.076,324.937 L 168.076,324.938 z M 124.303,324.938 L 124.303,324.321 L 123.632,324.321 L 123.283,324.67 L 122.603,324.67 C 120.714,324.67 118.808,324.59 116.937,324.939 L 137.665,324.939 L 137.665,323.641 C 135.508,324.026 133.325,323.972 131.159,323.972 L 129.79,323.972 L 129.11,324.322 L 128.761,324.322 C 127.275,324.322 125.79,324.322 124.304,324.322 L 124.304,324.938 L 124.303,324.938 z M 48.624,324.938 L 48.624,301.722 L 48.275,301.722 L 47.944,302.072 L 47.604,302.072 L 47.255,302.394 L 46.226,302.394 L 45.877,302.743 L 45.196,302.743 L 44.516,303.092 C 44.409,287.806 44.337,271.715 43.827,256.5 L 44.176,256.5 L 44.516,256.849 L 45.545,256.849 L 46.225,257.199 L 46.923,257.199 L 47.254,257.548 L 47.943,257.548 L 47.943,257.879 L 48.274,257.879 L 48.623,258.229 L 48.623,232.203 L 48.274,231.854 L 25.677,231.854 L 9.236,231.523 L 9.585,236.651 L 9.934,256.171 L 16.091,256.171 C 16.807,278.975 16.807,302.092 16.771,324.941 L 66.532,324.941 L 67.445,324.324 L 68.143,323.643 L 68.823,322.945 L 69.87,321.925 L 70.55,321.244 L 71.221,320.546 C 73.092,318.765 74.032,316.527 75.329,314.389 C 76.591,312.313 77.388,310.039 78.408,307.882 L 78.757,306.854 L 79.106,306.173 L 79.106,305.152 L 79.455,304.123 L 79.786,303.094 L 80.135,301.725 L 80.466,300.347 L 80.466,300.016 L 80.627,324.941 L 108.21,324.941 C 108.21,321.531 108.21,318.148 108.21,314.738 C 110.573,314.864 108.523,314.166 111.987,314.389 L 115.066,314.389 L 115.415,314.04 C 118.315,313.968 121.501,314.272 124.302,313.709 L 124.302,287.68 C 121.34,287.68 118.368,287.68 115.415,287.68 C 114.261,287.68 113.124,287.68 111.987,287.68 L 111.289,288.029 L 108.21,288.029 L 107.861,255.148 L 113.347,255.148 C 113.347,257.77 113.347,260.383 113.347,263.005 L 113.347,266.102 L 113.696,266.783 L 113.696,267.463 C 113.696,270.318 113.696,273.183 113.696,276.02 C 117.196,276.521 120.766,276.333 124.301,276.369 L 124.301,231.853 L 73.629,231.853 C 73.629,236.525 73.629,241.215 73.629,245.886 C 71.204,241.563 66.899,238.521 62.666,235.952 L 61.986,235.63 L 61.288,235.281 L 60.617,234.932 L 59.937,234.6 L 58.908,234.6 C 56.196,233.079 58.156,234.744 55.48,233.222 C 53.609,232.909 50.602,232.121 48.625,232.201 L 48.625,258.227 L 48.974,258.576 L 49.306,258.576 L 49.655,258.898 L 49.655,259.247 L 50.004,259.597 L 50.353,259.928 L 50.684,260.277 L 50.684,260.958 L 51.024,261.307 L 51.373,261.988 L 51.704,262.676 L 51.704,263.357 L 52.053,264.055 L 52.402,264.735 C 52.787,269.604 53.208,274.5 53.431,279.449 C 53.467,283.852 53.261,290.689 52.402,294.869 L 52.402,296.238 L 52.053,296.588 L 52.053,297.268 L 51.704,297.618 L 51.704,297.949 L 51.373,298.647 L 51.024,298.969 L 51.024,299.318 L 50.684,299.667 L 50.684,300.017 L 50.353,300.348 L 50.004,300.348 L 49.655,300.697 L 49.655,301.047 L 49.306,301.047 L 48.974,301.378 L 48.625,301.727 L 48.625,324.938 L 48.624,324.938 z "
   style="fill:#ffffff"
   id="path23" />
<path
   d="M 444.757,339.588 C 449.116,343.106 454.306,345.307 459.927,344.868 C 465.574,345.19 472.94,343.347 477.254,339.588 L 444.757,339.588 M 431.502,339.588 L 431.502,345.209 C 435.19,345.272 439.807,344.466 443.486,344.52 L 443.486,339.588 L 431.502,339.588 L 431.502,339.588 z M 406.739,339.588 C 407.786,342.148 408.851,344.717 409.925,347.268 C 414.382,346.918 419.17,346.587 423.967,346.239 L 423.967,339.589 L 406.739,339.589 L 406.739,339.588 z M 363.699,339.588 L 363.699,349.317 C 372.595,348.968 381.5,348.296 390.754,347.617 L 390.754,339.589 L 363.699,339.589 L 363.699,339.588 z M 358.902,339.588 L 358.902,349.666 C 348.896,350.543 338.496,351.044 328.419,351.724 L 328.419,340.08 C 330.817,340.08 333.216,339.731 335.274,339.731 C 335.274,339.677 335.256,339.624 335.256,339.57 L 358.902,339.588 z M 308.166,339.588 C 308.077,340.08 307.978,340.591 307.871,341.109 C 309.921,340.76 312.328,340.76 314.726,340.76 L 314.726,352.743 C 306.224,353.11 297.534,354.176 289.032,354.453 L 289.032,341.789 C 290.517,341.789 292.003,341.789 293.48,341.789 C 293.632,341.055 293.775,340.321 293.928,339.587 L 308.166,339.587 L 308.166,339.588 z M 236.184,339.588 C 237.088,343.786 237.723,345.62 240.059,349.317 C 241.76,352.897 244.579,355.296 247.604,357.533 C 249.546,358.598 251.568,359.529 253.761,359.6 L 254.441,359.6 L 255.139,359.931 L 256.839,359.931 C 259.497,360.057 258.772,359.806 260.616,359.6 L 261.627,359.6 L 262.325,359.251 L 263.354,359.251 L 264.025,358.901 L 264.723,358.579 L 265.752,358.579 L 266.45,358.23 L 267.121,357.881 L 267.801,357.881 L 268.83,357.531 L 269.528,357.2 L 270.199,356.851 C 271.381,356.34 272.491,355.455 273.627,354.801 C 278.818,351.042 283.329,346.057 284.537,339.586 L 271.891,339.586 L 271.578,340.078 L 271.229,341.107 L 270.2,342.128 L 269.529,343.157 L 268.831,343.838 C 266.96,344.554 265.143,345.816 263.005,345.538 C 258.951,346.075 254.789,343.802 253.894,339.586 L 236.184,339.586 L 236.184,339.588 z M 203.418,339.588 C 203.418,342.148 203.418,344.717 203.418,347.268 C 201.359,347.617 199.31,347.617 197.251,347.948 C 197.251,353.076 197.251,358.58 197.251,363.709 L 197.6,363.709 C 207.866,362.33 218.497,361.311 228.763,360.281 C 228.763,355.143 228.763,350.346 228.763,345.541 C 226.713,345.541 224.655,345.89 222.257,345.89 C 222.257,343.805 222.257,341.693 222.257,339.608 L 203.418,339.588 z M 144.852,339.588 C 144.852,343.965 144.852,348.35 144.852,352.744 C 142.802,353.075 140.744,353.425 138.694,353.773 L 138.345,353.773 C 138.345,359.93 138.345,366.106 138.345,372.263 C 155.484,369.516 172.605,366.785 189.725,364.737 L 190.074,364.737 C 190.074,356.261 190.074,347.965 190.074,339.606 L 177.061,339.587 C 177.061,342.997 177.061,346.345 177.061,349.665 C 172.604,349.996 168.147,350.345 163.699,351.025 L 163.654,339.587 L 144.852,339.587 L 144.852,339.588 z M 104.085,339.588 C 104.103,345.764 104.103,352.011 104.103,358.579 C 109.589,357.882 115.066,357.201 120.553,356.521 C 120.553,350.784 120.553,345.208 120.553,339.587 L 133.217,339.587 C 133.217,350.953 133.217,362.293 133.217,373.641 L 132.868,373.641 C 114.718,376.72 96.577,380.148 78.758,384.256 L 78.758,361.98 L 85.265,360.959 L 85.14,339.587 L 104.085,339.587 L 104.085,339.588 z M 21.22,339.588 C 21.22,350.158 21.22,360.7 21.22,371.243 C 19.171,371.574 17.121,371.915 15.063,372.264 C 15.063,381.849 15.063,391.444 15.063,401.029 C 25.328,397.619 35.96,394.872 46.575,392.115 C 46.575,383.559 46.575,374.994 46.575,366.438 C 44.517,366.787 42.118,367.467 40.069,367.816 C 40.069,356.415 40.069,348.789 40.069,339.588 L 21.22,339.588 z "
   style="fill:#0193a6"
   id="path25" />
<path
   d="M 48.624,326.37 C 51.703,326.021 54.781,325.341 58.209,324.321 C 67.794,320.893 72.949,311.657 75.679,302.072 C 78.758,288.361 78.409,275.688 75.33,261.986 C 73.63,254.799 71.92,248.964 66.094,243.836 C 60.957,239.379 55.131,237.33 48.624,236.649 L 48.624,253.089 C 52.4,254.799 55.13,257.546 56.508,263.703 C 57.878,272.939 58.209,288.36 56.508,296.916 C 55.13,302.394 52.732,305.149 48.624,306.519 L 48.624,326.37 M 443.486,339.588 L 443.486,338.702 L 444.757,339.588 L 477.254,339.588 L 478.077,339.051 L 479.106,338.013 C 481.048,336.197 482.086,334.97 483.223,332.528 C 485.568,328.813 486.266,324.214 486.302,319.864 C 486.579,309.267 479.742,300.255 473.271,292.46 C 465.046,283.483 450.494,270.104 451.022,257.198 C 451.371,252.069 453.42,245.536 458.907,244.865 C 461.305,244.865 463.006,245.214 465.082,246.583 C 469.861,251.372 469.19,258.898 469.19,265.414 L 482.185,265.754 L 482.185,236.3 L 470.541,236.3 L 470.541,244.185 L 466.433,240.408 C 463.005,236.98 458.226,235.629 450.342,235.629 C 433.991,236.56 431.261,250.986 433.221,264.385 C 436.702,280.682 446.681,291.476 457.529,303.092 C 460.957,308.077 463.409,311.907 464.734,317.815 C 465.396,322.979 465.539,326.192 463.006,330.828 C 460.277,334.184 455.989,336.288 451.703,334.936 C 442.592,333.943 445.304,320.778 444.516,314.736 C 439.728,315.068 436.265,315.139 431.503,315.068 L 431.503,339.589 L 443.486,339.589 L 443.486,339.588 z M 390.754,339.588 L 390.754,336.652 C 388.704,336.652 386.297,336.983 384.248,336.983 C 384.248,317.464 384.248,297.945 384.248,278.765 C 391.542,298.822 398.567,319.424 406.739,339.587 L 423.967,339.587 L 423.967,247.61 L 430.473,247.61 L 430.473,236.3 L 403.767,236.3 L 403.767,247.944 L 410.274,247.944 L 410.274,304.801 L 385.277,236.3 L 363.699,236.3 C 363.699,240.077 363.699,244.516 363.699,248.293 C 365.758,248.293 367.807,247.944 369.856,248.293 C 369.856,278.096 369.856,307.88 369.856,337.683 C 367.807,337.683 365.757,337.683 363.699,337.683 L 363.699,339.589 L 390.754,339.589 L 390.754,339.588 z M 335.257,339.588 C 334.559,334.836 333.548,330.093 332.877,325.34 C 329.118,325.34 325.69,325.69 321.914,325.69 L 321.914,313.026 C 324.662,313.026 327.74,312.677 330.47,312.677 C 328.09,296.585 325.342,280.145 322.595,263.703 C 322.264,265.063 322.264,266.432 321.915,267.811 L 321.915,236.3 L 344.513,236.3 L 344.513,248.293 L 335.957,248.642 C 341.783,277.398 348.29,309.93 353.767,339.052 C 355.423,338.542 357.195,338.748 358.904,338.703 L 358.904,339.589 L 335.257,339.589 L 335.257,339.588 z M 293.927,339.588 C 299.646,310.054 306.313,278.059 312.327,248.963 L 305.821,248.963 L 305.821,236.3 L 321.913,236.3 L 321.913,267.812 C 319.183,282.875 316.086,297.946 313.348,313.026 C 316.086,313.026 319.183,313.026 321.913,313.026 L 321.913,325.69 C 318.154,325.69 314.377,326.021 310.6,326.021 C 309.687,330.353 309.043,334.953 308.165,339.588 L 293.927,339.588 z M 284.539,339.588 C 286.553,333.413 286.355,324.74 286.651,318.162 C 281.988,318.252 278.158,317.885 273.629,318.484 C 273.227,325.51 274.989,333.063 271.893,339.588 L 284.539,339.588 z M 253.895,339.588 C 250.959,316.238 252.723,282.99 252.74,258.575 C 253.707,254.799 255.541,249.482 259.927,248.64 L 260.947,248.291 L 261.976,247.942 L 263.005,247.942 L 264.025,248.291 L 265.403,248.291 L 266.45,248.64 L 267.47,248.962 L 268.481,249.66 L 269.528,249.991 L 270.199,251.02 C 275.354,256.408 273.135,264.507 273.627,271.238 C 278.379,271.05 282.085,271.434 286.649,271.587 C 286.568,259.729 286.864,248.085 286.3,236.298 L 276.017,236.298 C 276.017,239.162 276.017,242.017 276.017,244.863 C 274.442,242.921 272.661,241.14 270.88,239.377 L 270.2,239.046 L 269.86,239.046 L 269.529,238.706 L 269.18,238.357 L 268.482,238.026 L 268.151,237.677 L 267.802,237.677 C 265.771,235.949 258.933,234.983 256.516,235.949 C 241.516,236.853 236.057,258.091 235.269,270.209 C 233.855,278.04 234.392,286.032 233.891,294.186 C 233.659,297.39 234.312,297.139 234.24,299.663 C 234.24,301.48 234.24,303.315 234.24,305.149 C 234.535,316.659 233.139,328.401 236.182,339.587 L 253.895,339.587 L 253.895,339.588 z M 222.258,339.588 C 222.258,309.804 222.258,279.741 222.258,249.661 C 224.307,249.661 226.366,249.661 228.764,249.661 C 228.764,245.213 228.764,241.105 228.415,236.648 L 228.415,236.3 L 196.912,236.3 C 196.912,240.757 196.912,245.536 196.912,249.993 C 199.31,249.993 201.36,249.993 203.418,249.993 C 203.418,279.966 203.418,309.912 203.418,339.607 L 222.258,339.588 z M 190.074,339.588 C 190.074,334.765 190.074,329.904 190.074,325 L 189.725,325 C 185.617,325 181.492,325.34 177.733,325.689 L 177.062,325.689 C 177.062,330.253 177.062,334.952 177.062,339.606 L 190.074,339.588 z M 163.655,339.588 L 163.351,250.342 L 169.857,250.342 L 169.526,236.3 L 138.014,236.3 L 138.014,250.691 L 144.52,250.342 C 144.52,280.824 144.78,309.75 144.852,339.607 L 163.655,339.588 z M 120.553,339.588 C 120.553,336.125 120.553,332.644 120.553,329.117 L 120.875,329.117 C 125.001,328.767 128.76,328.428 132.868,328.428 L 133.217,328.428 C 133.217,332.142 133.217,335.883 133.217,339.607 L 120.553,339.588 z M 85.139,339.588 L 84.584,251.371 L 78.409,251.371 L 78.409,251.021 C 78.077,246.233 78.077,241.105 78.077,236.299 L 131.507,236.299 L 131.838,271.239 L 131.838,271.919 L 131.158,271.919 C 127.059,271.919 122.602,271.919 118.494,271.919 L 117.796,271.919 L 117.796,271.239 C 117.796,264.052 117.796,258.226 117.796,250.69 L 103.414,251.021 L 103.763,292.459 C 109.589,292.459 115.746,292.137 121.573,292.137 L 121.904,292.137 C 121.904,297.946 121.904,303.772 121.904,309.598 C 116.095,309.598 109.938,310.279 103.763,310.279 C 103.96,320.508 104.049,329.967 104.085,339.607 L 85.139,339.588 z M 40.068,339.588 C 40.068,335.794 40.068,331.739 40.068,327.05 C 43.147,327.05 45.877,326.719 48.624,326.369 L 48.624,306.518 C 46.225,307.199 43.496,307.547 40.068,307.878 C 40.068,288.359 39.719,271.238 39.388,251.719 C 43.147,252.068 45.877,252.39 48.624,253.088 L 48.624,236.648 C 47.944,236.299 46.923,236.299 46.225,236.299 L 25.677,236.299 L 13.693,235.95 L 14.042,236.299 L 14.042,251.719 L 20.548,251.719 C 21.04,280.913 21.184,310.295 21.219,339.606 L 40.068,339.588 z "
   style="fill:#0193a6"
   id="path27" />
<path
   d="M 176.363,270.559 C 168.935,265.816 161.292,257.824 155.134,251.371 C 153.979,249.375 152.297,247.791 151.026,245.884 L 150.337,244.864 L 149.657,244.184 L 148.977,243.486 L 148.977,243.155 L 148.628,242.806 L 147.93,242.135 L 147.599,241.786 C 146.946,241.213 146.409,239.674 145.549,239.047 C 144.779,237.678 143.831,236.452 142.801,235.279 L 142.47,234.93 L 142.47,234.25 L 142.121,233.901 L 141.772,233.57 L 141.423,233.221 L 141.091,232.541 L 140.742,232.201 L 140.402,231.852 L 140.071,231.521 L 139.722,231.172 L 139.722,230.823 L 139.373,230.143 L 139.042,229.794 C 136.59,227.69 138.013,227.798 135.963,226.035 C 135.56,225.014 133.046,222.974 132.535,221.587 L 131.837,220.889 L 131.506,219.86 L 130.808,219.18 L 130.486,218.84 L 130.137,218.509 L 129.788,217.811 C 128.445,216.469 127.076,215.135 126.029,213.703 C 122.548,210.499 119.415,207.268 116.094,203.769 L 114.716,206.848 L 114.367,207.197 L 114.367,207.546 L 114.045,208.226 L 114.045,208.575 L 113.696,209.246 L 113.696,209.595 L 113.347,210.275 L 113.016,210.624 L 113.016,210.955 L 112.667,211.653 L 112.667,211.984 L 112.318,212.673 L 112.318,213.022 L 108.21,224.666 L 101.355,214.383 L 100.684,213.703 L 100.335,213.023 L 100.004,212.325 L 100.004,211.985 L 99.655,211.305 L 99.306,210.625 C 98.957,209.524 98.08,206.553 97.928,205.479 L 97.928,204.799 L 97.597,204.119 L 97.597,203.09 L 97.257,202.392 L 97.257,200.012 L 96.925,199.314 L 96.925,196.916 L 96.576,196.236 L 96.576,195.547 C 96.244,186.857 97.641,179.966 100.335,171.92 L 100.335,171.589 L 100.684,170.56 L 101.355,169.531 L 101.704,168.842 L 101.704,168.493 L 102.053,168.162 L 102.053,167.464 L 102.384,166.784 L 102.733,166.435 L 102.733,166.104 L 103.082,165.764 L 103.082,165.415 L 103.413,164.735 L 103.413,164.386 L 103.762,164.055 C 104.344,163.303 104.8,161.951 105.462,160.958 L 105.811,160.278 L 106.16,159.929 L 106.16,159.258 L 106.509,158.909 L 106.84,158.578 L 107.189,157.88 L 107.529,157.549 L 107.861,156.851 C 114.242,148.59 122.798,139.345 130.137,131.854 C 133.708,128.479 137.816,125.822 141.771,122.94 C 143.785,122.063 143.991,121.275 146.228,120.559 L 146.908,119.861 L 147.597,119.529 L 147.928,119.529 L 148.277,119.189 L 148.626,119.189 L 148.975,118.84 L 149.655,118.84 L 150.004,118.491 L 150.335,118.491 L 150.675,118.16 L 151.024,118.16 L 151.373,117.811 L 151.705,117.462 L 152.054,117.462 L 152.386,117.131 L 153.084,117.131 L 153.433,116.782 L 153.764,116.433 L 154.104,116.433 L 154.435,116.101 L 154.784,116.101 L 155.482,115.761 L 155.813,115.412 L 156.162,115.412 C 157.164,114.642 158.399,114.24 159.59,113.703 L 160.27,113.354 L 161.29,113.023 L 161.639,113.023 L 161.97,112.683 L 162.668,112.683 L 163.017,112.334 L 163.697,112.334 L 164.037,112.003 C 180.334,105.55 198.449,102.543 216.098,99.661 L 214.72,96.913 L 214.371,95.892 L 214.04,95.212 L 214.04,94.183 L 213.691,93.503 L 213.351,92.482 L 213.02,91.435 L 213.02,91.103 L 212.671,90.405 L 212.671,89.05 L 212.322,88.352 L 212.322,88.021 L 211.973,87.323 L 211.973,86.294 L 211.641,85.623 L 211.641,83.896 L 211.292,83.215 L 211.292,80.817 C 211.381,79.206 210.782,80.504 210.943,77.738 C 210.925,76.055 211.381,72.189 211.641,70.551 L 211.973,70.551 L 211.973,69.53 L 212.322,68.152 L 213.02,66.774 L 213.351,66.443 L 213.351,66.103 C 214.631,64.25 215.714,62.103 217.799,60.966 C 217.915,57.449 218.846,52.312 219.857,48.983 C 220.367,47.811 220.913,45.242 221.558,44.177 L 221.907,43.148 L 222.256,42.477 L 222.256,41.779 L 222.936,40.401 L 223.625,39.381 L 223.956,38.701 L 223.956,38.35 L 224.305,38.35 L 224.305,38.019 L 224.654,37.67 L 224.654,37.32 L 224.985,36.989 L 224.985,36.64 C 225.808,36.022 225.791,35.163 226.712,33.892 C 228.064,32.666 228.833,30.5 230.811,30.133 L 231.16,29.462 L 231.84,29.113 L 232.189,29.113 L 232.869,28.433 L 233.889,27.735 L 234.918,27.055 C 238.749,24.585 242.892,22.893 247.251,21.577 L 248.28,21.228 L 249.309,21.228 L 250.33,20.879 L 251.708,20.547 L 252.737,20.198 L 253.758,20.198 C 255.244,19.491 259.191,19.723 260.264,19.177 C 263.754,19.374 261.92,18.604 265.75,18.828 L 268.148,18.828 L 268.479,19.177 L 269.177,19.177 C 272.345,18.953 271.414,19.705 274.305,19.526 L 274.985,19.526 L 275.334,19.848 L 277.052,19.848 L 277.384,20.197 L 278.413,20.197 L 278.762,20.546 L 279.791,20.546 L 280.131,20.878 L 281.16,20.878 L 281.841,21.227 L 282.521,21.227 L 282.87,21.576 L 283.541,21.576 L 283.89,21.907 L 284.239,22.256 L 284.919,22.256 L 285.268,22.605 L 285.948,22.605 L 285.948,22.954 L 286.646,22.954 L 286.646,23.276 L 287.317,23.276 L 288.346,23.974 L 289.026,24.306 L 289.724,24.655 L 290.395,25.004 L 290.744,25.335 L 291.424,25.684 L 292.122,26.033 C 294.153,27.223 296.247,28.45 297.93,30.132 C 301.671,32.593 304.839,35.904 307.184,39.717 C 309.878,42.321 314.979,51.71 315.051,55.487 L 315.4,56.508 L 315.4,58.566 C 315.4,59.703 315.4,60.839 315.4,61.994 L 315.4,62.674 L 315.051,63.345 L 315.051,64.374 C 315.266,66.191 314.353,67.676 314.371,69.529 L 316.08,70.2 L 316.769,70.549 L 317.449,70.549 L 317.798,70.88 L 318.478,71.229 L 319.176,71.927 L 321.226,72.956 L 321.557,73.627 L 323.275,75.005 L 324.653,73.976 L 325.333,73.976 L 325.682,73.627 L 326.362,73.278 L 326.702,73.278 L 327.033,72.956 L 327.382,72.956 L 328.08,72.607 L 328.76,72.607 L 329.109,72.258 L 329.789,71.927 L 331.158,71.927 L 331.838,71.578 L 333.887,71.578 L 334.585,71.229 L 335.265,71.229 L 335.614,71.578 L 337.663,71.578 L 338.692,71.927 L 339.023,71.927 C 341.824,72.473 344.706,74.603 346.228,76.706 C 348.385,78.63 348.09,79.991 349.307,81.843 L 349.307,82.864 L 349.656,84.242 L 349.307,86.64 L 348.278,88.349 L 347.929,89.047 L 347.249,90.748 L 344.501,91.777 L 343.472,92.126 L 342.801,92.475 L 341.772,92.806 L 339.723,92.806 C 338.586,92.806 337.432,92.806 336.295,92.806 L 335.266,92.806 L 334.917,93.146 L 334.586,93.146 L 334.237,93.495 L 333.557,93.495 L 333.208,93.826 L 332.519,93.826 L 332.519,94.175 L 332.188,94.175 L 331.839,94.524 L 331.159,94.524 L 330.81,94.856 L 330.13,95.205 L 329.79,95.205 L 329.11,95.554 L 328.761,95.885 L 328.081,95.885 L 327.383,96.225 L 327.034,96.574 L 326.363,96.574 L 325.334,96.905 C 320.805,97.693 324.582,96.672 320.197,99.312 L 319.176,99.652 L 318.147,100.332 L 317.1,100.681 L 316.079,101.361 L 313,102.408 L 312.32,104.458 C 315.596,108.127 317.028,112.835 313.69,117.122 C 315.802,121.006 315.838,120.496 315.748,124.989 L 315.748,126.028 L 315.399,126.708 L 315.399,128.086 L 315.05,128.418 L 315.05,130.485 L 316.768,131.165 L 317.448,131.514 L 318.146,132.194 L 318.478,132.543 L 319.176,132.865 L 319.507,133.214 L 319.847,133.563 L 320.196,133.563 L 320.876,134.243 L 321.905,135.272 L 322.934,136.292 L 323.623,137.67 L 324.303,139.048 L 324.983,140.418 L 325.332,141.447 C 325.18,144.176 325.77,147.112 324.652,149.654 L 324.303,150.334 L 324.303,151.032 L 323.954,152.061 L 323.623,152.732 L 323.274,153.412 L 322.934,154.459 L 322.585,155.139 L 322.585,155.81 C 321.734,157.698 320.598,159.318 319.846,161.296 C 318.933,163.462 317.483,165.323 316.427,167.453 L 315.747,168.151 L 315.398,168.831 L 315.049,169.52 L 314.369,170.2 L 314.02,170.88 L 313.34,171.578 L 313,172.258 L 312.651,172.929 C 311.219,174.764 309.071,177.243 307.863,179.114 C 304.874,181.825 301.813,185.943 298.627,188.001 L 297.929,188.699 L 297.598,189.048 L 296.9,189.37 L 296.229,189.719 L 295.88,190.068 L 295.2,190.748 L 294.851,191.097 L 294.171,191.428 L 293.822,191.777 L 293.151,191.777 L 292.802,192.126 L 291.773,192.797 L 291.424,194.175 L 291.424,195.535 L 291.093,197.602 C 288.381,210.561 286.108,227.369 280.81,239.371 C 280.318,240.875 279.843,242.566 278.76,243.828 C 277.838,245.663 276.944,247.498 276.012,249.306 L 275.681,249.986 L 275.332,250.336 L 274.983,251.016 L 274.652,251.714 L 273.954,252.385 L 273.622,253.083 L 273.282,253.764 L 272.933,254.113 L 272.253,254.794 L 271.904,255.474 L 271.573,256.163 L 271.224,256.843 L 270.195,257.872 L 269.524,258.57 L 269.175,259.241 C 268.056,260.951 266.535,262.383 265.049,263.698 C 263.403,265.381 261.935,267.198 259.921,268.505 C 258.453,269.749 256.046,271.566 254.435,272.604 C 253.209,274.108 249.432,275.245 248.626,276.363 L 247.928,276.713 L 247.248,277.044 L 246.577,277.393 L 245.879,277.742 L 244.85,278.092 L 244.169,278.763 L 243.471,279.113 C 241.896,279.462 238.396,281.117 237.313,281.171 C 229.93,284.51 221.642,285.02 213.686,284.599 C 205.721,284.179 198.131,281.628 190.739,278.764 C 185.358,276.439 180.829,274.372 176.363,270.559"
   style="fill:#ffffff"
   id="path29" />
<path
   d="M 272.94,25.336 C 274.989,25.685 277.388,26.034 279.446,26.706 C 281.496,27.055 283.223,28.084 284.924,28.764 C 291.43,32.192 298.286,36.64 302.045,42.806 C 305.142,46.234 307.54,50.681 309.25,55.139 C 309.921,58.218 309.25,61.645 309.25,64.724 C 308.901,67.803 308.221,70.881 307.541,73.978 C 313.009,74.658 319.185,77.057 321.234,82.865 C 322.943,82.543 324.313,81.164 326.04,80.484 C 327.392,79.115 329.45,78.417 331.499,77.736 C 333.566,77.387 335.625,77.056 337.674,77.736 C 340.055,77.736 341.782,80.134 342.811,81.844 C 343.16,82.865 343.832,83.562 343.482,84.592 C 343.16,85.272 342.811,85.621 342.461,86.293 C 340.054,87.322 337.673,86.991 335.274,86.642 C 334.925,86.991 334.245,86.642 333.896,86.991 C 332.196,88.02 330.817,88.02 329.117,89.05 C 326.709,90.07 324.311,91.431 321.563,91.431 C 320.883,91.431 320.203,91.431 319.854,91.78 L 319.854,92.129 C 316.435,95.208 311.978,97.257 307.539,96.577 C 306.17,96.228 304.791,96.577 303.762,95.556 C 303.413,96.227 304.111,96.227 304.442,96.577 C 305.471,98.286 306.519,100.005 306.841,101.714 C 306.841,102.743 305.471,103.763 305.471,104.793 C 306.518,107.541 308.899,108.901 309.597,111.648 C 309.919,112.677 308.899,113.348 308.55,114.046 C 307.87,115.406 306.841,116.775 306.841,118.154 C 307.87,120.203 310.6,121.233 309.92,124.312 C 309.598,125.341 309.598,126.71 309.249,128.088 C 308.551,129.789 308.22,131.516 307.54,133.216 C 307.54,134.245 307.54,134.925 307.871,135.945 L 309.921,135.274 L 310.601,135.274 L 311.299,135.623 L 312.328,135.623 L 313.008,135.945 L 313.348,136.294 L 314.028,136.294 L 314.377,136.643 L 314.726,136.992 L 315.058,137.323 L 315.756,137.672 L 316.087,137.672 L 316.436,138.021 L 316.776,138.352 L 317.107,138.701 L 317.456,139.05 L 318.154,139.721 C 318.799,141.135 319.729,142.567 319.514,144.178 C 319.819,145.906 318.378,150.541 317.456,152.063 C 316.758,154.059 317.071,154.202 315.755,156.511 C 314.726,158.695 314.636,158.731 313.348,160.619 C 312.542,162.328 311.907,163.438 310.95,165.076 C 310.287,166.481 308.954,167.475 308.22,168.835 C 306.296,171.708 303.745,174.858 301.365,177.391 C 300.595,178.51 298.985,179.843 297.937,180.819 C 296.926,181.83 295.941,182.779 294.858,183.567 C 294.25,184.23 292.755,184.757 292.129,185.626 L 291.431,185.948 L 291.1,186.297 L 290.751,186.646 L 290.071,186.978 L 289.731,186.978 L 286.303,189.054 C 285.954,191.103 285.623,193.153 285.623,194.862 C 282.526,209.244 280.817,223.635 275.34,236.98 C 272.592,243.835 269.183,250.342 264.027,256.168 C 258.568,262.674 251.713,267.812 244.508,271.919 C 240.749,273.969 236.972,274.998 233.222,276.367 C 217.802,281.853 201.71,277.745 187.668,270.889 C 184.24,269.18 181.162,266.782 177.734,264.383 C 168.498,256.847 160.273,249.312 153.766,239.726 C 149.658,235.278 146.911,230.141 143.152,225.693 C 140.745,221.916 137.666,218.838 135.267,215.41 C 129.459,208.223 122.603,202.388 116.097,195.541 C 116.097,195.21 115.417,195.21 115.417,194.861 C 115.068,194.512 114.719,195.21 114.37,195.541 C 110.62,200.338 108.561,206.165 106.512,211.651 C 103.415,207.194 103.084,200.688 102.386,195.21 C 102.055,187.674 103.415,180.488 106.163,173.632 C 106.163,171.914 107.192,170.884 107.864,169.524 C 108.562,167.806 109.591,165.756 110.62,163.698 C 111.989,161.3 113.349,158.901 115.417,156.511 C 123.955,147.937 131.16,136.992 141.425,130.486 C 143.832,128.087 146.911,127.058 149.658,125.34 C 154.106,123.282 158.214,120.883 162.322,118.834 C 165.75,118.154 168.148,116.427 171.576,115.406 C 177.734,113.347 184.92,111.647 191.096,109.92 C 202.39,107.871 214.043,105.821 224.658,104.461 C 224.658,103.083 223.629,101.713 222.94,100.684 C 221.562,96.907 219.181,93.497 218.832,89.721 C 217.123,84.593 216.782,78.417 217.123,72.958 C 217.454,72.26 217.803,71.231 217.803,70.202 C 219.181,68.153 220.551,64.725 223.629,65.074 C 223.96,64.725 223.629,64.045 223.629,63.696 C 223.629,56.169 225.688,48.983 228.766,42.127 C 229.795,40.399 230.466,38.699 231.845,36.99 C 232.525,35.62 234.243,34.592 235.622,33.893 C 243.829,27.387 255.142,25.337 265.756,24.657 C 268.152,25.005 270.533,25.005 272.94,25.336"
   id="path31" />
<path
   d="M 267.123,28.764 C 267.123,29.113 267.472,29.113 267.803,29.113 C 272.591,29.784 277.388,30.134 281.845,31.843 C 286.302,33.892 291.43,36.3 294.858,40.068 C 296.907,42.127 298.635,44.176 300.684,46.235 C 301.015,47.604 302.044,47.953 302.044,48.983 C 303.762,51.712 304.442,55.14 304.792,58.219 C 305.141,63.347 303.763,68.834 302.394,74.311 C 302.394,74.66 303.074,74.66 302.743,75.009 C 302.394,75.009 302.394,75.009 302.394,75.009 C 301.714,75.689 302.394,76.038 302.394,76.709 C 308.22,77.389 314.029,78.768 318.154,83.215 L 318.154,83.896 C 315.756,83.564 313.697,85.954 311.299,83.896 C 307.871,82.544 304.444,80.486 300.685,80.817 C 300.336,80.817 299.987,80.817 299.987,81.166 C 299.987,82.867 299.665,84.594 299.665,86.294 C 301.714,87.672 303.415,89.373 305.473,89.722 L 305.473,90.071 C 307.191,90.071 308.901,90.403 310.601,90.403 C 310.601,90.403 310.601,90.071 310.95,90.071 C 310.95,90.403 310.95,90.403 310.95,90.403 C 311.299,90.752 311.979,90.071 312.328,90.752 C 313.349,91.101 314.378,91.432 315.407,91.432 L 315.756,91.432 C 315.407,92.13 314.378,92.13 313.698,92.81 C 309.25,93.15 304.444,92.81 300.336,90.403 C 299.316,90.403 298.287,89.374 297.257,89.051 C 294.859,87.673 294.509,84.594 293.829,82.196 C 293.48,80.137 292.809,77.39 293.48,75.009 C 293.158,73.281 293.48,71.581 293.158,69.854 C 293.48,68.834 292.809,68.154 292.129,67.474 C 290.751,67.474 290.07,66.104 288.701,65.755 C 284.593,64.046 280.816,62.676 276.717,61.298 C 275.688,57.87 273.629,55.14 271.58,52.393 C 270.533,51.713 269.862,51.033 268.832,50.335 C 267.472,50.003 266.103,48.983 264.375,49.654 C 262.675,49.314 260.947,50.003 259.247,51.032 C 259.247,51.363 258.567,51.032 258.567,51.363 C 256.168,53.43 254.441,56.169 252.392,58.568 C 243.827,59.248 235.62,62.676 228.415,66.775 C 228.084,67.124 227.386,66.444 227.055,66.104 C 227.055,61.996 227.735,58.219 228.415,54.111 C 230.464,48.983 232.192,43.497 235.27,38.7 C 243.827,31.512 256.168,28.084 267.123,28.764"
   id="path33" />
<path
   d="M 251.362,36.989 L 250.333,38.018 L 250.682,38.349 C 249.661,42.126 248.284,45.554 247.254,49.312 C 246.583,48.981 245.884,50.001 245.204,50.001 C 244.855,50.333 244.175,50.001 243.826,49.652 C 243.826,49.312 243.477,49.312 243.477,48.981 C 243.477,45.204 245.204,41.776 246.582,38.349 C 247.253,36.989 248.631,35.968 250.01,35.968 C 251.031,34.94 250.682,36.3 251.362,36.989"
   style="fill:#ffffff"
   id="path35" />
<path
   d="M 261.296,35.271 C 260.947,37.669 259.247,39.719 259.247,42.126 C 258.567,43.495 258.218,44.855 257.519,46.574 C 256.517,47.254 255.139,47.603 254.109,47.603 C 253.411,47.254 253.411,46.574 253.411,45.885 C 254.109,42.806 255.139,39.718 256.516,36.64 C 256.516,36.989 256.838,36.64 256.838,36.3 C 257.518,35.271 258.897,34.591 260.615,34.591 L 261.296,35.271"
   style="fill:#ffffff"
   id="path37" />
<path
   d="M 240.748,40.748 C 241.097,41.777 240.399,43.146 240.059,44.176 C 239.728,45.885 239.728,47.255 238.699,48.633 C 238.001,50.334 238.35,52.741 236.65,53.761 C 236.301,53.429 235.621,53.761 235.272,53.429 C 234.592,53.08 234.243,52.74 233.894,52.391 C 233.572,50.333 234.243,47.952 234.923,45.885 C 236.301,44.176 236.651,41.446 238.7,40.399 C 239.378,40.068 240.059,40.399 240.748,40.748"
   style="fill:#ffffff"
   id="path39" />
<path
   d="M 266.103,55.139 C 266.103,55.488 266.452,55.488 266.774,55.488 C 268.152,56.168 268.833,57.537 269.862,58.567 C 269.862,58.898 270.533,58.898 270.882,59.588 C 273.29,63.696 274.99,68.502 276.717,72.959 C 277.737,77.738 280.136,82.195 280.816,86.992 C 281.165,86.992 281.165,87.324 281.496,87.324 L 281.845,86.295 L 282.525,86.644 C 282.525,86.295 282.525,85.955 282.874,85.955 C 283.895,84.246 284.924,81.847 287.322,81.167 C 287.671,80.818 288.02,80.818 288.7,80.818 C 289.38,81.516 290.069,82.546 290.4,83.566 C 289.38,83.566 288.7,83.217 287.671,83.217 C 284.243,83.566 283.223,87.674 281.164,90.072 C 281.164,90.753 280.815,91.433 280.466,92.131 L 280.135,92.131 C 279.795,88.023 278.416,83.898 277.056,80.487 C 275.338,77.39 274.308,73.981 272.259,70.884 C 270.881,68.504 268.831,66.105 266.102,64.378 C 265.055,64.378 264.025,64.047 263.005,64.047 C 262.325,63.698 261.627,64.378 260.946,64.378 C 260.615,64.727 259.577,64.727 259.246,65.407 C 257.518,66.445 256.838,67.805 255.487,69.532 C 251.362,77.739 251.362,86.993 253.76,96.229 C 253.089,95.208 252.739,94.18 252.059,93.5 C 250.332,91.781 247.934,89.723 245.553,90.752 C 243.826,91.781 242.125,93.5 241.776,95.209 C 241.096,92.13 240.747,89.374 239.727,86.295 C 237.668,80.137 234.59,74.66 230.813,69.532 C 236.299,66.104 243.477,65.407 249.661,64.046 C 250.01,64.377 250.01,64.377 250.01,64.377 C 248.963,67.125 248.283,70.552 247.934,73.282 C 247.603,73.98 247.934,74.66 247.934,75.341 L 247.603,75.341 C 247.254,79.789 247.603,83.897 248.283,88.354 C 248.963,88.703 248.283,90.072 249.312,90.072 C 250.333,89.052 249.312,87.674 249.312,86.644 C 249.661,84.246 249.312,82.196 249.661,80.138 L 249.661,79.44 C 250.332,71.931 252.059,64.377 257.519,58.22 C 258.897,56.842 260.267,55.822 262.325,55.141 C 263.355,54.459 264.724,55.139 266.103,55.139"
   style="fill:#ffffff"
   id="path41" />
<path
   d="M 231.843,77.388 C 234.241,81.514 236.649,85.273 238.349,89.721 C 238.698,91.43 239.378,92.808 240.058,94.527 C 239.727,96.577 241.776,98.984 239.727,101.034 C 239.727,101.365 239.727,101.714 239.378,102.063 C 238.698,102.063 238.349,102.412 238,102.412 L 238.349,102.063 L 238.349,101.714 C 239.047,100.685 238.349,98.984 238.349,97.955 L 237.32,94.859 C 236.649,94.859 235.62,95.888 234.922,94.859 L 234.591,94.179 C 234.922,92.809 235.951,91.78 235.951,90.751 C 234.591,88.352 233.571,84.593 230.143,84.593 C 229.114,84.244 228.765,84.924 228.084,85.622 C 226.366,88.701 227.055,92.809 227.735,95.887 C 228.764,97.954 229.444,100.004 230.814,101.714 C 230.814,102.412 231.843,102.743 231.843,103.414 C 230.465,103.414 228.415,103.763 226.715,104.112 C 224.988,101.714 223.959,98.984 222.939,96.576 C 221.23,91.779 219.86,87.322 219.511,82.194 C 219.511,78.766 218.499,75.339 219.86,72.609 C 220.549,71.58 221.23,70.202 222.259,69.853 C 227.055,69.181 229.444,74.31 231.843,77.388"
   style="fill:#ffffff"
   id="path43" />
<path
   d="M 271.911,76.037 C 273.961,80.136 276.019,84.244 277.057,89.05 C 277.389,91.779 278.766,94.178 277.057,96.577 C 275.688,99.315 273.629,101.714 271.58,103.414 C 270.202,104.112 268.832,104.461 267.803,105.142 C 264.724,105.142 261.628,105.491 258.898,103.764 C 256.517,99.656 256.168,95.557 255.139,90.751 C 254.79,87.672 254.441,85.273 255.139,82.195 L 255.139,81.515 C 256.168,76.709 257.188,70.552 261.976,67.804 C 265.055,66.775 268.151,69.853 269.861,72.261 L 271.911,76.037"
   style="fill:#ffffff"
   id="path45" />
<path
   d="M 287.671,70.551 C 288.351,70.202 289.031,70.551 289.38,70.202 C 288.7,72.609 289.729,75.008 289.031,77.057 C 286.972,77.057 284.923,78.086 283.894,80.136 C 283.223,81.845 282.193,83.215 281.845,85.273 C 281.845,83.564 281.845,81.845 281.496,80.136 C 281.845,79.787 281.496,79.116 281.845,78.767 C 280.816,74.659 280.467,69.853 278.766,66.103 C 281.845,67.123 284.924,68.501 287.671,70.551"
   style="fill:#ffffff"
   id="path47" />
<path
   d="M 269.861,77.737 C 271.579,79.438 272.59,81.514 273.289,83.895 C 274.989,86.642 270.881,88.701 271.911,91.431 C 273.629,92.809 275.339,88.701 275.688,91.78 C 276.717,94.859 274.99,97.607 273.629,100.005 C 272.94,100.005 272.591,100.685 272.26,101.034 C 271.231,101.365 269.862,101.034 268.832,100.685 C 266.103,98.984 264.724,95.207 263.355,92.129 C 262.675,89.373 262.326,85.623 263.006,82.544 C 263.355,80.485 265.055,78.087 267.123,77.389 C 268.152,77.388 268.832,77.388 269.861,77.737"
   id="path49" />
<path
   d="M 309.249,85.953 C 309.598,86.642 309.598,87.671 309.598,88.351 L 309.249,88.7 C 307.19,88.02 305.472,87.671 303.763,86.641 C 303.414,85.621 303.763,84.592 303.763,83.562 C 305.821,84.593 307.54,85.273 309.249,85.953"
   style="fill:#ffffff"
   id="path51" />
<path
   d="M 247.935,94.527 C 248.964,95.207 250.011,95.887 250.333,97.257 C 250.682,98.286 251.362,99.315 252.06,100.005 C 252.06,101.034 253.089,101.714 253.761,102.743 C 254.79,103.083 254.11,104.793 255.488,104.793 C 256.517,106.511 258.218,107.541 259.927,108.901 C 260.947,108.901 261.976,109.921 263.006,109.59 C 264.724,110.619 267.123,109.921 269.181,109.59 C 270.533,109.25 271.91,108.57 272.94,107.872 C 274.309,106.512 276.019,104.793 277.057,102.744 C 280.136,98.985 281.165,94.18 283.895,90.071 L 286.302,87.673 C 287.323,86.993 288.701,86.644 289.73,86.993 C 292.46,88.353 291.78,91.781 292.46,93.831 C 292.46,98.986 292.129,103.765 290.751,108.571 C 290.402,110.271 290.402,111.65 289.73,113.35 C 288.021,124.994 286.651,136.297 285.622,147.941 C 284.924,153.087 284.924,158.573 284.244,163.702 C 283.895,166.781 283.223,169.528 283.546,172.607 C 281.846,192.135 277.737,211.306 271.58,229.796 C 265.056,247.946 251.363,265.416 233.222,271.242 C 228.085,272.263 223.628,274.32 218.499,273.971 C 211.975,274.32 205.468,272.611 199.311,269.863 C 192.805,266.435 185.949,262.676 180.141,257.2 C 175.335,252.743 170.878,248.295 166.43,243.489 L 146.23,220.211 C 139.043,211.986 131.839,203.421 122.603,196.584 C 120.553,195.214 118.495,193.836 116.427,192.807 C 118.495,190.077 120.204,187.329 122.603,185.28 C 126.362,181.521 129.79,177.064 133.888,173.636 C 138.345,170.557 142.471,166.781 147.25,164.382 C 153.434,161.652 159.592,158.224 166.429,157.195 C 175.334,154.116 184.239,154.797 192.804,152.738 C 200.33,150.688 209.244,149.659 216.431,146.231 C 222.606,143.833 228.764,142.132 234.59,139.053 C 240.399,136.297 246.583,134.596 252.06,131.849 C 256.517,129.79 260.947,128.09 265.404,125.691 C 269.181,124.313 272.259,121.583 275.687,119.856 C 279.795,117.126 283.894,114.047 286.65,109.251 C 290.069,104.794 291.778,99.316 290.749,94.18 C 290.4,93.5 290.069,92.81 289.38,92.479 C 288.02,92.479 286.301,92.81 285.272,93.831 C 279.114,104.463 271.579,115.409 261.295,121.235 C 258.216,122.936 254.44,124.314 251.03,125.692 L 231.842,134.248 C 228.083,135.626 223.626,136.646 219.858,138.356 C 216.43,139.376 212.671,140.423 209.593,141.784 C 205.467,143.502 201.028,144.532 196.911,145.561 C 193.501,145.883 190.395,146.912 187.317,147.261 C 185.268,147.941 182.869,148.639 180.488,148.639 C 168.826,150.688 158.212,152.398 147.929,157.544 C 141.091,160.954 134.585,165.411 128.759,170.557 C 125.68,173.636 122.933,176.714 120.203,179.793 C 116.095,183.221 113.348,188.707 109.938,193.155 C 109.24,195.213 108.56,197.263 107.53,198.972 L 107.53,199.312 C 107.19,200.69 106.841,202.068 106.161,203.089 C 105.132,202.391 105.132,200.01 105.132,198.972 C 103.414,178.772 114.368,159.253 129.109,145.56 C 133.217,141.452 137.316,138.024 141.773,135.277 C 144.521,133.218 147.6,131.518 150.678,129.791 C 154.106,127.742 157.865,126.363 160.961,123.965 C 167.449,121.584 173.634,118.837 180.812,117.127 C 185.949,114.729 192.805,114.379 198.631,112.679 L 216.781,109.251 C 222.259,108.571 227.736,107.873 233.571,107.192 C 237.321,105.492 242.458,105.492 245.885,102.413 C 246.234,102.064 245.885,101.715 245.885,101.366 C 245.205,100.006 243.827,101.366 242.806,101.366 L 242.457,101.035 C 244.175,98.985 244.507,96.229 246.583,94.18 C 246.905,93.829 247.604,94.527 247.935,94.527"
   style="fill:#ff6600"
   id="path53" />
<path
   d="M 338.354,82.543 C 338.703,82.543 339.034,82.543 339.034,82.865 C 339.383,84.592 336.975,83.894 336.305,84.243 C 333.217,84.243 329.799,84.243 327.391,86.641 C 324.993,88.019 322.263,88.7 319.515,88.7 L 315.756,89.049 C 314.378,89.72 313.008,88.7 311.979,88.7 C 312.328,88.02 311.979,86.991 312.659,86.641 C 313.698,86.292 314.726,87.322 315.756,87.322 C 318.154,86.99 320.535,86.99 322.594,85.621 C 326.371,84.592 329.118,81.513 332.877,80.135 C 334.926,80.136 336.644,81.165 338.354,82.543"
   style="fill:#ffffff"
   id="path55" />
<path
   d="M 297.937,93.498 C 299.665,96.227 300.335,99.315 303.074,101.365 C 302.394,103.083 300.335,104.793 301.365,106.842 C 302.045,108.57 303.415,110.619 304.444,112.328 C 304.444,113.017 303.764,113.348 303.075,114.046 C 302.395,114.726 301.715,115.755 301.366,116.775 C 301.366,117.124 301.017,116.775 301.017,117.124 L 301.366,117.124 L 301.017,117.804 C 301.715,118.484 302.395,119.522 303.076,120.202 C 302.745,121.231 303.416,121.231 303.765,122.261 C 304.794,122.61 305.143,123.63 305.474,123.962 C 305.143,126.71 303.416,129.117 303.076,131.847 C 302.396,132.196 302.396,133.216 302.396,133.896 C 302.396,134.245 303.076,134.594 303.076,134.925 C 302.745,134.594 302.745,134.925 302.396,134.594 C 303.417,136.294 304.114,137.673 305.144,139.051 C 306.522,140.072 306.173,142.13 306.173,143.499 C 306.844,145.558 304.795,146.909 304.795,148.636 C 303.077,152.395 300.687,155.814 298.638,159.591 C 295.541,163.001 291.433,167.807 288.024,171.584 C 288.024,169.525 288.355,168.156 288.355,168.156 C 288.704,164.048 288.704,159.922 289.733,156.163 C 289.733,151.715 290.754,147.607 291.103,143.15 C 291.783,139.373 291.783,135.623 292.463,131.847 C 292.812,125.34 294.861,118.834 295.211,112.327 C 295.211,108.899 296.24,105.821 296.24,102.41 C 296.562,100.683 296.562,98.982 296.562,97.255 C 296.911,95.885 296.562,94.525 296.911,92.807 C 297.256,92.809 297.605,93.498 297.937,93.498"
   style="fill:#ffffff"
   id="path57" />
<path
   d="M 286.651,98.984 C 286.973,101.365 285.622,103.414 284.924,105.822 C 284.244,106.511 284.244,107.191 283.546,107.54 C 283.224,106.511 282.875,105.491 281.497,104.792 C 283.224,102.742 283.895,100.004 285.954,98.286 C 286.651,98.286 286.651,98.635 286.651,98.984"
   style="fill:#ffffff"
   id="path59" />
<path
   d="M 243.478,108.22 L 243.478,109.249 C 243.478,109.249 243.156,109.589 243.156,109.92 C 241.428,112.328 238.35,113.017 235.951,113.697 L 225.337,115.406 C 223.628,115.406 221.229,115.755 219.179,115.406 C 218.83,115.406 218.499,115.075 218.499,115.075 C 218.831,114.046 220.208,114.726 220.88,113.697 L 221.909,113.697 C 228.764,111.299 236.649,111.299 242.806,107.871 C 243.155,107.871 243.155,108.22 243.478,108.22"
   id="path61" />
<path
   d="M 282.194,109.589 C 279.446,112.328 276.717,114.726 273.629,116.776 L 271.58,117.805 C 274.99,115.076 277.389,110.269 280.467,106.842 C 281.165,107.54 281.496,108.9 282.194,109.589"
   style="fill:#ffffff"
   id="path63" />
<path
   d="M 314.028,140.072 C 316.435,142.131 315.755,144.86 314.726,147.939 C 312.328,154.794 307.871,162.67 302.743,169.186 C 296.237,177.742 290.75,182.199 286.651,184.249 C 286.302,181.17 286.973,179.121 287.322,176.364 C 291.43,172.936 296.907,166.779 300.335,162.671 C 302.394,158.903 304.792,155.144 306.52,151.716 C 306.52,149.657 310.27,145.21 309.599,143.5 C 309.921,141.782 309.921,139.723 308.552,138.354 L 308.552,137.674 C 309.92,136.994 312.659,139.052 314.028,140.072"
   id="path65" />
</svg>