<?xml version="1.0" encoding="UTF-8" standalone="no"?>
<!DOCTYPE svg PUBLIC "-//W3C//DTD SVG 1.1//EN" "http://www.w3.org/Graphics/SVG/1.1/DTD/svg11.dtd">
<!-- Created with Inkscape (http://www.inkscape.org/) -->
<svg
   xmlns:dc="http://purl.org/dc/elements/1.1/"
   xmlns:cc="http://creativecommons.org/ns#"
   xmlns:rdf="http://www.w3.org/1999/02/22-rdf-syntax-ns#"
   xmlns:svg="http://www.w3.org/2000/svg"
   xmlns="http://www.w3.org/2000/svg"
   version="1.1"
   width="400"
   height="295"
   id="svg2985"
   xml:space="preserve"><metadata
     id="metadata2991"><rdf:RDF><cc:Work
         rdf:about=""><dc:format>image/svg+xml</dc:format><dc:type
           rdf:resource="http://purl.org/dc/dcmitype/StillImage" /><dc:title></dc:title></cc:Work></rdf:RDF></metadata><defs
     id="defs2989" /><g
     transform="matrix(1.25,0,0,-1.25,0,295.00001)"
     id="g2993"><g
       id="g4427"><path
         d="m 19.087689,92.936355 c 28.132034,4.188205 102.285931,6.731367 87.937171,-36.460059 21.71819,22.383459 95.43664,23.668648 126.00902,-47.9148742 2.60364,16.7195542 6.36546,70.2378532 31.51586,92.8662582 6.44711,10.14241 -5.15588,13.06961 -1.63597,17.36063 7.72625,-4.21542 3.86464,-39.623134 0.62899,-47.781817 13.58974,12.857939 26.3872,26.25717 42.29935,56.545297 1.96558,14.28223 7.83209,13.3327 -8.20102,26.45675 -4.31521,2.58852 -5.32824,3.29009 -9.64345,5.88163 1.71761,1.5513 1.11584,10.00936 3.55619,21.40369 3.4564,17.2669 -2.25588,20.48441 -17.22153,19.33227 -11.18871,-0.0423 -22.38044,-0.0877 -33.57217,-0.13003 -6.9884,-0.0242 -30.97457,-1.94139 -52.12727,11.72395 5.54597,-9.98819 2.81835,-11.84491 -5.92094,-12.33782 -14.05543,-0.79228 -19.66188,-0.5806 -33.74151,-0.63201 -19.85844,-0.2903 -27.43652,0.36893 -47.29193,0.0816 12.51623,-5.6125 37.11928,-9.92771 37.55171,-16.83446 -0.7197,-6.90676 -46.330309,-12.94866 -69.493953,-19.42602 15.107776,-4.46036 46.617593,-5.03491 45.323323,-13.38108 -0.57757,-8.20102 -62.160813,-41.21677 -95.971871,-56.753955"
         id="path3241"
         style="fill:#dc1e2d;fill-opacity:1;fill-rule:evenodd;stroke:none" /><path
         d="m 7.9999849,101.75608 c 28.1320341,4.1882 109.5344051,3.74368 95.1856451,-39.444723 21.71818,22.383459 96.15634,34.866425 126.72872,-36.717097 4.87767,14.273159 7.24544,42.898101 19.24457,62.968219 6.45014,10.14241 10.23313,14.188491 13.75303,18.476481 5.16798,-5.06818 0.4536,-40.899251 -2.78205,-49.057934 13.58974,12.854915 31.07738,31.803139 46.99256,62.091264 4.47851,14.27921 10.83188,33.04599 -6.92188,46.16702 -4.31521,2.59155 -5.32824,2.8637 -9.64345,5.45525 4.4785,4.05515 5.94211,14.36993 6.67391,19.98545 3.45338,17.26689 -7.93188,24.03454 -22.89753,22.88241 -11.19173,-0.0423 -22.80984,-0.51408 -34.00157,-0.55339 -6.98538,-0.0272 -35.23838,-0.23587 -56.39108,13.42947 5.54295,-9.99121 5.80603,-12.27431 -2.93325,-12.76722 -14.05846,-0.78925 -19.66491,-0.57758 -33.74453,-0.63201 -19.85542,-0.28727 -40.65734,-0.91021 -60.512754,-1.19749 12.519254,-5.6125 47.358464,-11.63323 47.787864,-18.53999 -0.7197,-6.90676 -55.284296,-13.37504 -78.44794,-19.84937 15.107776,-4.46338 53.43968,-5.8907 52.14541,-14.23384 -0.57757,-8.20102 -66.424617,-42.92532 -100.2356751,-58.4625"
         id="path3245"
         style="fill:white;fill-opacity:1;fill-rule:evenodd;stroke:none" /><path
         d="m 19.087689,104.74104 c 28.132034,4.19123 102.285931,6.73137 87.937171,-36.460055 21.71819,22.383459 91.89254,35.719185 122.4619,-35.861312 4.87767,14.270135 5.01072,39.484033 17.01288,59.557175 6.44711,10.139382 12.89422,15.890982 16.41413,20.182002 7.72625,-4.21542 3.86464,-39.620109 0.62899,-47.778792 13.58974,12.854915 26.3872,26.25717 42.29935,56.542272 4.47851,14.28223 9.55273,31.76988 -8.20102,44.8909 -3.77997,2.80323 -5.21938,3.61063 -9.64345,5.88163 4.00676,4.14889 6.46223,13.89819 7.57505,19.51371 2.03514,16.98264 -5.70624,21.80588 -21.24039,21.22225 -11.18871,-0.0423 -22.38044,-0.0877 -33.57217,-0.13003 -6.9884,-0.0242 -30.97457,-1.94139 -52.12727,11.72395 5.54597,-9.98819 2.81835,-11.84491 -5.92094,-12.33782 -14.05543,-0.79228 -19.66188,-0.57758 -33.74151,-0.63201 -19.85844,-0.28728 -27.43652,0.36893 -47.29193,0.0816 12.51623,-5.6125 37.11928,-9.92771 37.55171,-16.83447 -0.7197,-6.90675 -46.330309,-12.94865 -69.493953,-19.42298 15.107776,-4.46037 46.617593,-5.03794 45.323323,-13.38109 -0.57757,-8.20404 -62.160813,-41.2198 -95.971871,-56.75698"
         id="path3249"
         style="fill:#272425;fill-opacity:1;fill-rule:evenodd;stroke:none" /><path
         d="m 49.347694,115.09967 c 98.091686,31.13182 117.251586,56.46667 51.035616,61.07219 70.70355,18.57627 79.20999,22.97615 29.3507,31.07738 25.29857,-0.22075 68.51116,-4.90186 72.23065,3.02397 9.1324,-6.53178 52.82278,-35.52262 75.9955,-4.51176 3.74973,-0.21773 10.6202,-2.73368 12.97587,-8.66672 2.60667,-8.90258 -0.18446,-18.95124 -2.40103,-25.28949 -1.21564,0.14212 -3.15401,0.883 -8.15869,1.77809 -19.10547,0.68947 -30.79313,0.26309 -47.91185,-12.51623 -9.37129,-9.77953 -22.44696,-23.16666 -33.66893,-31.50981 -8.92677,-6.50759 -20.11547,-9.89142 -21.39159,5.17704 -0.56246,13.97681 3.95838,27.53632 -9.98517,25.1383 -16.48973,-4.77183 -42.94648,-21.53069 4.00375,-66.164556 -14.90215,8.185896 -34.16184,11.070766 -59.15197,-10.970979 24.76031,29.550275 -26.973848,37.932735 -62.922856,32.362575"
         id="path3253"
         style="fill:white;fill-opacity:1;fill-rule:evenodd;stroke:none" /><path
         d="m 262.01988,169.29806 c 1.57852,1.48477 6.16589,4.97746 7.62949,6.46526 1.45453,1.48174 2.82137,2.90906 4.16704,4.56317 1.33659,1.64202 2.64295,3.51386 3.62877,5.27382 0.97976,1.74483 1.63597,3.40197 2.24681,4.9956 0.62294,1.60271 1.19144,3.13284 1.70854,4.90791 0.52618,1.766 0.99187,3.7709 1.39103,5.8393 0.10584,-1.72972 0.14213,-3.46548 0.11794,-5.42804 -0.0212,-1.95953 -0.10584,-4.15796 -0.29635,-6.32313 -0.20563,-2.17121 -0.51105,-4.28799 -0.82857,-6.13262 -0.31449,-1.82648 -0.61992,-3.35359 -0.98279,-4.85953 0.7197,0.0877 1.45453,0.0726 2.1319,-0.0181 0.68039,-0.0907 1.29728,-0.26913 1.97163,-0.52617 0.68342,-0.26611 1.40917,-0.60177 2.13795,-1.01001 -1.05839,-0.6441 -2.10469,-1.35474 -3.0905,-2.10771 -0.98582,-0.75297 -1.92325,-1.54223 -2.80323,-2.54014 -0.87392,-1.0221 -1.69342,-2.25891 -2.55223,-3.92209 -0.85881,-1.67831 -1.76298,-3.76485 -2.56735,-5.9784 0.34473,1.95651 0.59572,4.00072 0.71668,5.67902 0.12398,1.69645 0.12398,3.03003 0.0695,4.26381 -0.0423,1.23076 -0.12701,2.33753 -0.25099,3.12981 -0.13003,0.77716 -0.29635,1.25798 -0.52315,1.65109 -0.97069,-1.67528 -1.97768,-3.30823 -3.05421,-4.8686 0.4415,-1.85974 0.68946,-3.80718 0.71063,-5.89372 0.0272,-2.07143 -0.18144,-4.27893 -0.54129,-6.16891 -0.35683,-1.88998 -0.88905,-3.48362 -1.56944,-4.55108 -0.6804,-1.06746 -1.51501,-1.64504 -2.40709,-1.70552 -0.10886,17.41204 -1.39405,13.08171 -7.16077,15.26502"
         id="path3257"
         style="fill:#272425;fill-opacity:1;fill-rule:evenodd;stroke:none" /><path
         d="m 157.97944,137.04919 c 0.8709,6.12959 9.81884,13.97378 7.5811,-2.31334 -0.16027,-9.46504 5.59435,-14.95658 11.6423,-19.12362 10.50227,-6.04492 25.04758,-3.75577 40.15536,4.01584 15.06846,10.07286 27.80242,14.53322 37.11929,10.79256 8.77557,-4.31823 13.09078,-11.77535 16.11173,-21.84821 1.65412,-8.848149 2.75787,-19.114542 0.9586,-29.114826 10.21499,12.086826 20.33925,27.221816 28.25299,42.758996 6.83419,18.34646 4.09749,29.8557 -5.18006,36.68988 -8.34617,5.6125 -18.41601,8.34617 -30.21556,8.20102 -8.20102,0 -17.98357,-4.74764 -28.48584,-11.65439 -10.79256,-9.78256 -21.58512,-19.56814 -32.37467,-29.3507 -15.49484,-12.76117 -25.49512,-9.15357 -29.63192,0.48988 -2.73367,6.0419 -2.76694,14.5181 -2.48571,21.13154 1.9172,9.84001 -7.11239,7.03376 -14.93238,-1.33358 -3.59551,-6.04492 -4.33638,-13.23593 -0.74088,-21.5821 17.32133,-35.310951 58.29618,-48.604342 69.94453,-70.918249 -4.81417,17.623723 -35.85224,34.430972 -51.3743,51.504329 -11.74512,9.41666 -18.15897,27.44862 -16.34458,31.65497"
         id="path3261"
         style="fill:#fbf500;fill-opacity:1;fill-rule:evenodd;stroke:none" /><path
         d="m 226.88886,166.41621 c -3.55922,1.66319 -13.91633,5.56714 -17.22758,7.23637 -3.28101,1.65412 -6.36547,3.2538 -9.40759,5.10145 -3.01188,1.83857 -5.96025,3.93419 -8.1859,5.9028 -2.21657,1.95046 -3.69529,3.80718 -5.07422,5.5883 -1.40918,1.79624 -2.68832,3.50781 -3.8586,5.49456 -1.18842,1.97466 -2.24378,4.21542 -3.14191,6.53179 -0.23889,-1.93535 -0.32054,-3.87976 -0.26913,-6.07214 0.0544,-2.19239 0.24494,-4.65692 0.67737,-7.0761 0.45965,-2.43128 1.14911,-4.79905 1.86579,-6.8614 0.70761,-2.04421 1.40313,-3.75275 2.22262,-5.44013 -1.62689,0.0998 -3.28706,0.0816 -4.81719,-0.0181 -1.53315,-0.0998 -2.93023,-0.30239 -4.44826,-0.58967 -1.54223,-0.29635 -3.18425,-0.67132 -4.82324,-1.12794 2.38591,-0.72273 4.74764,-1.51501 6.97328,-2.3587 2.22565,-0.84067 4.33941,-1.72367 6.32918,-2.84254 1.97466,-1.14609 3.82533,-2.52502 5.76067,-4.38779 1.94139,-1.88091 3.98258,-4.21239 5.79696,-6.69205 -0.78321,2.18936 -1.34567,4.4785 -1.62085,6.35639 -0.28123,1.89906 -0.27518,3.38988 -0.15725,4.77183 0.0968,1.37591 0.28728,2.61272 0.57154,3.50177 0.2903,0.86788 0.66527,1.40614 1.17632,1.84462 2.19238,-1.87486 4.46944,-3.69832 6.89466,-5.44618 -0.99488,-2.08049 -1.55432,-4.25775 -1.60573,-6.59529 -0.0575,-2.31636 0.41429,-4.78695 1.22169,-6.9007 0.8074,-2.11679 2.01094,-3.89791 3.54712,-5.09238 1.53618,-1.19447 3.41709,-1.8416 5.43408,-1.90813 0.24797,19.48045 3.14796,14.63906 16.16617,17.07941"
         id="path3265"
         style="fill:#272425;fill-opacity:1;fill-rule:evenodd;stroke:none" /><path
         d="m 252.159,156.7534 c -3.88883,-0.26006 -9.39246,-3.11469 -11.30966,-6.00259 -1.74483,-2.86975 -1.16121,-4.8565 0.41428,-6.07516 2.25891,-0.0786 4.1489,0.83159 5.676,2.7246 3.15401,4.80812 4.55713,5.65181 9.17777,8.59414 0.5171,1.77507 -2.08655,1.12794 -3.95839,0.75901"
         id="path3269"
         style="fill:black;fill-opacity:1;fill-rule:evenodd;stroke:none" /><path
         d="m 252.159,156.7534 c -3.88883,-0.26006 -9.39246,-3.11469 -11.30966,-6.00259 -1.74483,-2.86975 -1.16121,-4.8565 0.41428,-6.07516 2.25891,-0.0786 4.1489,0.83159 5.676,2.7246 3.15401,4.80812 4.55713,5.65181 9.17777,8.59414 0.5171,1.77507 -2.08655,1.12794 -3.95839,0.75901 z"
         id="path3273"
         style="fill:#272425;fill-opacity:1;stroke:#272425;stroke-width:0.31751731;stroke-linecap:butt;stroke-linejoin:miter;stroke-miterlimit:10;stroke-opacity:1;stroke-dasharray:none" /><path
         d="m 185.65394,106.90954 c 20.39369,-5.88768 41.90624,-24.823809 59.51182,-45.311236 -10.77442,17.239678 -17.33644,35.332117 -34.89666,47.086306 -4.96839,-2.34056 -18.83029,-3.00281 -24.61516,-1.77507"
         id="path3277"
         style="fill:#dc1e2d;fill-opacity:1;fill-rule:evenodd;stroke:none" /></g></g></svg>