<?xml version="1.0" encoding="UTF-8"?>
<!DOCTYPE svg PUBLIC "-//W3C//DTD SVG 1.1//EN" "http://www.w3.org/Graphics/SVG/1.1/DTD/svg11.dtd">
<!-- Creator: CorelDRAW -->
<svg xmlns="http://www.w3.org/2000/svg" xml:space="preserve" width="500px" height="681px" shape-rendering="geometricPrecision" text-rendering="geometricPrecision" image-rendering="optimizeQuality" fill-rule="evenodd" clip-rule="evenodd"
viewBox="0 0 500 681.199"
 xmlns:xlink="http://www.w3.org/1999/xlink">
 <g id="Layer_x0020_1">
  <metadata id="CorelCorpID_0Corel-Layer"/>
  <path fill="#000066" d="M440.91 144.46c-80.6666,53.5254 -283.771,56.5149 -380.982,0l-58.4366 45.9298c36.0776,45.9066 44.7071,81.7985 41.6187,114.653l-32.7572 110.173c-26.558,89.3257 -14.8263,197.088 240.471,266.05 255.298,-68.9622 263.979,-176.088 239.661,-266.05 -20.1484,-74.5392 -67.2317,-126.019 8.86155,-224.826l-58.4366 -45.9298z"/>
  <path fill="white" d="M440.201 153.907c-86.5691,52.8696 -283.165,57.2575 -379.185,1.43509l-47.6734 38.1901c35.7698,44.2676 46.153,84.1098 39.8059,113.54l-32.5772 111.403c-22.4115,76.6386 -20.2975,186.061 231.873,254.179 254.871,-70.8183 248.49,-186.388 228.975,-251.308 -21.9608,-73.0547 -70.1324,-133.869 5.02011,-229.249l-46.2376 -38.1901z"/>
  <path fill="#FFCC00" d="M438.341 166.401c-88.5144,50.9252 -282.819,54.733 -377.325,0.423266l-33.0117 28.7068c33.0777,45.4644 39.7878,73.9951 36.9867,105.661 -2.59019,21.2479 -19.8112,74.1388 -30.5308,108.108 -25.1194,79.601 -34.1861,183.754 217.984,251.871 252.17,-68.1173 237.988,-188.686 218.51,-244.13 -24.3088,-69.1955 -68.3177,-129.403 1.69538,-221.51l-34.3077 -29.13z"/>
  <path fill="#000066" d="M437.33 179.742c-13.9489,8.519 -32.388,15.7045 -51.8532,19.7881 -10.499,-14.5363 -24.2134,-29.9735 -40.9603,-34.9245l34.0073 -58.6281 38.5415 -66.4458 -119.117 49.0989c-24.7614,-23.6658 -41.0587,-54.1962 -53.5069,-87.8486 -13.5403,35.7884 -32.0582,66.1199 -53.1176,87.6867l-119.648 -49.9867 66.6358 118.829 -58.2848 -0.204682 28.0812 41.365c-16.7484,-5.59862 -31.2835,-11.4432 -44.7863,-19.293l-20.966 17.7888c66.2608,84.3906 17.7988,150.473 3.27761,210.025 -16.7607,56.2681 -34.4456,128.71 71.3574,190.148 0.0895965,16.0235 -16.8121,30.6119 -48.7281,67.5596 50.836,-5.18848 104.542,-3.20076 152.509,-24.1775 10.041,3.11541 20.5902,6.17289 31.6716,9.16626 252.17,-68.1173 224.286,-190.671 204.575,-239.825 -27.7062,-69.0901 -57.602,-135.15 2.53496,-213.075l-22.2234 -17.0465z"/>
  <path fill="#FFCC00" d="M97.2454 165.989c11.6271,16.4112 31.6639,37.6942 31.577,47.3985l0 381.759c-0.153704,19.0644 -23.0197,40.8205 -35.883,55.9773 157.624,1.67414 259.038,-92.4601 298.872,-166.458 40.0245,-74.3535 26.8643,-157.898 -26.1629,-192.933 36.8396,-40.1886 17.7023,-128.136 -73.2007,-125.744l-195.202 0z"/>
  <path fill="#000066" d="M115.905 176.036c11.2598,14.576 24.4884,26.1004 24.4,37.3181l-0.366882 381.76c0.628334,18.341 -16.5487,33.9034 -26.9037,47.3981 271.273,-22.4864 363.133,-281.799 236.826,-348.78 39.7102,-27.2705 37.7962,-120.087 -57.4124,-119.13l-176.543 1.43509z"/>
  <path fill="white" d="M133.128 184.648c6.76415,8.58967 15.2951,13.8094 15.2248,34.4475l0 377.232c0.239439,15.684 -6.48841,22.457 -15.2248,34.702 235.699,-27.101 342.476,-272.678 201.507,-337.298 54.1715,-28.5593 30.4037,-108.605 -24.9638,-109.083l-176.543 0z"/>
  <path fill="#000066" stroke="black" stroke-width="0.294278" d="M194.846 223.401l0 44.4947 107.649 0c24.4,-0.478491 22.9649,-44.0162 0,-44.4947l-107.649 0z"/>
  <path fill="#FFCC00" stroke="black" stroke-width="0.294278" d="M203.459 230.578l-0.108134 30.1415 96.8372 0c16.7449,-0.478491 15.3094,-29.663 0,-30.1415l-96.729 0z"/>
  <path fill="#000066" d="M213.506 240.317l0 11.7912 81.4501 -0.108134c10.6241,-0.967796 9.29563,-11.6402 0.107747,-11.629l-81.5579 -0.0540668z"/>
  <path fill="#000066" d="M195.248 319.537l0.872021 242.413c138.067,-27.5405 223.231,-219.233 83.7113,-242.413 -12.8073,-0.817568 -25.9984,-0.868159 -39.3031,-0.691669l-45.2802 0.691669z"/>
  <path fill="#FFCC00" stroke="black" stroke-width="0.294278" d="M203.968 327.384l0 224.974c79.9784,-28.5365 139.066,-101.326 138.728,-157.748 -0.278444,-46.5102 -42.9673,-67.2947 -68.4517,-67.1255l-70.2761 -0.10041z"/>
  <path fill="#000066" d="M212.688 336.976l0 203.174c81.2574,-37.5035 121.587,-101.541 120.784,-147.989 -0.591646,-34.2722 -31.1043,-55.1667 -59.745,-55.1845l-61.0391 0z"/>
  <path fill="#FFCC00" d="M93.2251 58.8116l54.9354 95.0468 191.838 0 54.0634 -94.1748 -104.639 41.8555 8.71982 12.2079 -19.1837 0 6.13079 -8.17529 6.94913 -9.26474c-18.3132,-18.8925 -34.2992,-44.1796 -47.9596,-72.375 -12.2075,26.4514 -27.3223,51.4473 -48.8316,73.247l13.0799 15.696 -17.4396 0 6.10376 -11.3359 -103.767 -42.7275z"/>
  <path fill="#000066" d="M108.049 71.8915l43.5995 74.9911 184.862 0 44.4715 -75.8631 -81.0948 34.0076 9.59184 15.6956 -43.5995 0 8.58311 -11.0366 9.72855 -12.5072c-18.3128,-18.8925 -26.451,-31.972 -40.1114,-60.1671 -12.2075,25.433 -18.6029,37.9306 -40.1114,61.0391l17.4396 21.7997 -42.7275 0 10.4639 -14.8236 -81.0952 -33.1356z"/>
  <path fill="white" d="M126.361 87.5871l30.5196 52.3193 174.398 0 31.3916 -54.0634 -54.0634 23.5438 13.0799 18.312 -70.6314 0.871635 11.4444 -14.3061 12.9714 -16.2135c-17.4126,-19.3436 -16.5738,-17.7281 -31.3916,-45.3435 -14.5324,24.5757 -11.337,21.7959 -30.5196,45.3435l22.6718 29.6479 -70.6314 0 12.2079 -19.1841 -51.4473 -20.9277z"/>
 </g>
</svg>
