<?xml version="1.0" encoding="UTF-8" standalone="no"?>
<!-- Created with Inkscape (http://www.inkscape.org/) -->
<svg
   xmlns:svg="http://www.w3.org/2000/svg"
   xmlns="http://www.w3.org/2000/svg"
   version="1.0"
   width="800"
   height="853.91498"
   viewBox="0 0 800 853.915"
   id="Layer_1"
   xml:space="preserve"><defs
   id="defs12" />
<path
   d="M 677.107,45.792 C 585.533,18.2 460.014,9.534 303.715,37.868 C 93.848,75.96 -125.297,232.389 307.1,251.839 C 416.094,256.751 538.338,229.857 525.154,184.997 C 511.38,138.107 396.513,137.256 343.686,145.18 C 364.468,146.555 427.554,178.929 328.165,178.557 C 217.424,178.164 217.119,145.267 303.628,128.807 C 340.738,121.211 398.717,114.312 457.591,119.246 C 551.785,124.922 596.949,162.032 582.367,265.481 C 540.171,565.045 199.895,853.914 199.895,853.914 C 199.895,853.914 372.653,794.844 482.04,718.31 C 651.785,599.47 744.124,467.228 788.284,292.659 C 830.939,124.247 748.686,67.337 677.107,45.792"
   style="fill:#231f20;fill-rule:evenodd"
   id="path3" />
<path
   d="M 309.828,56.379 C 466.257,28.568 573.243,38.064 664.795,65.591 C 736.374,87.137 802.626,139.222 763.027,295.171 C 731.463,419.62 646.568,576.137 491.885,684.999 C 391.819,755.465 330.304,779.651 288.369,799.582 C 334.56,753.631 618.036,462.733 609.414,208.879 C 605.572,95.584 468.549,90.324 370.405,98.946 C 174.595,116.104 133.032,193.991 329.868,197.156 C 425.088,198.684 432.771,175.174 407.69,158.627 C 430.895,159.26 486.253,162.883 496.841,183.359 C 508.738,206.324 438.949,236.274 308.759,232.431 C -71.815,221.256 115.983,90.804 309.828,56.379"
   style="fill:#231f20"
   id="path5" />
<path
   d="M 618.976,25.403 C 527.424,-2.19 401.883,-10.9 245.585,17.501 C 35.739,55.571 -183.406,211.957 248.99,231.451 C 357.984,236.363 480.207,209.469 467.022,164.609 C 453.248,117.72 338.403,116.868 285.554,124.792 C 306.358,126.167 369.423,158.497 270.012,158.125 C 159.315,157.732 158.988,124.879 245.498,108.419 C 282.608,100.823 340.587,93.946 399.482,98.858 C 493.632,104.534 538.819,141.644 524.259,245.093 C 482.04,544.681 141.786,833.482 141.786,833.482 C 141.786,833.482 314.522,774.456 423.887,697.922 C 593.676,579.082 685.949,446.84 730.175,272.227 C 772.808,103.858 690.554,46.905 618.976,25.403"
   style="fill:#6d6e70;fill-rule:evenodd"
   id="path7" />
<path
   d="M 251.718,35.947 C 408.147,8.202 515.09,17.675 606.642,45.202 C 678.264,66.748 744.517,118.789 704.918,274.782 C 673.353,399.231 588.437,555.748 433.753,664.612 C 333.666,735.077 272.194,759.263 230.26,779.15 C 276.451,733.243 559.927,442.345 551.304,188.491 C 547.441,75.196 410.418,69.935 312.295,78.558 C 116.442,95.738 74.9,173.603 271.736,176.725 C 366.978,178.297 374.662,154.787 349.58,138.24 C 372.785,138.873 428.122,142.497 438.731,162.929 C 450.606,185.937 380.839,215.844 250.649,212.045 C -129.946,200.868 57.874,70.415 251.718,35.947"
   style="fill:#ed1c24"
   id="path9" />
</svg>