<?xml version="1.0" encoding="UTF-8" standalone="no"?>
<svg
   xmlns:dc="http://purl.org/dc/elements/1.1/"
   xmlns:cc="http://web.resource.org/cc/"
   xmlns:rdf="http://www.w3.org/1999/02/22-rdf-syntax-ns#"
   xmlns:svg="http://www.w3.org/2000/svg"
   xmlns="http://www.w3.org/2000/svg"
   xmlns:sodipodi="http://sodipodi.sourceforge.net/DTD/sodipodi-0.dtd"
   xmlns:inkscape="http://www.inkscape.org/namespaces/inkscape"
   width="170pt"
   height="166pt"
   viewBox="0 0 170 166"
   version="1.1"
   id="svg2"
   sodipodi:version="0.32"
   inkscape:version="0.45.1"
   sodipodi:docname="kookoon_logo.svg"
   inkscape:output_extension="org.inkscape.output.svg.inkscape"
   sodipodi:docbase="F:\Design\Kotisivut\NiCo">
  <metadata
     id="metadata95">
    <rdf:RDF>
      <cc:Work
         rdf:about="">
        <dc:format>image/svg+xml</dc:format>
        <dc:type
           rdf:resource="http://purl.org/dc/dcmitype/StillImage" />
      </cc:Work>
    </rdf:RDF>
  </metadata>
  <sodipodi:namedview
     inkscape:window-height="579"
     inkscape:window-width="743"
     inkscape:pageshadow="2"
     inkscape:pageopacity="0.0"
     guidetolerance="10.0"
     gridtolerance="10.0"
     objecttolerance="10.0"
     borderopacity="1.0"
     bordercolor="#666666"
     pagecolor="#ffffff"
     id="base"
     inkscape:zoom="1.8216867"
     inkscape:cx="106.25"
     inkscape:cy="103.75"
     inkscape:window-x="154"
     inkscape:window-y="154"
     inkscape:current-layer="svg2" />
  <defs
     id="defs4">
    <clipPath
       id="clip0">
      <rect
         width="170"
         height="166"
         id="rect7" />
    </clipPath>
  </defs>
  <path
     id="path10"
     d="M 0,0 L 82.959549,0 C 70.891937,8.718643 55.20929,10.984024 40.703247,9.082748 C 35.908432,8.470169 31.411484,6.680527 26.893127,5.075989 C 19.392685,10.656113 12.819336,17.476212 5.569946,23.413574 C 11.095673,30.285782 16.706711,37.562149 18.58168,46.386215 C 21.182816,57.869797 16.440109,69.151306 14.669769,80.384766 C 11.204239,82.330109 7.482971,83.899048 4.352234,86.3853 C 1.886642,88.372025 0.697342,91.42688 0,94.424561 L 0,0 z "
     style="fill:none;stroke:#fdfdfd;stroke-width:0.1;stroke-linecap:butt;stroke-linejoin:miter;stroke-miterlimit:10" />
  <path
     id="path14"
     d="M 82.959549,0 L 83.627411,0 C 99.752502,11.269913 121.87541,12.54007 139.78052,4.867233 C 146.69643,11.139984 153.79205,17.213531 160.64641,23.554855 C 155.65219,29.56105 150.92892,35.956848 148.34003,43.41185 C 153.50168,42.51825 158.63763,41.007462 163.91573,41.113068 C 166.85559,41.247116 168.29483,44.17453 170,46.134903 L 170,48.478119 C 168.72182,52.46254 166.14029,55.822937 162.52918,57.957764 C 162.39932,62.994934 163.29553,68.713898 160.03632,73.014801 C 157.96706,75.958328 154.21353,76.533279 150.99614,77.430634 C 153.45357,90.033646 152.44467,103.40631 147.19934,115.19605 C 143.03783,124.35628 136.41975,132.56093 127.72475,137.75842 C 116.98703,144.57851 104.31207,147.0173 92.54335,151.41596 C 88.939133,152.70961 85.885284,155.05705 83.079651,157.60324 C 79.290634,153.72881 74.360916,151.31442 69.218185,149.79172 C 58.244171,146.25679 46.810501,143.34753 37.107224,136.86301 C 31.444366,133.28853 26.963028,128.194 23.095963,122.79369 C 20.038177,124.37471 17.081055,126.18762 13.844513,127.39349 C 10.312851,128.4667 6.767761,125.19241 6.174194,121.86095 C 5.875351,115.89336 6.331467,109.91489 6.393524,103.9449 C 3.92627,102.79627 1.765472,101.12337 0,99.057373 L 0,94.424561 C 0.697342,91.42688 1.886642,88.372025 4.352234,86.3853 C 7.482971,83.899048 11.204239,82.330109 14.669769,80.384766 C 16.440109,69.151306 21.182816,57.869797 18.58168,46.386215 C 16.706711,37.562149 11.095673,30.285782 5.569946,23.413574 C 12.819336,17.476212 19.392685,10.656113 26.893127,5.075989 C 31.411484,6.680527 35.908432,8.470169 40.703247,9.082748 C 55.20929,10.984024 70.891937,8.718643 82.959549,0 z "
     style="fill:none;stroke:#020000;stroke-width:0.1;stroke-linecap:butt;stroke-linejoin:miter;stroke-miterlimit:10" />
  <path
     id="path16"
     d="M 82.959549,0 L 83.627411,0 C 99.752502,11.269913 121.87541,12.54007 139.78052,4.867233 C 146.69643,11.139984 153.79205,17.213531 160.64641,23.554855 C 155.65219,29.56105 150.92892,35.956848 148.34003,43.41185 C 153.50168,42.51825 158.63763,41.007462 163.91573,41.113068 C 166.85559,41.247116 168.29483,44.17453 170,46.134903 L 170,48.478119 C 168.72182,52.46254 166.14029,55.822937 162.52918,57.957764 C 162.39932,62.994934 163.29553,68.713898 160.03632,73.014801 C 157.96706,75.958328 154.21353,76.533279 150.99614,77.430634 C 153.45357,90.033646 152.44467,103.40631 147.19934,115.19605 C 143.03783,124.35628 136.41975,132.56093 127.72475,137.75842 C 116.98703,144.57851 104.31207,147.0173 92.54335,151.41596 C 88.939133,152.70961 85.885284,155.05705 83.079651,157.60324 C 79.290634,153.72881 74.360916,151.31442 69.218185,149.79172 C 58.244171,146.25679 46.810501,143.34753 37.107224,136.86301 C 31.444366,133.28853 26.963028,128.194 23.095963,122.79369 C 20.038177,124.37471 17.081055,126.18762 13.844513,127.39349 C 10.312851,128.4667 6.767761,125.19241 6.174194,121.86095 C 5.875351,115.89336 6.331467,109.91489 6.393524,103.9449 C 3.92627,102.79627 1.765472,101.12337 0,99.057373 L 0,94.424561 C 0.697342,91.42688 1.886642,88.372025 4.352234,86.3853 C 7.482971,83.899048 11.204239,82.330109 14.669769,80.384766 C 16.440109,69.151306 21.182816,57.869797 18.58168,46.386215 C 16.706711,37.562149 11.095673,30.285782 5.569946,23.413574 C 12.819336,17.476212 19.392685,10.656113 26.893127,5.075989 C 31.411484,6.680527 35.908432,8.470169 40.703247,9.082748 C 55.20929,10.984024 70.891937,8.718643 82.959549,0 z "
     style="fill:#020000;fill-rule:nonzero;stroke:none" />
  <path
     id="path18"
     d="M 83.627411,0 L 170,0 L 170,46.134903 C 168.29483,44.17453 166.85559,41.247116 163.91573,41.113068 C 158.63763,41.007462 153.50168,42.51825 148.34003,43.41185 C 150.92892,35.956848 155.65219,29.56105 160.64641,23.554855 C 153.79205,17.213531 146.69643,11.139984 139.78052,4.867233 C 121.87541,12.54007 99.752502,11.269913 83.627411,0 z "
     style="fill:none;stroke:#fdfdfd;stroke-width:0.1;stroke-linecap:butt;stroke-linejoin:miter;stroke-miterlimit:10" />
  <path
     id="path22"
     d="M 27.87706,11.620819 C 45.793289,18.454895 66.503143,16.472061 83.130798,7.069229 C 94.157272,12.780258 106.48166,16.331009 118.99165,15.52861 C 125.79128,15.590057 132.20789,13.17067 138.77006,11.883179 C 143.68372,15.61528 148.0267,20.036835 152.64635,24.118896 C 148.10059,30.506332 144.11447,37.346207 141.96074,44.937637 C 134.68124,46.646484 127.39369,48.321457 120.15723,50.207642 C 120.21542,46.384018 119.06259,42.015732 114.94872,40.771637 C 109.51475,40.865448 104.39801,43.203079 99.618347,45.613037 C 93.515579,46.578537 87.424072,48.140961 81.905533,50.981842 C 77.378387,53.713577 76.070572,59.328384 76.308273,64.272659 C 65.378845,68.989883 54.208313,73.137695 43.407867,78.162674 C 42.452271,74.611389 40.488235,69.875534 36.039032,70.185226 C 30.372223,71.724594 24.885788,74.580093 20.910461,78.993423 C 22.299088,69.654083 25.569794,60.506912 24.849899,50.942169 C 24.600601,40.917313 19.204636,32.144989 13.719604,24.12323 C 18.295105,19.797531 23.029373,15.638489 27.87706,11.620819 z "
     style="fill:none;stroke:#e87026;stroke-width:0.1;stroke-linecap:butt;stroke-linejoin:miter;stroke-miterlimit:10" />
  <path
     id="path24"
     d="M 27.87706,11.620819 C 45.793289,18.454895 66.503143,16.472061 83.130798,7.069229 C 94.157272,12.780258 106.48166,16.331009 118.99165,15.52861 C 125.79128,15.590057 132.20789,13.17067 138.77006,11.883179 C 143.68372,15.61528 148.0267,20.036835 152.64635,24.118896 C 148.10059,30.506332 144.11447,37.346207 141.96074,44.937637 C 134.68124,46.646484 127.39369,48.321457 120.15723,50.207642 C 120.21542,46.384018 119.06259,42.015732 114.94872,40.771637 C 109.51475,40.865448 104.39801,43.203079 99.618347,45.613037 C 93.515579,46.578537 87.424072,48.140961 81.905533,50.981842 C 77.378387,53.713577 76.070572,59.328384 76.308273,64.272659 C 65.378845,68.989883 54.208313,73.137695 43.407867,78.162674 C 42.452271,74.611389 40.488235,69.875534 36.039032,70.185226 C 30.372223,71.724594 24.885788,74.580093 20.910461,78.993423 C 22.299088,69.654083 25.569794,60.506912 24.849899,50.942169 C 24.600601,40.917313 19.204636,32.144989 13.719604,24.12323 C 18.295105,19.797531 23.029373,15.638489 27.87706,11.620819 z "
     style="fill:#e87026;fill-rule:nonzero;stroke:none" />
  <path
     id="path26"
     d="M 36.050278,17.641541 C 51.864487,21.111984 68.798447,18.633713 83.126938,11.164719 C 96.40657,17.677979 111.57076,20.671768 126.26871,18.302444 C 130.15552,17.847763 133.86873,16.312073 137.79608,16.19751 C 141.68414,18.370789 144.61949,21.845612 147.87242,24.825394 C 146.68111,26.613876 145.60167,28.500244 144.15703,30.10054 C 140.86964,31.235107 137.34847,31.425125 133.95186,32.088715 C 96.802231,38.775009 60.909088,51.502502 27.11882,68.209732 C 28.153122,60.284561 29.520737,52.141586 27.624207,44.229874 C 26.139847,37.132034 22.340378,30.862885 18.546799,24.79245 C 21.677521,21.816132 24.682022,18.613083 28.324524,16.254669 C 30.965714,16.174774 33.476471,17.196472 36.050278,17.641541 z "
     style="fill:none;stroke:#020000;stroke-width:0.1;stroke-linecap:butt;stroke-linejoin:miter;stroke-miterlimit:10" />
  <path
     id="path28"
     d="M 36.050278,17.641541 C 51.864487,21.111984 68.798447,18.633713 83.126938,11.164719 C 96.40657,17.677979 111.57076,20.671768 126.26871,18.302444 C 130.15552,17.847763 133.86873,16.312073 137.79608,16.19751 C 141.68414,18.370789 144.61949,21.845612 147.87242,24.825394 C 146.68111,26.613876 145.60167,28.500244 144.15703,30.10054 C 140.86964,31.235107 137.34847,31.425125 133.95186,32.088715 C 96.802231,38.775009 60.909088,51.502502 27.11882,68.209732 C 28.153122,60.284561 29.520737,52.141586 27.624207,44.229874 C 26.139847,37.132034 22.340378,30.862885 18.546799,24.79245 C 21.677521,21.816132 24.682022,18.613083 28.324524,16.254669 C 30.965714,16.174774 33.476471,17.196472 36.050278,17.641541 z "
     style="fill:#020000;fill-rule:nonzero;stroke:none" />
  <path
     id="path30"
     d="M 106.56921,46.564499 C 109.60555,45.972275 113.05724,43.380508 115.89499,45.766739 C 111.83333,52.187363 105.94046,57.25296 102.14534,63.861328 C 104.11649,67.1082 106.27905,70.260773 108.92438,73.002945 C 110.29269,67.335617 108.47383,58.982635 114.74591,55.909973 C 125.55139,52.642303 136.54215,49.931976 147.59132,47.585541 C 153.30602,46.513596 158.98442,44.734802 164.84564,44.838318 C 165.43501,49.400177 162.14471,53.030701 157.87071,53.996567 C 157.44252,59.565948 159.56065,66.648682 154.95674,70.933075 C 150.67397,72.960693 145.74823,73.14772 141.20801,74.43251 C 138.87265,75.204819 135.75693,74.983276 134.71268,72.369827 C 133.87431,67.696762 135.06537,62.960297 135.37955,58.288925 C 134.91513,58.559738 133.9863,59.101364 133.52188,59.372177 C 132.1463,64.475677 133.62155,70.192657 130.99142,74.985641 C 129.32388,78.077042 125.51811,78.298431 122.52542,79.215622 C 115.95062,80.779282 109.57777,83.044434 103.06892,84.834625 C 100.35396,81.255371 98.216949,77.293198 95.77916,73.530762 C 94.981934,78.251389 94.633865,83.039871 93.717758,87.74234 C 90.495789,89.101151 87.215179,90.386169 83.768173,91.04454 C 82.988998,85.234177 84.85144,79.478058 84.846848,73.66037 C 84.291687,73.946075 83.181351,74.517471 82.62619,74.803177 C 81.318176,80.823273 83.580765,88.735886 78.115341,93.075974 C 72.891693,95.699417 67.269165,97.468719 61.836487,99.618668 C 55.253494,96.687088 60.360428,88.744949 58.306641,83.560333 C 54.954132,88.767563 58.411453,95.72673 55.010513,100.99947 C 53.657501,103.47485 50.833054,104.32398 48.427673,105.39783 C 41.877594,108.15561 35.546295,111.40385 29.000946,114.16779 C 26.170334,111.30269 23.508438,108.27826 20.820374,105.28212 C 20.512924,109.64105 20.542603,114.01602 20.315933,118.37987 C 17.189148,120.24797 14.049454,122.32964 10.420151,123.0526 C 8.807007,114.18369 10.926392,105.14487 10.34938,96.187561 C 8.479492,97.167999 6.606689,98.145676 4.676422,99.005508 C 2.780777,95.886139 4.145279,91.948685 6.51001,89.500992 C 8.516983,87.72049 11.036469,86.677231 13.356384,85.380066 C 15.861633,84.197983 18.183578,82.163498 21.131668,82.457809 C 21.30925,84.044632 21.455597,85.635452 21.570694,87.230255 C 23.828461,83.722748 24.96283,78.876038 29.174484,77.179428 C 31.994507,75.802856 34.774765,73.965881 38.044983,74.061066 C 37.844589,75.408432 37.799606,76.847809 36.930389,77.977432 C 33.432037,83.701813 29.152573,88.961212 26.29129,95.063492 C 28.587158,97.725952 31.162521,100.12531 33.611343,102.6441 C 33.769333,98.371231 34.043304,94.092911 34.657227,89.861069 C 35.182281,87.067551 37.525345,85.141449 40.007645,84.059753 C 55.095825,76.936874 70.511215,70.491684 86.216431,64.85675 C 86.259552,64.138062 86.345825,62.700684 86.388947,61.981979 C 84.322693,62.45314 82.27417,63.013779 80.175827,63.323486 C 79.76825,59.620041 81.133835,55.297958 84.799698,53.737762 C 88.809555,52.240631 92.851471,50.757614 97.006882,49.715591 C 98.923355,50.484726 98.064819,53.090744 98.572754,54.66394 C 100.92453,51.731247 102.5128,47.441147 106.56921,46.564499 z "
     style="fill:none;stroke:#fdfdfd;stroke-width:0.1;stroke-linecap:butt;stroke-linejoin:miter;stroke-miterlimit:10" />
  <path
     id="path32"
     d="M 106.56921,46.564499 C 109.60555,45.972275 113.05724,43.380508 115.89499,45.766739 C 111.83333,52.187363 105.94046,57.25296 102.14534,63.861328 C 104.11649,67.1082 106.27905,70.260773 108.92438,73.002945 C 110.29269,67.335617 108.47383,58.982635 114.74591,55.909973 C 125.55139,52.642303 136.54215,49.931976 147.59132,47.585541 C 153.30602,46.513596 158.98442,44.734802 164.84564,44.838318 C 165.43501,49.400177 162.14471,53.030701 157.87071,53.996567 C 157.44252,59.565948 159.56065,66.648682 154.95674,70.933075 C 150.67397,72.960693 145.74823,73.14772 141.20801,74.43251 C 138.87265,75.204819 135.75693,74.983276 134.71268,72.369827 C 133.87431,67.696762 135.06537,62.960297 135.37955,58.288925 C 134.91513,58.559738 133.9863,59.101364 133.52188,59.372177 C 132.1463,64.475677 133.62155,70.192657 130.99142,74.985641 C 129.32388,78.077042 125.51811,78.298431 122.52542,79.215622 C 115.95062,80.779282 109.57777,83.044434 103.06892,84.834625 C 100.35396,81.255371 98.216949,77.293198 95.77916,73.530762 C 94.981934,78.251389 94.633865,83.039871 93.717758,87.74234 C 90.495789,89.101151 87.215179,90.386169 83.768173,91.04454 C 82.988998,85.234177 84.85144,79.478058 84.846848,73.66037 C 84.291687,73.946075 83.181351,74.517471 82.62619,74.803177 C 81.318176,80.823273 83.580765,88.735886 78.115341,93.075974 C 72.891693,95.699417 67.269165,97.468719 61.836487,99.618668 C 55.253494,96.687088 60.360428,88.744949 58.306641,83.560333 C 54.954132,88.767563 58.411453,95.72673 55.010513,100.99947 C 53.657501,103.47485 50.833054,104.32398 48.427673,105.39783 C 41.877594,108.15561 35.546295,111.40385 29.000946,114.16779 C 26.170334,111.30269 23.508438,108.27826 20.820374,105.28212 C 20.512924,109.64105 20.542603,114.01602 20.315933,118.37987 C 17.189148,120.24797 14.049454,122.32964 10.420151,123.0526 C 8.807007,114.18369 10.926392,105.14487 10.34938,96.187561 C 8.479492,97.167999 6.606689,98.145676 4.676422,99.005508 C 2.780777,95.886139 4.145279,91.948685 6.51001,89.500992 C 8.516983,87.72049 11.036469,86.677231 13.356384,85.380066 C 15.861633,84.197983 18.183578,82.163498 21.131668,82.457809 C 21.30925,84.044632 21.455597,85.635452 21.570694,87.230255 C 23.828461,83.722748 24.96283,78.876038 29.174484,77.179428 C 31.994507,75.802856 34.774765,73.965881 38.044983,74.061066 C 37.844589,75.408432 37.799606,76.847809 36.930389,77.977432 C 33.432037,83.701813 29.152573,88.961212 26.29129,95.063492 C 28.587158,97.725952 31.162521,100.12531 33.611343,102.6441 C 33.769333,98.371231 34.043304,94.092911 34.657227,89.861069 C 35.182281,87.067551 37.525345,85.141449 40.007645,84.059753 C 55.095825,76.936874 70.511215,70.491684 86.216431,64.85675 C 86.259552,64.138062 86.345825,62.700684 86.388947,61.981979 C 84.322693,62.45314 82.27417,63.013779 80.175827,63.323486 C 79.76825,59.620041 81.133835,55.297958 84.799698,53.737762 C 88.809555,52.240631 92.851471,50.757614 97.006882,49.715591 C 98.923355,50.484726 98.064819,53.090744 98.572754,54.66394 C 100.92453,51.731247 102.5128,47.441147 106.56921,46.564499 z "
     style="fill:#fdfdfd;fill-rule:nonzero;stroke:none" />
  <path
     id="path34"
     d="M 144.37839,50.328949 C 150.54477,49.021179 156.75102,46.808304 163.14053,47.671936 C 161.21216,50.97908 155.5509,51.409866 155.86556,55.922241 C 155.20001,60.235657 156.91916,65.334442 154.09383,69.062912 C 148.485,71.072586 142.54947,72.637405 136.54909,72.637131 C 135.93433,67.013901 137.1151,61.450775 137.54112,55.867523 C 135.57182,56.445328 133.61765,57.064621 131.66885,57.701065 C 130.6207,62.403564 130.79091,67.252014 130.06104,71.98761 C 129.72781,74.45137 127.39012,75.708405 125.23274,76.324539 C 120.42319,77.773697 115.6142,79.610764 110.52716,79.66774 C 110.34541,74.1203 111.38049,68.643616 112.21729,63.186356 C 112.49844,60.945923 113.45122,58.45903 115.85608,57.799988 C 125.13245,54.529724 134.86244,52.766006 144.37839,50.328949 z "
     style="fill:none;stroke:#e87026;stroke-width:0.1;stroke-linecap:butt;stroke-linejoin:miter;stroke-miterlimit:10" />
  <path
     id="path36"
     d="M 144.37839,50.328949 C 150.54477,49.021179 156.75102,46.808304 163.14053,47.671936 C 161.21216,50.97908 155.5509,51.409866 155.86556,55.922241 C 155.20001,60.235657 156.91916,65.334442 154.09383,69.062912 C 148.485,71.072586 142.54947,72.637405 136.54909,72.637131 C 135.93433,67.013901 137.1151,61.450775 137.54112,55.867523 C 135.57182,56.445328 133.61765,57.064621 131.66885,57.701065 C 130.6207,62.403564 130.79091,67.252014 130.06104,71.98761 C 129.72781,74.45137 127.39012,75.708405 125.23274,76.324539 C 120.42319,77.773697 115.6142,79.610764 110.52716,79.66774 C 110.34541,74.1203 111.38049,68.643616 112.21729,63.186356 C 112.49844,60.945923 113.45122,58.45903 115.85608,57.799988 C 125.13245,54.529724 134.86244,52.766006 144.37839,50.328949 z "
     style="fill:#e87026;fill-rule:nonzero;stroke:none" />
  <path
     id="path38"
     d="M 104.35634,50.354309 C 106.10547,48.158707 109.13802,48.096069 111.64165,47.439255 C 108.60892,53.422729 102.17943,57.413071 100.42226,64.002365 C 102.57051,70.113297 108.06992,74.348083 110.75284,80.239914 C 108.48978,81.031189 106.21869,81.797333 103.93233,82.514755 C 101.21736,78.426025 98.656158,74.235809 95.831116,70.221451 C 91.763275,74.674332 93.786743,81.275375 91.426804,86.385788 C 89.544479,87.341736 87.477356,87.847015 85.46611,88.448212 C 86.133224,78.668365 87.728775,68.983688 88.779236,59.241806 C 86.531723,59.596375 84.337479,60.228012 82.081024,60.524796 C 82.933029,58.935242 83.225861,56.761368 85.027939,55.919708 C 88.465729,54.194931 92.252151,53.337738 95.879272,52.104294 C 95.75499,55.41925 95.603821,58.733124 95.456573,62.047806 C 98.533432,58.23378 101.16705,54.076736 104.35634,50.354309 z "
     style="fill:none;stroke:#e87026;stroke-width:0.1;stroke-linecap:butt;stroke-linejoin:miter;stroke-miterlimit:10" />
  <path
     id="path40"
     d="M 104.35634,50.354309 C 106.10547,48.158707 109.13802,48.096069 111.64165,47.439255 C 108.60892,53.422729 102.17943,57.413071 100.42226,64.002365 C 102.57051,70.113297 108.06992,74.348083 110.75284,80.239914 C 108.48978,81.031189 106.21869,81.797333 103.93233,82.514755 C 101.21736,78.426025 98.656158,74.235809 95.831116,70.221451 C 91.763275,74.674332 93.786743,81.275375 91.426804,86.385788 C 89.544479,87.341736 87.477356,87.847015 85.46611,88.448212 C 86.133224,78.668365 87.728775,68.983688 88.779236,59.241806 C 86.531723,59.596375 84.337479,60.228012 82.081024,60.524796 C 82.933029,58.935242 83.225861,56.761368 85.027939,55.919708 C 88.465729,54.194931 92.252151,53.337738 95.879272,52.104294 C 95.75499,55.41925 95.603821,58.733124 95.456573,62.047806 C 98.533432,58.23378 101.16705,54.076736 104.35634,50.354309 z "
     style="fill:#e87026;fill-rule:nonzero;stroke:none" />
  <path
     id="path42"
     d="M 162.52918,57.957764 C 166.14029,55.822937 168.72182,52.46254 170,48.478119 L 170,166 L 0,166 L 0,99.057373 C 1.765472,101.12337 3.92627,102.79627 6.393524,103.9449 C 6.331467,109.91489 5.875351,115.89336 6.174194,121.86095 C 6.767761,125.19241 10.312851,128.4667 13.844513,127.39349 C 17.081055,126.18762 20.038177,124.37471 23.095963,122.79369 C 26.963028,128.194 31.444366,133.28853 37.107224,136.86301 C 46.810501,143.34753 58.244171,146.25679 69.218185,149.79172 C 74.360916,151.31442 79.290634,153.72881 83.079651,157.60324 C 85.885284,155.05705 88.939133,152.70961 92.54335,151.41596 C 104.31207,147.0173 116.98703,144.57851 127.72475,137.75842 C 136.41975,132.56093 143.03783,124.35628 147.19934,115.19605 C 152.44467,103.40631 153.45357,90.033646 150.99614,77.430634 C 154.21353,76.533279 157.96706,75.958328 160.03632,73.014801 C 163.29553,68.713898 162.39932,62.994934 162.52918,57.957764 z "
     style="fill:none;stroke:#fdfdfd;stroke-width:0.1;stroke-linecap:butt;stroke-linejoin:miter;stroke-miterlimit:10" />
  <path
     id="path46"
     d="M 144.498,54.530487 C 146.28523,54.376526 148.07272,54.214615 149.86232,54.051971 C 149.7639,57.933716 149.48911,61.808029 149.29967,65.686417 C 147.3325,66.141083 145.35129,66.52861 143.36469,66.875397 C 143.29419,62.729797 143.66556,58.592148 144.498,54.530487 z "
     style="fill:none;stroke:#fdfdfd;stroke-width:0.1;stroke-linecap:butt;stroke-linejoin:miter;stroke-miterlimit:10" />
  <path
     id="path48"
     d="M 144.498,54.530487 C 146.28523,54.376526 148.07272,54.214615 149.86232,54.051971 C 149.7639,57.933716 149.48911,61.808029 149.29967,65.686417 C 147.3325,66.141083 145.35129,66.52861 143.36469,66.875397 C 143.29419,62.729797 143.66556,58.592148 144.498,54.530487 z "
     style="fill:#fdfdfd;fill-rule:nonzero;stroke:none" />
  <path
     id="path50"
     d="M 145.38567,64.762589 C 146.01428,61.718857 144.66887,57.518555 147.6017,55.492798 C 147.75615,58.384155 147.5771,61.277252 147.42322,64.1651 C 146.91383,64.314468 145.89505,64.61322 145.38567,64.762589 z "
     style="fill:none;stroke:#020000;stroke-width:0.1;stroke-linecap:butt;stroke-linejoin:miter;stroke-miterlimit:10" />
  <path
     id="path52"
     d="M 145.38567,64.762589 C 146.01428,61.718857 144.66887,57.518555 147.6017,55.492798 C 147.75615,58.384155 147.5771,61.277252 147.42322,64.1651 C 146.91383,64.314468 145.89505,64.61322 145.38567,64.762589 z "
     style="fill:#020000;fill-rule:nonzero;stroke:none" />
  <path
     id="path54"
     d="M 118.97426,61.937653 C 120.29305,60.128723 122.8717,60.512436 124.80875,59.963058 C 124.55441,64.096924 124.11716,68.219177 123.44527,72.307159 C 121.49149,72.691803 119.54788,73.123871 117.59973,73.524368 C 117.84613,69.652237 117.90134,65.688751 118.97426,61.937653 z "
     style="fill:none;stroke:#fdfdfd;stroke-width:0.1;stroke-linecap:butt;stroke-linejoin:miter;stroke-miterlimit:10" />
  <path
     id="path56"
     d="M 118.97426,61.937653 C 120.29305,60.128723 122.8717,60.512436 124.80875,59.963058 C 124.55441,64.096924 124.11716,68.219177 123.44527,72.307159 C 121.49149,72.691803 119.54788,73.123871 117.59973,73.524368 C 117.84613,69.652237 117.90134,65.688751 118.97426,61.937653 z "
     style="fill:#fdfdfd;fill-rule:nonzero;stroke:none" />
  <path
     id="path58"
     d="M 119.88211,71.555435 C 120.35695,68.243103 119.50078,64.037476 122.39188,61.658798 C 122.33012,64.923569 123.36054,69.660767 119.88211,71.555435 z "
     style="fill:none;stroke:#020000;stroke-width:0.1;stroke-linecap:butt;stroke-linejoin:miter;stroke-miterlimit:10" />
  <path
     id="path60"
     d="M 119.88211,71.555435 C 120.35695,68.243103 119.50078,64.037476 122.39188,61.658798 C 122.33012,64.923569 123.36054,69.660767 119.88211,71.555435 z "
     style="fill:#020000;fill-rule:nonzero;stroke:none" />
  <path
     id="path62"
     d="M 70.234558,73.158936 C 75.814636,71.072098 81.151688,68.228653 87.035233,67.048492 C 86.576355,70.743378 82.722321,71.965256 80.751923,74.644226 C 79.896027,79.172531 80.096939,83.845261 79.219254,88.374817 C 78.582993,90.893387 75.946472,91.933624 73.791779,92.837479 C 69.426895,94.446152 65.18898,96.830093 60.418076,96.862747 C 60.155746,91.512253 60.999954,86.210464 61.335907,80.887375 C 59.421188,81.703705 57.352554,82.336853 55.751205,83.722794 C 53.988983,88.336594 55.066391,93.383499 54.178589,98.144623 C 53.437729,101.29587 50.110611,102.42633 47.51622,103.65767 C 44.054779,105.06293 40.740738,106.94746 37.082291,107.79468 C 36.740982,107.59245 36.058334,107.188 35.717026,106.98578 C 35.323624,101.50391 35.719299,95.953018 36.542206,90.525986 C 36.956512,87.943695 39.454559,86.584381 41.584595,85.547028 C 51.007507,81.133789 60.504303,76.85675 70.234558,73.158936 z "
     style="fill:none;stroke:#e87026;stroke-width:0.1;stroke-linecap:butt;stroke-linejoin:miter;stroke-miterlimit:10" />
  <path
     id="path64"
     d="M 70.234558,73.158936 C 75.814636,71.072098 81.151688,68.228653 87.035233,67.048492 C 86.576355,70.743378 82.722321,71.965256 80.751923,74.644226 C 79.896027,79.172531 80.096939,83.845261 79.219254,88.374817 C 78.582993,90.893387 75.946472,91.933624 73.791779,92.837479 C 69.426895,94.446152 65.18898,96.830093 60.418076,96.862747 C 60.155746,91.512253 60.999954,86.210464 61.335907,80.887375 C 59.421188,81.703705 57.352554,82.336853 55.751205,83.722794 C 53.988983,88.336594 55.066391,93.383499 54.178589,98.144623 C 53.437729,101.29587 50.110611,102.42633 47.51622,103.65767 C 44.054779,105.06293 40.740738,106.94746 37.082291,107.79468 C 36.740982,107.59245 36.058334,107.188 35.717026,106.98578 C 35.323624,101.50391 35.719299,95.953018 36.542206,90.525986 C 36.956512,87.943695 39.454559,86.584381 41.584595,85.547028 C 51.007507,81.133789 60.504303,76.85675 70.234558,73.158936 z "
     style="fill:#e87026;fill-rule:nonzero;stroke:none" />
  <path
     id="path66"
     d="M 68.254303,78.515503 C 70.113815,77.716553 72.004074,76.991196 73.861786,76.186478 C 73.779953,80.252029 73.482224,84.308365 73.220718,88.365936 C 71.281982,89.265228 69.322266,90.117065 67.353882,90.948074 C 67.312424,86.787872 67.479294,82.611115 68.254303,78.515503 z "
     style="fill:none;stroke:#fdfdfd;stroke-width:0.1;stroke-linecap:butt;stroke-linejoin:miter;stroke-miterlimit:10" />
  <path
     id="path68"
     d="M 68.254303,78.515503 C 70.113815,77.716553 72.004074,76.991196 73.861786,76.186478 C 73.779953,80.252029 73.482224,84.308365 73.220718,88.365936 C 71.281982,89.265228 69.322266,90.117065 67.353882,90.948074 C 67.312424,86.787872 67.479294,82.611115 68.254303,78.515503 z "
     style="fill:#fdfdfd;fill-rule:nonzero;stroke:none" />
  <path
     id="path70"
     d="M 27.339935,81.304871 C 28.990463,78.9048 31.99942,78.182739 34.562454,77.198181 C 31.713242,83.208572 26.877014,88.097488 24.574432,94.386398 C 24.040604,95.477554 25.180878,96.458572 25.647827,97.352097 C 28.839966,101.23911 32.870407,104.34885 36.006851,108.2979 C 34.025742,109.59741 31.920944,110.69048 29.869858,111.87329 C 26.726456,108.72235 23.666351,105.4901 20.540451,102.32272 C 17.124466,106.48413 19.144104,112.10954 18.246979,116.97517 C 16.737152,118.81599 14.295334,119.36432 12.217377,120.30733 C 11.255173,111.2464 12.66893,102.16499 12.396042,93.083389 C 10.152985,93.985382 7.941498,94.965683 5.676468,95.813904 C 6.36586,93.941803 6.654663,91.633392 8.521896,90.50882 C 11.873657,88.250351 15.561646,86.54303 19.255737,84.928223 C 19.315933,88.062302 19.299469,91.198212 19.423676,94.33223 C 22.44426,90.224258 24.436127,85.482681 27.339935,81.304871 z "
     style="fill:none;stroke:#e87026;stroke-width:0.1;stroke-linecap:butt;stroke-linejoin:miter;stroke-miterlimit:10" />
  <path
     id="path72"
     d="M 27.339935,81.304871 C 28.990463,78.9048 31.99942,78.182739 34.562454,77.198181 C 31.713242,83.208572 26.877014,88.097488 24.574432,94.386398 C 24.040604,95.477554 25.180878,96.458572 25.647827,97.352097 C 28.839966,101.23911 32.870407,104.34885 36.006851,108.2979 C 34.025742,109.59741 31.920944,110.69048 29.869858,111.87329 C 26.726456,108.72235 23.666351,105.4901 20.540451,102.32272 C 17.124466,106.48413 19.144104,112.10954 18.246979,116.97517 C 16.737152,118.81599 14.295334,119.36432 12.217377,120.30733 C 11.255173,111.2464 12.66893,102.16499 12.396042,93.083389 C 10.152985,93.985382 7.941498,94.965683 5.676468,95.813904 C 6.36586,93.941803 6.654663,91.633392 8.521896,90.50882 C 11.873657,88.250351 15.561646,86.54303 19.255737,84.928223 C 19.315933,88.062302 19.299469,91.198212 19.423676,94.33223 C 22.44426,90.224258 24.436127,85.482681 27.339935,81.304871 z "
     style="fill:#e87026;fill-rule:nonzero;stroke:none" />
  <path
     id="path74"
     d="M 126.36938,83.305008 C 129.5529,82.604019 132.20459,80.655975 135.11476,79.319748 C 138.61617,79.424759 142.11835,79.468658 145.60913,79.088577 C 148.18962,93.715652 145.87941,109.71762 136.74141,121.75179 C 130.91449,129.93636 122.00494,135.34316 112.62131,138.54388 C 102.81747,142.35368 92.175369,144.12129 83.136124,149.74982 C 70.695831,142.26141 55.63353,141.12175 43.103622,133.7941 C 36.52417,130.22343 31.260925,124.71927 27.109024,118.56094 C 30.0914,118.59976 33.081589,118.16686 35.723236,116.70373 C 43.873978,112.46198 52.982819,109.9119 60.164948,104.02338 C 68.598145,103.63738 76.112991,99.293015 83.613586,95.851074 C 89.404968,94.445404 97.236053,93.888947 99.297165,87.129272 C 101.62622,88.145721 104.09787,89.842667 106.73453,88.831497 C 113.28534,87.014877 119.77683,84.978683 126.36938,83.305008 z "
     style="fill:none;stroke:#e87026;stroke-width:0.1;stroke-linecap:butt;stroke-linejoin:miter;stroke-miterlimit:10" />
  <path
     id="path76"
     d="M 126.36938,83.305008 C 129.5529,82.604019 132.20459,80.655975 135.11476,79.319748 C 138.61617,79.424759 142.11835,79.468658 145.60913,79.088577 C 148.18962,93.715652 145.87941,109.71762 136.74141,121.75179 C 130.91449,129.93636 122.00494,135.34316 112.62131,138.54388 C 102.81747,142.35368 92.175369,144.12129 83.136124,149.74982 C 70.695831,142.26141 55.63353,141.12175 43.103622,133.7941 C 36.52417,130.22343 31.260925,124.71927 27.109024,118.56094 C 30.0914,118.59976 33.081589,118.16686 35.723236,116.70373 C 43.873978,112.46198 52.982819,109.9119 60.164948,104.02338 C 68.598145,103.63738 76.112991,99.293015 83.613586,95.851074 C 89.404968,94.445404 97.236053,93.888947 99.297165,87.129272 C 101.62622,88.145721 104.09787,89.842667 106.73453,88.831497 C 113.28534,87.014877 119.77683,84.978683 126.36938,83.305008 z "
     style="fill:#e87026;fill-rule:nonzero;stroke:none" />
  <path
     id="path78"
     d="M 69.413788,88.426163 C 69.478653,85.073059 69.202362,81.381836 71.237549,78.49794 C 71.784973,81.75119 72.506104,86.229309 69.413788,88.426163 z "
     style="fill:none;stroke:#020000;stroke-width:0.1;stroke-linecap:butt;stroke-linejoin:miter;stroke-miterlimit:10" />
  <path
     id="path80"
     d="M 69.413788,88.426163 C 69.478653,85.073059 69.202362,81.381836 71.237549,78.49794 C 71.784973,81.75119 72.506104,86.229309 69.413788,88.426163 z "
     style="fill:#020000;fill-rule:nonzero;stroke:none" />
  <path
     id="path82"
     d="M 42.643967,89.585159 C 44.597168,88.643845 46.581116,87.769424 48.568268,86.902618 C 48.513947,90.190399 48.49472,93.484421 48.250488,96.765915 C 48.380737,99.946411 44.447983,100.21745 42.311493,101.34815 C 42.278366,97.42366 42.413467,93.501343 42.643967,89.585159 z "
     style="fill:none;stroke:#fdfdfd;stroke-width:0.1;stroke-linecap:butt;stroke-linejoin:miter;stroke-miterlimit:10" />
  <path
     id="path84"
     d="M 42.643967,89.585159 C 44.597168,88.643845 46.581116,87.769424 48.568268,86.902618 C 48.513947,90.190399 48.49472,93.484421 48.250488,96.765915 C 48.380737,99.946411 44.447983,100.21745 42.311493,101.34815 C 42.278366,97.42366 42.413467,93.501343 42.643967,89.585159 z "
     style="fill:#fdfdfd;fill-rule:nonzero;stroke:none" />
  <path
     id="path86"
     d="M 72.616348,106.63858 C 95.370102,97.827133 119.04506,91.238174 143.17955,87.579483 C 143.61456,102.19341 138.56232,117.52063 126.94,126.94049 C 114.12955,136.93751 97.233582,138.16115 83.07106,145.43138 C 67.666107,137.51061 48.558533,136.61777 35.838318,123.80286 C 47.577637,117.05756 60.062363,111.67687 72.616348,106.63858 z "
     style="fill:none;stroke:#020000;stroke-width:0.1;stroke-linecap:butt;stroke-linejoin:miter;stroke-miterlimit:10" />
  <path
     id="path88"
     d="M 72.616348,106.63858 C 95.370102,97.827133 119.04506,91.238174 143.17955,87.579483 C 143.61456,102.19341 138.56232,117.52063 126.94,126.94049 C 114.12955,136.93751 97.233582,138.16115 83.07106,145.43138 C 67.666107,137.51061 48.558533,136.61777 35.838318,123.80286 C 47.577637,117.05756 60.062363,111.67687 72.616348,106.63858 z "
     style="fill:#020000;fill-rule:nonzero;stroke:none" />
  <path
     id="path90"
     d="M 44.704437,90.684967 C 45.180573,90.520737 46.132812,90.192261 46.608948,90.02803 C 46.225113,93.037186 47.353714,96.838943 44.391525,98.816177 C 44.313995,96.099976 44.516327,93.390717 44.704437,90.684967 z "
     style="fill:none;stroke:#020000;stroke-width:0.1;stroke-linecap:butt;stroke-linejoin:miter;stroke-miterlimit:10" />
  <path
     id="path92"
     d="M 44.704437,90.684967 C 45.180573,90.520737 46.132812,90.192261 46.608948,90.02803 C 46.225113,93.037186 47.353714,96.838943 44.391525,98.816177 C 44.313995,96.099976 44.516327,93.390717 44.704437,90.684967 z "
     style="fill:#020000;fill-rule:nonzero;stroke:none" />
</svg>
