<?xml version="1.0" standalone="no"?>
<!DOCTYPE svg PUBLIC "-//W3C//DTD SVG 20010904//EN"
 "http://www.w3.org/TR/2001/REC-SVG-20010904/DTD/svg10.dtd">
<svg version="1.0" xmlns="http://www.w3.org/2000/svg"
 width="1023.000000pt" height="803.000000pt" viewBox="0 0 1023.000000 803.000000"
 preserveAspectRatio="xMidYMid meet">
<metadata>
Created by potrace 1.11, written by Peter Selinger 2001-2013
</metadata>
<g transform="translate(0.000000,803.000000) scale(0.100000,-0.100000)"
fill="#000000" stroke="none">
<path d="M4795 8024 c-22 -2 -89 -9 -149 -14 -337 -33 -718 -132 -1045 -272
-582 -248 -1119 -675 -1481 -1177 -148 -205 -112 -176 -325 -258 -105 -40
-299 -114 -433 -165 -194 -74 -244 -96 -247 -113 -25 -109 -226 -1227 -222
-1231 3 -3 125 40 271 95 147 56 271 101 277 101 6 0 8 -8 5 -17 -3 -10 -80
-423 -171 -918 -217 -1176 -234 -1268 -241 -1274 -3 -3 -130 -54 -282 -112
l-277 -107 -48 -253 c-26 -140 -79 -423 -117 -629 -163 -882 -301 -1627 -306
-1653 l-6 -28 34 14 c18 8 242 110 498 227 1819 831 2440 1115 2475 1130 l39
16 115 -69 c153 -93 443 -233 611 -296 243 -90 514 -157 800 -197 179 -26 720
-26 900 -1 591 82 1085 266 1554 577 746 494 1291 1265 1510 2138 76 303 101
524 101 887 l0 290 110 0 c82 0 124 5 165 19 71 25 461 174 466 178 2 3 55
283 180 957 14 73 24 137 22 141 -2 4 -54 -12 -117 -36 -63 -24 -115 -43 -116
-42 -2 2 10 73 26 158 83 435 207 1115 204 1118 -1 1 -101 -35 -221 -82 -121
-46 -415 -159 -654 -250 -247 -95 -505 -201 -596 -245 l-161 -79 -36 48 c-425
570 -1060 1022 -1756 1250 -367 121 -660 169 -1061 174 -140 2 -273 2 -295 0z
m505 -254 c432 -38 808 -141 1188 -325 84 -41 192 -97 240 -126 96 -58 322
-209 322 -216 0 -3 -15 4 -32 15 -458 281 -911 441 -1468 519 -156 21 -710 25
-860 5 -421 -55 -744 -142 -1090 -291 -400 -173 -756 -412 -1085 -731 -82 -80
-143 -136 -134 -125 71 91 198 231 306 336 548 534 1246 857 2015 934 164 16
445 18 598 5z m3987 -932 c-3 -13 -17 -86 -31 -163 -14 -77 -32 -174 -40 -215
-8 -41 -22 -115 -31 -165 -9 -49 -20 -110 -25 -135 -5 -25 -16 -85 -25 -135
-9 -49 -23 -126 -32 -170 -20 -103 -13 -162 22 -192 30 -26 63 -28 120 -8 21
8 41 12 44 9 5 -4 -6 -67 -44 -259 -8 -38 -24 -128 -37 -198 -26 -150 -5 -129
-210 -206 -114 -42 -148 -51 -203 -51 -132 0 -207 71 -250 237 l-23 87 -22
-45 c-107 -212 -298 -439 -471 -562 -123 -87 -320 -167 -410 -167 -108 0 -184
62 -219 179 -20 65 -22 88 -17 214 2 78 10 165 16 192 6 28 32 159 56 292 24
133 51 270 60 303 74 284 202 466 440 623 155 102 300 167 800 357 99 38 254
98 345 134 91 35 171 65 179 65 9 1 11 -6 8 -21z m-6958 -658 c19 -5 50 -24
68 -42 88 -85 90 -236 8 -673 -57 -306 -63 -338 -115 -625 -17 -91 -37 -201
-45 -245 -12 -65 -63 -343 -90 -490 -3 -16 -18 -102 -34 -190 -39 -213 -97
-534 -121 -670 -26 -146 -26 -230 0 -272 35 -58 79 -51 368 59 296 112 360
142 445 213 177 146 292 361 337 630 6 39 18 104 26 145 20 106 70 381 85 468
7 40 17 76 23 81 13 9 597 231 610 231 8 0 3 -42 -20 -160 -16 -82 -25 -129
-49 -265 -9 -49 -22 -121 -30 -160 -15 -80 -36 -192 -65 -348 -22 -121 -26
-214 -9 -251 17 -37 59 -51 106 -36 102 33 271 172 358 295 49 69 105 178 129
250 18 56 57 244 111 540 20 110 44 238 53 284 l17 84 310 118 c170 65 311
116 313 114 2 -2 -1 -27 -7 -57 -11 -55 -27 -140 -55 -288 -9 -47 -34 -184
-56 -305 -22 -121 -47 -256 -56 -300 -10 -44 -17 -112 -18 -152 0 -63 3 -75
23 -97 42 -45 108 -30 228 52 200 137 337 353 388 612 31 157 55 257 80 334
89 271 254 447 574 610 117 59 227 104 716 291 545 208 486 188 480 162 -3
-12 -32 -168 -65 -347 -59 -322 -84 -453 -100 -540 -5 -25 -16 -85 -25 -135
-9 -49 -22 -121 -30 -160 -25 -134 -46 -242 -110 -592 -36 -194 -77 -391 -91
-439 -84 -290 -228 -493 -454 -639 -130 -85 -315 -172 -1880 -890 -966 -443
-1464 -671 -1945 -890 -220 -100 -535 -244 -700 -320 -276 -126 -517 -236
-1375 -628 -221 -101 -316 -140 -318 -130 -3 12 3 50 44 263 23 125 70 376 99
531 l27 146 251 101 c773 309 4639 1850 5177 2062 157 62 303 124 325 138 101
62 181 167 229 300 24 68 100 435 94 454 -2 4 -31 -34 -64 -85 -141 -212 -314
-371 -509 -470 -146 -73 -245 -85 -334 -41 -78 39 -138 136 -157 254 -4 22
-10 40 -15 40 -5 0 -9 -5 -9 -11 0 -19 -108 -195 -172 -280 -179 -237 -452
-433 -659 -472 -111 -20 -215 24 -282 120 -16 22 -41 75 -56 118 l-28 78 -41
-75 c-174 -318 -407 -545 -682 -667 -85 -38 -196 -51 -267 -32 -65 18 -140 92
-180 178 -18 39 -33 81 -33 92 0 41 -20 30 -50 -29 -113 -223 -312 -450 -507
-577 -103 -67 -129 -79 -513 -225 -173 -66 -367 -140 -430 -164 -662 -252
-1005 -382 -1007 -380 -1 0 5 35 12 76 7 41 22 125 33 185 11 61 30 163 42
227 l22 117 82 31 c303 114 350 135 398 179 80 72 115 163 162 421 9 47 54
292 101 545 47 253 92 498 100 545 9 47 20 105 25 130 4 25 16 86 25 135 9 50
22 122 30 160 85 447 125 676 125 715 0 54 -15 80 -46 80 -13 0 -126 -38 -250
-85 -125 -47 -229 -84 -231 -81 -5 5 18 139 82 476 8 47 20 114 26 150 6 36
16 70 22 77 7 6 80 37 162 68 83 31 197 75 255 97 58 22 137 52 175 68 198 78
323 103 404 80z m2917 -237 c-43 -241 -77 -417 -81 -421 -7 -8 -620 -240 -624
-236 -2 1 4 36 12 76 9 40 30 154 48 253 18 99 33 181 35 183 4 6 619 239 622
236 2 -1 -3 -42 -12 -91z m-1208 -415 c-4 -24 -26 -139 -48 -257 -21 -117 -40
-214 -42 -216 -8 -6 -620 -236 -623 -233 -3 4 92 509 97 513 2 1 53 21 113 44
114 44 178 69 375 145 63 25 120 45 126 45 8 1 9 -12 2 -41z"/>
<path d="M8522 6180 c-238 -94 -335 -157 -409 -267 -58 -87 -80 -153 -119
-353 -37 -191 -42 -276 -19 -319 25 -49 63 -53 144 -16 209 98 399 337 462
584 18 72 79 386 79 410 0 15 1 15 -138 -39z"/>
<path d="M6620 5451 c-178 -71 -209 -87 -287 -145 -103 -78 -171 -196 -207
-361 -42 -196 -50 -247 -50 -333 -1 -88 0 -95 24 -114 55 -44 180 9 317 137
156 144 247 309 292 528 47 230 67 347 60 347 -2 -1 -69 -27 -149 -59z"/>
<path d="M9690 7190 c0 -17 7 -20 45 -20 l45 0 0 -125 c0 -118 1 -125 20 -125
19 0 20 7 20 125 l0 125 45 0 c38 0 45 3 45 20 0 19 -7 20 -110 20 -103 0
-110 -1 -110 -20z"/>
<path d="M9936 7153 c-3 -32 -8 -97 -12 -145 -6 -84 -5 -88 14 -88 18 0 21 8
26 63 4 34 7 89 9 122 l2 60 38 -118 c34 -106 40 -118 60 -115 17 2 27 22 57
110 19 59 37 107 40 108 3 0 7 -44 8 -97 3 -117 7 -133 33 -133 20 0 20 4 13
108 -4 59 -8 114 -10 122 -1 8 -3 25 -3 38 -1 18 -7 22 -30 22 -32 0 -38 -11
-86 -159 l-18 -55 -37 105 c-36 99 -39 104 -68 107 -30 3 -30 3 -36 -55z"/>
</g>
</svg>
