<?xml version="1.0" standalone="no"?>
<!DOCTYPE svg PUBLIC "-//W3C//DTD SVG 20010904//EN"
 "http://www.w3.org/TR/2001/REC-SVG-20010904/DTD/svg10.dtd">
<svg version="1.0" xmlns="http://www.w3.org/2000/svg"
 width="1008.000000pt" height="720.000000pt" viewBox="0 0 1008.000000 720.000000"
 preserveAspectRatio="xMidYMid meet">
<metadata>
Created by potrace 1.11, written by Peter Selinger 2001-2013
</metadata>
<g transform="translate(0.000000,720.000000) scale(0.100000,-0.100000)"
fill="#0055a5" stroke="none">
<path d="M4860 7180 c-485 -39 -959 -284 -1292 -669 -384 -442 -516 -952 -392
-1509 28 -124 85 -297 133 -405 17 -38 31 -73 31 -78 0 -4 -23 -43 -51 -86
-130 -199 -269 -533 -319 -768 -28 -128 -38 -424 -21 -576 47 -409 204 -787
447 -1080 308 -371 794 -643 1333 -745 322 -62 626 -25 1005 123 326 126 618
319 843 557 268 283 436 652 499 1096 18 125 20 409 4 534 -41 330 -166 637
-365 901 l-64 86 23 62 c37 101 83 263 113 402 26 122 28 145 27 370 0 209 -3
253 -22 339 -122 549 -479 1004 -988 1259 -287 144 -632 212 -944 187z m370
-475 c291 -64 569 -213 765 -410 251 -252 375 -548 375 -895 0 -138 -23 -311
-60 -450 l-9 -35 -1308 2 -1308 2 -13 38 c-65 184 -88 421 -58 593 21 120 84
309 141 422 209 419 581 676 1090 752 63 9 312 -3 385 -19z m379 -2225 c45
-22 157 -84 249 -137 197 -114 328 -178 400 -194 107 -25 239 21 346 122 l63
58 37 -62 c105 -176 207 -440 242 -628 25 -134 25 -471 0 -629 -70 -444 -262
-822 -568 -1115 -143 -138 -266 -225 -438 -314 -427 -219 -899 -285 -1363
-190 -555 113 -1062 502 -1342 1031 -142 270 -188 484 -188 883 0 293 26 443
112 661 32 79 106 218 140 263 l19 24 52 -51 c101 -99 225 -135 353 -102 98
25 191 69 460 217 125 69 263 139 305 155 98 38 142 34 298 -27 181 -71 233
-70 434 7 217 84 266 87 389 28z"/>
<path d="M4924 4200 c-68 -14 -111 -37 -163 -85 -62 -58 -93 -127 -99 -221 -9
-135 47 -230 175 -299 1 0 -3 -48 -8 -105 -39 -414 -80 -871 -90 -1013 l-13
-167 45 -46 c131 -133 356 -136 497 -6 31 29 39 43 36 62 -2 14 -27 277 -54
585 -27 308 -53 591 -56 628 l-6 68 40 35 c115 98 135 314 42 443 -69 95 -220
148 -346 121z"/>
<path d="M5747 3970 c-102 -18 -197 -105 -197 -181 0 -84 85 -129 144 -74 23
21 26 30 20 64 -6 36 -4 41 19 52 50 23 117 -31 117 -93 0 -35 -34 -83 -69
-98 -39 -16 -43 -50 -6 -50 15 0 41 -14 61 -33 31 -28 37 -42 41 -83 8 -82
-38 -148 -103 -148 -49 0 -74 29 -82 95 l-7 54 -53 3 c-52 3 -53 3 -67 -32
-20 -47 -19 -121 1 -155 22 -38 99 -88 157 -102 180 -44 377 99 377 274 0 54
-24 100 -77 147 l-45 39 25 31 c49 58 48 138 -3 209 -51 69 -145 100 -253 81z"/>
<path d="M6380 3971 c-117 -27 -183 -91 -226 -221 -25 -74 -26 -243 -2 -320
28 -88 76 -160 132 -195 47 -28 55 -30 150 -30 112 0 158 16 224 79 75 70 111
206 82 310 -16 57 -72 123 -124 147 -50 22 -153 24 -211 4 -21 -8 -41 -13 -43
-11 -10 11 32 79 60 96 44 26 128 26 186 0 39 -18 46 -18 72 -5 15 8 30 21 33
29 9 24 -37 71 -93 95 -55 24 -182 35 -240 22z m125 -367 c83 -89 17 -300 -79
-256 -104 47 -84 282 24 282 20 0 39 -9 55 -26z"/>
<path d="M4057 3920 c-133 -34 -222 -136 -234 -269 -14 -158 84 -266 243 -266
62 0 77 4 122 32 51 32 52 32 52 10 0 -34 -41 -108 -73 -131 -43 -32 -104 -26
-187 16 -59 30 -72 34 -92 24 -39 -19 -36 -61 9 -105 73 -73 221 -107 328 -76
79 23 172 113 204 199 47 125 49 296 6 400 -24 56 -89 121 -147 146 -58 25
-172 35 -231 20z m125 -131 c25 -14 57 -84 58 -127 0 -45 -22 -95 -55 -120
-37 -29 -51 -28 -89 11 -92 92 -19 292 86 236z"/>
<path d="M3548 3832 c-21 -72 -75 -132 -142 -157 -46 -18 -46 -18 -46 -66 l0
-49 50 0 50 0 0 -147 0 -147 -47 -43 -48 -42 205 -1 204 0 -42 43 -42 43 0
312 0 312 -62 0 -63 0 -17 -58z"/>
<path d="M5410 3002 c0 -4 22 -24 50 -45 85 -63 79 -26 91 -561 12 -548 18
-507 -86 -623 -30 -33 -55 -66 -55 -72 0 -51 496 59 695 154 166 79 378 285
466 452 56 106 27 170 -80 181 -62 6 -134 -13 -172 -46 -53 -44 -31 -132 33
-132 10 0 18 -6 18 -13 0 -38 -170 -205 -251 -247 -37 -20 -126 -44 -196 -54
l-43 -6 0 442 c0 500 -3 479 78 528 79 48 67 50 -253 50 -162 0 -295 -4 -295
-8z"/>
<path d="M3446 2978 c4 -7 32 -40 61 -74 l53 -61 0 -281 0 -281 -40 -32 c-22
-18 -40 -38 -40 -45 0 -7 20 -24 45 -39 26 -14 85 -60 133 -102 138 -119 293
-216 313 -196 6 6 -15 64 -51 142 l-60 132 0 130 0 129 49 0 c50 0 50 0 144
-97 52 -54 134 -147 182 -208 148 -186 238 -267 372 -334 96 -48 146 -55 245
-37 111 21 186 60 215 111 36 63 31 75 -24 75 -62 0 -171 24 -228 49 -71 31
-151 100 -263 226 -105 118 -181 181 -278 232 -30 15 -54 31 -54 34 0 3 17 11
38 17 69 21 148 86 178 147 23 48 26 64 21 115 -9 104 -72 192 -173 240 -38
19 -62 20 -443 20 -319 0 -401 -3 -395 -12z m572 -118 c43 -27 72 -89 72 -160
0 -104 -50 -161 -148 -168 -89 -6 -92 -2 -92 177 0 101 4 151 12 159 20 20
118 15 156 -8z"/>
<path d="M7242 5108 c-54 -390 -37 -729 45 -936 34 -85 68 -148 161 -297 103
-165 156 -279 192 -415 17 -63 48 -153 70 -200 68 -147 101 -332 80 -452 -27
-158 -168 -558 -197 -558 -8 0 -13 3 -11 8 40 90 97 253 121 342 24 94 30 142
34 262 10 279 -45 405 -255 584 -76 65 -224 174 -236 174 -4 0 -3 -8 3 -17 5
-10 21 -65 37 -123 27 -101 28 -115 30 -375 1 -148 5 -296 9 -328 7 -62 47
-182 111 -332 35 -83 38 -99 42 -202 7 -187 -25 -261 -203 -477 -58 -71 -145
-188 -192 -260 -74 -113 -112 -157 -274 -321 -103 -104 -191 -186 -195 -182
-4 3 55 71 131 149 304 314 402 459 445 658 26 121 37 350 21 444 -14 79 -45
166 -70 197 l-18 23 -61 -91 c-82 -121 -321 -536 -343 -594 -10 -25 -34 -129
-54 -230 -80 -404 -113 -495 -219 -607 -73 -77 -216 -190 -326 -258 l-64 -39
162 -3 162 -2 103 58 c282 162 337 185 524 223 216 44 334 95 479 205 88 66
224 207 287 296 43 60 104 179 121 235 l7 22 -53 -15 c-148 -42 -468 -149
-508 -169 -87 -45 -196 -130 -307 -240 -62 -62 -115 -110 -117 -107 -6 5 84
120 140 177 24 25 88 74 142 110 55 36 116 85 137 110 100 122 196 200 401
326 277 169 449 305 526 416 34 51 73 150 94 242 15 69 32 391 20 391 -4 0
-91 -73 -194 -162 -103 -90 -209 -181 -235 -202 -61 -50 -138 -145 -290 -360
-135 -192 -135 -192 -142 -185 -3 3 54 91 125 194 82 120 130 199 130 215 0
44 28 133 63 200 19 36 126 214 239 395 259 418 264 427 290 521 19 69 22 105
22 289 0 196 -2 217 -27 309 -24 89 -79 211 -111 244 -10 10 -26 -15 -80 -130
-102 -215 -214 -500 -241 -613 -27 -111 -58 -317 -76 -502 -6 -68 -16 -123
-20 -123 -11 0 -11 45 0 215 8 123 7 135 -16 215 -23 79 -25 109 -34 401 -16
585 -52 814 -153 959 -72 104 -336 380 -364 380 -5 0 -14 -37 -20 -82z"/>
<path d="M2651 5035 c-81 -83 -171 -183 -200 -224 -109 -157 -146 -375 -161
-956 -7 -288 -11 -328 -31 -400 -26 -90 -27 -123 -16 -312 5 -84 4 -133 -2
-133 -5 0 -12 30 -16 68 -32 333 -74 568 -130 717 -92 246 -251 588 -269 582
-19 -6 -96 -169 -118 -252 -19 -70 -22 -106 -22 -295 -1 -326 -10 -300 307
-810 259 -418 307 -511 307 -602 0 -19 37 -81 123 -205 147 -212 141 -203 128
-203 -5 0 -58 69 -117 153 -163 231 -257 348 -326 403 -35 28 -141 119 -236
202 -95 84 -175 152 -177 152 -11 0 -4 -261 9 -337 21 -118 34 -159 71 -239
61 -126 227 -272 501 -439 234 -143 276 -174 399 -299 75 -77 154 -145 210
-183 89 -61 143 -111 223 -209 75 -93 44 -78 -60 28 -192 193 -293 254 -553
337 -226 71 -325 100 -325 95 0 -2 14 -38 31 -81 43 -109 107 -202 224 -322
119 -122 200 -185 315 -245 103 -53 186 -80 348 -111 138 -27 231 -67 467
-200 l133 -75 162 0 163 0 -79 51 c-117 76 -230 168 -307 247 -108 112 -149
222 -217 582 -18 90 -41 193 -51 227 -34 110 -397 722 -420 708 -19 -12 -61
-109 -75 -174 -28 -135 -13 -397 34 -563 38 -135 169 -313 416 -566 82 -83
146 -155 143 -158 -8 -9 -205 175 -304 283 -43 47 -121 150 -174 229 -53 79
-130 183 -171 231 -179 209 -217 292 -218 469 0 124 2 132 71 295 77 181 90
246 87 424 -5 321 8 470 56 617 13 37 21 68 18 68 -10 0 -165 -115 -234 -174
-198 -169 -261 -300 -261 -541 1 -66 6 -149 12 -185 18 -102 69 -274 107 -363
20 -45 38 -88 41 -94 3 -7 -2 -13 -10 -13 -27 0 -143 312 -188 506 -20 87 -21
105 -11 202 12 119 37 210 87 317 19 39 43 108 54 153 45 174 84 259 219 472
176 281 216 424 216 785 0 219 -23 477 -45 500 -6 6 -64 -46 -158 -140z"/>
<path d="M6380 1550 c0 -20 -133 -149 -203 -198 -88 -60 -166 -100 -296 -150
-121 -48 -211 -97 -293 -163 -80 -63 -128 -121 -239 -285 -93 -137 -157 -206
-214 -230 -49 -20 -138 -18 -183 5 -49 25 -74 54 -167 191 -87 129 -163 225
-227 287 -81 78 -168 120 -517 248 -113 42 -184 89 -269 179 -28 30 -52 50
-52 43 0 -23 61 -354 75 -410 54 -205 257 -437 482 -551 126 -63 359 -120 586
-141 37 -4 67 -11 67 -16 0 -24 -304 1 -440 36 -71 18 -176 69 -328 158 l-104
60 -228 -7 c-287 -9 -336 -16 -425 -60 -75 -37 -169 -115 -197 -163 l-17 -30
82 0 c105 -1 180 -17 468 -102 298 -88 414 -112 565 -118 222 -10 404 25 585
111 105 50 176 70 217 60 15 -4 63 -24 107 -45 198 -93 459 -156 605 -146 117
9 194 30 490 137 360 131 393 140 539 148 l125 7 -33 38 c-42 47 -149 111
-238 142 -88 31 -290 42 -493 26 -187 -14 -238 -28 -391 -106 -69 -35 -154
-73 -190 -84 -115 -37 -419 -75 -419 -52 0 12 0 12 165 41 253 44 398 98 573
213 118 78 178 131 238 208 79 103 156 292 188 464 19 99 28 265 15 265 -5 0
-9 -4 -9 -10z"/>
</g>
</svg>
