<?xml version="1.0" encoding="UTF-8" standalone="no"?>
<!-- Created with Inkscape (http://www.inkscape.org/) -->
<svg
   xmlns:svg="http://www.w3.org/2000/svg"
   xmlns="http://www.w3.org/2000/svg"
   xmlns:xlink="http://www.w3.org/1999/xlink"
   version="1.0"
   width="800"
   height="680.90002"
   viewBox="0 0 800 680.9"
   id="Layer_1"
   xml:space="preserve"><defs
   id="defs52" />
<g
   id="g3">
	<g
   id="g5">
		<defs
   id="defs7">
			<rect
   width="800"
   height="652.50598"
   x="0"
   y="0"
   id="XMLID_1_" />
		</defs>
		<clipPath
   id="XMLID_3_">
			<use
   id="use11"
   x="0"
   y="0"
   width="800"
   height="680.90002"
   xlink:href="#XMLID_1_" />
		</clipPath>
		<path
   d="M 36.84,333.703 C 31.59,327.356 27.439,319.477 26.293,309.81 C 23.934,289.884 34.617,273.735 48.827,264.183 C 79.223,246.405 112.583,235.908 145.559,227.785 C 151.654,211.228 159.942,195.538 170.203,180.787 L 65.126,1.414 L 242.685,110.533 C 299.468,71.945 381.543,50.47 460.608,72.36 C 490.485,81.935 523.058,92.388 551.438,113.679 L 717.704,7.302 L 622.157,187.084 L 631.729,203.881 C 664.893,211.252 699.581,215.516 731.176,226.392 L 731.877,226.635 L 732.54,226.947 C 737.859,229.447 743.67,231.869 749.491,234.52 C 755.937,237.451 762.394,240.646 768.377,244.413 C 780.921,252.32 793.145,263.826 797.851,282.062 L 798.122,283.111 L 798.222,284.194 C 800.249,305.601 784.187,319.833 773.797,327.491 L 772.968,328.096 L 772.063,328.571 C 754.824,337.674 736.618,344.507 717.76,349.461 L 718.445,350.003 C 730.487,359.55 728.432,374.202 727.095,380.485 L 726.785,381.96 L 726.155,383.335 C 711.247,415.891 679.259,435.784 648.388,443.41 C 644.063,453.8 639.666,464.179 634.778,474.362 C 629.972,484.36 624.636,494.294 618.368,503.924 L 728.635,680.9 L 546.522,580.114 C 471.445,631.262 356.029,638.327 276.418,593.23 L 241.12,571.511 C 198.792,597.375 158.534,623.184 116.82,650.769 L 73.888,679.152 L 97.112,633.226 C 120.469,587.038 145.129,541.498 168.292,495.373 C 160.661,483.149 153.958,470.622 147.94,457.862 C 127.63,450.085 107.284,442.396 87.357,433.669 C 65.478,424.088 43.253,412.729 22.537,398.889 C 17.577,394.835 10.427,388.781 5.823,381.576 C 0.816,373.749 -1.813,363.351 1.446,351.961 C 3.799,345.534 8.436,341.077 12.532,338.619 C 14.244,337.594 16.089,336.716 17.973,335.943 C 19.354,335.377 20.763,334.874 22.119,334.372 L 24.196,333.601 L 26.414,333.526 C 29.952,333.408 33.423,333.477 36.84,333.703"
   style="fill:#ffffff"
   id="path13" />
		<path
   d="M 241.152,124.938 C 302.119,85.615 381.123,64.507 456.702,85.436 C 489.357,95.895 522.002,106.539 549.598,129.627 L 554.106,128.186 L 681.276,46.47 L 669.013,68.479 L 606.602,187.35 L 622.836,215.852 C 657.286,223.966 693.726,227.937 726.734,239.302 C 748.199,249.402 777.601,258.237 784.638,285.477 C 785.897,298.828 775.977,308.925 765.692,316.503 C 742.786,328.589 717.891,336.526 691.737,341.216 C 685.97,350.592 679.298,359.433 676.226,369.897 C 682.722,373.507 687.594,364.846 693.725,363.404 C 698.774,361.598 704.004,358.709 709.958,360.695 C 715.189,364.846 715.007,371.7 713.747,377.653 C 700.038,407.596 668.647,425.995 638.527,431.583 C 628.248,456.295 618.144,481.187 602.088,503.558 L 674.778,621.166 L 689.753,644.437 L 545.626,563.983 C 475.101,616.653 360.74,625.312 283.356,581.482 L 241.15,555.504 C 196.052,582.926 153.485,610.16 109.288,639.385 C 133.824,590.86 159.796,543.059 183.967,494.537 C 173.864,479.209 165.385,463.331 157.992,447.098 C 114.339,430.323 70.326,414.451 30.642,387.934 C 20.722,379.817 10.439,370.077 14.411,356.187 C 16.391,350.774 21.984,348.967 26.853,347.164 C 59.683,346.084 86.743,363.403 119.025,365.925 L 120.293,364.663 C 106.401,356.549 89.626,352.216 74.836,344.461 C 60.044,337.067 42.006,326.423 39.841,308.204 C 38.217,294.495 45.071,283.133 56.072,275.739 C 86.921,257.702 121.01,247.599 156.005,239.302 C 162.68,218.735 172.963,199.435 186.492,181.58 L 104.059,41.239 L 239.166,124.397 L 241.152,124.938 z "
   id="path15" />
		<path
   d="M 234.654,131.432 C 223.289,144.78 210.124,155.064 197.497,168.589 L 195.693,168.589 L 139.051,74.431 L 139.777,72.987 C 171.342,92.468 203.266,111.408 234.654,131.432"
   style="fill:#fff100"
   id="path17" />
		<path
   d="M 641.771,86.699 C 616.34,118.266 593.611,150.913 569.622,182.843 C 559.343,182.299 551.765,172.017 544.909,163.9 C 539.496,157.045 540.579,145.68 531.382,141.897 C 524.887,152.536 534.448,162.82 537.878,172.379 C 470.054,166.789 395.192,165.163 337.117,196.371 L 307.353,212.063 C 259.726,215.853 215.172,226.673 169.722,235.332 C 174.591,221.266 182.708,208.816 190.463,195.83 C 246.204,115.2 332.598,77.858 428.742,91.206 C 472.76,99.503 513.524,115.554 549.598,143.159 L 552.128,143.159 L 640.511,84.17 L 641.771,84.17 L 641.771,86.699 z "
   style="fill:#fff100"
   id="path19" />
		<path
   d="M 718.98,253.55 C 736.473,260.766 760.644,265.635 766.417,287.282 C 762.274,303.695 744.411,308.747 731.425,313.972 C 679.476,327.502 624.643,333.277 567.639,334.178 C 552.129,367.549 533.366,409.036 494.402,423.102 C 388.88,473.433 244.399,456.837 137.249,421.843 C 101.898,408.313 66.362,395.689 35.156,372.418 C 34.076,368.991 34.256,363.939 38.401,362.68 C 80.071,370.797 118.855,389.376 163.765,385.404 C 168.637,382.883 174.591,381.258 177.475,375.666 C 178.019,370.797 173.512,368.455 170.258,365.925 C 136.531,350.774 99.014,344.643 67.627,323.719 C 62.214,318.668 57.345,313.437 57.345,306.218 C 57.701,295.579 68.707,289.263 76.1,283.494 C 132.024,259.861 192.629,247.955 253.416,236.055 C 374.093,214.59 510.642,220.542 632.034,236.055 C 661.794,240.02 690.842,245.795 718.98,253.55"
   style="fill:#fff100"
   id="path21" />
		<path
   d="M 583.873,251.564 C 557.895,268.883 533.006,296.117 517.673,321.733 C 510.994,324.798 498.191,319.93 497.655,330.93 C 497.655,332.372 497.29,333.995 498.914,334.719 L 511.177,334.719 C 492.778,367.187 474.026,409.58 433.979,421.843 C 357.312,446.017 263.336,438.256 187.215,418.595 C 183.788,417.877 180.904,414.988 178.736,412.646 C 179.28,409.937 180.004,406.688 183.252,406.153 C 213.914,399.84 247.102,399.478 272.895,381.441 C 281.736,372.418 288.772,360.874 283.904,347.708 C 269.112,324.258 240.069,323.901 215.718,317.944 C 196.957,312.357 174.409,314.696 160.52,298.465 C 159.437,292.869 159.258,285.658 165.033,282.77 C 249.089,247.781 333.859,242.066 443.707,241.829 C 498.5,241.71 539.861,245.433 583.873,251.564"
   id="path23" />
		<path
   d="M 665.042,274.297 C 668.832,278.081 666.484,284.212 665.766,288.724 C 660.9,296.297 653.316,299.907 645.561,302.254 L 579.366,312.713 C 594.7,290.527 615.077,252.832 648.268,261.302 C 655.122,262.926 661.435,267.978 665.042,274.297"
   id="path25" />
		<path
   d="M 656.027,276.274 C 658.187,281.326 655.663,286.921 650.797,289.263 C 648.809,289.625 647.549,287.283 647.008,286.015 C 647.549,279.884 643.042,275.015 645.02,269.245 C 650.073,268.16 653.315,272.847 656.027,276.274"
   style="fill:#ffffff"
   id="path27" />
		<path
   d="M 230.688,275.738 C 226.716,285.476 219.688,293.593 215.172,302.972 C 202.91,300.268 188.839,301.168 180.004,291.972 C 180.178,288.724 183.788,288.183 185.953,286.739 C 200.382,281.87 215.537,278.986 230.688,275.738"
   style="fill:#fff100"
   id="path29" />
		<path
   d="M 512.447,284.753 C 514.607,300.269 505.763,314.878 492.424,322.452 C 485.929,325.161 479.427,321.192 476.727,315.241 C 473.296,305.138 481.775,296.842 487.188,288.725 C 492.6,281.146 506.487,273.029 512.447,284.753"
   style="fill:#fff100"
   id="path31" />
		<path
   d="M 397.54,334.178 L 420.264,334.719 L 420.264,337.967 C 411.068,350.774 400.423,363.041 395.557,377.652 C 395.016,381.079 398.799,383.783 401.512,384.686 C 415.398,389.919 424.418,376.751 431.991,367.911 C 439.211,357.085 445.701,345.367 454.003,335.446 L 476.186,335.982 L 476.186,338.691 C 467.531,352.215 455.987,364.304 450.208,378.914 C 453.097,384.686 458.869,379.094 463.2,378.914 C 464.465,378.193 465.723,377.652 466.989,376.929 C 467.166,383.245 459.587,388.473 455.444,393.165 C 446.419,400.559 435.603,408.313 423.512,402.362 L 417.745,396.413 C 404.577,405.428 388.343,416.792 371.568,407.413 C 366.514,402.544 365.255,394.971 365.072,388.652 C 347.573,396.948 332.063,412.285 310.598,409.399 C 300.134,403.088 300.495,390.817 302.837,379.638 C 315.105,351.678 345.048,330.569 374.269,324.982 C 383.647,324.258 390.867,328.047 397.54,334.178"
   style="fill:#fff100"
   id="path33" />
		<path
   d="M 651.52,346.446 C 658.187,340.497 666.484,344.281 674.78,342.475 C 670.997,356.911 659.994,368.455 653.498,381.441 C 651.52,386.31 656.21,390.456 659.994,391.182 L 672.262,391.9 C 668.108,397.492 661.617,403.267 655.305,406.872 C 648.626,411.023 640.148,412.285 632.034,410.661 C 626.627,409.399 622.114,403.444 619.048,399.661 C 604.074,405.792 586.94,420.764 570.347,409.399 C 561.868,393.342 573.412,377.47 582.61,364.663 C 598.126,348.25 615.983,334.179 638.531,339.23 C 643.042,340.851 647.367,343.38 651.52,346.446"
   style="fill:#fff100"
   id="path35" />
		<path
   d="M 386.536,339.229 C 387.978,357.084 371.02,372.961 356.051,380.896 C 352.621,380.716 347.572,381.619 346.854,377.651 C 348.832,360.337 365.789,345.901 380.764,339.229 L 386.536,339.229 L 386.536,339.229 z "
   id="path37" />
		<path
   d="M 640.511,354.925 C 641.594,365.207 631.85,371.521 626.083,378.193 C 621.747,381.98 617.604,386.492 611.291,385.404 C 606.242,377.652 613.451,370.258 617.787,363.94 C 623.554,357.447 629.69,351.677 638.528,352.216 L 640.511,354.925 z "
   id="path39" />
		<path
   d="M 211.927,527.545 C 215.172,531.514 221.309,535.485 222.933,540.531 C 196.055,562.001 168.815,582.201 141.761,602.948 L 141.761,598.438 L 192.448,505.542 C 199.665,511.312 205.072,520.514 211.927,527.545"
   style="fill:#fff100"
   id="path41" />
		<path
   d="M 307.3,524.491 L 307.3,517.059 C 310.752,516.899 313.16,516.672 314.541,516.369 C 316.74,515.883 318.529,514.911 319.907,513.455 C 320.852,512.46 321.564,511.132 322.05,509.467 C 322.335,508.473 322.475,507.733 322.475,507.244 L 331.559,507.244 L 331.559,562.811 L 320.365,562.811 L 320.365,524.491 L 307.3,524.491 L 307.3,524.491 z "
   style="fill:#ffffff"
   id="path43" />
		<path
   d="M 371.374,534.378 C 373.849,532.793 375.091,530.05 375.091,526.137 C 375.091,522.997 374.351,520.503 372.865,518.666 C 371.412,516.827 369.407,515.904 366.855,515.904 C 364.988,515.904 363.386,516.428 362.061,517.475 C 359.968,519.11 358.918,521.883 358.918,525.791 C 358.918,529.088 359.581,531.566 360.912,533.229 C 362.266,534.864 364.337,535.679 367.12,535.679 C 368.623,535.679 370.043,535.249 371.374,534.378 M 352.98,512.342 C 356.432,508.636 360.901,506.788 366.391,506.788 C 374.848,506.788 380.642,510.53 383.79,518.015 C 385.574,522.257 386.469,527.839 386.469,534.763 C 386.469,541.482 385.613,547.089 383.906,551.585 C 380.63,560.141 374.632,564.424 365.893,564.424 C 361.728,564.424 357.983,563.195 354.664,560.74 C 351.344,558.265 349.439,554.661 348.958,549.939 L 359.84,549.939 C 360.094,551.574 360.784,552.902 361.911,553.921 C 363.032,554.943 364.524,555.454 366.39,555.454 C 369.992,555.454 372.521,553.463 373.979,549.475 C 374.769,547.28 375.271,544.073 375.471,539.859 C 374.476,541.11 373.416,542.071 372.295,542.734 C 370.246,543.96 367.732,544.57 364.744,544.57 C 360.32,544.57 356.398,543.054 352.979,540.013 C 349.554,536.948 347.842,532.54 347.842,526.787 C 347.843,520.837 349.556,516.023 352.98,512.342"
   style="fill:#ffffff;fill-rule:evenodd"
   id="path45" />
		<path
   d="M 413.226,542.308 L 413.226,518.319 L 399.312,542.308 L 413.226,542.308 z M 430.201,550.855 L 423.915,550.855 L 423.915,562.811 L 413.227,562.811 L 413.227,550.855 L 391.227,550.855 L 391.227,541.313 L 411.653,507.592 L 423.916,507.592 L 423.916,542.308 L 430.202,542.308 L 430.202,550.855 L 430.201,550.855 z "
   style="fill:#ffffff;fill-rule:evenodd"
   id="path47" />
		<path
   d="M 449.052,527.747 C 450.306,529.026 452.03,529.666 454.228,529.666 C 456.449,529.666 458.161,529.025 459.36,527.747 C 460.591,526.471 461.199,524.825 461.199,522.806 C 461.199,520.611 460.592,518.895 459.36,517.669 C 458.161,516.418 456.449,515.791 454.228,515.791 C 452.03,515.791 450.306,516.418 449.052,517.669 C 447.825,518.895 447.213,520.61 447.213,522.806 C 447.213,524.825 447.826,526.471 449.052,527.747 M 436.978,538.938 C 438.409,536.408 440.491,534.508 443.231,533.23 C 440.541,531.443 438.795,529.515 437.978,527.444 C 437.182,525.345 436.79,523.395 436.79,521.578 C 436.79,517.546 438.31,514.108 441.353,511.274 C 444.391,508.41 448.683,506.98 454.229,506.98 C 459.769,506.98 464.061,508.411 467.104,511.274 C 470.142,514.108 471.667,517.546 471.667,521.578 C 471.667,523.395 471.253,525.345 470.436,527.444 C 469.646,529.515 467.912,531.313 465.227,532.846 C 467.961,534.379 470.016,536.409 471.392,538.938 C 472.773,541.465 473.463,544.293 473.463,547.409 C 473.463,552.082 471.729,556.07 468.254,559.362 C 464.802,562.637 459.974,564.264 453.772,564.269 C 447.557,564.269 442.857,562.637 439.665,559.362 C 436.472,556.07 434.876,552.082 434.876,547.409 C 434.874,544.293 435.575,541.471 436.978,538.938 M 448.329,553.042 C 449.754,554.547 451.721,555.298 454.228,555.298 C 456.73,555.298 458.68,554.547 460.088,553.042 C 461.519,551.531 462.236,549.41 462.236,546.679 C 462.236,543.846 461.502,541.697 460.049,540.241 C 458.618,538.761 456.679,538.02 454.227,538.02 C 451.769,538.02 449.819,538.76 448.361,540.241 C 446.93,541.697 446.218,543.845 446.218,546.679 C 446.219,549.411 446.92,551.532 448.329,553.042"
   style="fill:#ffffff;fill-rule:evenodd"
   id="path49" />
	</g>
</g>
</svg>