<?xml version="1.0" encoding="UTF-8" standalone="no"?>
<!-- Created with Inkscape (http://www.inkscape.org/) -->
<svg
   xmlns:svg="http://www.w3.org/2000/svg"
   xmlns="http://www.w3.org/2000/svg"
   version="1.0"
   width="800"
   height="954.57098"
   viewBox="0 0 800 954.571"
   id="Layer_1"
   xml:space="preserve"><defs
   id="defs32" />
<path
   d="M 800,125.357 C 799.139,244.554 797.983,372.829 766.13,483.559 C 724.401,619.229 672.42,752.883 548.557,851.51 C 502.353,891.663 453.943,926.122 402.991,954.572 C 122.131,817.094 -14.715,516.253 1.253,122.521 C 116.438,87.117 391.582,-0.627 398.767,0.003 C 409.525,1.054 757.663,107.119 800,125.357"
   style="fill:#ffffff"
   id="path3" />
<path
   d="M 766.046,148.995 C 765.269,258.065 764.197,375.455 735.054,476.751 C 696.855,600.991 649.306,723.277 535.95,813.521 C 493.654,850.312 449.383,881.808 402.738,907.841 C 145.706,782.025 20.437,506.714 35.082,146.411 C 140.496,114.012 392.317,33.664 398.852,34.315 C 408.706,35.261 727.322,132.291 766.046,148.995"
   style="fill:#0c2576"
   id="path5" />
<path
   d="M 547.191,134.875 C 628.127,232.074 649.853,323.641 648.193,449.478 C 646.638,488.728 643.234,520.307 632.35,558.737 C 606.002,630.113 580.788,692.937 527.903,751.685 L 513.615,752.378 C 516.241,697.244 509.959,640.702 512.418,594.352 C 538.577,588.069 567.278,571.47 576.272,543.882 C 580.327,516.252 568.351,488.37 544.439,472.968 C 510.653,463.156 496.848,468.871 438.92,468.282 C 438.71,524.424 441.295,705.732 447.577,808.435 C 434.319,818.647 411.647,832.074 396.834,841.529 L 354.791,810.075 C 355.778,703.358 361.431,467.968 361.431,467.968 C 320.669,471.456 258.013,449.52 231.896,501.88 C 223.554,518.101 224.668,541.34 235.174,557.707 C 243.767,579.223 270.074,586.094 288.102,595.255 C 288.753,649.002 289.173,755.509 289.173,755.509 C 232.464,698.547 174.976,595.002 162.054,531.842 C 125.62,389.742 154.238,256.74 239.733,143.909 C 249.104,131.092 284.95,106.467 284.95,106.467 C 284.95,196.879 288.564,209.885 285.937,254.282 C 273.33,253.715 257.383,260.27 246.961,272.562 C 228.324,293.216 231.476,305.529 229.312,322.065 C 232.211,346.165 252.635,372.576 281,373.606 C 313.525,376.148 325.103,375.035 357.124,375.771 C 361.684,333.937 363.449,285.443 367.672,251.867 C 398.685,250.585 432.072,251.825 432.072,251.825 C 435.182,292.146 433.165,337.11 434.698,375.077 C 461.13,376.527 494.559,376.527 529.123,372.577 C 552.362,367.408 567.028,348.267 570.264,329.42 C 573.794,307.211 566.692,289.351 554.379,273.508 C 541.205,260.901 525.068,255.018 511.768,252.35 C 510.822,176.225 518.092,190.135 513.617,106.468 C 528.807,112.246 535.362,126.261 547.191,134.875 z "
   style="fill:#ffffff"
   id="path7" />
<path
   d="M 547.191,134.875 C 628.127,232.074 649.853,323.641 648.193,449.478 C 646.638,488.728 643.234,520.307 632.35,558.737 C 606.002,630.113 580.788,692.937 527.903,751.685 L 513.615,752.378 C 516.241,697.244 509.959,640.702 512.418,594.352 C 538.577,588.069 567.278,571.47 576.272,543.882 C 580.327,516.252 568.351,488.37 544.439,472.968 C 510.653,463.156 496.848,468.871 438.92,468.282 C 438.71,524.424 441.295,705.732 447.577,808.435 C 434.319,818.647 411.647,832.074 396.834,841.529 L 354.791,810.075 C 355.778,703.358 361.431,467.968 361.431,467.968 C 320.669,471.456 258.013,449.52 231.896,501.88 C 223.554,518.101 224.668,541.34 235.174,557.707 C 243.767,579.223 270.074,586.094 288.102,595.255 C 288.753,649.002 289.173,755.509 289.173,755.509 C 232.464,698.547 174.976,595.002 162.054,531.842 C 125.62,389.742 154.238,256.74 239.733,143.909 C 249.104,131.092 284.95,106.467 284.95,106.467 C 284.95,196.879 288.564,209.885 285.937,254.282 C 273.33,253.715 257.383,260.27 246.961,272.562 C 228.324,293.216 231.476,305.529 229.312,322.065 C 232.211,346.165 252.635,372.576 281,373.606 C 313.525,376.148 325.103,375.035 357.124,375.771 C 361.684,333.937 363.449,285.443 367.672,251.867 C 398.685,250.585 432.072,251.825 432.072,251.825 C 435.182,292.146 433.165,337.11 434.698,375.077 C 461.13,376.527 494.559,376.527 529.123,372.577 C 552.362,367.408 567.028,348.267 570.264,329.42 C 573.794,307.211 566.692,289.351 554.379,273.508 C 541.205,260.901 525.068,255.018 511.768,252.35 C 510.822,176.225 518.092,190.135 513.617,106.468 C 528.807,112.246 535.362,126.261 547.191,134.875 z "
   style="fill:none;stroke:#ffffff;stroke-width:0;stroke-linecap:square;stroke-miterlimit:2"
   id="path9" />
<path
   d="M 462.894,316.813 C 462.894,293.364 481.909,274.286 505.4,274.286 C 528.891,274.286 547.927,293.365 547.927,316.813 C 547.927,340.304 528.891,359.361 505.4,359.361 C 481.909,359.361 462.894,340.304 462.894,316.813 z "
   style="fill:#ffffff"
   id="path11" />
<path
   d="M 462.894,316.813 C 462.894,293.364 481.909,274.286 505.4,274.286 C 528.891,274.286 547.927,293.365 547.927,316.813 C 547.927,340.304 528.891,359.361 505.4,359.361 C 481.909,359.361 462.894,340.304 462.894,316.813 z "
   style="fill:none;stroke:#ffffff;stroke-width:2.75399995;stroke-miterlimit:3.86400008"
   id="path13" />
<path
   d="M 253.978,315.3 C 253.978,291.852 273.035,272.794 296.484,272.794 C 319.975,272.794 339.053,291.852 339.053,315.3 C 339.053,338.791 319.975,357.869 296.484,357.869 C 273.035,357.869 253.978,338.791 253.978,315.3 z "
   style="fill:#ffffff"
   id="path15" />
<path
   d="M 253.978,315.3 C 253.978,291.852 273.035,272.794 296.484,272.794 C 319.975,272.794 339.053,291.852 339.053,315.3 C 339.053,338.791 319.975,357.869 296.484,357.869 C 273.035,357.869 253.978,338.791 253.978,315.3 z "
   style="fill:none;stroke:#ffffff;stroke-width:2.75399995;stroke-miterlimit:3.86400008"
   id="path17" />
<path
   d="M 252.087,528.355 C 252.087,504.864 271.102,485.828 294.593,485.828 C 318.084,485.828 337.162,504.864 337.162,528.355 C 337.162,551.845 318.083,570.861 294.593,570.861 C 271.103,570.861 252.087,551.846 252.087,528.355"
   style="fill:#ffffff"
   id="path19" />
<path
   d="M 464.743,526.927 C 464.743,503.436 483.8,484.421 507.249,484.421 C 530.761,484.421 549.818,503.436 549.818,526.927 C 549.818,550.417 530.761,569.453 507.249,569.453 C 483.8,569.453 464.743,550.417 464.743,526.927 z "
   style="fill:#ffffff"
   id="path21" />
<path
   d="M 464.743,526.927 C 464.743,503.436 483.8,484.421 507.249,484.421 C 530.761,484.421 549.818,503.436 549.818,526.927 C 549.818,550.417 530.761,569.453 507.249,569.453 C 483.8,569.453 464.743,550.417 464.743,526.927 z "
   style="fill:none;stroke:#ffffff;stroke-width:2.75399995;stroke-miterlimit:3.86400008"
   id="path23" />
<path
   d="M 364.561,806.84 C 369.856,709.726 374.29,565.567 376.748,456.307 C 344.264,453.828 329.746,455.11 310.814,455.887 C 272.868,457.442 252.592,457.253 231.16,479.041 C 207.879,500.074 201.786,529.09 208.972,559.515 C 220.15,597.251 258.453,631.415 291.757,646.333 C 290.412,687.264 294.089,768.767 292.45,767.526 C 237.526,713.044 178.316,632.276 160.414,575.294 C 148.585,540.562 143.416,509.549 139.046,465.909 C 134.738,423.172 137.953,371.337 144.971,336.479 C 154.321,289.918 165.941,257.603 185.985,216.462 C 212.754,161.602 282.637,90.583 288.878,91.318 C 291.42,132.858 286.083,175.069 290.559,214.172 C 262.845,223.774 220.36,260.187 212.922,307.379 C 207.837,339.883 221.663,380.33 260.723,392.454 C 285.768,402.35 352.563,397.371 375.361,397.371 C 377.526,333.895 379.332,291.6 379.501,268.319 C 396.289,266.323 402.172,265.21 419.254,268.277 C 422.574,310.006 420.473,357.954 423.94,398.086 C 478.38,396.846 548.958,412.857 584.971,350.852 C 596.296,315.742 591.127,287.293 572.784,258.675 C 557.509,237.285 527.484,221.674 509.014,215.35 C 512.166,143.911 509.581,164.607 510.275,91.971 C 524.983,97.434 551.1,124.244 555.66,128.846 C 575.642,149.08 597.2,186.375 597.2,186.375 C 634.117,249.851 656.137,322.319 662.945,391.845 C 663.239,416.554 664.71,433.343 662.336,455.321 C 662.777,548.318 622.204,647.89 559.842,722.039 C 545.68,738.869 515.949,766.625 512.987,763.306 C 515.95,744.5 510.088,656.757 511.769,643.457 C 543.874,624.525 582.43,595.403 592.453,556.616 C 600.689,529.092 594.575,505.286 578.985,482.783 C 572.24,471.206 543.581,455.321 516.644,456.098 C 485.652,457.359 454.324,452.484 425.455,454.69 C 425.455,454.69 430.918,743.344 433.628,804.698 C 418.878,816.443 414.003,813.732 397.005,827.684 C 379.143,815.455 379.962,816.484 364.561,806.84"
   style="fill:#ff6600"
   id="path25" />
<line
   fill="none"
   stroke="#FFFFFF"
   stroke-width="22.3332"
   stroke-miterlimit="3.864"
   x1="349.496"
   y1="387.39001"
   x2="461.129"
   y2="387.39001"
   id="line27"
   style="fill:none;stroke:#ffffff;stroke-width:22.33320045;stroke-miterlimit:3.86400008" />
<line
   fill="none"
   stroke="#FFFFFF"
   stroke-width="14.2003"
   stroke-miterlimit="3.864"
   x1="366.242"
   y1="461.60199"
   x2="443.647"
   y2="461.60199"
   id="line29"
   style="fill:none;stroke:#ffffff;stroke-width:14.20030022;stroke-miterlimit:3.86400008" />
</svg>